<svg width="601" height="515" viewBox="0 0 601 515" fill="none" xmlns="http://www.w3.org/2000/svg">
<g clip-path="url(#clip0_2005_24399)">
<path d="M311.536 432.535L329.137 427.35L324.002 445.001L329.137 462.602L311.536 457.466L293.885 462.602L299.071 445.001L293.885 427.35L311.536 432.535Z" fill="black" stroke="white" stroke-miterlimit="10"/>
</g>
<g clip-path="url(#clip1_2005_24399)">
<path d="M125.485 345.51L156.961 362.66L125.485 379.947L108.266 411.354L91.0473 379.947L59.5713 362.66L91.0473 345.51L108.266 313.965L125.485 345.51Z" fill="black" stroke="white" stroke-miterlimit="10"/>
</g>
<path d="M346.123 201.187C414.562 238.937 473.296 278.935 512.928 313.077C532.748 330.151 547.77 345.742 556.844 358.842C561.381 365.393 564.414 371.297 565.826 376.433C567.237 381.568 567.017 385.89 565.117 389.333C563.218 392.777 559.68 395.268 554.584 396.813C549.487 398.359 542.875 398.943 534.914 398.6C518.993 397.913 497.791 393.524 472.777 385.868C422.757 370.558 357.595 342.216 289.156 304.465C220.716 266.715 161.982 226.717 122.35 192.575C102.531 175.501 87.5086 159.91 78.435 146.81C73.8976 140.259 70.864 134.355 69.4522 129.218C68.0411 124.084 68.2606 119.763 70.16 116.319C72.0596 112.875 75.5981 110.384 80.6935 108.839C85.7912 107.293 92.4039 106.709 100.365 107.052C116.286 107.739 137.487 112.128 162.5 119.784C212.521 135.094 277.684 163.436 346.123 201.187Z" stroke="black"/>
<path d="M325.893 237.861C394.332 275.611 453.065 315.609 492.698 349.751C512.517 366.825 527.54 382.416 536.613 395.516C541.151 402.066 544.183 407.971 545.595 413.107C547.006 418.241 546.787 422.563 544.887 426.007C542.987 429.451 539.449 431.942 534.354 433.487C529.256 435.033 522.644 435.617 514.683 435.274C498.763 434.587 477.561 430.198 452.547 422.542C402.527 407.232 337.364 378.89 268.925 341.139C200.486 303.389 141.752 263.391 102.119 229.249C82.3002 212.175 67.2781 196.584 58.2045 183.484C53.6671 176.933 50.6336 171.029 49.2217 165.892C47.8106 160.758 48.0302 156.437 49.9295 152.993C51.8291 149.549 55.3676 147.057 60.463 145.512C65.5608 143.966 72.1735 143.383 80.1347 143.726C96.0551 144.413 117.256 148.802 142.27 156.458C192.29 171.768 257.453 200.11 325.893 237.861Z" stroke="black"/>
<path d="M305.664 274.534C374.103 312.285 432.837 352.283 472.469 386.425C492.289 403.498 507.311 419.09 516.385 432.19C520.922 438.74 523.955 444.645 525.367 449.781C526.778 454.915 526.558 459.237 524.658 462.681C522.759 466.125 519.221 468.616 514.125 470.161C509.028 471.707 502.416 472.291 494.455 471.948C478.534 471.261 457.332 466.871 432.318 459.215C382.298 443.906 317.136 415.564 248.697 377.813C180.257 340.062 121.523 300.065 81.8907 265.922C62.0717 248.849 47.0496 233.257 37.976 220.158C33.4386 213.607 30.405 207.702 28.9932 202.566C27.5821 197.432 27.8017 193.11 29.701 189.667C31.6006 186.223 35.1391 183.731 40.2345 182.186C45.3322 180.64 51.9449 180.056 59.9062 180.4C75.8266 181.087 97.0278 185.476 122.042 193.132C172.062 208.441 237.225 236.784 305.664 274.534Z" stroke="black"/>
<circle cx="132.038" cy="104.5" r="15.5" fill="#65C098"/>
<circle cx="421.538" cy="435" r="10" fill="#65C098"/>
<circle cx="82.0376" cy="64.5" r="23.5" fill="black"/>
<path d="M306.51 383.591C300.206 385.745 293.001 381.476 290.495 374.072L251.497 259.811L274.285 252.016L313.323 366.434C315.829 373.759 312.775 381.437 306.51 383.591Z" fill="black"/>
<path d="M303.103 385.001C301.262 385.001 299.383 384.57 297.582 383.67C293.94 381.868 291.043 378.499 289.633 374.347L250.635 260.085C250.478 259.654 250.713 259.145 251.183 258.988L273.971 251.193C274.206 251.115 274.441 251.115 274.637 251.232C274.833 251.35 274.989 251.507 275.068 251.742L314.105 366.16C316.729 373.916 313.44 382.103 306.744 384.414C305.609 384.806 304.356 385.001 303.103 385.001ZM252.593 260.359L291.317 373.798C292.57 377.52 295.154 380.575 298.365 382.142C300.949 383.395 303.729 383.63 306.235 382.769C312.03 380.771 314.849 373.563 312.5 366.709L273.736 253.113L252.593 260.359Z" fill="black"/>
<path d="M270.251 153.383L196.522 205.989L167.821 235.798L156.544 255.737L156.505 255.893C154.273 259.34 155.566 267.292 159.755 275.4C163.866 283.391 169.661 288.954 173.734 289.267L173.616 289.345L195.269 291.695L235.795 285.232L321.819 254.444L428.752 272.776L429.496 272.815C402.635 267.801 366.377 231.881 340.026 181.077C313.714 130.311 305.334 80.133 316.885 55.377H316.846L270.839 152.129L270.251 153.383Z" fill="#65C098"/>
<path d="M447.267 270.602C473.694 256.872 468.584 194.628 435.853 131.576C403.121 68.5242 355.164 28.5407 328.736 42.2706C302.309 56.0006 307.419 118.245 340.15 181.297C372.882 244.349 420.839 284.332 447.267 270.602Z" fill="white"/>
<path d="M435.644 274.185C424.132 274.185 410.271 267.761 395.353 255.266C375.031 238.266 355.101 212.06 339.243 181.428C315.241 135.05 305.335 87.4964 314.027 60.2726C316.925 51.1849 321.78 44.8392 328.397 41.4313C341.554 34.6939 360.074 40.4129 380.591 57.5698C400.913 74.57 420.843 100.775 436.701 131.407C460.742 177.786 470.648 225.339 461.917 252.563C459.019 261.651 454.164 267.996 447.547 271.404C443.984 273.284 439.99 274.185 435.644 274.185ZM340.379 40.4129C336.346 40.4129 332.587 41.2355 329.22 42.9982C322.994 46.171 318.452 52.2033 315.711 60.8601C307.136 87.6922 317.003 134.737 340.81 180.723C373.23 243.279 420.765 283.312 446.803 269.955C453.028 266.782 457.57 260.75 460.311 252.093C468.886 225.261 459.019 178.216 435.213 132.23C406.982 77.782 367.357 40.4129 340.379 40.4129Z" fill="black"/>
<path d="M435.644 274.186C424.132 274.186 410.271 267.762 395.353 255.266C375.031 238.266 355.101 212.061 339.243 181.429C315.241 135.05 305.335 87.4968 314.027 60.273C316.925 51.1853 321.78 44.8396 328.397 41.4317C337.207 36.8879 348.719 38.0238 361.679 44.6829C374.092 51.0678 387.522 62.3882 400.6 77.3907C400.913 77.7432 400.874 78.2916 400.521 78.605C400.169 78.9184 399.621 78.8792 399.307 78.5266C372.76 48.0516 345.9 34.4201 329.22 42.9986C322.994 46.1714 318.452 52.2037 315.711 60.8605C307.136 87.6927 317.003 134.737 340.81 180.724C369.001 235.132 408.666 272.541 435.604 272.541C439.637 272.541 443.396 271.718 446.764 269.955C452.989 266.782 457.531 260.75 460.272 252.093C468.847 225.261 458.98 178.217 435.174 132.23C428.087 118.52 420.099 105.633 411.524 93.9208C411.25 93.5291 411.328 92.9807 411.72 92.7065C412.111 92.4323 412.659 92.5107 412.934 92.9024C421.587 104.693 429.575 117.658 436.74 131.447C460.742 177.786 470.648 225.339 461.917 252.563C459.019 261.651 454.164 267.997 447.547 271.405C443.984 273.285 439.99 274.186 435.644 274.186Z" fill="black"/>
<path d="M387.304 190.34C393.426 187.16 392.249 172.752 384.674 158.16C377.099 143.568 365.995 134.318 359.873 137.499C353.751 140.679 354.928 155.087 362.503 169.679C370.078 184.27 381.182 193.521 387.304 190.34Z" fill="#65C098"/>
<path d="M384.624 191.848C377.89 191.848 368.493 183.152 361.719 170.03C356.08 159.141 353.77 147.938 355.845 141.474C356.589 139.203 357.803 137.597 359.487 136.735C366.143 133.327 377.537 142.61 385.447 157.848C391.085 168.737 393.395 179.94 391.32 186.404C390.576 188.676 389.362 190.282 387.679 191.143C386.739 191.613 385.721 191.848 384.624 191.848ZM362.541 137.714C361.719 137.714 360.936 137.871 360.27 138.223C358.978 138.889 358.038 140.143 357.451 141.984C355.532 148.016 357.764 158.749 363.207 169.247C370.411 183.152 381.257 192.514 386.856 189.616C388.148 188.95 389.088 187.696 389.676 185.855C391.594 179.784 389.323 169.09 383.92 158.592C377.577 146.41 368.493 137.714 362.541 137.714Z" fill="#65C098"/>
<path d="M429.692 259.575C419.59 259.575 407.452 253.934 394.374 243.005C376.598 228.12 359.135 205.166 345.274 178.373C324.247 137.792 315.594 96.1535 323.19 72.2983C325.735 64.3074 330.003 58.7452 335.837 55.729C349.228 48.8741 368.923 56.7866 389.911 77.4297C390.263 77.7823 390.263 78.2915 389.911 78.644C389.558 78.9966 389.049 78.9966 388.697 78.644C368.258 58.5493 349.267 50.7151 336.62 57.2567C331.217 60.0378 327.262 65.2475 324.835 72.8075C317.356 96.2318 325.97 137.361 346.801 177.59C371.429 225.183 406.082 257.851 429.653 257.851C433.177 257.851 436.427 257.107 439.403 255.619C444.806 252.837 448.761 247.628 451.188 240.068C458.667 216.643 450.053 175.514 429.222 135.285C422.918 123.142 415.87 111.744 408.274 101.442C408 101.05 408.079 100.501 408.47 100.227C408.862 99.953 409.41 100.031 409.684 100.423C417.358 110.843 424.445 122.281 430.789 134.502C451.815 175.083 460.468 216.722 452.872 240.577C450.327 248.568 446.059 254.13 440.225 257.146C437.014 258.752 433.49 259.575 429.692 259.575Z" fill="black"/>
<path d="M195.309 292.518C195.27 292.518 195.231 292.518 195.231 292.518L173.578 290.168C173.46 290.168 173.343 290.129 173.225 290.051C168.762 289.345 163.123 283.705 159.012 275.792C154.627 267.449 153.334 259.301 155.723 255.463L155.762 255.345L167.039 235.368C167.078 235.29 167.117 235.25 167.156 235.211L195.857 205.402C195.896 205.363 195.935 205.324 195.974 205.285L269.508 152.795L316.024 54.9855C316.142 54.7896 316.299 54.6329 316.533 54.5546C316.768 54.4763 317.003 54.4763 317.199 54.5938C317.63 54.7896 317.826 55.2988 317.63 55.7297C305.844 80.995 315.163 131.212 340.771 180.646C366.417 230.158 402.166 266.822 429.692 271.875C430.123 271.954 430.436 272.345 430.397 272.815C430.358 273.246 429.966 273.56 429.535 273.599L428.792 273.56C428.752 273.56 428.713 273.56 428.674 273.56L321.937 255.267L236.109 285.977C236.069 285.977 235.991 286.016 235.952 286.016L195.426 292.479C195.387 292.518 195.348 292.518 195.309 292.518ZM174.204 288.523L195.309 290.795L235.639 284.332L321.624 253.582C321.78 253.543 321.898 253.504 322.054 253.543L418.141 269.995C392.181 258.596 361.836 224.948 339.322 181.469C316.964 138.302 306.98 94.4698 312.461 66.7759L271.035 153.736C270.957 153.853 270.878 153.971 270.761 154.049L197.11 206.656L168.527 236.308L157.25 256.285C157.25 256.324 157.211 256.363 157.211 256.363C155.175 259.536 156.545 267.371 160.5 275.009C164.376 282.491 169.975 288.131 173.813 288.405C173.969 288.405 174.087 288.445 174.204 288.523Z" fill="black"/>
<path d="M270.368 153.069L316.845 55.3379H316.884C305.333 80.094 313.752 130.272 340.025 181.038C366.377 231.882 402.634 267.801 429.573 272.737L428.829 272.698L322.053 254.405L319.586 253.974C307.174 251.78 290.611 235.642 278.747 212.609C266.57 188.989 264.416 165.448 269.82 154.245L270.368 153.069Z" fill="white"/>
<path d="M429.573 273.599C429.534 273.599 429.573 273.599 429.573 273.599L428.79 273.559C428.751 273.559 428.712 273.559 428.673 273.559L321.896 255.267L319.43 254.836C306.313 252.525 289.672 235.72 277.964 213.04C264.691 187.266 264.025 164.312 269.037 153.892L269.624 152.717L316.102 55.0245C316.219 54.8287 316.376 54.672 316.611 54.5937C316.845 54.5153 317.08 54.5153 317.276 54.6328C317.707 54.8287 317.903 55.3379 317.707 55.7688C305.921 81.0341 315.24 131.251 340.848 180.685C366.494 230.197 402.243 266.861 429.769 271.914C430.2 271.993 430.513 272.384 430.474 272.854C430.356 273.246 430.004 273.599 429.573 273.599ZM312.382 66.7758L271.151 153.461L270.564 154.636C265.591 164.977 267.04 188.088 279.491 212.218C290.964 234.467 307.135 250.919 319.743 253.112L322.21 253.543L418.101 269.995C392.141 258.596 361.796 224.948 339.281 181.468C316.924 138.302 306.939 94.4697 312.382 66.7758Z" fill="black"/>
<path d="M194.134 292.401C194.095 292.401 194.055 292.401 194.055 292.401L173.538 290.207C173.421 290.207 173.303 290.168 173.186 290.09C168.722 289.385 163.084 283.744 158.972 275.832C154.626 267.449 153.334 259.301 155.722 255.463L155.762 255.345L167.038 235.368C167.273 234.937 167.782 234.82 168.213 235.055C168.644 235.29 168.761 235.799 168.526 236.23L157.249 256.285C157.249 256.324 157.21 256.364 157.21 256.364C155.174 259.536 156.545 267.371 160.499 275.009C164.376 282.491 169.975 288.131 173.812 288.405C173.93 288.405 174.086 288.445 174.165 288.523L194.212 290.677C194.682 290.717 195.034 291.147 194.956 291.617C194.917 292.048 194.564 292.401 194.134 292.401Z" fill="black"/>
<path d="M195.504 291.538C188.847 291.068 179.529 281.628 172.755 268.584C165.589 254.757 163.906 240.459 168.291 235.367L156.584 255.736L156.505 255.893C154.273 259.34 155.566 267.292 159.755 275.4C163.866 283.391 169.661 288.953 173.734 289.266L173.616 289.345L195.504 291.538Z" fill="white"/>
<path d="M195.504 292.4C195.465 292.4 195.465 292.4 195.426 292.4C195.269 292.4 195.073 292.361 194.917 292.361L173.538 290.206C173.421 290.206 173.303 290.167 173.186 290.089C168.722 289.384 163.084 283.743 158.972 275.831C154.626 267.448 153.334 259.301 155.722 255.462L155.762 255.344L166.059 237.404C166.451 236.386 166.96 235.485 167.586 234.74C167.861 234.388 168.37 234.349 168.722 234.584C169.074 234.858 169.192 235.328 168.957 235.72L167.508 238.187C165.198 244.416 167.469 256.637 173.421 268.075C179.881 280.57 188.691 289.697 194.995 290.52L195.465 290.559C195.935 290.598 196.287 291.029 196.248 291.499C196.287 292.048 195.935 292.4 195.504 292.4ZM174.165 288.522L189.122 290.05C183.366 286.368 177.023 278.769 171.972 268.976C167.077 259.536 164.65 249.743 165.041 242.692L157.249 256.284C157.249 256.324 157.21 256.363 157.21 256.363C155.174 259.536 156.545 267.37 160.499 275.008C164.376 282.49 169.975 288.13 173.812 288.405C173.93 288.405 174.086 288.444 174.165 288.522Z" fill="black"/>
<path d="M234.345 285.39L236.068 285.037C226.749 286.996 212.027 272.894 201.651 252.878C191.04 232.431 189.043 212.023 196.561 205.99L195.582 206.97L168.369 235.251C163.905 240.265 165.55 254.641 172.754 268.546C179.685 281.943 189.513 291.5 196.208 291.461L234.345 285.39Z" fill="black"/>
<path d="M196.17 292.362C189.044 292.362 179.137 282.765 171.972 268.977C164.689 254.875 162.849 240.147 167.704 234.702L194.408 206.969C194.878 206.342 195.426 205.794 196.013 205.324C196.366 205.05 196.875 205.089 197.188 205.402C197.501 205.755 197.501 206.264 197.188 206.577L195.661 208.183C190.218 215.469 192.92 234.115 202.435 252.486C212.693 272.306 227.024 285.899 235.795 284.254L235.912 284.214C236.382 284.136 236.813 284.41 236.931 284.88C237.009 285.35 236.735 285.781 236.265 285.899C236.226 285.899 236.187 285.899 236.147 285.938L234.542 286.251H234.503L196.366 292.323C196.287 292.323 196.209 292.362 196.17 292.362ZM192.137 211.826L168.996 235.877C164.689 240.735 166.647 254.914 173.538 268.193C180.273 281.198 189.788 290.599 196.17 290.638L229.843 285.272C220.759 282.06 209.561 269.956 200.908 253.308C192.685 237.444 189.514 221.306 192.137 211.826Z" fill="black"/>
<path d="M359.879 137.479C353.731 140.612 354.632 155.145 362.463 169.638C375.58 193.885 386.034 191.025 387.248 190.594C387.287 190.594 387.287 190.634 387.248 190.634L364.734 208.77C358.117 199.486 351.813 189.145 346.018 177.981C340.497 167.288 335.837 156.633 332.157 146.292L359.879 137.479Z" fill="black"/>
<path d="M364.734 209.632C364.695 209.632 364.655 209.632 364.616 209.632C364.381 209.593 364.186 209.475 364.029 209.279C357.255 199.761 350.951 189.341 345.274 178.413C339.831 167.915 335.132 157.221 331.373 146.645C331.295 146.41 331.295 146.175 331.413 145.979C331.53 145.783 331.687 145.627 331.922 145.548L359.643 136.735C360.074 136.617 360.544 136.813 360.701 137.244C360.857 137.675 360.701 138.145 360.309 138.341C358.978 139.007 357.999 140.338 357.412 142.297C355.493 148.447 357.842 159.336 363.285 169.325C376.089 192.984 385.956 190.281 387.013 189.89C387.405 189.733 387.874 189.929 388.07 190.281C388.266 190.634 388.188 191.143 387.874 191.417L365.282 209.436C365.125 209.554 364.929 209.632 364.734 209.632ZM333.292 146.841C337.012 157.065 341.554 167.406 346.801 177.59C352.282 188.166 358.391 198.233 364.929 207.517L384.468 191.77C380.004 191.574 371.586 188.245 361.719 170.03C356.002 159.493 353.653 148.369 355.728 141.67C356.002 140.809 356.315 140.064 356.707 139.359L333.292 146.841Z" fill="black"/>
<path d="M475.724 81.5964C493.624 72.1927 500.547 50.1149 491.188 32.2842C481.828 14.4535 459.729 7.62214 441.829 17.0258C423.929 26.4295 417.006 48.5073 426.366 66.338C435.725 84.1687 457.824 91.0001 475.724 81.5964Z" fill="black"/>
<path d="M442.105 41.2337C443.828 38.8835 446.373 37.4342 449.27 37.1208C451.463 36.8858 453.499 37.3558 455.418 38.5309C456.396 39.1185 457.258 39.8628 458.08 40.7637C458.667 39.7061 459.372 38.766 460.194 37.9826C461.8 36.4157 463.718 35.5148 465.872 35.2798C468.769 34.9664 471.589 35.8281 473.781 37.7475C475.935 39.6277 477.305 42.3697 477.658 45.4642C478.01 48.6371 477.149 51.6924 474.956 55.0611C472.998 58.0773 470.022 61.2109 466.577 64.893C465.402 66.1465 464.071 67.5566 462.7 69.0451C462.348 69.4368 461.839 69.711 461.291 69.7502C460.743 69.8286 460.234 69.6719 459.764 69.3585C458.08 68.1834 456.475 67.0866 455.065 66.1465C450.915 63.3262 447.312 60.8976 444.728 58.3906C441.831 55.6095 440.343 52.7892 439.99 49.6163C439.677 46.5218 440.421 43.5448 442.105 41.2337Z" fill="white"/>
<path d="M577.273 83.5925C590.377 70.4829 590.377 49.2281 577.273 36.1185C564.168 23.0089 542.922 23.0089 529.818 36.1185C516.713 49.228 516.713 70.4829 529.818 83.5925C542.922 96.7021 564.168 96.7021 577.273 83.5925Z" fill="#65C098"/>
<path d="M553.539 94.2727C534.588 94.2727 519.122 78.8394 519.122 59.8414C519.122 40.8827 534.549 25.4102 553.539 25.4102C572.529 25.4102 587.957 40.8435 587.957 59.8414C587.957 78.8002 572.529 94.2727 553.539 94.2727ZM553.539 27.1337C535.528 27.1337 520.844 41.7836 520.844 59.8414C520.844 77.8601 535.488 92.5492 553.539 92.5492C571.55 92.5492 586.234 77.8993 586.234 59.8414C586.234 41.8228 571.59 27.1337 553.539 27.1337Z" fill="#65C098"/>
<path d="M562.623 63.1703C560.743 63.1703 559.099 64.0713 558.002 65.4814L546.686 61.0551C546.686 60.8984 546.726 60.7809 546.726 60.6242C546.726 60.35 546.686 60.0758 546.647 59.8016L558.237 54.4352C559.294 55.6495 560.861 56.4329 562.623 56.4721C565.833 56.4721 568.496 53.8476 568.496 50.5965C568.496 47.3453 565.872 44.6816 562.623 44.6816C559.412 44.6816 556.749 47.3061 556.749 50.5573C556.749 50.8315 556.788 51.1057 556.828 51.3799L545.238 56.7463C544.18 55.532 542.614 54.7486 540.852 54.7094C537.642 54.7094 534.979 57.3339 534.979 60.5851C534.979 63.8363 537.602 66.4999 540.852 66.4999C542.732 66.4999 544.376 65.5989 545.473 64.1888L556.789 68.6151C556.789 68.7718 556.749 68.8893 556.749 69.046C556.749 72.2972 559.373 74.9608 562.623 74.9608C565.833 74.9608 568.496 72.3364 568.496 69.0852C568.457 65.834 565.833 63.2095 562.623 63.1703Z" fill="black"/>
<path d="M563.067 189.993C578.434 179.322 582.294 158.283 571.69 142.999C561.086 127.715 540.032 123.975 524.666 134.645C509.299 145.315 505.439 166.355 516.043 181.639C526.647 196.923 547.701 200.663 563.067 189.993Z" fill="black"/>
<path d="M535.412 178.373L530.478 151.62C530.243 150.249 531.496 149.113 532.828 149.465L561.998 157.73C563.486 158.161 563.839 160.081 562.625 161.021L538.348 179.509C537.291 180.371 535.686 179.784 535.412 178.373Z" fill="white"/>
<path d="M543.536 299.581C562.512 290.339 570.453 267.552 561.271 248.685C552.09 229.818 529.264 222.015 510.288 231.257C491.312 240.498 483.371 263.285 492.552 282.152C501.734 301.019 524.56 308.822 543.536 299.581Z" fill="#65C098"/>
<path d="M526.718 304.346C522.646 304.346 518.496 303.719 514.463 302.348C504.596 299.058 496.608 292.164 491.988 282.841C487.367 273.558 486.662 263.021 489.991 253.15C496.882 232.82 519.044 221.734 539.444 228.511C549.311 231.801 557.298 238.695 561.919 248.018C566.539 257.302 567.244 267.839 563.916 277.71C558.356 294.005 543.046 304.346 526.718 304.346ZM527.11 228.276C511.487 228.276 496.843 238.147 491.557 253.737C488.385 263.177 489.051 273.244 493.475 282.097C497.9 290.989 505.535 297.609 514.972 300.742C534.471 307.205 555.654 296.629 562.232 277.201C565.404 267.76 564.738 257.693 560.313 248.841C555.889 239.949 548.254 233.329 538.817 230.195C534.941 228.864 530.986 228.276 527.11 228.276Z" fill="black"/>
<path d="M546.376 259.26C545.984 268.778 529.891 291.028 526.054 296.237C525.662 296.786 524.84 296.746 524.488 296.159C522.06 292.242 514.033 279.08 509.844 268.426C508.16 264.195 507.103 260.357 507.22 257.654C507.651 246.843 516.774 238.421 527.581 238.852C538.388 239.361 546.806 248.449 546.376 259.26Z" fill="black"/>
<path d="M533.131 264.825C536.632 261.322 536.632 255.643 533.131 252.14C529.629 248.637 523.952 248.637 520.45 252.14C516.948 255.643 516.948 261.322 520.45 264.825C523.952 268.328 529.629 268.328 533.131 264.825Z" fill="#65C098"/>
<defs>
<clipPath id="clip0_2005_24399">
<rect width="36" height="36" fill="white" transform="translate(293.538 427)"/>
</clipPath>
<clipPath id="clip1_2005_24399">
<rect width="70.3259" height="70.3259" fill="white" transform="translate(108.266 313) rotate(45)"/>
</clipPath>
</defs>
</svg>
