<svg width="547" height="450" viewBox="0 0 547 450" fill="none" xmlns="http://www.w3.org/2000/svg">
<g clip-path="url(#clip0_2040_4426)">
<path d="M135.46 66.3953L47.1669 57.2377C43.7647 56.8849 40.3264 57.2506 37.0746 58.3109C33.8227 59.3713 30.8298 61.1027 28.2895 63.3931C25.7492 65.6836 23.7182 68.4819 22.328 71.607C20.9378 74.7321 20.2194 78.1144 20.2192 81.5347V424.428C20.2179 427.949 20.9781 431.429 22.4479 434.629C23.9176 437.828 26.062 440.672 28.734 442.966C31.406 445.259 34.5425 446.947 37.9282 447.914C41.3138 448.882 44.8687 449.105 48.3489 448.57L138.648 434.696C144.414 433.809 149.672 430.886 153.469 426.458C157.267 422.03 159.354 416.388 159.351 410.554V92.9609C159.369 86.3596 156.934 79.987 152.52 75.0787C148.106 70.1703 142.026 67.0759 135.46 66.3953Z" fill="#283965"/>
<path d="M148.211 66.3953L59.9179 57.2377C56.5157 56.8849 53.0774 57.2506 49.8256 58.3109C46.5737 59.3713 43.5807 61.1027 41.0405 63.3931C38.5002 65.6836 36.4692 68.4819 35.079 71.607C33.6888 74.7321 32.9704 78.1144 32.9702 81.5347V424.428C32.9689 427.949 33.7291 431.429 35.1988 434.629C36.6686 437.828 38.813 440.672 41.485 442.966C44.157 445.259 47.2934 446.947 50.6791 447.914C54.0648 448.882 57.6197 449.105 61.0999 448.57L151.387 434.696C157.155 433.811 162.416 430.89 166.216 426.461C170.016 422.033 172.104 416.39 172.102 410.554V92.9609C172.12 86.3596 169.685 79.987 165.271 75.0787C160.857 70.1703 154.777 67.0759 148.211 66.3953Z" fill="#EFD82E"/>
<path d="M148.211 66.3953L59.9179 57.2377C56.5157 56.8849 53.0774 57.2506 49.8256 58.3109C46.5737 59.3713 43.5807 61.1027 41.0405 63.3931C38.5002 65.6836 36.4692 68.4819 35.079 71.607C33.6888 74.7321 32.9704 78.1144 32.9702 81.5347V424.428C32.9689 427.949 33.7291 431.429 35.1988 434.629C36.6686 437.828 38.813 440.672 41.485 442.966C44.157 445.259 47.2934 446.947 50.6791 447.914C54.0648 448.882 57.6197 449.105 61.0999 448.57L151.387 434.696C157.155 433.811 162.416 430.89 166.216 426.461C170.016 422.033 172.104 416.39 172.102 410.554V92.9609C172.12 86.3596 169.685 79.987 165.271 75.0787C160.857 70.1703 154.777 67.0759 148.211 66.3953Z" fill="#2B2B2B"/>
<path d="M57.3512 61.5488C58.0531 61.5486 58.7544 61.5845 59.4526 61.6563L147.806 70.814C153.271 71.3734 158.334 73.9432 162.011 78.0246C165.689 82.1061 167.72 87.4082 167.709 92.9022V372.289C167.72 377.063 166.011 381.682 162.896 385.299C159.78 388.917 155.466 391.292 150.743 391.989L60.4316 405.863C59.4083 406.019 58.3746 406.099 57.3393 406.102C52.0467 406.086 46.9765 403.971 43.2408 400.222C39.5051 396.473 37.4089 391.395 37.4121 386.103V81.5357C37.4121 76.2431 39.5113 71.1666 43.2492 67.4197C46.9872 63.6728 52.0587 61.5615 57.3512 61.5488Z" fill="#6B6B6B"/>
<path d="M86.5196 78.8737L123.377 81.9541C123.974 81.9541 124.44 81.19 124.44 80.1871C124.44 79.1722 123.974 78.3006 123.377 78.2409L86.5196 74.9575C84.8481 74.7784 83.4512 74.9575 83.4512 76.6768C83.4512 78.42 84.8481 78.8021 86.5196 78.8737Z" fill="#403837"/>
<path d="M126.792 82.1075C127.317 82.1075 127.735 81.3911 127.735 80.4359C127.735 79.4927 127.317 78.6808 126.792 78.6211C126.255 78.6211 125.813 79.3017 125.813 80.2926C125.813 81.2717 126.255 82.0836 126.792 82.1075Z" fill="#403837"/>
<path d="M25.7474 120.984H26.1772C27.6939 120.984 28.9233 119.755 28.9233 118.238L28.9233 98.5618C28.9233 97.0452 27.6939 95.8157 26.1772 95.8157H25.7474C24.2308 95.8157 23.0013 97.0452 23.0013 98.5618L23.0013 118.238C23.0013 119.755 24.2308 120.984 25.7474 120.984Z" fill="#403837"/>
<path d="M111.139 432.501C118.617 432.501 124.679 426.439 124.679 418.961C124.679 411.484 118.617 405.422 111.139 405.422C103.661 405.422 97.5996 411.484 97.5996 418.961C97.5996 426.439 103.661 432.501 111.139 432.501Z" fill="#403837"/>
<path d="M424.428 48L366.425 58.0054L383.762 74.9715L283.708 167.79L149.865 142.263L37 269.527L56.8794 282.935L160.909 168.781L291.122 193.615L400.919 91.7705L413.431 104.009L424.428 48Z" fill="#283965"/>
<path d="M119.413 248.607H71.1529C70.4935 248.607 69.959 249.142 69.959 249.801V257.849C69.959 258.508 70.4935 259.043 71.1529 259.043H119.413C120.072 259.043 120.607 258.508 120.607 257.849V249.801C120.607 249.142 120.072 248.607 119.413 248.607Z" fill="#FFBF31"/>
<path d="M119.449 257.643H71.1173C70.8006 257.643 70.497 257.517 70.273 257.293C70.0491 257.07 69.9233 256.766 69.9233 256.449V257.894C69.9233 258.211 70.0491 258.514 70.273 258.738C70.497 258.962 70.8006 259.088 71.1173 259.088H119.449C119.765 259.088 120.069 258.962 120.293 258.738C120.517 258.514 120.643 258.211 120.643 257.894V256.473C120.636 256.786 120.508 257.083 120.285 257.302C120.061 257.521 119.761 257.643 119.449 257.643Z" fill="#F9B121"/>
<path d="M119.413 258.947H71.1529C70.4935 258.947 69.959 259.482 69.959 260.141V268.188C69.959 268.848 70.4935 269.382 71.1529 269.382H119.413C120.072 269.382 120.607 268.848 120.607 268.188V260.141C120.607 259.482 120.072 258.947 119.413 258.947Z" fill="#FFBF31"/>
<path d="M119.449 267.983H71.1173C70.8006 267.983 70.497 267.857 70.273 267.633C70.0491 267.409 69.9233 267.106 69.9233 266.789V268.21C69.9233 268.527 70.0491 268.83 70.273 269.054C70.497 269.278 70.8006 269.404 71.1173 269.404H119.449C119.765 269.404 120.069 269.278 120.293 269.054C120.517 268.83 120.643 268.527 120.643 268.21V266.789C120.643 267.106 120.517 267.409 120.293 267.633C120.069 267.857 119.765 267.983 119.449 267.983Z" fill="#F9B121"/>
<path d="M118.482 269.273H70.2218C69.5624 269.273 69.0278 269.808 69.0278 270.467V278.515C69.0278 279.174 69.5624 279.709 70.2218 279.709H118.482C119.141 279.709 119.676 279.174 119.676 278.515V270.467C119.676 269.808 119.141 269.273 118.482 269.273Z" fill="#FFBF31"/>
<path d="M118.505 278.323H70.1857C69.869 278.323 69.5653 278.197 69.3414 277.973C69.1175 277.749 68.9917 277.446 68.9917 277.129V278.538C68.9917 278.854 69.1175 279.158 69.3414 279.382C69.5653 279.606 69.869 279.732 70.1857 279.732H118.505C118.822 279.732 119.126 279.606 119.349 279.382C119.573 279.158 119.699 278.854 119.699 278.538V277.129C119.699 277.446 119.573 277.749 119.349 277.973C119.126 278.197 118.822 278.323 118.505 278.323Z" fill="#F9B121"/>
<path d="M119.413 279.613H71.1529C70.4935 279.613 69.959 280.148 69.959 280.807V288.855C69.959 289.514 70.4935 290.048 71.1529 290.048H119.413C120.072 290.048 120.607 289.514 120.607 288.855V280.807C120.607 280.148 120.072 279.613 119.413 279.613Z" fill="#FFBF31"/>
<path d="M119.449 288.651H71.1173C70.8006 288.651 70.497 288.525 70.273 288.301C70.0491 288.077 69.9233 287.774 69.9233 287.457V288.938C69.9233 289.254 70.0491 289.558 70.273 289.782C70.497 290.006 70.8006 290.132 71.1173 290.132H119.449C119.765 290.132 120.069 290.006 120.293 289.782C120.517 289.558 120.643 289.254 120.643 288.938V287.517C120.627 287.823 120.495 288.112 120.273 288.323C120.05 288.534 119.755 288.651 119.449 288.651Z" fill="#F9B121"/>
<path d="M120.344 289.953H72.0846C71.4252 289.953 70.8906 290.488 70.8906 291.147V299.194C70.8906 299.854 71.4252 300.388 72.0846 300.388H120.344C121.004 300.388 121.538 299.854 121.538 299.194V291.147C121.538 290.488 121.004 289.953 120.344 289.953Z" fill="#FFBF31"/>
<path d="M120.392 298.991H72.0485C71.7318 298.991 71.4281 298.865 71.2042 298.641C70.9803 298.417 70.8545 298.114 70.8545 297.797V299.218C70.8545 299.534 70.9803 299.838 71.2042 300.062C71.4281 300.286 71.7318 300.412 72.0485 300.412H120.392C120.709 300.412 121.012 300.286 121.236 300.062C121.46 299.838 121.586 299.534 121.586 299.218V297.797C121.586 297.954 121.555 298.109 121.495 298.254C121.435 298.399 121.347 298.53 121.236 298.641C121.125 298.752 120.994 298.84 120.849 298.9C120.704 298.96 120.549 298.991 120.392 298.991Z" fill="#F9B121"/>
<path d="M119.413 300.293H71.1529C70.4935 300.293 69.959 300.828 69.959 301.487V309.534C69.959 310.194 70.4935 310.728 71.1529 310.728H119.413C120.072 310.728 120.607 310.194 120.607 309.534V301.487C120.607 300.828 120.072 300.293 119.413 300.293Z" fill="#FFBF31"/>
<path d="M119.449 309.331H71.1173C70.8006 309.331 70.497 309.205 70.273 308.981C70.0491 308.757 69.9233 308.453 69.9233 308.137V309.546C69.9233 309.862 70.0491 310.166 70.273 310.39C70.497 310.614 70.8006 310.74 71.1173 310.74H119.449C119.765 310.74 120.069 310.614 120.293 310.39C120.517 310.166 120.643 309.862 120.643 309.546V308.137C120.643 308.453 120.517 308.757 120.293 308.981C120.069 309.205 119.765 309.331 119.449 309.331Z" fill="#F9B121"/>
<path d="M119.413 310.621H71.1529C70.4935 310.621 69.959 311.156 69.959 311.815V319.862C69.959 320.522 70.4935 321.056 71.1529 321.056H119.413C120.072 321.056 120.607 320.522 120.607 319.862V311.815C120.607 311.156 120.072 310.621 119.413 310.621Z" fill="#FFBF31"/>
<path d="M119.449 319.659H71.1173C70.8006 319.659 70.497 319.533 70.273 319.309C70.0491 319.085 69.9233 318.782 69.9233 318.465V319.981C69.9233 320.298 70.0491 320.601 70.273 320.825C70.497 321.049 70.8006 321.175 71.1173 321.175H119.449C119.765 321.175 120.069 321.049 120.293 320.825C120.517 320.601 120.643 320.298 120.643 319.981V318.56C120.619 318.86 120.482 319.14 120.261 319.344C120.04 319.547 119.75 319.66 119.449 319.659Z" fill="#F9B121"/>
<path d="M159.542 297.822V290.873C159.542 290.626 159.444 290.39 159.269 290.215C159.094 290.04 158.858 289.942 158.611 289.942H158.073C158.232 289.867 158.366 289.748 158.461 289.601C158.556 289.453 158.608 289.282 158.611 289.106V288.939V287.53V280.582C158.611 280.331 158.511 280.091 158.334 279.915C158.157 279.738 157.918 279.638 157.667 279.638H157.142C157.3 279.563 157.433 279.445 157.526 279.297C157.619 279.149 157.668 278.977 157.667 278.803V278.6V277.191V270.242C157.667 269.995 157.569 269.758 157.395 269.583C157.22 269.409 156.983 269.311 156.736 269.311H107.951C107.704 269.311 107.467 269.409 107.292 269.583C107.118 269.758 107.02 269.995 107.02 270.242V277.191V278.6V278.803C107.018 278.926 107.041 279.048 107.087 279.163C107.133 279.277 107.201 279.381 107.288 279.469C107.375 279.557 107.478 279.626 107.592 279.674C107.706 279.721 107.828 279.746 107.951 279.746H108.464C108.313 279.825 108.185 279.943 108.095 280.088C108.005 280.232 107.955 280.399 107.951 280.57V287.518V288.939V289.142C107.951 289.266 107.975 289.388 108.023 289.501C108.07 289.615 108.14 289.718 108.228 289.805C108.316 289.892 108.42 289.96 108.534 290.006C108.648 290.052 108.771 290.075 108.894 290.073H109.025H109.109H109.396C109.245 290.149 109.118 290.265 109.03 290.408C108.941 290.552 108.894 290.717 108.894 290.885V297.834V299.255V299.458C108.895 299.633 108.944 299.803 109.037 299.951C109.13 300.099 109.262 300.218 109.419 300.294H108.954C108.831 300.292 108.708 300.315 108.594 300.361C108.479 300.407 108.375 300.476 108.288 300.562C108.2 300.649 108.13 300.752 108.083 300.866C108.035 300.98 108.011 301.102 108.011 301.225V308.174V309.583V309.786C108.016 309.988 108.086 310.183 108.211 310.342C108.336 310.501 108.508 310.616 108.703 310.669C108.506 310.719 108.332 310.833 108.206 310.993C108.081 311.153 108.012 311.35 108.011 311.553V318.502V319.911V320.113C108.011 320.364 108.11 320.604 108.287 320.78C108.464 320.957 108.704 321.057 108.954 321.057H157.667C157.918 321.057 158.157 320.957 158.334 320.78C158.511 320.604 158.611 320.364 158.611 320.113V319.911V318.502V311.553C158.609 311.35 158.54 311.153 158.415 310.993C158.29 310.833 158.115 310.719 157.918 310.669C158.113 310.616 158.285 310.501 158.41 310.342C158.535 310.183 158.605 309.988 158.611 309.786V309.583V308.162V301.213C158.608 301.044 158.559 300.878 158.468 300.735C158.378 300.592 158.249 300.476 158.097 300.401H158.384H158.479H158.611C158.858 300.401 159.094 300.303 159.269 300.128C159.444 299.954 159.542 299.717 159.542 299.47V299.267V297.822Z" fill="#403837"/>
<path d="M159.279 269.273H111.02C110.36 269.273 109.826 269.808 109.826 270.467V278.515C109.826 279.174 110.36 279.709 111.02 279.709H159.279C159.939 279.709 160.473 279.174 160.473 278.515V270.467C160.473 269.808 159.939 269.273 159.279 269.273Z" fill="#FFBF31"/>
<path d="M159.315 278.323H110.984C110.667 278.323 110.364 278.197 110.14 277.973C109.916 277.749 109.79 277.446 109.79 277.129V278.538C109.79 278.854 109.916 279.158 110.14 279.382C110.364 279.606 110.667 279.732 110.984 279.732H159.315C159.632 279.732 159.936 279.606 160.16 279.382C160.384 279.158 160.509 278.854 160.509 278.538V277.129C160.509 277.446 160.384 277.749 160.16 277.973C159.936 278.197 159.632 278.323 159.315 278.323Z" fill="#F9B121"/>
<path d="M160.21 279.613H111.95C111.291 279.613 110.756 280.148 110.756 280.807V288.855C110.756 289.514 111.291 290.048 111.95 290.048H160.21C160.87 290.048 161.404 289.514 161.404 288.855V280.807C161.404 280.148 160.87 279.613 160.21 279.613Z" fill="#FFBF31"/>
<path d="M160.294 288.651H111.915C111.598 288.651 111.295 288.525 111.071 288.301C110.847 288.077 110.721 287.774 110.721 287.457V288.938C110.721 289.254 110.847 289.558 111.071 289.782C111.295 290.006 111.598 290.132 111.915 290.132H160.294C160.611 290.132 160.915 290.006 161.139 289.782C161.363 289.558 161.488 289.254 161.488 288.938V287.517C161.473 287.823 161.34 288.112 161.118 288.323C160.896 288.534 160.601 288.651 160.294 288.651Z" fill="#F9B121"/>
<path d="M161.153 289.953H112.894C112.234 289.953 111.7 290.488 111.7 291.147V299.194C111.7 299.854 112.234 300.388 112.894 300.388H161.153C161.813 300.388 162.347 299.854 162.347 299.194V291.147C162.347 290.488 161.813 289.953 161.153 289.953Z" fill="#FFBF31"/>
<path d="M161.189 298.991H112.858C112.541 298.991 112.238 298.865 112.014 298.641C111.79 298.417 111.664 298.114 111.664 297.797V299.218C111.664 299.534 111.79 299.838 112.014 300.062C112.238 300.286 112.541 300.412 112.858 300.412H161.189C161.506 300.412 161.81 300.286 162.034 300.062C162.258 299.838 162.383 299.534 162.383 299.218V297.797C162.383 298.114 162.258 298.417 162.034 298.641C161.81 298.865 161.506 298.991 161.189 298.991Z" fill="#F9B121"/>
<path d="M160.21 300.293H111.95C111.291 300.293 110.756 300.828 110.756 301.487V309.534C110.756 310.194 111.291 310.728 111.95 310.728H160.21C160.87 310.728 161.404 310.194 161.404 309.534V301.487C161.404 300.828 160.87 300.293 160.21 300.293Z" fill="#FFBF31"/>
<path d="M160.294 309.331H111.915C111.598 309.331 111.295 309.205 111.071 308.981C110.847 308.757 110.721 308.453 110.721 308.137V309.546C110.721 309.862 110.847 310.166 111.071 310.39C111.295 310.614 111.598 310.74 111.915 310.74H160.294C160.611 310.74 160.915 310.614 161.139 310.39C161.363 310.166 161.488 309.862 161.488 309.546V308.137C161.488 308.453 161.363 308.757 161.139 308.981C160.915 309.205 160.611 309.331 160.294 309.331Z" fill="#F9B121"/>
<path d="M160.21 310.621H111.95C111.291 310.621 110.756 311.156 110.756 311.815V319.862C110.756 320.522 111.291 321.056 111.95 321.056H160.21C160.87 321.056 161.404 320.522 161.404 319.862V311.815C161.404 311.156 160.87 310.621 160.21 310.621Z" fill="#FFBF31"/>
<path d="M160.294 319.659H111.915C111.598 319.659 111.295 319.533 111.071 319.309C110.847 319.085 110.721 318.782 110.721 318.465V319.981C110.721 320.298 110.847 320.601 111.071 320.825C111.295 321.049 111.598 321.175 111.915 321.175H160.294C160.611 321.175 160.915 321.049 161.139 320.825C161.363 320.601 161.488 320.298 161.488 319.981V318.56C161.464 318.86 161.328 319.14 161.107 319.344C160.885 319.547 160.595 319.66 160.294 319.659Z" fill="#F9B121"/>
<path d="M71.4634 279.301C70.7054 279.302 69.9481 279.346 69.1949 279.432C68.4418 279.347 67.6844 279.303 66.9264 279.301C62.2329 279.302 57.6751 280.876 53.9811 283.771C50.2871 286.667 47.6702 290.716 46.5483 295.274C45.4265 299.831 45.8645 304.633 47.7924 308.913C49.7203 313.192 53.0268 316.702 57.1837 318.881V318.941C59.1177 320.009 61.2094 320.762 63.3803 321.173L63.5714 320.982C64.6804 321.165 65.8024 321.257 66.9264 321.257C67.6905 321.257 68.4427 321.257 69.1949 321.137C69.9471 321.018 70.6993 321.257 71.4634 321.257C74.2612 321.324 77.0441 320.83 79.6483 319.806C82.2526 318.781 84.6257 317.246 86.628 315.291C88.6303 313.336 90.2215 311 91.3078 308.421C92.3942 305.842 92.9538 303.072 92.9538 300.273C92.9538 297.474 92.3942 294.704 91.3078 292.125C90.2215 289.546 88.6303 287.21 86.628 285.255C84.6257 283.3 82.2526 281.765 79.6483 280.74C77.0441 279.716 74.2612 279.222 71.4634 279.289V279.301Z" fill="#403837"/>
<path d="M68.264 321.27C79.8497 321.27 89.2419 311.878 89.2419 300.292C89.2419 288.707 79.8497 279.314 68.264 279.314C56.6782 279.314 47.2861 288.707 47.2861 300.292C47.2861 311.878 56.6782 321.27 68.264 321.27Z" fill="#F9B121"/>
<path d="M63.7152 321.27C75.3009 321.27 84.693 311.878 84.693 300.292C84.693 288.707 75.3009 279.314 63.7152 279.314C52.1294 279.314 42.7373 288.707 42.7373 300.292C42.7373 311.878 52.1294 321.27 63.7152 321.27Z" fill="#FFBF31"/>
<path d="M63.7146 315.169C71.9308 315.169 78.5913 308.509 78.5913 300.293C78.5913 292.077 71.9308 285.416 63.7146 285.416C55.4984 285.416 48.8379 292.077 48.8379 300.293C48.8379 308.509 55.4984 315.169 63.7146 315.169Z" fill="#F9B121"/>
<path opacity="0.2" d="M79.3675 286.239L49.7095 315.897C47.3942 313.708 45.6061 311.022 44.48 308.041L71.6067 280.914C74.5624 282.081 77.2156 283.901 79.3675 286.239Z" fill="white"/>
<path opacity="0.2" d="M84.6566 296.71L60.1804 321.174C57.9844 320.766 55.8681 320.008 53.9121 318.929L82.4119 290.43C83.4915 292.389 84.2494 294.51 84.6566 296.71Z" fill="white"/>
<path d="M41.316 449.405C59.9376 449.405 75.0334 434.31 75.0334 415.688C75.0334 397.066 59.9376 381.971 41.316 381.971C22.6944 381.971 7.59863 397.066 7.59863 415.688C7.59863 434.31 22.6944 449.405 41.316 449.405Z" fill="#F9B121"/>
<path d="M34.0211 449.405C52.6427 449.405 67.7385 434.31 67.7385 415.688C67.7385 397.066 52.6427 381.971 34.0211 381.971C15.3995 381.971 0.303711 397.066 0.303711 415.688C0.303711 434.31 15.3995 449.405 34.0211 449.405Z" fill="#FFBF31"/>
<path d="M34.0212 439.593C47.2225 439.593 57.9243 428.891 57.9243 415.69C57.9243 402.489 47.2225 391.787 34.0212 391.787C20.8199 391.787 10.1182 402.489 10.1182 415.69C10.1182 428.891 20.8199 439.593 34.0212 439.593Z" fill="#F9B121"/>
<path opacity="0.2" d="M59.1542 393.112L11.5033 440.763C7.77343 437.279 4.87954 432.998 3.03809 428.238L46.6295 384.646C51.3892 386.488 55.6708 389.382 59.1542 393.112Z" fill="white"/>
<path opacity="0.2" d="M67.6546 409.946L28.3375 449.263C24.8101 448.624 21.4105 447.414 18.2725 445.681L64.0608 399.881C65.7963 403.019 67.0101 406.418 67.6546 409.946Z" fill="white"/>
<path d="M300.238 403.009V419.724L284.143 429.622C283.79 429.833 283.517 430.154 283.365 430.536C283.213 430.918 283.193 431.34 283.306 431.735C283.419 432.13 283.66 432.477 283.99 432.721C284.321 432.965 284.723 433.093 285.134 433.085H315.962C316.207 433.09 316.45 433.045 316.676 432.954C316.903 432.863 317.109 432.726 317.282 432.554C317.455 432.381 317.591 432.175 317.682 431.948C317.773 431.721 317.818 431.478 317.813 431.234L317.873 402.949L300.238 403.009Z" fill="#EB6C4C"/>
<path d="M317.622 423.305V432.212C317.622 432.528 317.496 432.832 317.272 433.056C317.049 433.28 316.745 433.406 316.428 433.406H281.708C281.075 433.406 280.467 433.154 280.019 432.706C279.572 432.258 279.32 431.651 279.32 431.018C279.314 430.524 279.462 430.041 279.742 429.635C280.022 429.229 280.421 428.919 280.884 428.749L294.65 423.305C294.65 423.305 301.719 426.887 317.622 423.305Z" fill="#403837"/>
<path d="M215.503 165.363H215.383C215.346 165.352 215.311 165.334 215.281 165.309C215.252 165.284 215.227 165.253 215.211 165.218C215.194 165.183 215.184 165.145 215.183 165.106C215.182 165.067 215.189 165.028 215.204 164.993C216.069 162.834 217.421 160.905 219.156 159.357C219.216 159.301 219.295 159.27 219.377 159.27C219.459 159.27 219.538 159.301 219.598 159.357C219.627 159.385 219.65 159.418 219.666 159.455C219.681 159.492 219.689 159.532 219.689 159.572C219.689 159.612 219.681 159.652 219.666 159.689C219.65 159.726 219.627 159.759 219.598 159.787C217.951 161.282 216.658 163.126 215.813 165.184C215.784 165.24 215.739 165.287 215.684 165.318C215.629 165.35 215.566 165.365 215.503 165.363Z" fill="#403837"/>
<path d="M270.318 403.009V419.724L254.223 429.622C253.87 429.833 253.596 430.154 253.445 430.536C253.293 430.918 253.272 431.34 253.385 431.735C253.498 432.13 253.739 432.477 254.07 432.721C254.401 432.965 254.803 433.093 255.214 433.085H286.042C286.286 433.09 286.529 433.045 286.756 432.954C286.983 432.863 287.189 432.726 287.361 432.554C287.534 432.381 287.67 432.175 287.762 431.948C287.853 431.721 287.898 431.478 287.893 431.234V402.949L270.318 403.009Z" fill="#EB6C4C"/>
<path d="M262.521 305.654L256.277 229.11L327.473 228.25L322.912 301.356C322.857 302.43 323.028 303.504 323.413 304.508L323.843 305.702C324.236 306.887 324.383 308.14 324.276 309.384C324.169 310.627 323.811 311.837 323.222 312.938C322.363 314.462 321.976 316.207 322.112 317.952L322.291 320.674C322.321 320.984 322.321 321.296 322.291 321.606L319.569 419.88C313.599 422.734 298.209 419.88 298.209 419.88C298.77 401.195 294.436 331.814 293.636 321.116L292.824 305.654L293.6 273.274L289.684 419.773C283.714 422.627 268.336 419.773 268.336 419.773C268.885 401.087 264.312 331.766 263.56 321.068L262.521 305.654Z" fill="#0B4364"/>
<path d="M294.423 151.369L293.002 232.439H293.611L295.044 151.369H294.423Z" fill="#CCDFF8"/>
<path d="M292.43 239.651C271.631 239.651 256.611 238.66 256.468 238.6C256.387 238.595 256.311 238.56 256.254 238.503C256.197 238.446 256.163 238.371 256.157 238.29C256.172 238.213 256.21 238.143 256.265 238.088C256.32 238.032 256.391 237.995 256.468 237.98C279.969 239.326 303.529 239.326 327.031 237.98C327.072 237.976 327.114 237.981 327.154 237.996C327.193 238.01 327.229 238.033 327.258 238.062C327.288 238.092 327.311 238.128 327.325 238.167C327.339 238.206 327.345 238.248 327.341 238.29C327.343 238.331 327.336 238.372 327.321 238.411C327.306 238.449 327.283 238.484 327.254 238.513C327.225 238.542 327.19 238.565 327.151 238.58C327.113 238.595 327.072 238.602 327.031 238.6C314.84 239.341 302.889 239.651 292.43 239.651Z" fill="black"/>
<path d="M287.475 124.947C283.611 127.101 279.601 128.984 275.476 130.582C270.58 132.254 257.566 139.74 253.244 141.662C253.244 141.662 244.671 146.092 238.534 150.02C237.738 158.843 237.502 167.708 237.83 176.562C237.83 176.562 245.603 174.651 259.405 169.637C259.059 181.194 256.778 195.689 256.587 201.623C256.277 211.234 251.023 231.949 256.408 233.681C261.793 235.412 266.127 233.37 275.034 233.681H326.852C332.177 231.949 328.392 211.461 325.419 201.623C324.505 197.824 323.926 193.953 323.688 190.053C331.109 191.395 338.766 190.258 345.477 186.818C345.477 152.527 336.499 138.916 336.499 138.916C333.657 135.263 318.183 131.979 313.479 129.878C308.775 127.776 301.969 123.812 301.969 123.812L287.475 124.923" fill="#65C098"/>
<path d="M288.908 423.305V432.212C288.908 432.528 288.782 432.832 288.558 433.056C288.334 433.28 288.03 433.406 287.714 433.406H251.787C251.154 433.406 250.547 433.154 250.099 432.706C249.651 432.258 249.4 431.651 249.4 431.018C249.395 430.534 249.538 430.06 249.809 429.66C250.079 429.259 250.465 428.95 250.916 428.773L264.694 423.329C264.694 423.329 272.992 426.887 288.908 423.305Z" fill="#403837"/>
<path d="M259.393 169.662C259.393 169.662 260.825 151.418 261.948 146.977" stroke="#077565" stroke-width="1.19396" stroke-miterlimit="10"/>
<path d="M280.884 97.9637C280.884 97.9637 277.052 97.5219 278.043 102.357C278.324 103.717 279.058 104.94 280.125 105.827C281.192 106.714 282.529 107.213 283.917 107.241C283.917 107.241 283.559 98.3935 280.884 97.9637Z" fill="#EB6C4C"/>
<path d="M302.519 110.406V126.429C302.519 128.497 301.697 130.48 300.235 131.942C298.773 133.404 296.79 134.226 294.722 134.226C292.655 134.226 290.671 133.404 289.209 131.942C287.747 130.48 286.926 128.497 286.926 126.429V110.406H302.519Z" fill="#EB6C4C"/>
<path d="M302.518 114.548V119.562C302.518 119.562 293.54 124.016 286.997 116.41C286.925 116.41 301.408 112.816 302.518 114.548Z" fill="#403837"/>
<path d="M310.566 97.9637C310.566 97.9637 314.41 97.5219 313.419 102.357C313.128 103.714 312.389 104.932 311.322 105.818C310.254 106.704 308.92 107.205 307.533 107.241C307.533 107.241 307.844 98.3935 310.566 97.9637Z" fill="#EB6C4C"/>
<path d="M308.464 82.7876L294.662 78.6445L280.788 82.7876C280.788 82.7876 275.034 101.366 282.842 113.126L288.227 117.269C290.062 118.686 292.314 119.454 294.632 119.454C296.95 119.454 299.203 118.686 301.038 117.269L306.423 113.126C314.219 101.366 308.464 82.7876 308.464 82.7876Z" fill="#EB6C4C"/>
<path d="M310.315 101.056C310.315 101.056 318.553 88.2451 310.506 82.1798C310.506 82.1798 314.53 69.6671 289.457 73.2012C289.457 73.2012 277.386 74.0609 277.386 84.8423C277.386 84.8423 274.401 90.2868 278.926 101.056L279.248 97.9639C279.248 97.9639 279.248 91.027 281.541 86.8123C283.833 82.5977 291.319 82.0365 295.092 81.929C298.865 81.8216 304.548 84.317 306.029 86.3228C307.509 88.3287 308.691 96.7103 308.691 96.7103V101.044L310.315 101.056Z" fill="#403837"/>
<path d="M300.441 96.1979C300.441 96.1979 297.528 96.3292 297.408 94.8368C297.289 93.3443 303.474 94.586 303.474 94.586C303.474 94.586 304.345 94.7771 303.904 95.4576C303.462 96.1382 300.441 96.1979 300.441 96.1979Z" fill="#403837"/>
<path d="M284.943 96.3276C284.943 96.3276 287.845 96.4112 287.976 94.9546C288.107 93.4979 281.923 94.7516 281.923 94.7516C281.923 94.7516 281.075 94.9546 281.505 95.6351C281.935 96.3157 284.943 96.3276 284.943 96.3276Z" fill="#403837"/>
<path d="M292.453 108.424C292.458 108.178 292.403 107.935 292.295 107.715C292.186 107.495 292.027 107.303 291.829 107.157C291.632 107.011 291.402 106.915 291.16 106.875C290.917 106.836 290.669 106.855 290.435 106.931L285.242 108.424H292.453Z" fill="#403837"/>
<path d="M292.454 108.424C292.451 108.183 292.505 107.944 292.612 107.728C292.718 107.511 292.874 107.322 293.067 107.177C293.26 107.032 293.485 106.934 293.722 106.891C293.96 106.849 294.204 106.863 294.436 106.932L299.641 108.424H292.454Z" fill="#403837"/>
<path d="M292.585 105.51C292.362 105.52 292.14 105.481 291.934 105.396C291.728 105.312 291.542 105.184 291.391 105.02C290.4 103.827 291.952 100.997 292.131 100.686C292.177 100.616 292.247 100.564 292.328 100.54C292.409 100.516 292.495 100.521 292.573 100.555C292.638 100.606 292.684 100.676 292.706 100.756C292.727 100.836 292.723 100.92 292.692 100.997C292.071 102.048 291.331 103.97 291.88 104.65C292.262 105.08 293.182 104.889 293.934 104.65C294.007 104.63 294.085 104.637 294.153 104.67C294.221 104.703 294.275 104.76 294.304 104.829C294.364 104.961 294.232 105.14 294.113 105.2C293.625 105.391 293.108 105.496 292.585 105.51Z" fill="#403837"/>
<path d="M295.486 110.716H288.872C288.83 110.717 288.789 110.711 288.751 110.695C288.712 110.68 288.678 110.658 288.648 110.629C288.619 110.599 288.596 110.564 288.581 110.526C288.566 110.488 288.559 110.446 288.561 110.405C288.558 110.364 288.563 110.322 288.577 110.282C288.592 110.243 288.614 110.207 288.644 110.178C288.674 110.148 288.709 110.125 288.749 110.111C288.788 110.097 288.83 110.091 288.872 110.095H295.486C295.528 110.091 295.57 110.097 295.609 110.111C295.648 110.125 295.684 110.148 295.714 110.178C295.743 110.207 295.766 110.243 295.78 110.282C295.795 110.322 295.8 110.364 295.797 110.405C295.798 110.446 295.791 110.488 295.776 110.526C295.761 110.564 295.739 110.599 295.709 110.629C295.68 110.658 295.645 110.68 295.607 110.695C295.568 110.711 295.527 110.717 295.486 110.716Z" fill="#403837"/>
<path d="M289.791 99.3864C288.536 100.714 286.835 101.53 285.015 101.679C283.2 101.512 281.505 100.698 280.239 99.3864C280.811 98.6677 281.537 98.0872 282.364 97.6882C283.191 97.2893 284.097 97.082 285.015 97.082C285.933 97.082 286.84 97.2893 287.666 97.6882C288.493 98.0872 289.22 98.6677 289.791 99.3864Z" fill="white"/>
<path d="M285.086 101.366C285.478 101.366 285.862 101.25 286.188 101.032C286.514 100.814 286.768 100.505 286.918 100.143C287.068 99.7806 287.107 99.3821 287.03 98.9977C286.954 98.6132 286.765 98.26 286.488 97.9829C286.211 97.7057 285.858 97.5169 285.473 97.4404C285.089 97.364 284.69 97.4032 284.328 97.5532C283.966 97.7032 283.656 97.9573 283.439 98.2832C283.221 98.6091 283.104 98.9923 283.104 99.3843C283.104 99.91 283.313 100.414 283.685 100.786C284.057 101.157 284.561 101.366 285.086 101.366Z" fill="#403837"/>
<path d="M305.456 99.3864C304.885 100.105 304.158 100.686 303.331 101.085C302.505 101.484 301.598 101.691 300.68 101.691C299.762 101.691 298.856 101.484 298.029 101.085C297.202 100.686 296.476 100.105 295.904 99.3864C296.476 98.6677 297.202 98.0872 298.029 97.6882C298.856 97.2893 299.762 97.082 300.68 97.082C301.598 97.082 302.505 97.2893 303.331 97.6882C304.158 98.0872 304.885 98.6677 305.456 99.3864Z" fill="white"/>
<path d="M300.752 101.366C301.145 101.371 301.53 101.259 301.859 101.044C302.188 100.829 302.446 100.521 302.6 100.159C302.753 99.7976 302.796 99.3984 302.722 99.0124C302.648 98.6263 302.462 98.2709 302.185 97.9914C301.909 97.7118 301.556 97.5206 301.171 97.4422C300.786 97.3638 300.386 97.4016 300.023 97.5509C299.659 97.7002 299.348 97.9542 299.129 98.2806C298.91 98.607 298.793 98.9912 298.793 99.3842C298.793 99.9057 298.999 100.406 299.365 100.777C299.732 101.148 300.23 101.36 300.752 101.366Z" fill="#403837"/>
<path d="M132.319 143.502L140.785 158.581L148.259 131.908H132.319V143.502Z" fill="#EB6C4C"/>
<path d="M321.025 175.285L321.514 189.47C329.495 191.393 337.902 190.384 345.202 186.628C345.202 152.29 336.212 138.655 336.212 138.655C333.418 134.989 317.896 131.706 313.121 129.605C308.345 127.503 301.587 123.527 301.587 123.527" fill="#65C098"/>
<path d="M307.557 125.736H141.644C137.028 125.736 133.287 129.478 133.287 134.094V233.014C133.287 237.629 137.028 241.371 141.644 241.371H307.557C312.173 241.371 315.915 237.629 315.915 233.014V134.094C315.915 129.478 312.173 125.736 307.557 125.736Z" fill="#272C3D"/>
<path d="M290.889 147.883H276.454C274.476 147.883 272.873 149.486 272.873 151.465V165.9C272.873 167.878 274.476 169.482 276.454 169.482H290.889C292.868 169.482 294.471 167.878 294.471 165.9V151.465C294.471 149.486 292.868 147.883 290.889 147.883Z" fill="#FCF5ED"/>
<path d="M233.353 201.338H151.626V208.621H233.353V201.338Z" fill="#65C098"/>
<path d="M188.878 185.768H151.626V191.881H188.878V185.768Z" fill="#65C098"/>
<path d="M321.025 175.287L321.514 189.471C329.496 191.394 337.902 190.386 345.203 186.63C345.203 152.291 336.212 138.656 336.212 138.656" fill="#65C098"/>
<path d="M325.395 227.474L281.41 240.751L277.828 247.652L334.541 245.372C345.215 245.228 347.674 237.981 347.173 228.131L344.295 186.844L322.589 189.745L325.395 227.474Z" fill="#EB6C4C"/>
<path d="M325.849 227.174L330.589 230.589" stroke="black" stroke-width="0.596979" stroke-miterlimit="10" stroke-linecap="round"/>
<path d="M259.524 241.263L273.613 247.926C274.869 248.513 276.289 248.652 277.636 248.32L285.863 246.23L281.409 240.75L275.224 241.371L259.524 241.263Z" fill="#EB6C4C"/>
<path d="M268.849 237.98C272.221 240.623 276.32 242.173 280.597 242.422" stroke="#EB6C4C" stroke-width="2.38792" stroke-linecap="round" stroke-linejoin="round"/>
<path d="M322.577 189.743C322.577 189.743 320.679 170.926 319.449 156.24" stroke="#077565" stroke-width="0.596979" stroke-linecap="round" stroke-linejoin="round"/>
<path d="M139.746 133.818L132.248 133.734C132.324 133.97 132.365 134.215 132.367 134.463L132.26 135.203C132.223 135.418 132.167 135.63 132.093 135.836C131.997 136.098 131.866 136.349 131.759 136.612C131.651 136.874 131.759 136.839 131.663 136.946C131.568 137.054 131.556 137.221 131.508 137.364L139.866 136.695C140.055 136.685 140.24 136.636 140.409 136.553C140.579 136.469 140.73 136.351 140.852 136.207C140.975 136.063 141.068 135.895 141.124 135.715C141.18 135.534 141.199 135.343 141.179 135.155C141.139 134.798 140.973 134.467 140.71 134.221C140.447 133.976 140.105 133.833 139.746 133.818Z" fill="#EB6C4C"/>
<path d="M132.547 134.32L138.23 133.866C138.419 133.856 138.604 133.807 138.773 133.723C138.943 133.639 139.094 133.521 139.217 133.377C139.34 133.233 139.432 133.066 139.488 132.885C139.544 132.704 139.563 132.514 139.543 132.326C139.505 131.974 139.343 131.647 139.088 131.403C138.833 131.158 138.499 131.012 138.146 130.988L132.176 130.559C132.176 130.559 130.648 130.559 130.648 133.77C130.648 136.982 129.765 143.835 132.702 143.525" fill="#EB6C4C"/>
<path d="M139.591 136.805L131.699 136.662C131.797 136.943 131.849 137.237 131.854 137.534C131.89 138.162 131.89 138.792 131.854 139.42C131.826 139.778 131.771 140.134 131.687 140.483L139.698 139.826C140.087 139.775 140.441 139.577 140.688 139.273C140.934 138.968 141.055 138.581 141.024 138.19C141.008 137.82 140.851 137.469 140.584 137.211C140.318 136.953 139.962 136.808 139.591 136.805Z" fill="#EB6C4C"/>
<path d="M139.34 140.076L131.376 139.885C131.491 140.206 131.571 140.538 131.615 140.876C131.677 141.271 131.701 141.67 131.687 142.07C131.687 142.237 131.687 142.404 131.687 142.571C131.985 142.841 132.218 143.176 132.367 143.55L139.531 143.144C139.92 143.099 140.276 142.904 140.523 142.601C140.771 142.298 140.89 141.91 140.857 141.52C140.855 141.325 140.814 141.132 140.737 140.953C140.659 140.773 140.546 140.611 140.405 140.477C140.263 140.342 140.096 140.237 139.913 140.168C139.73 140.099 139.535 140.068 139.34 140.076Z" fill="#EB6C4C"/>
<path d="M132.749 140.159C132.724 140.135 132.704 140.105 132.692 140.072C132.68 140.039 132.675 140.003 132.678 139.968C132.678 139.801 132.821 139.634 132.988 139.658L138.958 139.467C139.125 139.467 139.292 139.598 139.268 139.765C139.244 139.932 139.137 140.1 138.958 140.076L132.988 140.279C132.833 140.303 132.833 140.255 132.749 140.159Z" fill="#403837"/>
<path d="M134.027 136.781C134.003 136.719 134.003 136.651 134.027 136.59C134.041 136.512 134.078 136.441 134.133 136.385C134.189 136.33 134.26 136.293 134.338 136.279L139.663 136.446C139.739 136.459 139.809 136.495 139.864 136.548C139.919 136.601 139.957 136.67 139.973 136.745C139.961 136.823 139.925 136.895 139.869 136.951C139.813 137.007 139.741 137.044 139.663 137.055L134.338 136.9C134.099 136.924 134.027 136.876 134.027 136.781Z" fill="#403837"/>
<path d="M133.371 133.902C133.344 133.881 133.323 133.854 133.311 133.822C133.298 133.791 133.294 133.757 133.299 133.723C133.299 133.544 133.442 133.389 133.609 133.413L138.278 133.52C138.355 133.534 138.426 133.571 138.482 133.626C138.538 133.682 138.575 133.753 138.588 133.83C138.588 134.01 138.457 134.165 138.278 134.141L133.609 134.033C133.561 134.039 133.512 134.029 133.469 134.005C133.427 133.982 133.392 133.946 133.371 133.902Z" fill="#403837"/>
</g>
<g clip-path="url(#clip1_2040_4426)">
<path d="M513.132 347.325C528.912 347.325 541.705 334.532 541.705 318.752C541.705 302.972 528.912 290.18 513.132 290.18C497.352 290.18 484.56 302.972 484.56 318.752C484.56 334.532 497.352 347.325 513.132 347.325Z" fill="white"/>
<path d="M513.132 348.193C507.312 348.193 501.624 346.467 496.785 343.234C491.947 340.001 488.176 335.406 485.949 330.03C483.722 324.653 483.139 318.738 484.274 313.03C485.41 307.323 488.212 302.08 492.327 297.965C496.441 293.851 501.684 291.048 507.391 289.913C513.099 288.778 519.015 289.36 524.391 291.587C529.767 293.814 534.362 297.585 537.595 302.424C540.828 307.262 542.554 312.951 542.554 318.77C542.554 326.574 539.454 334.057 533.936 339.575C528.419 345.093 520.935 348.193 513.132 348.193ZM513.132 290.982C507.636 290.982 502.263 292.612 497.693 295.665C493.124 298.719 489.562 303.059 487.459 308.136C485.356 313.214 484.805 318.801 485.878 324.191C486.95 329.582 489.596 334.533 493.482 338.419C497.369 342.305 502.32 344.952 507.71 346.024C513.101 347.096 518.688 346.546 523.766 344.443C528.843 342.34 533.183 338.778 536.236 334.208C539.29 329.639 540.919 324.266 540.919 318.77C540.919 311.4 537.992 304.332 532.781 299.121C527.569 293.91 520.501 290.982 513.132 290.982Z" fill="black"/>
<path d="M506.936 347.325C522.716 347.325 535.509 334.532 535.509 318.752C535.509 302.972 522.716 290.18 506.936 290.18C491.156 290.18 478.364 302.972 478.364 318.752C478.364 334.532 491.156 347.325 506.936 347.325Z" fill="white"/>
<path d="M506.904 348.193C501.085 348.193 495.396 346.467 490.558 343.234C485.719 340.001 481.948 335.406 479.721 330.03C477.494 324.653 476.912 318.738 478.047 313.03C479.182 307.323 481.984 302.08 486.099 297.965C490.214 293.851 495.457 291.048 501.164 289.913C506.871 288.778 512.787 289.36 518.163 291.587C523.54 293.814 528.135 297.585 531.368 302.424C534.601 307.262 536.326 312.951 536.326 318.77C536.326 326.574 533.227 334.057 527.709 339.575C522.191 345.093 514.707 348.193 506.904 348.193ZM506.904 290.982C501.408 290.982 496.036 292.612 491.466 295.665C486.896 298.719 483.334 303.059 481.231 308.136C479.128 313.214 478.578 318.801 479.65 324.191C480.722 329.582 483.369 334.533 487.255 338.419C491.141 342.305 496.092 344.952 501.483 346.024C506.873 347.096 512.46 346.546 517.538 344.443C522.616 342.34 526.955 338.778 530.009 334.208C533.062 329.639 534.692 324.266 534.692 318.77C534.692 311.4 531.764 304.332 526.553 299.121C521.342 293.91 514.274 290.982 506.904 290.982Z" fill="black"/>
<path d="M506.937 339.022C518.131 339.022 527.206 329.947 527.206 318.753C527.206 307.559 518.131 298.484 506.937 298.484C495.743 298.484 486.668 307.559 486.668 318.753C486.668 329.947 495.743 339.022 506.937 339.022Z" fill="#F9B121"/>
<path opacity="0.2" d="M528.252 299.615L487.861 340.022C484.714 337.061 482.282 333.422 480.75 329.381L517.692 292.439C521.708 294.005 525.318 296.458 528.252 299.615Z" fill="white"/>
<path opacity="0.2" d="M535.459 313.868L502.114 347.213C499.13 346.665 496.254 345.638 493.598 344.173L532.403 305.352C533.88 308.004 534.913 310.881 535.459 313.868Z" fill="white"/>
<path d="M469.455 434.207H402.961C402.274 434.207 401.718 434.763 401.718 435.449V447.186C401.718 447.872 402.274 448.428 402.961 448.428H469.455C470.142 448.428 470.698 447.872 470.698 447.186V435.449C470.698 434.763 470.142 434.207 469.455 434.207Z" fill="white"/>
<path d="M469.456 449.23H402.961C402.415 449.23 401.891 449.013 401.505 448.627C401.118 448.24 400.901 447.716 400.901 447.17V435.45C400.901 434.904 401.118 434.38 401.505 433.994C401.891 433.608 402.415 433.391 402.961 433.391H469.456C469.727 433.389 469.996 433.44 470.247 433.543C470.497 433.646 470.725 433.797 470.917 433.989C471.109 434.181 471.26 434.409 471.363 434.66C471.466 434.91 471.518 435.179 471.515 435.45V447.17C471.518 447.441 471.466 447.71 471.363 447.961C471.26 448.212 471.109 448.44 470.917 448.631C470.725 448.823 470.497 448.975 470.247 449.077C469.996 449.18 469.727 449.232 469.456 449.23ZM402.961 435.025C402.848 435.025 402.74 435.07 402.66 435.15C402.581 435.229 402.536 435.338 402.536 435.45V447.17C402.536 447.283 402.581 447.391 402.66 447.471C402.74 447.55 402.848 447.595 402.961 447.595H469.456C469.512 447.595 469.567 447.584 469.618 447.563C469.67 447.542 469.717 447.51 469.756 447.471C469.796 447.431 469.827 447.384 469.848 447.333C469.87 447.281 469.881 447.226 469.881 447.17V435.45C469.881 435.394 469.87 435.339 469.848 435.288C469.827 435.236 469.796 435.189 469.756 435.15C469.717 435.11 469.67 435.079 469.618 435.058C469.567 435.036 469.512 435.025 469.456 435.025H402.961Z" fill="black"/>
<path d="M452.341 434.207L442.354 448.591H452.341L462.9 434.207H452.341Z" fill="black"/>
<path d="M401.718 436.512H470.698L468.393 434.207H404.039L401.718 436.512Z" fill="black"/>
<path d="M469.455 419.807H402.961C402.274 419.807 401.718 420.363 401.718 421.049V432.785C401.718 433.471 402.274 434.028 402.961 434.028H469.455C470.142 434.028 470.698 433.471 470.698 432.785V421.049C470.698 420.363 470.142 419.807 469.455 419.807Z" fill="white"/>
<path d="M469.456 434.828H402.961C402.416 434.824 401.895 434.605 401.509 434.22C401.124 433.835 400.906 433.313 400.901 432.769V421.049C400.901 420.501 401.118 419.975 401.504 419.586C401.889 419.198 402.413 418.977 402.961 418.973H469.456C469.728 418.973 469.997 419.026 470.248 419.131C470.499 419.236 470.727 419.389 470.918 419.582C471.109 419.775 471.261 420.004 471.363 420.255C471.466 420.507 471.518 420.777 471.515 421.049V432.769C471.515 433.039 471.462 433.307 471.359 433.557C471.255 433.807 471.103 434.034 470.912 434.225C470.721 434.416 470.494 434.568 470.244 434.671C469.994 434.775 469.726 434.828 469.456 434.828ZM402.961 420.607C402.847 420.611 402.739 420.66 402.659 420.742C402.58 420.824 402.536 420.934 402.536 421.049V432.769C402.536 432.881 402.581 432.989 402.66 433.069C402.74 433.149 402.848 433.194 402.961 433.194H469.456C469.512 433.194 469.567 433.183 469.618 433.161C469.67 433.14 469.717 433.109 469.756 433.069C469.796 433.03 469.827 432.983 469.848 432.931C469.87 432.88 469.881 432.824 469.881 432.769V421.049C469.881 420.934 469.837 420.824 469.757 420.742C469.678 420.66 469.57 420.611 469.456 420.607H402.961Z" fill="black"/>
<path d="M452.341 419.807L442.354 434.207H452.341L462.9 419.807H452.341Z" fill="black"/>
<path d="M401.718 422.128H470.698L468.393 419.807H404.039L401.718 422.128Z" fill="black"/>
<path d="M469.455 404.932H402.961C402.274 404.932 401.718 405.488 401.718 406.174V417.91C401.718 418.596 402.274 419.153 402.961 419.153H469.455C470.142 419.153 470.698 418.596 470.698 417.91V406.174C470.698 405.488 470.142 404.932 469.455 404.932Z" fill="white"/>
<path d="M469.456 419.952H402.961C402.416 419.948 401.895 419.73 401.509 419.344C401.124 418.959 400.906 418.438 400.901 417.893V406.173C400.901 405.627 401.118 405.103 401.505 404.717C401.891 404.33 402.415 404.113 402.961 404.113H469.456C469.727 404.111 469.996 404.163 470.247 404.266C470.497 404.368 470.725 404.52 470.917 404.712C471.109 404.903 471.26 405.131 471.363 405.382C471.466 405.633 471.518 405.902 471.515 406.173V417.893C471.515 418.163 471.462 418.431 471.359 418.681C471.255 418.931 471.103 419.158 470.912 419.349C470.721 419.54 470.494 419.692 470.244 419.796C469.994 419.899 469.726 419.952 469.456 419.952ZM402.961 405.748C402.848 405.748 402.74 405.793 402.66 405.872C402.581 405.952 402.536 406.06 402.536 406.173V417.893C402.536 418.006 402.581 418.114 402.66 418.193C402.74 418.273 402.848 418.318 402.961 418.318H469.456C469.512 418.318 469.567 418.307 469.618 418.286C469.67 418.264 469.717 418.233 469.756 418.193C469.796 418.154 469.827 418.107 469.848 418.056C469.87 418.004 469.881 417.949 469.881 417.893V406.173C469.881 406.117 469.87 406.062 469.848 406.01C469.827 405.959 469.796 405.912 469.756 405.872C469.717 405.833 469.67 405.802 469.618 405.78C469.567 405.759 469.512 405.748 469.456 405.748H402.961Z" fill="black"/>
<path d="M452.341 404.932L442.354 419.316H452.341L462.9 404.932H452.341Z" fill="black"/>
<path d="M401.718 407.236H470.698L468.393 404.932H404.039L401.718 407.236Z" fill="black"/>
<path d="M469.455 390.037H402.961C402.274 390.037 401.718 390.593 401.718 391.279V403.016C401.718 403.702 402.274 404.258 402.961 404.258H469.455C470.142 404.258 470.698 403.702 470.698 403.016V391.279C470.698 390.593 470.142 390.037 469.455 390.037Z" fill="white"/>
<path d="M469.456 405.058H402.961C402.415 405.058 401.891 404.841 401.505 404.455C401.118 404.068 400.901 403.545 400.901 402.998V391.278C400.906 390.733 401.124 390.212 401.509 389.827C401.895 389.441 402.416 389.223 402.961 389.219H469.456C469.726 389.219 469.994 389.272 470.244 389.376C470.494 389.479 470.721 389.631 470.912 389.822C471.103 390.013 471.255 390.24 471.359 390.49C471.462 390.74 471.515 391.008 471.515 391.278V402.998C471.518 403.269 471.466 403.538 471.363 403.789C471.26 404.04 471.109 404.268 470.917 404.459C470.725 404.651 470.497 404.803 470.247 404.906C469.996 405.008 469.727 405.06 469.456 405.058ZM402.961 390.853C402.848 390.853 402.74 390.898 402.66 390.978C402.581 391.058 402.536 391.166 402.536 391.278V402.998C402.536 403.111 402.581 403.219 402.66 403.299C402.74 403.379 402.848 403.423 402.961 403.423H469.456C469.512 403.423 469.567 403.412 469.618 403.391C469.67 403.37 469.717 403.338 469.756 403.299C469.796 403.259 469.827 403.213 469.848 403.161C469.87 403.109 469.881 403.054 469.881 402.998V391.278C469.881 391.223 469.87 391.167 469.848 391.116C469.827 391.064 469.796 391.017 469.756 390.978C469.717 390.938 469.67 390.907 469.618 390.886C469.567 390.864 469.512 390.853 469.456 390.853H402.961Z" fill="black"/>
<path d="M452.341 390.037L442.354 404.421H452.341L462.9 390.037H452.341Z" fill="black"/>
<path d="M401.718 392.342H470.698L468.393 390.037H404.039L401.718 392.342Z" fill="black"/>
<path d="M469.455 375.639H402.961C402.274 375.639 401.718 376.195 401.718 376.881V388.617C401.718 389.303 402.274 389.86 402.961 389.86H469.455C470.142 389.86 470.698 389.303 470.698 388.617V376.881C470.698 376.195 470.142 375.639 469.455 375.639Z" fill="white"/>
<path d="M469.456 390.695H402.961C402.416 390.691 401.895 390.473 401.509 390.087C401.124 389.702 400.906 389.181 400.901 388.636V376.916C400.901 376.368 401.118 375.842 401.504 375.454C401.889 375.065 402.413 374.844 402.961 374.84H469.456C469.728 374.84 469.997 374.894 470.248 374.998C470.499 375.103 470.727 375.256 470.918 375.449C471.109 375.642 471.261 375.871 471.363 376.123C471.466 376.374 471.518 376.644 471.515 376.916V388.636C471.515 388.906 471.462 389.174 471.359 389.424C471.255 389.674 471.103 389.901 470.912 390.092C470.721 390.283 470.494 390.435 470.244 390.539C469.994 390.642 469.726 390.695 469.456 390.695ZM402.961 376.474C402.847 376.479 402.739 376.527 402.659 376.609C402.58 376.692 402.536 376.801 402.536 376.916V388.636C402.536 388.748 402.581 388.857 402.66 388.936C402.74 389.016 402.848 389.061 402.961 389.061H469.456C469.512 389.061 469.567 389.05 469.618 389.028C469.67 389.007 469.717 388.976 469.756 388.936C469.796 388.897 469.827 388.85 469.848 388.798C469.87 388.747 469.881 388.692 469.881 388.636V376.916C469.881 376.801 469.837 376.692 469.757 376.609C469.678 376.527 469.57 376.479 469.456 376.474H402.961Z" fill="black"/>
<path d="M452.341 375.654L442.354 390.039H452.341L462.9 375.654H452.341Z" fill="black"/>
<path d="M401.718 377.959H470.698L468.393 375.654H404.039L401.718 377.959Z" fill="black"/>
<path d="M526.862 434.207H460.367C459.681 434.207 459.125 434.763 459.125 435.449V447.186C459.125 447.872 459.681 448.428 460.367 448.428H526.862C527.548 448.428 528.104 447.872 528.104 447.186V435.449C528.104 434.763 527.548 434.207 526.862 434.207Z" fill="white"/>
<path d="M526.862 449.23H460.384C460.112 449.232 459.842 449.18 459.59 449.078C459.339 448.975 459.11 448.824 458.917 448.632C458.724 448.441 458.57 448.213 458.466 447.962C458.361 447.711 458.308 447.442 458.308 447.17V435.45C458.308 435.178 458.361 434.909 458.466 434.658C458.57 434.407 458.724 434.18 458.917 433.988C459.11 433.797 459.339 433.645 459.59 433.543C459.842 433.44 460.112 433.389 460.384 433.391H526.862C527.133 433.389 527.402 433.44 527.653 433.543C527.904 433.646 528.132 433.797 528.323 433.989C528.515 434.181 528.667 434.409 528.769 434.66C528.872 434.91 528.924 435.179 528.922 435.45V447.17C528.924 447.441 528.872 447.71 528.769 447.961C528.667 448.212 528.515 448.44 528.323 448.631C528.132 448.823 527.904 448.975 527.653 449.077C527.402 449.18 527.133 449.232 526.862 449.23ZM460.384 435.025C460.326 435.023 460.269 435.032 460.216 435.053C460.162 435.073 460.114 435.104 460.072 435.144C460.031 435.184 459.998 435.231 459.976 435.284C459.954 435.336 459.942 435.393 459.942 435.45V447.17C459.946 447.284 459.995 447.393 460.077 447.472C460.159 447.551 460.269 447.595 460.384 447.595H526.862C526.918 447.595 526.973 447.584 527.025 447.563C527.076 447.542 527.123 447.51 527.163 447.471C527.202 447.431 527.233 447.384 527.255 447.333C527.276 447.281 527.287 447.226 527.287 447.17V435.45C527.289 435.394 527.28 435.338 527.259 435.285C527.239 435.232 527.208 435.185 527.168 435.145C527.128 435.105 527.08 435.073 527.027 435.053C526.975 435.032 526.919 435.023 526.862 435.025H460.384Z" fill="black"/>
<path d="M509.748 434.207L499.761 448.591H509.748L520.307 434.207H509.748Z" fill="black"/>
<path d="M459.125 436.512H528.104L525.8 434.207H461.446L459.125 436.512Z" fill="black"/>
<path d="M526.862 419.807H460.367C459.681 419.807 459.125 420.363 459.125 421.049V432.785C459.125 433.471 459.681 434.028 460.367 434.028H526.862C527.548 434.028 528.104 433.471 528.104 432.785V421.049C528.104 420.363 527.548 419.807 526.862 419.807Z" fill="white"/>
<path d="M526.862 434.828H460.384C459.836 434.828 459.31 434.612 458.921 434.226C458.533 433.84 458.312 433.316 458.308 432.769V421.049C458.308 420.776 458.361 420.506 458.466 420.254C458.57 420.002 458.723 419.773 458.916 419.581C459.108 419.388 459.337 419.235 459.589 419.131C459.841 419.026 460.111 418.973 460.384 418.973H526.862C527.134 418.973 527.403 419.026 527.654 419.131C527.905 419.236 528.133 419.389 528.324 419.582C528.516 419.775 528.667 420.004 528.77 420.255C528.872 420.507 528.924 420.777 528.922 421.049V432.769C528.922 433.315 528.705 433.839 528.318 434.225C527.932 434.611 527.408 434.828 526.862 434.828ZM460.384 420.607C460.266 420.607 460.154 420.654 460.071 420.736C459.989 420.819 459.942 420.932 459.942 421.049V432.769C459.946 432.883 459.995 432.991 460.077 433.07C460.159 433.149 460.269 433.194 460.384 433.194H526.862C526.918 433.194 526.973 433.183 527.025 433.161C527.076 433.14 527.123 433.109 527.163 433.069C527.202 433.03 527.233 432.983 527.255 432.931C527.276 432.88 527.287 432.824 527.287 432.769V421.049C527.289 420.991 527.28 420.934 527.26 420.881C527.239 420.827 527.208 420.779 527.169 420.737C527.129 420.696 527.081 420.663 527.029 420.641C526.976 420.619 526.919 420.607 526.862 420.607H460.384Z" fill="black"/>
<path d="M509.748 419.807L499.761 434.207H509.748L520.307 419.807H509.748Z" fill="black"/>
<path d="M459.125 422.128H528.104L525.8 419.807H461.446L459.125 422.128Z" fill="black"/>
<path d="M526.862 404.932H460.367C459.681 404.932 459.125 405.488 459.125 406.174V417.91C459.125 418.596 459.681 419.153 460.367 419.153H526.862C527.548 419.153 528.104 418.596 528.104 417.91V406.174C528.104 405.488 527.548 404.932 526.862 404.932Z" fill="white"/>
<path d="M526.862 419.952H460.384C459.836 419.952 459.31 419.736 458.921 419.35C458.533 418.964 458.312 418.441 458.308 417.893V406.173C458.308 405.901 458.361 405.632 458.466 405.381C458.57 405.13 458.724 404.902 458.917 404.711C459.11 404.519 459.339 404.368 459.59 404.265C459.842 404.163 460.112 404.111 460.384 404.113H526.862C527.133 404.111 527.402 404.163 527.653 404.266C527.904 404.368 528.132 404.52 528.323 404.712C528.515 404.903 528.667 405.131 528.769 405.382C528.872 405.633 528.924 405.902 528.922 406.173V417.893C528.922 418.439 528.705 418.963 528.318 419.349C527.932 419.735 527.408 419.952 526.862 419.952ZM460.384 405.748C460.326 405.746 460.269 405.755 460.216 405.775C460.162 405.796 460.114 405.827 460.072 405.866C460.031 405.906 459.998 405.954 459.976 406.006C459.954 406.059 459.942 406.116 459.942 406.173V417.893C459.946 418.007 459.995 418.115 460.077 418.194C460.159 418.274 460.269 418.318 460.384 418.318H526.862C526.918 418.318 526.973 418.307 527.025 418.286C527.076 418.264 527.123 418.233 527.163 418.193C527.202 418.154 527.233 418.107 527.255 418.056C527.276 418.004 527.287 417.949 527.287 417.893V406.173C527.289 406.116 527.28 406.06 527.259 406.008C527.239 405.955 527.208 405.907 527.168 405.867C527.128 405.827 527.08 405.796 527.027 405.776C526.975 405.755 526.919 405.746 526.862 405.748H460.384Z" fill="black"/>
<path d="M509.748 404.932L499.761 419.316H509.748L520.307 404.932H509.748Z" fill="black"/>
<path d="M459.125 407.236H528.104L525.8 404.932H461.446L459.125 407.236Z" fill="black"/>
<path d="M526.862 390.037H460.367C459.681 390.037 459.125 390.593 459.125 391.279V403.016C459.125 403.702 459.681 404.258 460.367 404.258H526.862C527.548 404.258 528.104 403.702 528.104 403.016V391.279C528.104 390.593 527.548 390.037 526.862 390.037Z" fill="white"/>
<path d="M526.862 405.058H460.384C460.112 405.06 459.842 405.008 459.59 404.906C459.339 404.803 459.11 404.652 458.917 404.46C458.724 404.269 458.57 404.041 458.466 403.79C458.361 403.539 458.308 403.27 458.308 402.998V391.278C458.312 390.731 458.533 390.207 458.921 389.821C459.31 389.435 459.836 389.219 460.384 389.219H526.862C527.133 389.219 527.4 389.272 527.65 389.376C527.9 389.479 528.127 389.631 528.318 389.822C528.51 390.013 528.661 390.24 528.765 390.49C528.868 390.74 528.922 391.008 528.922 391.278V402.998C528.924 403.269 528.872 403.538 528.769 403.789C528.667 404.04 528.515 404.268 528.323 404.459C528.132 404.651 527.904 404.803 527.653 404.906C527.402 405.008 527.133 405.06 526.862 405.058ZM460.384 390.853C460.269 390.853 460.159 390.898 460.077 390.977C459.995 391.056 459.946 391.164 459.942 391.278V402.998C459.942 403.056 459.954 403.112 459.976 403.165C459.998 403.217 460.031 403.265 460.072 403.305C460.114 403.344 460.162 403.375 460.216 403.396C460.269 403.416 460.326 403.425 460.384 403.423H526.862C526.919 403.426 526.975 403.416 527.027 403.396C527.08 403.375 527.128 403.344 527.168 403.304C527.208 403.264 527.239 403.216 527.259 403.164C527.28 403.111 527.289 403.055 527.287 402.998V391.278C527.287 391.166 527.242 391.058 527.163 390.978C527.083 390.898 526.975 390.853 526.862 390.853H460.384Z" fill="black"/>
<path d="M509.748 390.037L499.761 404.421H509.748L520.307 390.037H509.748Z" fill="black"/>
<path d="M459.125 392.342H528.104L525.8 390.037H461.446L459.125 392.342Z" fill="black"/>
<path d="M526.862 375.639H460.367C459.681 375.639 459.125 376.195 459.125 376.881V388.617C459.125 389.303 459.681 389.86 460.367 389.86H526.862C527.548 389.86 528.104 389.303 528.104 388.617V376.881C528.104 376.195 527.548 375.639 526.862 375.639Z" fill="white"/>
<path d="M526.862 390.695H460.384C459.836 390.695 459.31 390.479 458.921 390.093C458.533 389.707 458.312 389.183 458.308 388.636V376.916C458.308 376.365 458.526 375.837 458.916 375.448C459.305 375.059 459.833 374.84 460.384 374.84H526.862C527.134 374.84 527.403 374.894 527.654 374.998C527.905 375.103 528.133 375.256 528.324 375.449C528.516 375.642 528.667 375.871 528.77 376.123C528.872 376.374 528.924 376.644 528.922 376.916V388.636C528.922 389.182 528.705 389.706 528.318 390.092C527.932 390.478 527.408 390.695 526.862 390.695ZM460.384 376.474C460.266 376.474 460.154 376.521 460.071 376.604C459.989 376.686 459.942 376.799 459.942 376.916V388.636C459.946 388.75 459.995 388.858 460.077 388.937C460.159 389.017 460.269 389.061 460.384 389.061H526.862C526.918 389.061 526.973 389.05 527.025 389.028C527.076 389.007 527.123 388.976 527.163 388.936C527.202 388.897 527.233 388.85 527.255 388.798C527.276 388.747 527.287 388.692 527.287 388.636V376.916C527.289 376.859 527.28 376.802 527.26 376.748C527.239 376.695 527.208 376.646 527.169 376.605C527.129 376.563 527.081 376.531 527.029 376.508C526.976 376.486 526.919 376.474 526.862 376.474H460.384Z" fill="black"/>
<path d="M509.748 375.654L499.761 390.039H509.748L520.307 375.654H509.748Z" fill="black"/>
<path d="M459.125 377.959H528.104L525.8 375.654H461.446L459.125 377.959Z" fill="black"/>
<path d="M469.455 361.252H402.961C402.274 361.252 401.718 361.808 401.718 362.494V374.231C401.718 374.917 402.274 375.473 402.961 375.473H469.455C470.142 375.473 470.698 374.917 470.698 374.231V362.494C470.698 361.808 470.142 361.252 469.455 361.252Z" fill="white"/>
<path d="M469.456 376.293H402.961C402.413 376.289 401.889 376.068 401.504 375.679C401.118 375.29 400.901 374.765 400.901 374.217V362.513C400.901 361.966 401.118 361.44 401.504 361.051C401.889 360.662 402.413 360.442 402.961 360.438H469.456C469.728 360.437 469.997 360.491 470.248 360.596C470.499 360.7 470.727 360.854 470.918 361.047C471.109 361.239 471.261 361.468 471.363 361.72C471.466 361.972 471.518 362.242 471.515 362.513V374.217C471.518 374.489 471.466 374.758 471.363 375.01C471.261 375.262 471.109 375.491 470.918 375.684C470.727 375.877 470.499 376.03 470.248 376.135C469.997 376.239 469.728 376.293 469.456 376.293ZM402.961 362.072C402.847 362.076 402.739 362.125 402.659 362.207C402.58 362.289 402.536 362.399 402.536 362.513V374.217C402.536 374.331 402.58 374.441 402.659 374.523C402.739 374.606 402.847 374.654 402.961 374.658H469.456C469.57 374.654 469.678 374.606 469.757 374.523C469.837 374.441 469.881 374.331 469.881 374.217V362.513C469.881 362.399 469.837 362.289 469.757 362.207C469.678 362.125 469.57 362.076 469.456 362.072H402.961Z" fill="black"/>
<path d="M452.341 361.252L442.354 375.653H452.341L462.9 361.252H452.341Z" fill="black"/>
<path d="M401.718 363.573H470.698L468.393 361.252H404.039L401.718 363.573Z" fill="black"/>
<path d="M469.455 346.873H402.961C402.274 346.873 401.718 347.429 401.718 348.115V359.852C401.718 360.538 402.274 361.094 402.961 361.094H469.455C470.142 361.094 470.698 360.538 470.698 359.852V348.115C470.698 347.429 470.142 346.873 469.455 346.873Z" fill="white"/>
<path d="M469.456 361.892H402.961C402.415 361.892 401.891 361.675 401.505 361.289C401.118 360.903 400.901 360.379 400.901 359.833V348.194C400.901 347.648 401.118 347.124 401.505 346.738C401.891 346.352 402.415 346.135 402.961 346.135H469.456C469.727 346.133 469.996 346.184 470.247 346.287C470.497 346.39 470.725 346.542 470.917 346.733C471.109 346.925 471.26 347.153 471.363 347.404C471.466 347.655 471.518 347.923 471.515 348.194V359.914C471.498 360.448 471.273 360.953 470.888 361.323C470.504 361.692 469.989 361.897 469.456 361.892ZM402.961 347.688C402.905 347.688 402.85 347.699 402.798 347.72C402.747 347.741 402.7 347.773 402.66 347.812C402.621 347.852 402.59 347.898 402.568 347.95C402.547 348.002 402.536 348.057 402.536 348.113V359.833C402.536 359.945 402.581 360.053 402.66 360.133C402.74 360.213 402.848 360.258 402.961 360.258H469.456C469.512 360.258 469.567 360.247 469.618 360.225C469.67 360.204 469.717 360.173 469.756 360.133C469.796 360.094 469.827 360.047 469.848 359.995C469.87 359.944 469.881 359.888 469.881 359.833V348.194C469.881 348.139 469.87 348.083 469.848 348.032C469.827 347.98 469.796 347.933 469.756 347.894C469.717 347.854 469.67 347.823 469.618 347.802C469.567 347.78 469.512 347.769 469.456 347.769L402.961 347.688Z" fill="black"/>
<path d="M452.341 346.873L442.354 361.257H452.341L462.9 346.873H452.341Z" fill="black"/>
<path d="M401.718 349.178H470.698L468.393 346.873H404.039L401.718 349.178Z" fill="black"/>
<path d="M469.455 332.471H402.961C402.274 332.471 401.718 333.027 401.718 333.713V345.449C401.718 346.135 402.274 346.692 402.961 346.692H469.455C470.142 346.692 470.698 346.135 470.698 345.449V333.713C470.698 333.027 470.142 332.471 469.455 332.471Z" fill="white"/>
<path d="M469.456 347.508H402.961C402.416 347.504 401.895 347.285 401.509 346.9C401.124 346.515 400.906 345.993 400.901 345.448V333.728C400.901 333.181 401.118 332.655 401.504 332.266C401.889 331.877 402.413 331.657 402.961 331.652H469.456C469.728 331.652 469.997 331.706 470.248 331.811C470.499 331.915 470.727 332.068 470.918 332.261C471.109 332.454 471.261 332.683 471.363 332.935C471.466 333.187 471.518 333.456 471.515 333.728V345.448C471.515 345.719 471.462 345.987 471.359 346.236C471.255 346.486 471.103 346.713 470.912 346.905C470.721 347.096 470.494 347.248 470.244 347.351C469.994 347.455 469.726 347.508 469.456 347.508ZM402.961 333.287C402.847 333.291 402.739 333.34 402.659 333.422C402.58 333.504 402.536 333.614 402.536 333.728V345.448C402.536 345.561 402.581 345.669 402.66 345.749C402.74 345.828 402.848 345.873 402.961 345.873H469.456C469.512 345.873 469.567 345.862 469.618 345.841C469.67 345.82 469.717 345.788 469.756 345.749C469.796 345.709 469.827 345.662 469.848 345.611C469.87 345.559 469.881 345.504 469.881 345.448V333.728C469.881 333.614 469.837 333.504 469.757 333.422C469.678 333.34 469.57 333.291 469.456 333.287H402.961Z" fill="black"/>
<path d="M452.341 332.486L442.354 346.871H452.341L462.9 332.486H452.341Z" fill="black"/>
<path d="M401.718 334.791H470.698L468.393 332.486H404.039L401.718 334.791Z" fill="black"/>
<path d="M470.698 377.959L472.872 448.409L452.342 448.589V382.748C452.342 382.748 452.963 374.019 470.698 377.959Z" fill="black"/>
<path d="M401.719 387.537C401.719 387.537 432.073 391.199 432.661 419.804C432.661 419.804 433.658 438.912 413.766 448.409H396.128L401.719 389.793" fill="black"/>
<path d="M398.645 448.592C414.425 448.592 427.218 435.8 427.218 420.02C427.218 404.24 414.425 391.447 398.645 391.447C382.865 391.447 370.073 404.24 370.073 420.02C370.073 435.8 382.865 448.592 398.645 448.592Z" fill="white"/>
<path d="M398.645 449.408C392.826 449.408 387.137 447.682 382.299 444.449C377.46 441.216 373.689 436.621 371.462 431.245C369.235 425.868 368.653 419.952 369.788 414.245C370.923 408.538 373.726 403.295 377.84 399.18C381.955 395.065 387.198 392.263 392.905 391.128C398.613 389.993 404.528 390.575 409.905 392.802C415.281 395.029 419.876 398.8 423.109 403.639C426.342 408.477 428.068 414.166 428.068 419.985C428.068 423.849 427.307 427.675 425.828 431.245C424.349 434.814 422.182 438.058 419.45 440.79C416.718 443.522 413.474 445.689 409.905 447.168C406.335 448.647 402.509 449.408 398.645 449.408ZM398.645 392.197C393.149 392.197 387.777 393.827 383.207 396.88C378.637 399.934 375.076 404.273 372.972 409.351C370.869 414.429 370.319 420.016 371.391 425.406C372.463 430.797 375.11 435.748 378.996 439.634C382.882 443.52 387.834 446.167 393.224 447.239C398.614 448.311 404.202 447.761 409.279 445.658C414.357 443.555 418.697 439.993 421.75 435.423C424.803 430.854 426.433 425.481 426.433 419.985C426.399 412.638 423.456 405.603 418.248 400.42C413.041 395.237 405.992 392.328 398.645 392.328V392.197Z" fill="black"/>
<path d="M392.45 448.592C408.231 448.592 421.023 435.8 421.023 420.02C421.023 404.24 408.231 391.447 392.45 391.447C376.67 391.447 363.878 404.24 363.878 420.02C363.878 435.8 376.67 448.592 392.45 448.592Z" fill="white"/>
<path d="M392.483 449.408C386.664 449.408 380.975 447.682 376.137 444.449C371.298 441.216 367.527 436.621 365.3 431.245C363.073 425.868 362.491 419.952 363.626 414.245C364.761 408.538 367.563 403.295 371.678 399.18C375.793 395.065 381.036 392.263 386.743 391.128C392.45 389.993 398.366 390.575 403.743 392.802C409.119 395.029 413.714 398.8 416.947 403.639C420.18 408.477 421.906 414.166 421.906 419.985C421.906 423.849 421.145 427.675 419.666 431.245C418.187 434.814 416.02 438.058 413.288 440.79C410.556 443.522 407.312 445.689 403.743 447.168C400.173 448.647 396.347 449.408 392.483 449.408ZM392.483 392.197C386.987 392.197 381.615 393.827 377.045 396.88C372.475 399.934 368.914 404.273 366.81 409.351C364.707 414.429 364.157 420.016 365.229 425.406C366.301 430.797 368.948 435.748 372.834 439.634C376.72 443.52 381.672 446.167 387.062 447.239C392.452 448.311 398.039 447.761 403.117 445.658C408.195 443.555 412.535 439.993 415.588 435.423C418.641 430.854 420.271 425.481 420.271 419.985C420.236 412.638 417.294 405.603 412.086 400.42C406.879 395.237 399.83 392.328 392.483 392.328V392.197Z" fill="black"/>
<path d="M392.45 440.288C403.644 440.288 412.719 431.213 412.719 420.019C412.719 408.825 403.644 399.75 392.45 399.75C381.256 399.75 372.181 408.825 372.181 420.019C372.181 431.213 381.256 440.288 392.45 440.288Z" fill="#F9B121"/>
<path opacity="0.2" d="M413.733 400.877L373.375 441.268C370.21 438.315 367.756 434.682 366.199 430.643L403.141 393.701C407.17 395.258 410.793 397.712 413.733 400.877Z" fill="white"/>
<path opacity="0.2" d="M420.973 415.212L387.579 448.476C384.587 447.931 381.704 446.898 379.046 445.419L417.868 406.598C419.362 409.282 420.411 412.191 420.973 415.212Z" fill="white"/>
<path d="M509.271 189.324L429.905 218.824C425.784 220.356 423.685 224.938 425.217 229.059L441.863 273.845C443.395 277.965 447.978 280.064 452.099 278.533L531.465 249.032C535.586 247.501 537.685 242.918 536.153 238.797L519.506 194.012C517.975 189.891 513.392 187.792 509.271 189.324Z" fill="white"/>
<path d="M449.317 279.851C447.538 279.831 445.805 279.274 444.347 278.253C442.889 277.233 441.773 275.796 441.144 274.13L424.439 229.326C423.635 227.143 423.729 224.731 424.7 222.617C425.672 220.503 427.441 218.86 429.621 218.048L508.996 188.56C511.177 187.751 513.589 187.84 515.704 188.809C517.819 189.777 519.463 191.546 520.275 193.725L536.915 238.513C537.724 240.693 537.634 243.106 536.666 245.221C535.697 247.336 533.929 248.979 531.749 249.791L452.374 279.296C451.395 279.657 450.361 279.845 449.317 279.851ZM509.568 190.08L430.176 219.584C428.407 220.253 426.972 221.593 426.186 223.313C425.399 225.033 425.323 226.995 425.975 228.771L442.632 273.558C442.956 274.438 443.45 275.245 444.087 275.933C444.724 276.621 445.491 277.176 446.343 277.566C447.195 277.957 448.116 278.175 449.053 278.208C449.99 278.241 450.924 278.088 451.802 277.759L531.177 248.337C532.057 248.013 532.864 247.518 533.552 246.881C534.24 246.244 534.795 245.478 535.185 244.625C535.576 243.773 535.794 242.852 535.827 241.915C535.86 240.978 535.707 240.044 535.378 239.167L518.738 194.297C518.08 192.523 516.745 191.082 515.025 190.292C513.306 189.501 511.343 189.425 509.568 190.08Z" fill="black"/>
<path d="M520.977 197.984L426.688 233.031L430.834 244.185L525.123 209.138L520.977 197.984Z" fill="black"/>
<path d="M488.608 241.417L446.413 257.102L447.808 260.855L490.004 245.171L488.608 241.417Z" fill="black"/>
<path d="M462.668 241.923L443.439 249.07L444.612 252.227L463.841 245.079L462.668 241.923Z" fill="black"/>
<path d="M527.32 240.786C527.154 240.798 526.988 240.759 526.845 240.675C526.702 240.59 526.588 240.464 526.519 240.312L520.52 223.967C520.445 223.765 520.453 223.542 520.542 223.346C520.631 223.15 520.793 222.997 520.994 222.92C521.198 222.845 521.423 222.853 521.621 222.941C521.82 223.03 521.976 223.193 522.056 223.394L528.153 239.691C528.223 239.895 528.21 240.118 528.119 240.313C528.027 240.508 527.864 240.66 527.663 240.737C527.554 240.78 527.436 240.796 527.32 240.786Z" fill="black"/>
<path d="M546.134 449.228H363.878C363.661 449.228 363.453 449.142 363.3 448.989C363.147 448.836 363.061 448.628 363.061 448.411C363.061 448.194 363.147 447.986 363.3 447.833C363.453 447.68 363.661 447.594 363.878 447.594H546.134C546.349 447.598 546.555 447.685 546.707 447.838C546.86 447.99 546.947 448.196 546.951 448.411C546.951 448.628 546.865 448.836 546.712 448.989C546.559 449.142 546.351 449.228 546.134 449.228Z" fill="black"/>
</g>
<defs>
<clipPath id="clip0_2040_4426">
<rect width="426.757" height="449.406" fill="white" transform="translate(0.303711)"/>
</clipPath>
<clipPath id="clip1_2040_4426">
<rect width="183.94" height="261.403" fill="white" transform="translate(363.061 188.004)"/>
</clipPath>
</defs>
</svg>
