<svg width="338" height="317" viewBox="0 0 338 317" fill="none" xmlns="http://www.w3.org/2000/svg">
<path d="M18.8838 86.2633C20.514 84.3613 22.3914 82.6859 24.4659 81.2818L23.6747 74.3884L34.502 70.5938L38.1648 76.4543C40.663 76.2612 43.1758 76.4016 45.637 76.8718L49.9444 71.4435L60.3029 76.403L58.7498 83.1572C60.6539 84.7847 62.3317 86.6596 63.7386 88.732L70.6247 87.9408L74.4194 98.7681L68.5589 102.431C68.7547 104.926 68.6167 107.437 68.1486 109.896L73.5769 114.211L68.6028 124.547L61.8486 123.001C60.2205 124.905 58.3428 126.581 56.2664 127.983L57.0576 134.876L46.2303 138.671L42.5675 132.81C40.0718 133.003 37.5614 132.863 35.1027 132.393L30.7952 137.821L20.4148 132.884L21.9679 126.129C20.0638 124.502 18.386 122.627 16.9791 120.555L10.093 121.346L6.29834 110.518L12.1588 106.856C11.9593 104.36 12.0973 101.849 12.5691 99.3908L7.14079 95.076L12.1149 84.7395L18.8691 86.2852L18.8838 86.2633ZM26.4072 97.9476C25.0798 100.706 24.6002 103.797 25.0293 106.828C25.4583 109.86 26.7766 112.696 28.8175 114.978C30.8584 117.26 33.5302 118.885 36.4949 119.649C39.4597 120.413 42.5844 120.28 45.4737 119.267C48.3631 118.255 50.8873 116.409 52.7273 113.962C54.5673 111.515 55.6403 108.577 55.8107 105.521C55.981 102.464 55.2411 99.425 53.6845 96.7888C52.1278 94.1525 49.8244 92.037 47.0655 90.7099C43.3659 88.9325 39.112 88.6964 35.2385 90.0535C31.3649 91.4106 28.1885 94.2499 26.4072 97.9476Z" fill="#4D4D4D"/>
<path d="M281.002 193.261C282.608 191.389 284.456 189.738 286.497 188.353L285.72 181.562L296.394 177.818L300.02 183.613C302.481 183.419 304.957 183.554 307.382 184.016L311.631 178.668L321.821 183.569L320.297 190.228C322.169 191.834 323.82 193.681 325.205 195.722L331.996 194.946L335.739 205.619L329.945 209.245C330.139 211.706 330.004 214.182 329.542 216.608L334.89 220.856L330.018 231.046L323.33 229.508C321.724 231.38 319.876 233.031 317.836 234.416L318.612 241.207L307.939 244.95L304.313 239.156C301.851 239.35 299.375 239.215 296.95 238.753L292.701 244.101L282.511 239.2L284.035 232.541C282.163 230.935 280.512 229.087 279.127 227.047L272.336 227.823L268.593 217.15L274.387 213.523C274.193 211.062 274.328 208.586 274.79 206.161L269.443 201.912L274.343 191.737L281.002 193.261ZM288.416 204.777C287.107 207.496 286.633 210.543 287.056 213.532C287.479 216.521 288.778 219.317 290.79 221.567C292.803 223.817 295.437 225.42 298.36 226.173C301.283 226.925 304.364 226.794 307.212 225.796C310.061 224.797 312.549 222.977 314.363 220.564C316.176 218.151 317.234 215.254 317.401 212.24C317.568 209.227 316.838 206.231 315.302 203.632C313.766 201.034 311.495 198.949 308.774 197.642C305.128 195.892 300.936 195.66 297.119 196.998C293.302 198.336 290.172 201.133 288.416 204.777Z" fill="#ACABAB"/>
<path d="M275.076 90.8627C276.316 89.4127 277.745 88.1364 279.325 87.068L278.724 81.8155L286.98 78.9219L289.786 83.3978C291.689 83.2508 293.603 83.3567 295.478 83.7128L298.767 79.5739L306.65 83.3685L305.463 88.4965C306.915 89.736 308.194 91.1651 309.265 92.7453L314.517 92.1446L317.411 100.401L312.928 103.206C313.078 105.109 312.972 107.024 312.613 108.898L316.752 112.188L312.964 120.07L307.836 118.883C306.594 120.335 305.163 121.614 303.58 122.685L304.188 127.938L295.932 130.868L293.126 126.392C291.223 126.54 289.309 126.432 287.434 126.07L284.145 130.209L276.263 126.421L277.442 121.293C275.994 120.052 274.718 118.623 273.648 117.044L268.395 117.645L265.494 109.367L269.97 106.561C269.823 104.659 269.929 102.745 270.285 100.869L266.146 97.5803L269.948 89.6832L275.076 90.8627ZM280.812 99.7706C279.799 101.874 279.432 104.231 279.759 106.542C280.085 108.854 281.09 111.017 282.646 112.758C284.202 114.498 286.239 115.738 288.5 116.321C290.761 116.903 293.144 116.802 295.347 116.03C297.55 115.258 299.475 113.85 300.878 111.983C302.281 110.117 303.099 107.877 303.228 105.546C303.357 103.215 302.792 100.898 301.604 98.8877C300.417 96.8778 298.659 95.2654 296.555 94.2544C293.737 92.9046 290.499 92.7273 287.55 93.7613C284.602 94.7954 282.184 96.9564 280.827 99.7706H280.812Z" fill="#4D4D4D"/>
<path d="M254.264 52.7105C255.097 51.7339 256.058 50.874 257.121 50.1539L256.718 46.6229L262.264 44.6816L264.154 47.6925C265.432 47.5881 266.719 47.6595 267.978 47.9049L270.175 45.1212L275.472 47.6705L274.68 51.1282C275.653 51.9652 276.513 52.9256 277.237 53.9852L280.761 53.5823L282.709 59.1278L279.706 61.0178C279.803 62.2963 279.731 63.5819 279.493 64.8418L282.277 67.0395L279.728 72.3359L276.263 71.5374C275.431 72.5157 274.47 73.3759 273.406 74.094L273.816 77.625L268.271 79.5663L266.381 76.5555C265.102 76.6564 263.816 76.585 262.557 76.343L260.359 79.1267L255.062 76.5774L255.861 73.1197C254.886 72.2847 254.026 71.324 253.304 70.2627L249.773 70.6656L247.832 65.1202L250.828 63.2155C250.724 61.9371 250.795 60.6504 251.041 59.3915L248.257 57.1938L250.806 51.8974L254.264 52.6959V52.7105ZM258.117 58.6956C257.438 60.1082 257.193 61.6904 257.414 63.2422C257.634 64.7939 258.309 66.2456 259.354 67.4137C260.399 68.5819 261.767 69.414 263.284 69.8049C264.802 70.1958 266.402 70.128 267.881 69.61C269.36 69.092 270.653 68.1471 271.595 66.8947C272.537 65.6423 273.087 64.1387 273.175 62.5739C273.263 61.009 272.885 59.4533 272.089 58.1032C271.293 56.7531 270.115 55.6693 268.703 54.9888C267.764 54.5365 266.746 54.2737 265.706 54.2152C264.666 54.1568 263.625 54.3039 262.642 54.6481C261.659 54.9924 260.753 55.527 259.977 56.2215C259.2 56.916 258.568 57.7567 258.117 58.6956Z" fill="#575757"/>
<path d="M61.3582 244.943C62.1951 243.97 63.1556 243.111 64.2152 242.386L63.8123 238.855L69.3578 236.914L71.2478 239.925C72.5262 239.828 73.8119 239.9 75.0718 240.137L77.2694 237.354L82.5659 239.903L81.7674 243.368C82.7457 244.199 83.6058 245.161 84.324 246.225L87.855 245.815L89.7963 251.36L86.8074 253.25C86.912 254.529 86.8405 255.815 86.595 257.074L89.3787 259.272L86.8074 264.583L83.3497 263.784C82.5147 264.759 81.554 265.619 80.4927 266.341L80.8956 269.872L75.3501 271.813L73.4601 268.803C72.1817 268.907 70.8951 268.835 69.6361 268.59L67.4384 271.374L62.1347 268.825L62.9332 265.367C61.9566 264.534 61.0966 263.573 60.3765 262.51L56.8456 262.913L54.9116 257.345L57.9225 255.455C57.8217 254.177 57.8932 252.891 58.1349 251.631L55.3512 249.434L57.9005 244.159L61.3582 244.95V244.943ZM65.2188 250.928C64.5414 252.34 64.2976 253.922 64.5184 255.473C64.7391 257.024 65.4145 258.474 66.4591 259.642C67.5037 260.809 68.8708 261.64 70.3877 262.031C71.9046 262.422 73.5033 262.355 74.982 261.838C76.4607 261.321 77.753 260.377 78.6957 259.126C79.6385 257.875 80.1894 256.373 80.279 254.809C80.3685 253.245 79.9927 251.69 79.1989 250.339C78.4051 248.989 77.2289 247.904 75.819 247.221C74.8799 246.767 73.8603 246.502 72.8187 246.442C71.7772 246.383 70.734 246.529 69.7492 246.874C68.7644 247.218 67.8573 247.753 67.0798 248.449C66.3024 249.145 65.67 249.987 65.2188 250.928Z" fill="#575757"/>
<path d="M103.349 264.21C104.608 262.745 106.053 261.452 107.649 260.364L107.041 255.053L115.392 252.123L118.235 256.658C120.159 256.507 122.096 256.613 123.993 256.973L127.318 252.79L135.296 256.614L134.102 261.83C135.57 263.084 136.864 264.531 137.948 266.13L143.259 265.522L146.189 273.873L141.655 276.715C141.803 278.64 141.695 280.577 141.332 282.473L145.523 285.799L141.684 293.777L136.476 292.575C135.222 294.046 133.776 295.339 132.175 296.421L132.783 301.74L124.432 304.67L121.59 300.143C119.665 300.291 117.728 300.182 115.832 299.82L112.506 304.01L104.528 300.172L105.723 294.963C104.258 293.702 102.965 292.254 101.877 290.656L96.5655 291.271L93.6353 282.92L98.1698 280.078C98.0218 278.15 98.1301 276.211 98.4921 274.312L94.3019 270.994L98.1405 263.016L103.349 264.21ZM109.151 273.221C108.126 275.349 107.756 277.733 108.087 280.072C108.417 282.41 109.434 284.599 111.008 286.359C112.583 288.12 114.644 289.374 116.931 289.963C119.218 290.553 121.629 290.45 123.858 289.669C126.087 288.888 128.035 287.464 129.454 285.576C130.873 283.688 131.701 281.422 131.832 279.064C131.964 276.706 131.392 274.361 130.191 272.328C128.99 270.294 127.213 268.662 125.084 267.639C122.231 266.267 118.95 266.084 115.962 267.131C112.974 268.178 110.524 270.368 109.151 273.221Z" fill="#4D4D4D"/>
<path d="M50.9483 149.608C50.7849 149.685 50.6127 149.741 50.4355 149.776C50.0912 149.864 49.593 150.018 48.9264 150.157C47.067 150.572 45.179 150.846 43.2783 150.978C36.9711 151.451 30.6406 150.439 24.7958 148.021C18.9509 145.604 13.7546 141.849 9.62439 137.059C8.37779 135.618 7.24154 134.085 6.2253 132.473C5.85169 131.909 5.60995 131.44 5.42681 131.14C5.3293 130.986 5.24593 130.825 5.17773 130.656C5.29929 130.79 5.40499 130.938 5.49274 131.096C5.69785 131.389 5.96158 131.828 6.34984 132.392C10.3622 138.412 15.8852 143.272 22.3661 146.486C28.8469 149.7 36.0582 151.155 43.2783 150.706C45.1701 150.585 47.0519 150.341 48.9117 149.974C49.5784 149.864 50.0838 149.725 50.4281 149.659C50.5999 149.628 50.7738 149.611 50.9483 149.608Z" fill="#ACABAB"/>
<path d="M36.488 154.941C36.225 154.969 35.9598 154.969 35.6968 154.941C35.1913 154.941 34.4588 154.89 33.5577 154.787C31.2083 154.538 28.8909 154.047 26.6423 153.322C24.3974 152.585 22.2326 151.623 20.1811 150.451C19.3973 149.996 18.7746 149.601 18.3644 149.308C18.139 149.171 17.9301 149.009 17.7417 148.824C17.7783 148.766 18.7233 149.366 20.313 150.209C22.3716 151.305 24.5211 152.222 26.7376 152.949C28.9644 153.672 31.2483 154.206 33.5651 154.546C35.3745 154.787 36.488 154.875 36.488 154.941Z" fill="#ACABAB"/>
<path d="M122.285 76.1836C129.334 71.9273 136.92 68.631 144.841 66.3819L149.485 44.0533L187.212 43.3867L192.641 65.5394C200.638 67.5074 208.337 70.5353 215.533 74.5426L234.58 62.0451L261.729 88.2562L249.912 107.742C254.167 114.795 257.464 122.382 259.714 130.305L282.035 134.957L282.702 172.677L260.549 178.112C258.58 186.107 255.552 193.804 251.546 200.998L264.044 220.044L237.84 247.186L218.361 235.369C211.309 239.624 203.721 242.921 195.798 245.171L191.154 267.5L153.427 268.159L147.998 246.006C139.999 244.042 132.3 241.014 125.106 237.003L106.059 249.501L78.8956 223.319L90.7192 203.825C86.4701 196.774 83.1835 189.186 80.9468 181.262L58.5817 176.618L57.9224 138.891L80.0751 133.463C82.0431 125.467 85.071 117.771 89.0783 110.577L76.5807 91.5307L102.785 64.3893L122.285 76.2055V76.1836ZM133.691 120.438C126.702 127.68 122.016 136.831 120.227 146.736C118.439 156.641 119.627 166.853 123.642 176.083C127.658 185.312 134.319 193.143 142.785 198.587C151.251 204.03 161.141 206.841 171.204 206.664C181.268 206.486 191.053 203.329 199.322 197.591C207.591 191.853 213.973 183.792 217.66 174.427C221.348 165.062 222.176 154.814 220.04 144.978C217.904 135.143 212.899 126.162 205.658 119.17C200.85 114.528 195.174 110.877 188.955 108.428C182.736 105.979 176.095 104.779 169.412 104.897C162.729 105.015 156.135 106.448 150.006 109.114C143.877 111.781 138.333 115.628 133.691 120.438Z" fill="#4D4D4D"/>
<path d="M133.691 120.437C133.691 120.437 134.424 119.61 135.999 118.152C139.938 114.502 144.443 111.516 149.339 109.31C151.773 108.197 154.294 107.286 156.877 106.585C163.191 104.868 169.775 104.371 176.275 105.119C184.171 106.04 191.741 108.8 198.377 113.178C203.991 116.894 208.831 121.666 212.625 127.228C213.949 129.195 215.141 131.249 216.192 133.374C220.631 142.46 222.278 152.656 220.925 162.677C220.575 165.291 220.019 167.872 219.262 170.398C218.515 172.97 217.552 175.475 216.383 177.885C211.616 187.836 203.758 195.977 193.981 201.092C191.612 202.345 189.142 203.396 186.597 204.235C184.1 205.079 181.54 205.725 178.942 206.169C168.974 207.885 158.722 206.611 149.478 202.506C147.32 201.527 145.228 200.408 143.215 199.159C137.523 195.56 132.584 190.89 128.673 185.408C124.077 178.927 121.066 171.457 119.882 163.6C118.908 157.13 119.176 150.534 120.674 144.165C121.282 141.538 122.106 138.966 123.135 136.473C123.977 134.394 124.956 132.372 126.065 130.422C127.634 127.727 129.452 125.183 131.494 122.825C132.9 121.221 133.691 120.437 133.691 120.437L133.142 121.053C132.79 121.47 132.211 122.042 131.545 122.869C129.546 125.245 127.764 127.795 126.219 130.488C125.108 132.435 124.129 134.454 123.289 136.532C122.279 139 121.471 141.545 120.871 144.143C119.4 150.484 119.151 157.048 120.139 163.483C121.34 171.292 124.35 178.713 128.93 185.152C131.475 188.724 134.471 191.952 137.845 194.756C139.604 196.223 141.459 197.571 143.398 198.792C145.399 200.032 147.479 201.141 149.624 202.111C161.263 207.283 174.416 207.91 186.494 203.869C189.019 203.032 191.469 201.985 193.82 200.741C203.522 195.661 211.322 187.579 216.053 177.702C217.217 175.311 218.175 172.826 218.918 170.274C219.667 167.767 220.219 165.205 220.566 162.611C221.911 152.663 220.285 142.54 215.892 133.514C214.848 131.404 213.666 129.366 212.354 127.411C211.071 125.512 209.658 123.703 208.127 121.998C205.207 118.725 201.875 115.844 198.215 113.427C191.618 109.065 184.092 106.305 176.238 105.369C169.773 104.613 163.222 105.093 156.935 106.782C154.357 107.469 151.841 108.368 149.412 109.471C144.523 111.651 140.012 114.596 136.05 118.196C135.244 118.892 134.695 119.492 134.292 119.859L133.691 120.437Z" fill="#263238"/>
<path d="M122.285 76.1826L102.755 64.4176H102.828C96.1695 71.3404 87.3421 80.4974 76.654 91.5884V91.4712L89.1662 110.518L89.2028 110.576L89.1662 110.635C85.1859 117.825 82.1757 125.51 80.2143 133.491V133.564H80.141L57.9956 139L58.0982 138.868C58.3106 150.743 58.5377 163.35 58.7722 176.595L58.655 176.448L80.9468 181.108H81.0347V181.195C83.2849 189.104 86.5787 196.676 90.8291 203.714L90.8804 203.802L90.8291 203.89L79.0422 223.406V223.193L106.191 249.397H105.971L125.018 236.9L125.106 236.834L125.201 236.892C132.387 240.882 140.07 243.902 148.05 245.873H148.159V245.976C149.866 252.921 151.72 260.488 153.595 268.129L153.412 267.99L191.132 267.323L190.948 267.477C192.414 260.422 194.003 252.825 195.6 245.148V245.031H195.71C203.609 242.785 211.174 239.499 218.207 235.259L218.31 235.193L218.405 235.259L237.898 247.075H237.664L263.868 219.933V220.168L251.378 201.121L251.312 201.026L251.37 200.923C255.393 193.742 258.438 186.055 260.425 178.067V177.958H260.535L282.687 172.529L282.548 172.712C282.323 159.834 282.104 147.258 281.889 134.985L282.028 135.154L259.692 130.473H259.59V130.378C257.35 122.466 254.061 114.89 249.81 107.851L249.759 107.763L249.81 107.683L261.633 88.1966V88.3871L234.529 62.176H234.704L215.658 74.6662L215.592 74.7102L215.519 74.6735C208.334 70.6691 200.648 67.6413 192.663 65.6703H192.589V65.5971C190.626 57.5389 188.853 50.2938 187.176 43.4444L187.286 43.5323L149.559 44.1623L149.647 44.0964C147.771 53.0409 146.24 60.3592 144.973 66.4175C139.015 68.0994 133.24 70.3744 127.736 73.2084C125.919 74.1388 124.593 74.9006 123.714 75.4061C122.835 75.9116 122.403 76.1387 122.403 76.1387L123.699 75.3548C124.571 74.842 125.897 74.0728 127.706 73.1571C133.204 70.2916 138.98 67.9941 144.944 66.3003L144.9 66.3443C146.152 60.2787 147.669 52.9604 149.522 44.0084V43.9425H149.588L187.315 43.2539H187.403V43.3418C189.08 50.184 190.868 57.4363 192.846 65.4872L192.751 65.392C200.76 67.3648 208.47 70.3949 215.68 74.4025H215.541C221.599 70.4173 227.892 66.293 234.587 61.8976L234.69 61.8317L234.77 61.9123L261.89 88.1234L261.978 88.2113L261.912 88.3212L250.066 107.829V107.661C254.333 114.723 257.637 122.323 259.89 130.26L259.758 130.143L282.087 134.78H282.226V134.919C282.446 147.183 282.67 159.758 282.9 172.646V172.793H282.761L260.608 178.229L260.747 178.097C258.774 186.108 255.738 193.819 251.722 201.026V200.835C255.844 207.126 260.01 213.475 264.219 219.882L264.307 220.007L264.197 220.117L237.994 247.221L237.891 247.331L237.759 247.251L218.266 235.434H218.464C211.403 239.691 203.809 242.99 195.879 245.243L196.018 245.097C194.421 252.767 192.831 260.378 191.366 267.425V267.572H191.212L153.493 268.231H153.339L153.302 268.085C151.434 260.444 149.573 252.877 147.874 245.932L148.013 246.071C140.002 244.091 132.289 241.056 125.076 237.046H125.267L106.22 249.544L106.103 249.617L106 249.522L78.8957 223.303L78.8004 223.215L78.8737 223.098L90.6899 203.605V203.78C86.4303 196.714 83.1316 189.111 80.8809 181.174L80.9981 181.283L58.5524 176.763H58.4352V176.639C58.2081 163.402 57.9883 150.794 57.7905 138.919V138.809H57.9004L80.0531 133.388L79.9579 133.484C81.9408 125.461 84.9833 117.738 89.005 110.518V110.635L76.5515 91.5884L76.5075 91.5225L76.5661 91.4712L102.792 64.3664H102.828H102.872L122.285 76.1826Z" fill="#263238"/>
<path d="M139.969 40.8434C144.364 35.459 151.272 32.5874 158.173 31.7742C161.103 31.4299 162.935 31.9354 165.755 32.6973C168.584 33.371 171.083 35.0241 172.81 37.3637C174.81 40.1987 176.473 43.378 176.868 46.8357C177.368 50.3701 177.54 53.9431 177.381 57.5092C177.218 61.0925 176.067 64.5609 174.055 67.5306L165.001 69.0763C160.005 69.2448 154.935 69.4133 150.064 68.2705C145.192 67.1277 140.46 64.5125 137.852 60.2123C134.233 54.3445 135.574 46.2204 139.969 40.8434Z" fill="#263238"/>
<path d="M171.052 72.7984C171.052 72.7984 171.199 73.0181 171.594 73.2745C172.161 73.6184 172.796 73.8335 173.455 73.9045C174.452 74.0135 175.459 73.8087 176.334 73.3185C177.396 72.6745 178.17 71.6466 178.494 70.4477C178.819 69.2489 178.67 67.9711 178.078 66.8793C177.567 66.0142 176.798 65.3303 175.88 64.9233C175.275 64.6488 174.617 64.5136 173.953 64.5277C173.701 64.5081 173.448 64.5561 173.221 64.6669C174.074 64.7104 174.911 64.9142 175.689 65.2676C176.498 65.6853 177.167 66.3293 177.616 67.121C178.117 68.1056 178.234 69.241 177.946 70.3074C177.658 71.3738 176.984 72.2953 176.056 72.8936C175.27 73.348 174.369 73.5667 173.462 73.5236C172.621 73.434 171.803 73.188 171.052 72.7984Z" fill="#65C098"/>
<path d="M131.362 66.0508C131.445 65.0185 131.764 64.0191 132.295 63.13C132.826 62.2408 133.555 61.4856 134.424 60.9229C135.306 60.3887 136.334 60.1484 137.361 60.2366C138.388 60.3248 139.36 60.737 140.138 61.4137L141.567 63.1132C142.662 63.6247 143.572 64.4625 144.173 65.5116C144.774 66.5608 145.035 67.7701 144.922 68.9737C144.757 70.1788 144.252 71.3119 143.466 72.2398C142.679 73.1676 141.644 73.8517 140.482 74.2115C139.312 74.5404 138.077 74.5629 136.895 74.2768C135.714 73.9907 134.626 73.4057 133.735 72.5779C132.871 71.7412 132.208 70.7187 131.797 69.5879C131.385 68.4571 131.237 67.2475 131.362 66.0508Z" fill="#263238"/>
<path d="M133.157 72.1518C132.809 71.6172 132.64 70.9864 132.673 70.3497C132.746 69.1922 133.589 67.6758 134.739 66.2839C135.748 65.0832 136.979 64.0883 138.365 63.3537C139.427 62.7823 140.16 62.5772 140.138 62.5039C139.471 62.562 138.824 62.7538 138.233 63.068C136.754 63.7472 135.445 64.7484 134.402 65.9982C133.823 66.6662 133.331 67.4046 132.937 68.1959C132.587 68.8489 132.389 69.5727 132.358 70.313C132.34 70.8311 132.48 71.3423 132.761 71.7782C132.959 72.0712 133.142 72.1737 133.157 72.1518Z" fill="#65C098"/>
<path d="M137.537 74.8254C137.684 74.8254 137.069 72.0783 137.94 68.8477C138.812 65.6171 140.643 63.522 140.519 63.4414C140.036 63.8065 139.628 64.2617 139.317 64.782C138.49 65.9862 137.878 67.3246 137.508 68.7378C137.136 70.1489 137.015 71.6142 137.149 73.0673C137.166 73.6726 137.298 74.2692 137.537 74.8254Z" fill="#65C098"/>
<path d="M165.001 83.7936C164.942 80.6143 164.869 78.0137 164.869 78.0283C164.869 78.043 172.253 77.2152 174.29 67.7724C175.301 63.0694 175.491 55.2749 175.44 48.8943C175.396 43.1437 170.502 35.3199 163.411 35.2979L160.254 34.9316L148.189 39.7299C147.348 39.7717 146.554 40.1278 145.964 40.7275C145.374 41.3272 145.03 42.1269 145.002 42.9679L144.958 83.9914L157.009 114.026L164.671 100.335L165.001 83.7936Z" fill="#A8605D"/>
<path d="M160.1 65.5452C160.154 65.2017 160.293 64.8774 160.506 64.6025C160.718 64.3275 160.997 64.1108 161.316 63.9726C161.635 63.8343 161.983 63.7791 162.329 63.812C162.675 63.8449 163.007 63.9648 163.294 64.1606C163.683 64.4598 163.985 64.8571 164.169 65.3116C164.353 65.7661 164.413 66.2613 164.342 66.7466C164.134 67.0377 163.866 67.2811 163.557 67.4605C163.247 67.6399 162.903 67.7512 162.547 67.7868C162.435 67.7941 162.322 67.7941 162.21 67.7868C161.646 67.7885 161.104 67.5734 160.694 67.1861C160.476 66.9758 160.31 66.7187 160.207 66.4343C160.104 66.1499 160.068 65.8458 160.1 65.5452Z" fill="#844949"/>
<path d="M172.656 56.3209C172.643 56.6402 172.505 56.9417 172.272 57.1607C172.04 57.3798 171.73 57.499 171.411 57.493C171.255 57.4969 171.099 57.4695 170.953 57.4123C170.808 57.3552 170.675 57.2695 170.563 57.1602C170.451 57.051 170.362 56.9205 170.301 56.7763C170.241 56.6322 170.209 56.4773 170.209 56.3209C170.223 56.0016 170.361 55.7002 170.593 55.4811C170.826 55.2621 171.135 55.1428 171.455 55.1488C171.611 55.1449 171.767 55.1723 171.912 55.2295C172.058 55.2866 172.191 55.3723 172.303 55.4816C172.415 55.5908 172.504 55.7213 172.564 55.8655C172.625 56.0096 172.656 56.1645 172.656 56.3209Z" fill="#263238"/>
<path d="M173.088 52.4175C172.935 52.5714 172.041 51.8315 170.722 51.7655C169.404 51.6996 168.407 52.3003 168.275 52.1318C168.144 51.9633 168.378 51.7802 168.81 51.4945C169.402 51.1284 170.094 50.9568 170.788 51.0037C171.475 51.0439 172.131 51.3003 172.663 51.7362C173.052 52.0586 173.169 52.3516 173.088 52.4175Z" fill="#263238"/>
<path d="M164.818 62.3962C165.524 62.2188 166.25 62.1277 166.979 62.1251C167.316 62.1251 167.638 62.0592 167.711 61.8394C167.76 61.4931 167.701 61.1402 167.543 60.8285C167.274 59.9933 166.988 59.1216 166.686 58.2132C165.506 54.4918 164.671 51.437 164.825 51.3931C164.979 51.3491 166.056 54.3233 167.235 58.0447L168.041 60.6746C168.235 61.0896 168.271 61.5608 168.143 62.0006C168.089 62.1171 168.009 62.2195 167.909 62.2996C167.808 62.3797 167.69 62.4353 167.565 62.4621C167.378 62.5058 167.185 62.523 166.993 62.5134C166.266 62.5673 165.535 62.5279 164.818 62.3962Z" fill="#263238"/>
<path d="M164.869 78.0276C160.372 77.8515 156.012 76.4287 152.276 73.918C152.276 73.918 155.317 80.7235 164.92 80.3499L164.869 78.0276Z" fill="#844949"/>
<path d="M160.892 63.0919C161.104 63.0919 161.031 64.557 162.195 65.6046C163.36 66.6522 164.891 66.6155 164.899 66.8133C164.899 66.9012 164.54 67.0697 163.895 67.0551C163.057 67.0205 162.258 66.691 161.639 66.1247C161.045 65.5834 160.685 64.8319 160.635 64.0296C160.613 63.4289 160.796 63.0846 160.892 63.0919Z" fill="#263238"/>
<path d="M172.773 47.6858C172.524 47.9715 171.631 47.6125 170.576 47.5393C169.521 47.466 168.546 47.6272 168.378 47.3049C168.297 47.1437 168.459 46.8507 168.876 46.5723C169.438 46.2642 170.079 46.129 170.717 46.1838C171.356 46.2385 171.964 46.4807 172.466 46.88C172.773 47.2316 172.883 47.5466 172.773 47.6858Z" fill="#263238"/>
<path d="M158.181 55.6919C158.173 56.0115 158.29 56.3215 158.508 56.5557C158.726 56.7898 159.027 56.9294 159.346 56.9446C159.501 56.9597 159.658 56.9436 159.807 56.8974C159.955 56.8512 160.094 56.7758 160.213 56.6755C160.332 56.5752 160.431 56.4521 160.502 56.3134C160.573 56.1747 160.616 56.0232 160.628 55.8677C160.636 55.5474 160.519 55.2366 160.301 55.0013C160.084 54.766 159.783 54.6248 159.463 54.6077C159.307 54.5916 159.149 54.6072 159 54.6534C158.85 54.6997 158.711 54.7757 158.591 54.877C158.472 54.9782 158.374 55.1026 158.303 55.2426C158.233 55.3826 158.191 55.5355 158.181 55.6919Z" fill="#263238"/>
<path d="M155.046 51.9485C155.192 52.1097 156.137 51.4357 157.456 51.465C158.774 51.4943 159.727 52.1976 159.873 52.0071C160.02 51.8167 159.793 51.6482 159.375 51.3332C158.815 50.9256 158.141 50.7029 157.448 50.6958C156.76 50.6835 156.086 50.8886 155.522 51.2819C155.111 51.5896 154.972 51.8753 155.046 51.9485Z" fill="#263238"/>
<path d="M155.99 49.2976C156.217 49.6052 157.133 49.2976 158.224 49.2976C159.316 49.2976 160.239 49.532 160.422 49.2243C160.525 49.0705 160.378 48.7701 159.983 48.4918C159.447 48.1375 158.815 47.956 158.173 47.9716C157.535 47.9822 156.916 48.1894 156.4 48.565C156.019 48.8727 155.887 49.1804 155.99 49.2976Z" fill="#263238"/>
<path d="M144.987 56.4333L146.635 58.1475C153.771 51.3127 167.719 34.2147 166.942 35.233C163.689 34.0153 160.183 33.6349 156.745 34.1268C151.441 35.0278 141.361 37.6797 141.529 43.9431C141.698 50.2065 144.987 56.4333 144.987 56.4333Z" fill="#263238"/>
<path d="M140.211 61.8376C140.265 61.3365 140.287 60.8324 140.277 60.3285C140.337 58.9623 140.518 57.6041 140.819 56.2701C141.874 51.868 143.986 47.7894 146.973 44.3879C149.991 41.0161 153.509 38.1278 157.404 35.8243C158.869 34.9159 160.115 34.2346 160.965 33.7658C161.419 33.5542 161.857 33.3093 162.276 33.0332C162.147 33.0563 162.023 33.1009 161.91 33.1651C161.675 33.2749 161.323 33.4215 160.884 33.6412C160.005 34.0588 158.752 34.7108 157.221 35.5825C153.24 37.8281 149.657 40.7139 146.614 44.1242C143.577 47.575 141.469 51.7424 140.489 56.2335C140.213 57.5883 140.076 58.9678 140.079 60.3505C140.079 60.8413 140.123 61.2222 140.138 61.4786C140.147 61.6009 140.172 61.7215 140.211 61.8376Z" fill="#65C098"/>
<path d="M158.181 32.623C158.048 32.6448 157.92 32.6868 157.8 32.7476C157.558 32.8355 157.199 32.9893 156.752 33.1944C155.844 33.5974 154.555 34.22 153.002 35.0845C151.186 36.0975 149.427 37.2102 147.734 38.4176C145.626 39.8654 143.696 41.5571 141.984 43.4577C141.101 44.4674 140.362 45.5939 139.786 46.8055C139.27 47.9383 138.91 49.136 138.717 50.3657C138.414 52.4377 138.414 54.5425 138.717 56.6145C138.909 58.002 139.173 59.3786 139.508 60.7388C139.618 61.2223 139.72 61.5886 139.786 61.845C139.811 61.9754 139.856 62.1014 139.918 62.2186C139.875 61.7079 139.794 61.2011 139.676 60.7022C139.5 59.7279 139.229 58.3214 139.032 56.5705C138.772 54.5307 138.797 52.4647 139.105 50.4317C139.303 49.2416 139.661 48.0836 140.167 46.9886C140.722 45.8156 141.434 44.7238 142.284 43.7434C143.97 41.87 145.865 40.1962 147.932 38.7546C149.615 37.5415 151.359 36.4143 153.155 35.3775C154.679 34.4838 155.947 33.8245 156.818 33.3703C157.287 33.1489 157.742 32.8994 158.181 32.623Z" fill="#65C098"/>
<path d="M144.855 56.622C145.164 56.3727 145.448 56.0956 145.705 55.7942L147.903 53.4427C149.742 51.4501 152.254 48.6664 155.016 45.5823C157.778 42.4982 160.254 39.6778 162.034 37.6266L164.122 35.1799C164.396 34.8917 164.641 34.5777 164.854 34.2422C164.546 34.4861 164.264 34.7611 164.012 35.0627L161.814 37.4142C159.976 39.4141 157.419 42.1905 154.701 45.2819C151.983 48.3733 149.456 51.1864 147.683 53.2375L145.595 55.6843C145.318 55.9713 145.07 56.2855 144.855 56.622Z" fill="#65C098"/>
<path d="M146.394 59.1865C146.394 58.4539 145.661 56.7544 145.009 56.6006C143.149 56.205 139.764 56.1757 139.471 60.93C139.068 67.4352 145.683 66.4975 145.705 66.307C145.727 66.1165 146.262 61.6406 146.394 59.1865Z" fill="#A8605D"/>
<path d="M144.299 63.6347C144.299 63.6347 144.181 63.7006 143.984 63.7812C143.713 63.8892 143.412 63.8892 143.141 63.7812C142.467 63.4881 141.954 62.36 141.998 61.1879C142.013 60.6282 142.156 60.0794 142.416 59.5836C142.488 59.3845 142.608 59.2062 142.765 59.0643C142.922 58.9225 143.112 58.8216 143.317 58.7704C143.449 58.7445 143.585 58.7645 143.704 58.8272C143.823 58.8899 143.916 58.9914 143.969 59.1147C144.042 59.3052 143.969 59.4297 144.028 59.4444C144.086 59.459 144.174 59.3492 144.138 59.0708C144.11 58.9102 144.03 58.7633 143.91 58.6532C143.826 58.5792 143.727 58.5228 143.62 58.4876C143.513 58.4524 143.4 58.4389 143.288 58.4481C143.017 58.485 142.761 58.5905 142.543 58.7547C142.325 58.9188 142.153 59.1361 142.042 59.3858C141.734 59.9326 141.563 60.5459 141.544 61.1732C141.5 62.4845 142.101 63.7519 143.009 64.1035C143.181 64.1638 143.364 64.1853 143.546 64.1663C143.727 64.1473 143.901 64.0883 144.057 63.9936C144.277 63.7885 144.321 63.642 144.299 63.6347Z" fill="#844949"/>
<path d="M145.141 73.3478C145.141 73.3478 144.987 73.5749 144.599 73.824C144.03 74.1689 143.392 74.384 142.731 74.454C141.734 74.5615 140.728 74.3567 139.852 73.8679C138.788 73.2253 138.014 72.1968 137.691 70.997C137.367 69.7972 137.519 68.5189 138.116 67.4287C138.627 66.5636 139.395 65.8798 140.314 65.4728C140.918 65.1983 141.576 65.0631 142.24 65.0772C142.709 65.0772 142.973 65.1871 142.973 65.2164C142.119 65.2598 141.282 65.4636 140.504 65.8171C139.698 66.2352 139.031 66.8793 138.585 67.6705C138.068 68.6503 137.948 69.7909 138.248 70.8571C138.532 71.9273 139.209 72.8508 140.145 73.443C140.93 73.9006 141.831 74.1196 142.738 74.0731C143.577 73.9809 144.392 73.735 145.141 73.3478Z" fill="#65C098"/>
<path d="M181.74 265.491L179.469 245.814L161.229 250.92L165.829 269.791L181.74 265.491Z" fill="#A8605D"/>
<path d="M181.945 265.404L185.029 288.341L192.699 305.776C192.829 306.073 192.896 306.394 192.897 306.719C192.899 307.043 192.833 307.365 192.706 307.663C192.578 307.962 192.391 308.231 192.155 308.454C191.92 308.678 191.641 308.851 191.337 308.962C190.981 309.09 190.6 309.13 190.225 309.081C189.85 309.031 189.493 308.892 189.183 308.677C185.168 305.886 170.444 295.535 170.312 293.842C170.158 291.879 165.448 269.866 165.448 269.866L181.945 265.404Z" fill="#65C098"/>
<g opacity="0.6">
<path d="M191.337 308.99L170.092 292.324L170.246 293.291C170.37 294.123 170.785 294.884 171.418 295.438C173.14 296.903 177.975 300.888 189.11 308.712C189.427 308.931 189.792 309.07 190.175 309.117C190.558 309.164 190.946 309.118 191.307 308.983L191.337 308.99Z" fill="#1D1B1B"/>
</g>
<g opacity="0.6">
<path d="M173.594 284.216C173.903 284.382 174.141 284.655 174.266 284.983C174.392 285.311 174.395 285.673 174.275 286.003C174.123 286.323 173.855 286.572 173.526 286.7C173.196 286.828 172.83 286.825 172.502 286.692C172.168 286.521 171.908 286.233 171.773 285.883C171.638 285.533 171.637 285.145 171.77 284.794C171.967 284.483 172.274 284.258 172.629 284.163C172.985 284.068 173.363 284.11 173.689 284.282" fill="#1D1B1B"/>
</g>
<path d="M184.531 299.833C184.67 299.877 185 298.595 186.26 297.738C187.52 296.881 188.802 296.961 188.809 296.822C188.817 296.683 188.502 296.624 187.952 296.639C187.238 296.664 186.546 296.901 185.967 297.32C185.378 297.731 184.92 298.303 184.648 298.968C184.458 299.474 184.473 299.833 184.531 299.833Z" fill="#263238"/>
<path d="M186.641 302.631C186.765 302.712 187.373 301.854 188.516 301.327C189.659 300.8 190.714 300.836 190.714 300.682C190.714 300.528 189.585 300.25 188.311 300.865C187.036 301.481 186.516 302.587 186.641 302.631Z" fill="#263238"/>
<path d="M180.883 296.382C181.007 296.47 181.945 295.144 183.63 294.185C185.315 293.225 186.919 293.012 186.897 292.859C186.875 292.705 185.168 292.683 183.373 293.745C181.579 294.807 180.765 296.331 180.883 296.382Z" fill="#263238"/>
<path d="M179.359 289.489C179.447 289.614 180.626 288.889 182.289 288.566C183.952 288.244 185.286 288.442 185.315 288.288C185.344 288.134 183.938 287.709 182.187 288.068C180.436 288.427 179.271 289.394 179.359 289.489Z" fill="#263238"/>
<path d="M178.29 282.781C178.377 282.898 179.528 281.938 181.278 281.74C183.029 281.543 184.37 282.165 184.428 282.026C184.487 281.887 184.165 281.726 183.586 281.506C182.828 281.227 182.013 281.136 181.212 281.242C180.413 281.339 179.648 281.623 178.978 282.07C178.473 282.422 178.246 282.737 178.29 282.781Z" fill="#263238"/>
<path d="M181.037 280.472C181.064 280.177 181.027 279.879 180.927 279.6C180.725 278.821 180.372 278.089 179.887 277.446C179.571 276.943 179.097 276.559 178.539 276.355C178.35 276.304 178.151 276.313 177.967 276.38C177.784 276.447 177.625 276.568 177.513 276.728C177.316 277.056 177.245 277.444 177.315 277.82C177.489 278.58 177.921 279.256 178.539 279.732C179.157 280.208 179.921 280.454 180.7 280.428C181.469 280.383 182.207 280.112 182.821 279.647C183.435 279.183 183.898 278.547 184.15 277.82C184.215 277.638 184.239 277.443 184.22 277.251C184.201 277.058 184.14 276.872 184.04 276.706C183.926 276.547 183.763 276.428 183.576 276.367C183.388 276.307 183.187 276.307 183 276.369C182.456 276.579 181.978 276.931 181.616 277.388C181.072 277.981 180.638 278.665 180.334 279.409C180.206 279.674 180.129 279.959 180.107 280.252C180.571 279.301 181.168 278.42 181.879 277.637C182.209 277.252 182.63 276.955 183.103 276.772C183.205 276.739 183.315 276.739 183.418 276.771C183.521 276.804 183.61 276.869 183.674 276.955C183.724 277.071 183.749 277.196 183.749 277.322C183.749 277.448 183.724 277.572 183.674 277.688C183.433 278.304 183.021 278.839 182.486 279.228C181.951 279.617 181.316 279.846 180.656 279.886C179.99 279.907 179.338 279.701 178.805 279.301C178.273 278.902 177.892 278.333 177.726 277.688C177.676 277.438 177.715 277.179 177.836 276.955C177.894 276.864 177.98 276.793 178.082 276.753C178.183 276.714 178.294 276.708 178.4 276.736C178.865 276.913 179.266 277.227 179.55 277.637C180.208 278.487 180.712 279.447 181.037 280.472Z" fill="#263238"/>
<path d="M238.448 154.691C222.332 151.76 189.176 159.862 189.176 159.862L182.077 151.738H144.717L138.226 166.961L155.925 193.333L160.064 208.871C160.064 208.871 177.572 206.102 176.832 206.19C176.092 206.278 188.062 203.706 188.788 203.611C217.988 199.626 233.562 187.319 242.265 178.616C251.143 169.693 244.594 155.804 238.448 154.691Z" fill="#263238"/>
<path d="M163.096 211.392C163.015 210.865 162.781 209.451 162.305 206.55C162.048 204.997 161.726 203.107 161.316 200.931C161.103 199.847 160.876 198.69 160.583 197.474C160.444 196.866 160.298 196.236 160.122 195.598C160.027 195.283 159.931 194.961 159.814 194.639C159.714 194.292 159.548 193.969 159.323 193.686L159.272 193.921C166.217 191.452 174.89 188.199 184.143 184.295C189.835 181.877 195.197 179.431 199.922 176.889C202.177 175.716 204.339 174.374 206.39 172.874C208.31 171.46 210.017 170.047 211.621 168.809C214.067 166.757 216.84 165.133 219.826 164.003C220.305 163.831 220.794 163.689 221.291 163.578C221.645 163.478 222.004 163.399 222.368 163.344L223.034 163.226C223.112 163.216 223.188 163.197 223.261 163.168C223.183 163.163 223.105 163.163 223.027 163.168L222.353 163.256C221.988 163.297 221.625 163.364 221.269 163.453C220.773 163.558 220.284 163.69 219.804 163.849C218.49 164.274 217.225 164.839 216.031 165.534C214.449 166.445 212.933 167.469 211.496 168.596C209.877 169.819 208.156 171.219 206.244 172.618C204.193 174.095 202.036 175.42 199.79 176.581C195.072 179.101 189.71 181.533 184.033 183.951C174.788 187.848 166.121 191.13 159.199 193.628L159.008 193.701L159.155 193.869C159.341 194.125 159.485 194.41 159.58 194.712C159.697 195.027 159.792 195.342 159.88 195.657C160.063 196.28 160.217 196.902 160.356 197.51C160.642 198.719 160.884 199.876 161.089 200.953C161.521 203.151 161.865 205.004 162.144 206.55C162.422 208.096 162.656 209.283 162.81 210.125C162.891 210.535 162.957 210.858 163.008 211.055C163.059 211.253 163.096 211.392 163.096 211.392Z" fill="#65C098"/>
<path d="M140.079 154.788L139.749 159.747C139.749 159.747 135.552 167.688 135.171 174.794C134.944 178.925 134.856 185.013 134.819 189.386C134.787 192.909 135.76 196.368 137.625 199.357L148.679 209.613L155.521 234.879L164.312 265.434L182.626 260.701L179.952 196.507C179.886 187.716 175.887 177.46 170.883 166.794L169.162 152.678L140.079 154.788Z" fill="#263238"/>
<path d="M182.634 251.587C182.61 251.499 182.596 251.408 182.59 251.316C182.59 251.104 182.553 250.84 182.524 250.511C182.48 249.778 182.414 248.73 182.326 247.419C182.172 244.687 181.96 240.826 181.689 236.042C181.205 226.395 180.531 213.135 179.791 198.491C179.557 194.828 179.645 191.217 178.868 187.869C178.145 184.644 176.89 181.562 175.154 178.749C173.573 176.208 171.612 173.925 169.338 171.98C167.34 170.298 165.122 168.898 162.745 167.819C159.301 166.235 155.586 165.325 151.8 165.138C150.773 165.085 149.743 165.085 148.716 165.138L147.91 165.174H147.61C148.991 164.959 150.389 164.878 151.785 164.933C155.613 165.047 159.381 165.911 162.876 167.475C165.294 168.546 167.552 169.946 169.587 171.635C171.913 173.596 173.92 175.907 175.535 178.485C177.315 181.339 178.603 184.471 179.344 187.752C180.143 191.18 180.077 194.806 180.289 198.455C180.971 213.106 181.586 226.365 182.033 236.013C182.231 240.789 182.392 244.672 182.502 247.397C182.546 248.716 182.582 249.749 182.604 250.496C182.604 250.826 182.604 251.089 182.604 251.302C182.626 251.395 182.636 251.491 182.634 251.587Z" fill="#65C098"/>
<path d="M169.938 211.477C169.806 211.411 170.942 208.774 172.465 205.573C173.989 202.372 175.344 199.837 175.476 199.896C175.608 199.954 174.473 202.606 172.942 205.8C171.411 208.994 170.07 211.543 169.938 211.477Z" fill="#65C098"/>
<path d="M157.185 202.74C157.324 202.689 157.917 203.919 158.474 205.487C159.031 207.055 159.405 208.366 159.273 208.417C159.141 208.468 158.54 207.238 157.976 205.67C157.412 204.102 157.046 202.791 157.185 202.74Z" fill="#65C098"/>
<path d="M148.013 195.156C148.053 195.324 148.075 195.496 148.079 195.669C148.079 196.065 148.13 196.548 148.167 197.134C148.24 198.482 148.335 200.306 148.452 202.519C148.526 207.082 149.917 213.229 151.448 220.005C152.98 226.781 154.65 232.854 155.954 237.213C156.591 239.41 157.177 241.147 157.587 242.341C157.838 242.952 158.051 243.578 158.225 244.216C158.126 244.075 158.045 243.922 157.983 243.762C157.844 243.461 157.631 243.029 157.397 242.414C156.928 241.227 156.283 239.484 155.595 237.323C154.203 232.971 152.525 226.898 150.936 220.115C149.346 213.331 148.057 207.119 148.079 202.533C147.998 200.248 147.969 198.409 147.961 197.127C147.961 196.541 147.961 196.057 147.961 195.662C147.951 195.492 147.968 195.321 148.013 195.156Z" fill="#65C098"/>
<path d="M189.432 163.578C189.476 163.666 188.414 164.113 186.971 165.241C185.107 166.724 183.588 168.594 182.517 170.721C181.464 172.861 180.771 175.16 180.465 177.526C180.224 179.343 180.209 180.493 180.121 180.493C180.046 180.231 180.017 179.959 180.033 179.687C180.009 178.954 180.031 178.22 180.099 177.489C180.298 175.052 180.959 172.676 182.048 170.486C183.147 168.289 184.761 166.389 186.751 164.948C187.35 164.519 187.991 164.151 188.663 163.849C188.901 163.713 189.161 163.622 189.432 163.578Z" fill="#65C098"/>
<path d="M216.822 162.15C216.918 162.274 215.291 163.615 213.672 165.6C212.053 167.585 211.064 169.446 210.925 169.373C210.786 169.299 211.584 167.307 213.262 165.263C214.94 163.219 216.749 162.04 216.822 162.15Z" fill="#65C098"/>
<path d="M173.484 176.03C173.396 176.03 173.484 174.726 173.425 172.645C173.302 169.925 172.984 167.218 172.473 164.543L170.949 156.485C170.694 155.377 170.528 154.25 170.451 153.115C170.825 154.187 171.114 155.287 171.316 156.404C171.77 158.456 172.422 161.276 172.993 164.463C173.514 167.159 173.784 169.899 173.799 172.645C173.796 173.477 173.749 174.309 173.66 175.136C173.646 175.441 173.587 175.742 173.484 176.03Z" fill="#65C098"/>
<path d="M173.418 154.398C173.418 154.398 173.506 154.267 173.755 154.201C174.11 154.125 174.48 154.174 174.802 154.34C175.055 154.467 175.268 154.662 175.418 154.902C175.568 155.142 175.649 155.419 175.652 155.702C175.65 156.055 175.54 156.398 175.339 156.687C175.138 156.976 174.853 157.197 174.524 157.321C174.187 157.432 173.824 157.431 173.488 157.317C173.153 157.204 172.863 156.984 172.663 156.691C172.497 156.461 172.399 156.188 172.381 155.904C172.362 155.62 172.425 155.337 172.561 155.087C172.731 154.764 173.015 154.515 173.359 154.391C173.601 154.311 173.74 154.34 173.747 154.391C173.755 154.442 173.198 154.574 172.898 155.27C172.815 155.479 172.793 155.707 172.835 155.928C172.877 156.149 172.98 156.354 173.134 156.518C173.287 156.682 173.484 156.8 173.702 156.856C173.919 156.913 174.149 156.906 174.363 156.838C174.591 156.748 174.788 156.595 174.931 156.396C175.073 156.197 175.156 155.962 175.169 155.717C175.178 155.513 175.133 155.311 175.037 155.13C174.942 154.95 174.8 154.798 174.626 154.691C174.259 154.482 173.84 154.38 173.418 154.398Z" fill="#65C098"/>
<path d="M175.447 86.0352C175.447 86.0352 187.337 90.2181 188.633 97.6536C189.93 105.089 196.018 131.806 196.018 131.806L231.913 136.457L227.738 146.164C227.738 146.164 187.359 148.208 185.476 146.164C183.593 144.12 175.447 86.0352 175.447 86.0352Z" fill="#65C098"/>
<path d="M139.054 155.029C139.559 152.466 140.227 149.939 141.054 147.462L135.039 101.962L130.864 86.8054L144.314 83.1426C149.251 90.7393 163.749 91.3546 165.844 83.1426L175.448 86.0362C175.448 86.0362 189.586 111.625 188.927 120.562C188.194 130.364 191.322 146.202 191.322 146.202C191.322 146.202 191.666 151.425 188.04 153.872L139.054 155.029Z" fill="#65C098"/>
<path d="M130.863 86.7832C130.863 86.7832 123.296 90.7171 121.509 98.1452C120.219 103.493 118.681 136.766 121.509 142.546C124.336 148.326 126.556 152.003 132.651 153.036C138.746 154.069 176.268 152.531 176.268 152.531L178.282 138.041L138.218 132.078C138.218 132.078 137.215 102.27 136.753 100.204" fill="#65C098"/>
<path d="M144.314 83.1856C144.314 83.1856 143.662 80.1015 144.314 79.8158C144.966 79.5301 166.063 80.3945 166.21 81.1124C166.286 82.1464 166.286 83.1845 166.21 84.2185C166.21 84.2185 163.902 89.9178 158.599 90.3207C153.295 90.7236 144.592 85.2441 144.314 83.1856Z" fill="#65C098"/>
<path d="M182.773 139.885L193.205 139.152L198.208 142.544L202.516 148.346C202.319 148.625 202.032 148.826 201.703 148.916C201.374 149.005 201.024 148.977 200.713 148.837L202.318 150.778C202.23 150.953 202.108 151.108 201.958 151.234C201.808 151.359 201.633 151.453 201.446 151.508C201.258 151.563 201.061 151.578 200.867 151.554C200.673 151.529 200.486 151.464 200.318 151.364L201.307 152.895C200.762 153.078 200.172 153.075 199.629 152.885C199.087 152.695 198.623 152.33 198.311 151.848C197.291 150.393 196.172 149.01 194.963 147.709L191.146 146.441L194.868 150.141L196.933 153.423C196.933 153.423 196.56 154.456 195.805 153.979C194.776 153.043 193.828 152.021 192.97 150.925L188.575 148.126C188.575 148.126 185.469 149.533 184.502 149.547C183.535 149.562 180.407 147.562 180.407 147.562L177.433 149.533L178.231 139.152L182.773 139.885Z" fill="#A8605D"/>
<path d="M202.347 150.742C201.872 150.3 201.445 149.809 201.072 149.277C200.34 148.332 199.314 147.014 198.215 145.534L197.168 144.12L197.219 144.164C196.018 143.432 194.977 142.78 194.252 142.303C193.846 142.077 193.467 141.804 193.124 141.49C193.561 141.644 193.979 141.848 194.369 142.098C195.102 142.516 196.193 143.124 197.417 143.842L198.479 145.256C199.578 146.721 200.552 148.076 201.241 149.065C201.669 149.583 202.04 150.145 202.347 150.742Z" fill="#844949"/>
<path d="M201.087 152.493C200.668 152.074 200.295 151.613 199.974 151.116C199.329 150.237 198.45 149.006 197.505 147.629L196.574 146.251L196.648 146.317C195.307 145.733 194.012 145.05 192.772 144.273C194.157 144.745 195.506 145.315 196.809 145.98H196.853V146.024L197.798 147.387C198.743 148.757 199.578 150.017 200.171 150.94C200.536 151.42 200.844 151.941 201.087 152.493Z" fill="#844949"/>
<path d="M138.819 153.217C138.877 153.208 138.937 153.208 138.995 153.217H139.537L141.625 153.159L149.493 152.997L177.081 152.536L176.912 152.697C177.279 148.155 177.682 143.218 178.099 138.046L178.26 138.251L168.612 136.786L138.196 132.229H138.05V132.075C138.375 124.368 138.246 116.648 137.662 108.956C137.442 106.165 137.2 103.982 137.032 102.495C136.944 101.762 136.878 101.198 136.834 100.795C136.834 100.612 136.834 100.465 136.783 100.355C136.731 100.246 136.783 100.209 136.783 100.209C136.783 100.209 136.783 100.253 136.783 100.348C136.783 100.443 136.827 100.605 136.856 100.788C136.914 101.183 136.995 101.755 137.105 102.48C137.303 103.945 137.574 106.143 137.837 108.941C138.499 116.634 138.68 124.36 138.38 132.075L138.24 131.907L168.664 136.412L178.312 137.877H178.48V138.053C178.055 143.181 177.645 148.141 177.264 152.704V152.858H177.103L149.507 153.181L141.639 153.247H138.819V153.217Z" fill="#263238"/>
<path d="M166.21 81.1113C166.281 81.4558 166.313 81.8072 166.305 82.1589C166.305 82.4959 166.305 82.8915 166.305 83.3969C166.304 83.9595 166.194 84.5166 165.983 85.0379C165.512 85.5531 164.897 85.9133 164.217 86.0708C163.482 86.2681 162.736 86.4246 161.983 86.5396C160.269 86.8227 158.534 86.9575 156.796 86.9425C153.63 86.9152 150.486 86.4215 147.464 85.4774C146.534 85.2204 145.658 84.7986 144.878 84.2321C144.67 84.0736 144.478 83.8944 144.306 83.6973C144.239 83.6317 144.185 83.5548 144.145 83.4702C144.145 83.4702 144.416 83.7412 144.965 84.1148C145.76 84.6192 146.631 84.9927 147.544 85.221C150.556 86.0697 153.667 86.5131 156.796 86.5396C158.513 86.5543 160.227 86.4318 161.924 86.1733C162.664 86.068 163.398 85.9237 164.122 85.7411C164.444 85.6595 164.757 85.5415 165.052 85.3895C165.191 85.3229 165.323 85.2444 165.448 85.1551C165.564 85.0836 165.664 84.9888 165.741 84.8767C165.943 84.3926 166.06 83.877 166.085 83.353C166.129 82.8841 166.151 82.4739 166.166 82.1369C166.155 81.7944 166.17 81.4517 166.21 81.1113Z" fill="#263238"/>
<path d="M147.757 85.4351C147.096 84.6941 146.712 83.7463 146.673 82.754C146.508 81.7716 146.695 80.7626 147.2 79.9043C147.07 80.836 147.021 81.7772 147.054 82.7173C147.212 83.6413 147.447 84.5504 147.757 85.4351Z" fill="#263238"/>
<path d="M152.101 79.9258C152.218 79.9258 151.969 81.3909 152.02 83.1417C152.071 84.8926 152.379 86.3284 152.269 86.3577C151.487 84.2945 151.427 82.0271 152.101 79.9258Z" fill="#263238"/>
<path d="M157.58 86.658C157.408 85.6026 157.359 84.5307 157.434 83.464C157.391 82.3963 157.469 81.3272 157.668 80.2773C157.849 81.3318 157.898 82.4047 157.815 83.4713C157.863 84.5391 157.784 85.6088 157.58 86.658Z" fill="#263238"/>
<path d="M163.572 80.7969C163.852 81.7185 163.899 82.6947 163.712 83.6392C163.631 84.599 163.311 85.5233 162.781 86.3277C162.671 86.2838 163.118 85.1043 163.331 83.5879C163.543 82.0715 163.455 80.7969 163.572 80.7969Z" fill="#263238"/>
<path d="M182.04 126.582C182.034 126.238 182.061 125.894 182.121 125.556C182.202 124.897 182.348 123.952 182.517 122.787C183.069 119.767 183.205 116.686 182.92 113.63C182.542 110.585 181.905 107.578 181.015 104.641C180.707 103.557 180.451 102.656 180.246 101.946C180.138 101.621 180.057 101.287 180.004 100.949C180.165 101.252 180.293 101.571 180.385 101.902C180.605 102.524 180.92 103.433 181.271 104.561C182.248 107.496 182.928 110.522 183.3 113.593C183.595 116.681 183.422 119.795 182.788 122.831C182.575 123.937 182.407 124.86 182.268 125.578C182.226 125.919 182.15 126.256 182.04 126.582Z" fill="#263238"/>
<path d="M238.807 123.747L224.273 155.9C223.881 156.599 223.32 157.188 222.64 157.612C221.959 158.036 221.183 158.281 220.383 158.324L153.332 158.237C153.411 157.556 153.735 156.927 154.243 156.466C154.75 156.005 155.408 155.744 156.093 155.731L181.535 155.167L194.56 123.916C194.762 123.428 195.103 123.009 195.54 122.714C195.978 122.418 196.493 122.258 197.022 122.253L237.635 121.945C237.849 121.943 238.06 121.995 238.249 122.097C238.438 122.198 238.598 122.345 238.715 122.525C238.832 122.705 238.902 122.911 238.918 123.124C238.934 123.338 238.896 123.552 238.807 123.747Z" fill="#ACABAB"/>
<path d="M238.807 123.747C238.873 123.633 238.913 123.506 238.924 123.374C238.952 123.179 238.934 122.98 238.872 122.793C238.809 122.606 238.704 122.436 238.565 122.297C238.36 122.081 238.084 121.946 237.788 121.916C237.466 121.916 237.129 121.916 236.755 121.916H234.169L217.452 121.982L205.731 122.048H199.138H197.417C196.804 121.998 196.191 122.128 195.651 122.421C195.104 122.741 194.674 123.229 194.428 123.813C194.193 124.363 193.966 124.92 193.732 125.476C189.996 134.421 185.835 144.376 181.381 155.05L181.557 154.925L167.807 155.226L160.642 155.379L156.979 155.46H156.056C155.327 155.483 154.63 155.767 154.092 156.26C153.554 156.754 153.212 157.424 153.126 158.149V158.376H153.36L195.116 158.42H219.562C219.899 158.42 220.229 158.42 220.573 158.42C220.919 158.395 221.261 158.328 221.591 158.222C222.23 158.028 222.821 157.702 223.325 157.265C223.83 156.829 224.238 156.291 224.522 155.687C225.034 154.53 225.547 153.394 226.045 152.295C230.001 143.468 233.21 136.326 235.429 131.373L237.957 125.689L238.601 124.224C238.748 123.887 238.814 123.711 238.814 123.711L238.565 124.209C238.404 124.546 238.177 125.037 237.884 125.674C237.283 126.978 236.418 128.883 235.283 131.329L225.76 152.193L224.221 155.577C223.954 156.145 223.568 156.65 223.091 157.058C222.614 157.466 222.055 157.768 221.452 157.943C220.823 158.116 220.169 158.178 219.518 158.127H213.277L195.073 158.083L153.316 158.009L153.522 158.236C153.57 157.841 153.705 157.461 153.917 157.123C154.231 156.642 154.69 156.275 155.228 156.075C155.494 155.978 155.773 155.923 156.056 155.914H156.972L160.635 155.834L167.799 155.68L181.557 155.372H181.681L181.733 155.255C186.172 144.574 190.318 134.604 194.032 125.659C194.267 125.103 194.494 124.546 194.728 123.996C194.94 123.478 195.319 123.045 195.805 122.766C196.296 122.501 196.853 122.381 197.409 122.421H199.131L205.724 122.363L217.445 122.253L234.162 122.063L236.748 122.026C237.122 122.026 237.481 122.026 237.774 122.026C238.051 122.054 238.311 122.178 238.506 122.378C238.642 122.509 238.746 122.67 238.812 122.847C238.878 123.025 238.904 123.215 238.887 123.403C238.868 123.52 238.841 123.635 238.807 123.747Z" fill="#263238"/>
<path d="M182.773 158.604C182.855 158.497 182.921 158.378 182.971 158.253C183.103 157.974 183.256 157.63 183.454 157.212C183.879 156.245 184.458 154.949 185.154 153.366C186.575 150.106 188.494 145.587 190.567 140.576C192.641 135.565 194.494 130.994 195.739 127.683C196.369 126.02 196.875 124.672 197.204 123.734C197.351 123.302 197.468 122.943 197.571 122.65C197.623 122.526 197.657 122.395 197.673 122.262C197.592 122.37 197.53 122.492 197.49 122.621L197.051 123.676L195.468 127.573C194.091 130.913 192.238 135.433 190.194 140.422C188.15 145.411 186.267 149.945 184.89 153.256C184.245 154.861 183.711 156.187 183.308 157.161L182.897 158.231C182.839 158.349 182.797 158.474 182.773 158.604Z" fill="#65C098"/>
<path d="M209.08 139.336C209.08 139.748 209.202 140.151 209.431 140.493C209.66 140.835 209.985 141.102 210.366 141.259C210.746 141.416 211.165 141.457 211.569 141.376C211.972 141.295 212.343 141.097 212.634 140.805C212.924 140.513 213.122 140.142 213.201 139.738C213.281 139.334 213.239 138.915 213.08 138.535C212.921 138.155 212.654 137.831 212.311 137.603C211.967 137.375 211.565 137.254 211.153 137.256C210.88 137.256 210.61 137.31 210.358 137.414C210.106 137.519 209.877 137.672 209.684 137.866C209.492 138.059 209.339 138.288 209.235 138.541C209.132 138.793 209.079 139.063 209.08 139.336Z" fill="#1D1B1B"/>
<path d="M229.657 144.208C230.628 144.034 231.571 143.731 232.462 143.307C232.746 143.108 232.97 142.836 233.112 142.521C233.253 142.205 233.308 141.857 233.268 141.513L233.114 141C233.114 141 234.836 139.535 234.579 138.297C234.579 138.297 236.257 136.897 235.686 135.586C235.686 135.586 237.224 134.619 236.711 133.674C236.409 133.232 236.011 132.864 235.547 132.597C235.083 132.331 234.564 132.173 234.03 132.136C233.217 132.099 230.638 131.55 230.411 131.945C230.411 131.945 229.781 132.993 230.309 133.41L231.092 134.033C231.092 134.033 228.792 133.476 228.448 133.931C228.104 134.385 227.715 135.396 228.624 135.85C228.624 135.85 227.708 135.996 227.701 136.582C227.693 137.168 227.759 137.857 228.36 138.048C228.961 138.238 229.532 138.516 229.532 138.516C229.532 138.516 228.58 138.384 228.565 138.883C228.55 139.381 228.323 139.784 228.924 140.348C229.525 140.912 230.602 142.113 230.602 142.113L229.657 144.208Z" fill="#A8605D"/>
<path d="M229.613 138.58C229.613 138.58 229.877 138.58 230.294 138.676C230.821 138.775 231.32 138.984 231.759 139.291C232.2 139.607 232.566 140.018 232.829 140.492C233.034 140.859 233.114 141.115 233.144 141.108C233.138 140.869 233.075 140.636 232.961 140.426C232.716 139.909 232.343 139.462 231.876 139.13C231.408 138.796 230.86 138.591 230.287 138.536C230.062 138.495 229.83 138.51 229.613 138.58Z" fill="#844949"/>
<path d="M234.668 138.179C234.459 137.931 234.212 137.718 233.935 137.549C233.316 137.105 232.641 136.743 231.928 136.472C231.207 136.195 230.454 136.01 229.686 135.923C229.37 135.877 229.05 135.877 228.734 135.923C229.795 136.065 230.841 136.31 231.855 136.655C232.842 137.066 233.784 137.576 234.668 138.179Z" fill="#844949"/>
<path d="M235.73 135.534C234.339 134.639 232.744 134.109 231.093 133.996C231.093 134.055 232.17 134.238 233.444 134.663C234.719 135.088 235.701 135.586 235.73 135.534Z" fill="#844949"/>
<path d="M259.7 2.28125H202.318V86.7677H207.863L212.911 96.65L219.357 86.7677H259.7V2.28125Z" fill="#676767"/>
<path d="M259.692 2.28177C259.692 2.28177 259.692 2.40631 259.692 2.67003C259.692 2.93375 259.692 3.32933 259.692 3.8348C259.692 4.87504 259.692 6.4061 259.692 8.39134C259.692 12.3985 259.692 18.2443 259.736 25.6579C259.736 40.5362 259.787 61.6706 259.824 86.7682V86.9367H259.692H219.35L219.511 86.8562L213.057 96.7384L212.881 97.0168L212.728 96.7238C211.153 93.625 209.46 90.3212 207.761 86.988L207.68 86.8342L207.856 86.9441H202.12V86.7536C202.12 54.7919 202.12 25.4894 202.164 2.26712V2.11328H202.311L244.206 2.19386L255.692 2.23049H258.681C259.355 2.23049 259.692 2.23049 259.692 2.23049H258.652H255.627L244.111 2.27445L202.311 2.3477L202.464 2.20119C202.464 25.4234 202.464 54.7259 202.501 86.6877L202.311 86.4972H207.973L208.025 86.5998L208.098 86.7463L213.072 96.482H212.742C214.94 93.0829 217.138 89.7278 219.196 86.5998L219.247 86.5118H219.35H259.692L259.516 86.6877C259.553 61.634 259.582 40.5362 259.604 25.6945C259.604 18.259 259.641 12.3985 259.648 8.38402C259.648 6.38412 259.648 4.83842 259.648 3.79085C259.648 3.27806 259.648 2.88247 259.648 2.6041C259.648 2.32572 259.692 2.28177 259.692 2.28177Z" fill="#263238"/>
<path d="M218.375 16.9395H218.185C217.323 16.9395 216.625 17.638 216.625 18.4998V71.3249C216.625 72.1867 217.323 72.8853 218.185 72.8853H218.375C219.237 72.8853 219.936 72.1867 219.936 71.3249V18.4998C219.936 17.638 219.237 16.9395 218.375 16.9395Z" fill="#ACABAB"/>
<path d="M218.376 72.8853C218.764 72.8614 219.131 72.7035 219.416 72.4385C220.097 71.9183 219.819 70.6657 219.863 69.2298C219.863 66.2996 219.826 62.0434 219.804 56.7763C219.782 51.5092 219.804 45.297 219.76 38.3743C219.76 34.9093 219.76 31.2758 219.76 27.5031V18.8515C219.777 18.621 219.762 18.3894 219.716 18.1629C219.66 17.9509 219.554 17.7552 219.409 17.5915C219.259 17.4255 219.072 17.2971 218.863 17.2169C218.654 17.1368 218.43 17.107 218.207 17.13C217.987 17.1304 217.77 17.1839 217.575 17.2859C217.38 17.3879 217.212 17.5355 217.086 17.716C216.958 17.8938 216.875 18.0999 216.845 18.3167C216.845 18.5145 216.845 18.7856 216.845 19.0493V27.7228C216.845 31.4882 216.845 35.129 216.845 38.5941C216.845 45.5168 216.845 51.7802 216.808 56.996C216.771 62.2119 216.764 66.4608 216.749 69.4057C216.749 70.1382 216.749 70.7902 216.749 71.3543C216.753 71.5857 216.809 71.8132 216.913 72.02C217.017 72.2267 217.167 72.4073 217.35 72.5484C217.581 72.7227 217.854 72.8315 218.141 72.8634H218.442C218.342 72.8745 218.241 72.8745 218.141 72.8634C217.84 72.8518 217.549 72.7497 217.306 72.5703C217.106 72.4274 216.941 72.2399 216.825 72.0225C216.71 71.8051 216.646 71.5638 216.639 71.3176C216.639 70.7536 216.639 70.1016 216.639 69.369C216.639 66.4388 216.603 62.1899 216.581 56.9594C216.559 51.7289 216.581 45.4802 216.537 38.5574C216.537 35.0924 216.537 31.4516 216.537 27.6862C216.537 25.7962 216.537 23.8793 216.537 21.9356V19.0053C216.523 18.7491 216.523 18.4924 216.537 18.2361C216.579 17.9708 216.685 17.7196 216.845 17.5036C217.012 17.2726 217.232 17.0855 217.487 16.9579C217.743 16.8304 218.025 16.7663 218.31 16.771C218.582 16.7544 218.855 16.7983 219.108 16.8996C219.361 17.001 219.589 17.1572 219.775 17.3571C219.963 17.5653 220.096 17.817 220.163 18.0896C220.218 18.3471 220.237 18.6108 220.222 18.8735V21.8037C220.222 23.7572 220.222 25.6741 220.222 27.5543C220.222 31.327 220.222 34.9606 220.222 38.4256C220.222 45.3483 220.222 51.6117 220.178 56.8276C220.134 62.0434 220.134 66.2923 220.119 69.2811V71.2224C220.134 71.4675 220.094 71.7129 220.003 71.9409C219.912 72.1688 219.772 72.3738 219.592 72.541C219.43 72.6898 219.236 72.7985 219.025 72.8583C218.813 72.9181 218.591 72.9274 218.376 72.8853Z" fill="#263238"/>
<path d="M231.108 16.9395H230.917C230.056 16.9395 229.357 17.638 229.357 18.4998V71.3249C229.357 72.1867 230.056 72.8853 230.917 72.8853H231.108C231.97 72.8853 232.668 72.1867 232.668 71.3249V18.4998C232.668 17.638 231.97 16.9395 231.108 16.9395Z" fill="#ACABAB"/>
<path d="M231.122 72.8857C231.51 72.8624 231.878 72.7043 232.163 72.4388C232.844 71.9187 232.573 70.666 232.609 69.2302C232.609 66.3 232.609 62.0438 232.551 56.7766C232.492 51.5095 232.551 45.2974 232.507 38.3747C232.507 34.9096 232.507 31.2761 232.507 27.5034V21.7894C232.507 20.8224 232.507 19.8408 232.507 18.8592C232.523 18.6287 232.508 18.3971 232.463 18.1706C232.412 17.9579 232.309 17.7615 232.163 17.5992C232.011 17.4359 231.823 17.3094 231.615 17.2294C231.407 17.1495 231.183 17.1181 230.961 17.1377C230.74 17.1381 230.522 17.1916 230.326 17.2935C230.13 17.3955 229.961 17.543 229.833 17.7237C229.707 17.9019 229.627 18.1081 229.599 18.3244C229.599 18.5222 229.599 18.7933 229.599 19.057V21.9872C229.599 23.9407 229.599 25.8576 229.599 27.7378C229.599 31.5032 229.599 35.1441 229.599 38.6091C229.599 45.5318 229.599 51.7952 229.555 57.0111C229.511 62.2269 229.511 66.4758 229.496 69.4207V71.3693C229.498 71.601 229.554 71.8291 229.658 72.0361C229.762 72.2431 229.912 72.4234 230.097 72.5634C230.325 72.7374 230.596 72.8463 230.881 72.8784H231.181C231.081 72.8895 230.98 72.8895 230.881 72.8784C230.579 72.8655 230.289 72.7635 230.045 72.5853C229.846 72.4412 229.682 72.2534 229.567 72.0363C229.451 71.8192 229.387 71.5785 229.379 71.3327C229.379 70.7686 229.379 70.1166 229.379 69.384C229.379 66.4538 229.342 62.2049 229.313 56.9744C229.284 51.7439 229.313 45.4952 229.313 38.5724C229.313 35.1074 229.313 31.4666 229.313 27.7012V19.0277C229.313 18.7786 229.313 18.5515 229.313 18.2585C229.361 17.9949 229.466 17.745 229.621 17.5259C229.789 17.2959 230.009 17.1094 230.264 16.9819C230.519 16.8545 230.801 16.7898 231.086 16.7934C231.358 16.7746 231.631 16.8175 231.885 16.919C232.139 17.0205 232.366 17.1778 232.551 17.3794C232.738 17.5891 232.874 17.84 232.946 18.112C232.999 18.3698 233.016 18.6334 232.998 18.8958V27.5401C232.998 31.3128 232.998 34.9463 232.998 38.4113C232.998 45.334 232.998 51.5974 232.998 56.8133C232.998 62.0291 232.954 66.278 232.939 69.2668C232.939 69.9994 232.939 70.644 232.939 71.2081C232.958 71.4536 232.92 71.7001 232.828 71.9287C232.737 72.1572 232.594 72.3618 232.412 72.5267C232.244 72.6901 232.038 72.8086 231.813 72.8713C231.588 72.9341 231.35 72.939 231.122 72.8857Z" fill="#263238"/>
<path d="M243.832 16.9395H243.642C242.78 16.9395 242.082 17.638 242.082 18.4998V71.3249C242.082 72.1867 242.78 72.8853 243.642 72.8853H243.832C244.694 72.8853 245.393 72.1867 245.393 71.3249V18.4998C245.393 17.638 244.694 16.9395 243.832 16.9395Z" fill="#ACABAB"/>
<path d="M243.832 72.8853C244.22 72.8614 244.588 72.7035 244.872 72.4385C245.554 71.9183 245.275 70.6657 245.319 69.2298C245.319 66.2996 245.283 62.0434 245.261 56.7763C245.239 51.5092 245.261 45.297 245.217 38.3743C245.217 34.9093 245.217 31.2758 245.217 27.5031V18.8515C245.233 18.621 245.218 18.3894 245.173 18.1629C245.116 17.9509 245.011 17.7552 244.865 17.5915C244.715 17.4255 244.528 17.2971 244.32 17.2169C244.111 17.1368 243.886 17.107 243.664 17.13C243.444 17.1304 243.227 17.1839 243.032 17.2859C242.836 17.3879 242.669 17.5355 242.543 17.716C242.415 17.8938 242.332 18.0999 242.301 18.3167C242.301 18.5145 242.301 18.7856 242.301 19.0493V27.7228C242.301 31.4882 242.301 35.129 242.301 38.5941C242.301 45.5168 242.301 51.7802 242.264 56.996C242.228 62.2119 242.213 66.4608 242.206 69.4057C242.206 70.1382 242.206 70.7902 242.206 71.3543C242.21 71.5857 242.266 71.8132 242.37 72.02C242.474 72.2267 242.623 72.4073 242.807 72.5484C243.037 72.7227 243.31 72.8315 243.598 72.8634H243.898C243.798 72.8745 243.698 72.8745 243.598 72.8634C243.296 72.8518 243.005 72.7497 242.763 72.5703C242.562 72.4274 242.397 72.2399 242.282 72.0225C242.166 71.8051 242.103 71.5638 242.096 71.3176C242.096 70.7536 242.096 70.1016 242.096 69.369C242.096 66.4388 242.059 62.1899 242.037 56.9594C242.015 51.7289 242.037 45.4802 241.993 38.5574C241.993 35.0924 241.993 31.4516 241.993 27.6862C241.993 25.7962 241.993 23.8793 241.993 21.9356V19.0053C241.979 18.7491 241.979 18.4924 241.993 18.2361C242.036 17.9708 242.141 17.7196 242.301 17.5036C242.468 17.2726 242.689 17.0855 242.944 16.9579C243.199 16.8304 243.481 16.7663 243.766 16.771C244.039 16.7544 244.311 16.7983 244.565 16.8996C244.818 17.001 245.046 17.1572 245.231 17.3571C245.42 17.5653 245.553 17.817 245.62 18.0896C245.67 18.3477 245.69 18.6108 245.678 18.8735V21.8037C245.678 23.7572 245.678 25.6741 245.678 27.5543C245.678 31.327 245.678 34.9606 245.678 38.4256C245.678 45.3483 245.678 51.6117 245.634 56.8276C245.59 62.0434 245.59 66.2923 245.576 69.2811C245.576 70.0137 245.576 70.6583 245.576 71.2224C245.591 71.4675 245.551 71.7129 245.46 71.9409C245.369 72.1688 245.228 72.3738 245.048 72.541C244.887 72.6898 244.693 72.7985 244.481 72.8583C244.27 72.9181 244.048 72.9274 243.832 72.8853Z" fill="#263238"/>
<path d="M218.244 36.7266H217.284C215.605 36.7266 214.244 38.0877 214.244 39.7667V40.1183C214.244 41.7974 215.605 43.1585 217.284 43.1585H218.244C219.923 43.1585 221.284 41.7974 221.284 40.1183V39.7667C221.284 38.0877 219.923 36.7266 218.244 36.7266Z" fill="#65C098"/>
<path d="M231.803 48.8574H230.844C229.165 48.8574 227.804 50.2185 227.804 51.8976V52.2492C227.804 53.9282 229.165 55.2893 230.844 55.2893H231.803C233.483 55.2893 234.844 53.9282 234.844 52.2492V51.8976C234.844 50.2185 233.483 48.8574 231.803 48.8574Z" fill="#65C098"/>
<path d="M244.074 25.9941H243.114C241.435 25.9941 240.074 27.3553 240.074 29.0343V29.3859C240.074 31.0649 241.435 32.426 243.114 32.426H244.074C245.753 32.426 247.114 31.0649 247.114 29.3859V29.0343C247.114 27.3553 245.753 25.9941 244.074 25.9941Z" fill="#65C098"/>
<path d="M129.882 26.8886C129.663 20.916 127.455 15.1877 123.609 10.6126C119.764 6.03746 114.501 2.87747 108.655 1.63397C102.809 0.390483 96.7156 1.13471 91.341 3.74858C85.9663 6.36245 81.6183 10.6963 78.987 16.0624C76.3557 21.4286 75.5917 27.5198 76.8162 33.3696C78.0407 39.2194 81.1835 44.4928 85.7462 48.3531C90.3088 52.2134 96.0299 54.4396 102.002 54.6784C107.973 54.9172 113.854 53.1549 118.71 49.6713L128.439 53.2608L125.084 43.2027C128.421 38.4343 130.106 32.7046 129.882 26.8886Z" fill="#676767"/>
<path d="M129.882 26.8881C129.887 26.9857 129.887 27.0835 129.882 27.1811C129.882 27.3863 129.882 27.6793 129.882 28.0529C129.882 29.1841 129.813 30.3143 129.677 31.4373C129.133 35.6914 127.572 39.7519 125.127 43.2755V43.173L128.563 53.2238L128.651 53.4948L128.387 53.3996L118.652 49.8247H118.571V49.7441L118.813 49.8393C115.661 52.1095 112.055 53.6691 108.242 54.4105C107.235 54.606 106.217 54.7454 105.194 54.8281C104.162 54.9233 103.107 54.8793 102.052 54.872C101.788 54.872 101.524 54.872 101.253 54.872L100.462 54.7841L98.8578 54.601C98.323 54.5277 97.8029 54.3812 97.2681 54.2786C96.7333 54.1761 96.1912 54.0809 95.6711 53.8977C94.6092 53.5875 93.567 53.2132 92.5504 52.7769C92.0376 52.5498 91.5175 52.3374 91.012 52.0956L89.5469 51.2678L88.8143 50.8503L88.0818 50.3594L86.6606 49.2972L85.342 48.2057L84.6753 47.6416L84.0673 47.0189C83.6571 46.6014 83.2468 46.1911 82.8439 45.7663L81.7378 44.389C81.5546 44.1546 81.3568 43.9349 81.1883 43.6565L80.6975 42.9239C80.3752 42.4184 80.0236 41.935 79.7305 41.4588C79.1345 40.4144 78.606 39.3328 78.1482 38.2209C77.9358 37.6568 77.6647 37.1147 77.4962 36.5286C77.3277 35.9426 77.1519 35.3639 76.9761 34.7851C75.4128 28.8268 75.9296 22.5134 78.4412 16.8886C79.6149 14.2373 81.2023 11.7893 83.1443 9.63626C85.0445 7.60147 87.231 5.85428 89.6348 4.44972C91.93 3.15377 94.396 2.18709 96.9604 1.57807L98.8431 1.22644C99.4642 1.12554 100.09 1.05708 100.718 1.02132C101.936 0.911274 103.16 0.884353 104.381 0.940742C108.473 1.15062 112.463 2.29502 116.044 4.28615C119.625 6.27728 122.702 9.06222 125.04 12.4273C125.472 13.1159 125.941 13.7533 126.307 14.4126L127.398 16.3319C127.684 16.9619 127.919 17.5919 128.131 18.1779C128.241 18.471 128.38 18.7567 128.468 19.0424C128.556 19.3281 128.636 19.6138 128.71 19.8921C128.871 20.4342 129.025 20.9544 129.164 21.4452L129.428 22.837C129.508 23.2693 129.581 23.6722 129.647 24.0384C129.713 24.4047 129.706 24.771 129.735 25.0421C129.779 25.6354 129.809 26.0823 129.831 26.4046C129.852 26.727 129.831 26.8735 129.831 26.8735C129.831 26.8735 129.831 26.7123 129.772 26.412C129.713 26.1116 129.691 25.6354 129.633 25.0494C129.633 24.749 129.581 24.4194 129.53 24.0531C129.479 23.6868 129.376 23.3205 129.296 22.859L129.069 21.4598C128.922 20.9763 128.768 20.4635 128.6 19.9214C128.519 19.6431 128.431 19.3647 128.343 19.079C128.256 18.7933 128.124 18.5149 128.006 18.2219C127.757 17.6432 127.523 17.0205 127.23 16.3905L126.219 14.4858C125.845 13.8338 125.384 13.2038 124.944 12.5226C122.613 9.2003 119.553 6.45525 115.998 4.49738C112.442 2.5395 108.487 1.42066 104.433 1.22644C103.211 1.17422 101.987 1.20359 100.77 1.31435C100.149 1.35011 99.5301 1.41857 98.9164 1.51946L97.063 1.87842C94.5164 2.47457 92.069 3.43431 89.796 4.72809C87.4268 6.12145 85.2705 7.84846 83.3934 9.85603C81.4718 11.9966 79.904 14.43 78.7489 17.0644C76.2674 22.6064 75.7505 28.8291 77.2838 34.7046C77.4523 35.2833 77.6208 35.8547 77.7966 36.4334C77.9724 37.0121 78.2288 37.5396 78.4412 38.0963C78.9087 39.1782 79.4471 40.2281 80.0529 41.239C80.3459 41.7445 80.6902 42.2207 81.0052 42.7041L81.4887 43.4367C81.6499 43.6711 81.8477 43.8909 82.0235 44.118L83.1223 45.4732C83.5252 45.8908 83.9208 46.3084 84.3237 46.7186L84.9244 47.3339L85.5837 47.8907L86.8877 48.9895L88.2722 50.0298L88.9608 50.5133L89.6934 50.9235L91.1585 51.744C91.6567 51.9784 92.1695 52.1908 92.6676 52.4179C93.672 52.8494 94.702 53.2188 95.7517 53.5241C96.2645 53.7072 96.7993 53.7732 97.3267 53.905C97.8541 54.0369 98.3669 54.1541 98.8944 54.22L100.477 54.4032L101.261 54.4984C101.517 54.4984 101.781 54.4984 102.044 54.4984C103.085 54.4984 104.125 54.557 105.143 54.4984C106.153 54.4175 107.158 54.283 108.154 54.0955C111.925 53.3682 115.493 51.8338 118.615 49.5976L118.798 49.4657L118.857 49.6855L118.761 49.5756L128.483 53.1871L128.299 53.3556L124.974 43.2902V43.2389V43.1876C127.419 39.7015 129.001 35.6841 129.589 31.4666C129.737 30.349 129.822 29.224 129.845 28.0968C129.845 27.7232 129.845 27.4375 129.845 27.2251C129.845 27.0127 129.882 26.8881 129.882 26.8881Z" fill="#263238"/>
</svg>
