<svg width="211" height="217" viewBox="0 0 211 217" fill="none" xmlns="http://www.w3.org/2000/svg">
<path d="M1.98779 62.5628C2.56924 64.8689 2.28345 60.6263 3.42171 55.4425C4.55998 50.2587 6.51621 52.3578 6.51621 52.3578" stroke="#263238" stroke-linecap="round" stroke-linejoin="round"/>
<path d="M1.63281 57.2662L5.20529 55.8027" stroke="#263238" stroke-linecap="round" stroke-linejoin="round"/>
<path d="M8.15687 54.043C8.15687 54.043 6.02324 58.4778 9.24093 60.3404" stroke="#263238" stroke-linecap="round" stroke-linejoin="round"/>
<path d="M11.1875 52.8008C11.1875 52.8008 14.7156 54.7718 12.5081 58.9996" stroke="#263238" stroke-linecap="round" stroke-linejoin="round"/>
<path d="M8.77295 55.541L11.3008 57.3839" stroke="#263238" stroke-linecap="round" stroke-linejoin="round"/>
<path d="M10.7538 54.7285L8.77783 57.8772" stroke="#263238" stroke-linecap="round" stroke-linejoin="round"/>
<path d="M22.1056 101.921C22.5865 98.9908 20.6011 96.2258 17.6713 95.745C14.7414 95.2642 11.9765 97.2495 11.4956 100.179C11.0148 103.109 13.0001 105.874 15.93 106.355C18.8599 106.836 21.6248 104.851 22.1056 101.921Z" stroke="#263238" stroke-linecap="round" stroke-linejoin="round"/>
<path d="M25.2941 108.993C28.5199 108.332 30.5986 105.181 29.937 101.955C29.2755 98.729 26.1242 96.6503 22.8984 97.3119C19.6726 97.9735 17.5939 101.125 18.2555 104.351C18.9171 107.576 22.0684 109.655 25.2941 108.993Z" stroke="#263238" stroke-linecap="round" stroke-linejoin="round"/>
<path d="M21.6978 98.8301L19.2241 99.7121" stroke="#263238" stroke-linecap="round" stroke-linejoin="round"/>
<path d="M22.043 99.8496L18.4854 101.136" stroke="#263238" stroke-linecap="round" stroke-linejoin="round"/>
<path d="M22.1757 101.082L18.2041 102.61" stroke="#263238" stroke-linecap="round" stroke-linejoin="round"/>
<path d="M21.8952 102.762L18.2734 104.417" stroke="#263238" stroke-linecap="round" stroke-linejoin="round"/>
<path d="M21.2545 104.053L18.5049 105.196" stroke="#263238" stroke-linecap="round" stroke-linejoin="round"/>
<path d="M19.3969 92.858C19.2442 92.3652 17.4998 92.0597 17.4259 93.3508C17.352 94.6418 19.2639 93.5676 19.8059 92.858C19.8059 92.858 18.8204 94.1835 19.2343 94.4447" stroke="#263238" stroke-linecap="round" stroke-linejoin="round"/>
<path d="M29.0546 94.4629L27.5073 97.6806C27.5073 97.6806 28.281 96.0693 29.1088 96.2023C30.1288 96.3846 29.4488 98.0551 28.2169 97.4391" stroke="#263238" stroke-linecap="round" stroke-linejoin="round"/>
<path d="M197.434 147.002L199.863 149.298" stroke="#263238" stroke-linecap="round" stroke-linejoin="round"/>
<path d="M199.864 146.4L197.829 149.441" stroke="#263238" stroke-linecap="round" stroke-linejoin="round"/>
<path d="M202.253 147.272L204.688 146.365" stroke="#263238" stroke-linecap="round" stroke-linejoin="round"/>
<path d="M205.855 143.834L207.334 145.14" stroke="#263238" stroke-linecap="round" stroke-linejoin="round"/>
<path d="M208.467 142.262L206.595 148.687" stroke="#263238" stroke-linecap="round" stroke-linejoin="round"/>
<path d="M95.0693 110.907L101.608 106.408L110.266 107.014L110.808 117.993L104.451 122.536L96.6067 121.964L95.0693 110.907Z" stroke="#263238" stroke-linecap="round" stroke-linejoin="round"/>
<path d="M96.6064 121.964L102.938 117.406L110.808 117.993" stroke="#263238" stroke-linecap="round" stroke-linejoin="round"/>
<path d="M102.938 117.407L101.608 106.408" stroke="#263238" stroke-linecap="round" stroke-linejoin="round"/>
<path d="M95.0693 110.906L103.707 111.907L110.266 107.014" stroke="#263238" stroke-linecap="round" stroke-linejoin="round"/>
<path d="M103.707 111.906L104.451 122.535" stroke="#263238" stroke-linecap="round" stroke-linejoin="round"/>
<path d="M171.387 74.0234L168.49 83.0261L177.507 81.809L171.387 74.0234Z" stroke="#263238" stroke-linecap="round" stroke-linejoin="round"/>
<path d="M171.387 74.0234L172.999 82.3658" stroke="#263238" stroke-linecap="round" stroke-linejoin="round"/>
<path d="M172.742 81.0308L173.797 80.8633L174.043 82.2775" stroke="#263238" stroke-linecap="round" stroke-linejoin="round"/>
<path d="M57.8267 156.408L62.3304 158.621" stroke="#263238" stroke-linecap="round" stroke-linejoin="round"/>
<path d="M60.877 154.719L59.5859 159.425" stroke="#263238" stroke-linecap="round" stroke-linejoin="round"/>
<path d="M61.5029 152.421C61.5768 152.344 61.6676 152.286 61.768 152.251C61.8683 152.216 61.9756 152.205 62.081 152.219C62.1864 152.233 62.2871 152.271 62.375 152.331C62.4629 152.391 62.5355 152.47 62.587 152.563C63.0403 153.273 62.1534 154.761 62.1534 154.761L63.9618 154.071" stroke="#263238" stroke-linecap="round" stroke-linejoin="round"/>
<path d="M93.1868 1.40625C97.4886 3.82568 92.561 9.73874 92.561 13.188C92.561 16.6373 97.4886 16.1446 99.9524 17.1301C100.938 17.1301 102.909 17.1301 102.855 19.6333" stroke="#263238" stroke-linecap="round" stroke-linejoin="round"/>
<path d="M88.3926 4.54492C89.1416 8.62001 93.8129 7.17624 96.6807 8.10754C101.608 9.709 98.8735 14.7942 97.4051 17.869C96.523 19.7021 95.6459 22.2743 97.2228 24.0137" stroke="#263238" stroke-linecap="round" stroke-linejoin="round"/>
<path d="M89.0229 6.12757L94.1525 1.86523" stroke="#263238" stroke-linecap="round" stroke-linejoin="round"/>
<path d="M91.0337 7.39822L94.8969 4.19531" stroke="#263238" stroke-linecap="round" stroke-linejoin="round"/>
<path d="M93.3052 10.6405L96.5672 8.07812" stroke="#263238" stroke-linecap="round" stroke-linejoin="round"/>
<path d="M92.6299 14.4752L99.0061 9.89258" stroke="#263238" stroke-linecap="round" stroke-linejoin="round"/>
<path d="M95.0742 16.264L99.5189 13.002" stroke="#263238" stroke-linecap="round" stroke-linejoin="round"/>
<path d="M96.9663 23.1954L102.52 18.6719" stroke="#263238" stroke-linecap="round" stroke-linejoin="round"/>
<path d="M97.1045 19.6393L100.726 17.0918" stroke="#263238" stroke-linecap="round" stroke-linejoin="round"/>
<path d="M24.5957 158.862C29.8868 156.746 32.4605 150.741 30.3442 145.45C28.2279 140.159 22.2231 137.585 16.932 139.701C11.6409 141.818 9.06716 147.822 11.1834 153.114C13.2997 158.405 19.3046 160.978 24.5957 158.862Z" stroke="#263238" stroke-linecap="round" stroke-linejoin="round"/>
<path d="M23.3583 139.299C26.9554 135.076 30.0154 132.686 31.1931 133.464C32.9867 134.642 29.7691 142.684 24.0087 151.42C18.2484 160.157 12.1235 166.287 10.3298 165.104C9.14724 164.331 10.1426 160.576 12.6064 155.604" stroke="#263238" stroke-linecap="round" stroke-linejoin="round"/>
<path d="M10.6653 151.402C5.64907 149.958 2.44616 148.273 2.64819 146.928C2.93892 144.799 11.6065 144.306 21.9593 145.859C32.3121 147.411 40.4524 150.352 40.142 152.471C39.9202 153.95 35.7072 154.625 29.7202 154.398" stroke="#263238" stroke-linecap="round" stroke-linejoin="round"/>
<path d="M11.9806 143.926C8.19622 137.096 6.30404 131.77 7.58521 130.937C9.27043 129.848 15.7847 136.914 22.1363 146.705C28.4879 156.496 32.2673 165.346 30.587 166.44C29.4734 167.159 26.2459 164.311 22.3482 159.463" stroke="#263238" stroke-linecap="round" stroke-linejoin="round"/>
<path d="M32.6471 137.929C32.4634 138.21 32.2007 138.429 31.8924 138.56C31.5841 138.691 31.2438 138.728 30.9147 138.665C30.5855 138.603 30.2822 138.445 30.043 138.21C29.8038 137.976 29.6395 137.675 29.5707 137.348C29.502 137.02 29.532 136.679 29.6568 136.368C29.7817 136.057 29.9958 135.79 30.2723 135.601C30.5487 135.412 30.875 135.309 31.21 135.305C31.545 135.301 31.8736 135.396 32.1543 135.579C32.3413 135.701 32.5025 135.858 32.6285 136.042C32.7545 136.226 32.843 136.434 32.8888 136.652C32.9345 136.87 32.9368 137.096 32.8953 137.315C32.8538 137.534 32.7695 137.743 32.6471 137.929Z" fill="#263238"/>
<path d="M27.0343 163.892C26.8506 164.172 26.5879 164.392 26.2796 164.523C25.9713 164.654 25.6311 164.69 25.3019 164.628C24.9727 164.566 24.6694 164.408 24.4302 164.173C24.191 163.938 24.0267 163.638 23.9579 163.31C23.8892 162.983 23.9192 162.642 24.044 162.331C24.1689 162.02 24.383 161.753 24.6595 161.564C24.9359 161.375 25.2622 161.272 25.5972 161.268C25.9322 161.264 26.2608 161.359 26.5415 161.542C26.7286 161.664 26.8897 161.821 27.0157 162.005C27.1417 162.189 27.2302 162.396 27.276 162.615C27.3217 162.833 27.324 163.058 27.2825 163.278C27.241 163.497 27.1567 163.706 27.0343 163.892Z" fill="#263238"/>
<path d="M17.9777 146.277C17.7939 146.557 17.5313 146.777 17.223 146.908C16.9146 147.039 16.5744 147.075 16.2453 147.013C15.9161 146.951 15.6128 146.792 15.3736 146.558C15.1344 146.323 14.97 146.023 14.9013 145.695C14.8326 145.367 14.8625 145.026 14.9874 144.716C15.1122 144.405 15.3264 144.138 15.6028 143.949C15.8793 143.759 16.2056 143.656 16.5406 143.652C16.8755 143.649 17.2041 143.744 17.4849 143.927C17.8615 144.173 18.1249 144.559 18.2173 145C18.3097 145.441 18.2235 145.9 17.9777 146.277Z" fill="#263238"/>
<path d="M126.044 72.521H131.849L134.751 67.4949L131.849 62.4688H126.044L123.142 67.4949L126.044 72.521Z" stroke="#263238" stroke-linecap="round" stroke-linejoin="round"/>
<path d="M125.201 83.5535L122.299 78.5273H116.494" stroke="#263238" stroke-linecap="round" stroke-linejoin="round"/>
<path d="M117.273 67.4946H123.078L125.98 62.4685L123.078 57.4375H117.273L114.371 62.4685L117.273 67.4946Z" stroke="#263238" stroke-linecap="round" stroke-linejoin="round"/>
<path d="M126.044 62.4693H131.849L134.751 57.4382L131.849 52.4121H126.044L123.142 57.4382L126.044 62.4693Z" stroke="#263238" stroke-linecap="round" stroke-linejoin="round"/>
<path d="M125.98 63.2466C126.41 63.2466 126.758 62.898 126.758 62.468C126.758 62.038 126.41 61.6895 125.98 61.6895C125.55 61.6895 125.201 62.038 125.201 62.468C125.201 62.898 125.55 63.2466 125.98 63.2466Z" fill="#263238"/>
<path d="M113.858 52.6919C114.288 52.6919 114.637 52.3433 114.637 51.9133C114.637 51.4833 114.288 51.1348 113.858 51.1348C113.428 51.1348 113.08 51.4833 113.08 51.9133C113.08 52.3433 113.428 52.6919 113.858 52.6919Z" fill="#263238"/>
<path d="M124.423 83.5539C124.423 83.4 124.469 83.2494 124.554 83.1214C124.64 82.9934 124.761 82.8936 124.903 82.8347C125.046 82.7757 125.202 82.7603 125.353 82.7903C125.504 82.8204 125.643 82.8945 125.752 83.0034C125.861 83.1123 125.935 83.251 125.965 83.4021C125.995 83.5531 125.98 83.7096 125.921 83.8519C125.862 83.9941 125.762 84.1157 125.634 84.2013C125.506 84.2868 125.355 84.3325 125.201 84.3325C125.099 84.3325 124.998 84.3124 124.903 84.2732C124.809 84.2341 124.723 84.1768 124.651 84.1045C124.579 84.0322 124.521 83.9463 124.482 83.8519C124.443 83.7574 124.423 83.6562 124.423 83.5539Z" fill="#263238"/>
<path d="M116.494 79.3071C116.924 79.3071 117.273 78.9585 117.273 78.5286C117.273 78.0986 116.924 77.75 116.494 77.75C116.064 77.75 115.716 78.0986 115.716 78.5286C115.716 78.9585 116.064 79.3071 116.494 79.3071Z" fill="#263238"/>
<path d="M140.368 57.5803C140.368 57.4252 140.414 57.2735 140.501 57.1446C140.587 57.0156 140.71 56.9152 140.853 56.856C140.996 56.7969 141.154 56.7817 141.306 56.8123C141.458 56.8429 141.598 56.918 141.707 57.0281C141.817 57.1382 141.891 57.2782 141.921 57.4305C141.95 57.5828 141.934 57.7405 141.874 57.8836C141.814 58.0267 141.713 58.1487 141.583 58.2342C141.454 58.3197 141.302 58.3648 141.147 58.3638C141.044 58.3638 140.942 58.3435 140.848 58.3041C140.753 58.2647 140.667 58.2069 140.594 58.134C140.522 58.0612 140.465 57.9748 140.426 57.8798C140.387 57.7848 140.368 57.683 140.368 57.5803Z" fill="#263238"/>
<path d="M122.24 79.3071C122.67 79.3071 123.019 78.9585 123.019 78.5286C123.019 78.0986 122.67 77.75 122.24 77.75C121.81 77.75 121.461 78.0986 121.461 78.5286C121.461 78.9585 121.81 79.3071 122.24 79.3071Z" fill="#263238"/>
<path d="M133.972 57.5804C133.972 57.4254 134.018 57.2739 134.104 57.1451C134.19 57.0162 134.313 56.9158 134.456 56.8565C134.599 56.7972 134.757 56.7817 134.908 56.8119C135.06 56.8422 135.2 56.9168 135.31 57.0264C135.419 57.1359 135.494 57.2755 135.524 57.4275C135.554 57.5795 135.539 57.737 135.479 57.8802C135.42 58.0233 135.32 58.1457 135.191 58.2318C135.062 58.3179 134.911 58.3638 134.756 58.3638C134.548 58.3638 134.349 58.2813 134.202 58.1344C134.055 57.9874 133.972 57.7881 133.972 57.5804Z" fill="#263238"/>
<path d="M125.201 72.5267C125.2 72.3713 125.245 72.2191 125.331 72.0896C125.417 71.96 125.539 71.8588 125.683 71.7989C125.826 71.739 125.984 71.723 126.136 71.7531C126.289 71.7832 126.429 71.8579 126.539 71.9678C126.649 72.0776 126.723 72.2177 126.753 72.3701C126.783 72.5226 126.767 72.6805 126.708 72.8239C126.648 72.9672 126.546 73.0895 126.417 73.1752C126.287 73.261 126.135 73.3062 125.98 73.3052C125.774 73.3039 125.576 73.2215 125.431 73.0758C125.285 72.93 125.202 72.7328 125.201 72.5267Z" fill="#263238"/>
<path d="M134.756 57.5703H141.147" stroke="#263238" stroke-linecap="round" stroke-linejoin="round"/>
<path d="M125.98 72.5273L122.24 78.5291" stroke="#263238" stroke-linecap="round" stroke-linejoin="round"/>
<path d="M117.273 57.4379L113.858 51.9141" stroke="#263238" stroke-linecap="round" stroke-linejoin="round"/>
<path d="M158.442 37.6236C159.112 35.3606 160.507 33.3807 162.413 31.9893C164.32 30.598 166.631 29.8724 168.99 29.9245C171.349 29.9766 173.626 30.8035 175.469 32.2777C177.312 33.7519 178.618 35.7915 179.187 38.0818" stroke="#263238" stroke-linecap="round" stroke-linejoin="round"/>
<path d="M167.519 51.3421C164.897 51.042 162.478 49.7879 160.721 47.8187C158.965 45.8495 157.994 43.3029 157.994 40.6641" stroke="#263238" stroke-linecap="round" stroke-linejoin="round"/>
<path d="M179.498 40.6641C179.498 43.5135 178.366 46.2463 176.352 48.2616C174.338 50.2769 171.605 51.4098 168.756 51.4111" stroke="#263238" stroke-linecap="round" stroke-linejoin="round"/>
<path d="M180.109 33.8496C183.47 33.4209 185.722 33.6525 186.071 34.6577C186.766 36.6583 179.577 40.9699 170.012 44.291C160.448 47.6122 152.135 48.6766 151.436 46.6711C151.066 45.6018 152.948 43.8722 156.24 41.985" stroke="#263238" stroke-linecap="round" stroke-linejoin="round"/>
<path d="M122.24 26.4883L123.27 28.5726L125.571 28.9077L123.905 30.5338L124.299 32.8251L122.24 31.7411L120.18 32.8251L120.574 30.5338L118.909 28.9077L121.21 28.5726L122.24 26.4883Z" stroke="#263238" stroke-linecap="round" stroke-linejoin="round"/>
<path d="M49.4893 20.9339C49.488 22.7871 48.7516 24.5641 47.4416 25.8749C46.1317 27.1858 44.3552 27.9235 42.502 27.9261C42.2753 27.9261 42.0536 27.9162 41.8368 27.8965C40.4881 27.7686 39.2057 27.2516 38.1453 26.4085C37.085 25.5654 36.2924 24.4324 35.8639 23.1472C35.4354 21.8621 35.3894 20.4801 35.7316 19.1693C36.0738 17.8585 36.7894 16.6754 37.7915 15.7637C38.7935 14.852 40.0388 14.251 41.376 14.0338C42.7131 13.8166 44.0846 13.9925 45.3237 14.5402C46.5628 15.0878 47.6161 15.9836 48.3556 17.1187C49.0951 18.2537 49.489 19.5792 49.4893 20.9339Z" stroke="#263238" stroke-linecap="round" stroke-linejoin="round"/>
<path d="M48.3707 22.1963C48.3717 22.4109 48.309 22.621 48.1905 22.7999C48.0719 22.9789 47.903 23.1186 47.705 23.2014C47.507 23.2842 47.2888 23.3063 47.0782 23.2651C46.8676 23.2238 46.674 23.121 46.5219 22.9695C46.3698 22.8181 46.2661 22.625 46.2238 22.4146C46.1816 22.2041 46.2028 21.9859 46.2847 21.7875C46.3666 21.5892 46.5055 21.4196 46.6839 21.3002C46.8623 21.1809 47.0721 21.1172 47.2867 21.1172C47.5733 21.1172 47.8483 21.2307 48.0515 21.433C48.2547 21.6352 48.3694 21.9097 48.3707 22.1963Z" stroke="#263238" stroke-linecap="round" stroke-linejoin="round"/>
<path d="M38.6386 24.9449C38.639 25.2017 38.5827 25.4554 38.4737 25.688C38.3646 25.9205 38.2056 26.1261 38.0079 26.2901C37.089 25.5316 36.3813 24.5489 35.9531 23.437C36.2243 23.2705 36.5367 23.1834 36.8549 23.1857C37.0879 23.1825 37.3193 23.2255 37.5356 23.3125C37.7519 23.3994 37.9488 23.5285 38.1147 23.6922C38.2807 23.8558 38.4125 24.0509 38.5024 24.2659C38.5924 24.481 38.6387 24.7118 38.6386 24.9449Z" stroke="#263238" stroke-linecap="round" stroke-linejoin="round"/>
<path d="M47.2868 26.0455C45.9947 27.2693 44.2819 27.9502 42.5022 27.9475C42.2755 27.9475 42.0538 27.9377 41.837 27.918C41.7973 27.7284 41.7775 27.5351 41.7778 27.3414C41.7781 26.6864 41.9997 26.0506 42.4065 25.5372C42.8134 25.0238 43.3817 24.6628 44.0194 24.5128C44.657 24.3628 45.3267 24.4325 45.9197 24.7107C46.5128 24.9889 46.9945 25.4593 47.2868 26.0455Z" stroke="#263238" stroke-linecap="round" stroke-linejoin="round"/>
<path d="M40.8071 18.16C41.6942 18.16 42.4135 17.4408 42.4135 16.5536C42.4135 15.6665 41.6942 14.9473 40.8071 14.9473C39.9199 14.9473 39.2007 15.6665 39.2007 16.5536C39.2007 17.4408 39.9199 18.16 40.8071 18.16Z" stroke="#263238" stroke-linecap="round" stroke-linejoin="round"/>
<path d="M42.2953 21.1171C42.2953 21.2643 42.2516 21.4081 42.1699 21.5305C42.0881 21.6528 41.9719 21.7482 41.8359 21.8045C41.7 21.8608 41.5504 21.8756 41.406 21.8469C41.2617 21.8182 41.1291 21.7473 41.0251 21.6432C40.921 21.5392 40.8501 21.4066 40.8214 21.2623C40.7927 21.1179 40.8075 20.9683 40.8638 20.8324C40.9201 20.6964 41.0155 20.5802 41.1378 20.4984C41.2602 20.4167 41.404 20.373 41.5512 20.373C41.6489 20.373 41.7457 20.3923 41.8359 20.4297C41.9262 20.4671 42.0082 20.5219 42.0773 20.591C42.1464 20.6601 42.2012 20.7421 42.2386 20.8324C42.276 20.9226 42.2953 21.0194 42.2953 21.1171Z" stroke="#263238" stroke-linecap="round" stroke-linejoin="round"/>
<path d="M48.1738 16.855C47.9783 16.9192 47.7736 16.9508 47.5678 16.9487C47.2988 16.9487 47.0325 16.8956 46.7841 16.7925C46.5356 16.6895 46.31 16.5384 46.12 16.348C45.9301 16.1576 45.7795 15.9316 45.6771 15.6829C45.5746 15.4342 45.5222 15.1678 45.5228 14.8988C45.5178 14.8135 45.5178 14.7279 45.5228 14.6426C46.5783 15.1458 47.49 15.9067 48.1738 16.855Z" stroke="#263238" stroke-linecap="round" stroke-linejoin="round"/>
<path d="M208.837 102.071L209.591 100.376L208.369 99.7062C208.414 99.4078 208.422 99.105 208.393 98.8045L209.645 98.1935L208.98 96.4639L207.639 96.8483C207.46 96.6069 207.251 96.3885 207.019 96.1978L207.477 94.8772L205.782 94.1233L205.107 95.3453C204.807 95.3084 204.504 95.3084 204.205 95.3453L203.599 94.0938L201.864 94.759L202.254 96.0943C202.012 96.2771 201.792 96.487 201.598 96.7201L200.283 96.2619L199.548 97.9323L200.77 98.6074C200.725 98.9058 200.717 99.2087 200.746 99.5091L199.489 100.115L200.154 101.85L201.495 101.46C201.676 101.702 201.884 101.922 202.116 102.116L201.662 103.431L203.357 104.185L204.028 102.963C204.326 103.008 204.629 103.017 204.929 102.988L205.54 104.245L207.27 103.579L206.886 102.239C207.126 102.058 207.344 101.85 207.536 101.618L208.837 102.071ZM203.683 101.125C203.294 100.952 202.964 100.668 202.737 100.308C202.51 99.9478 202.394 99.5284 202.405 99.1027C202.416 98.677 202.553 98.2642 202.798 97.9162C203.044 97.5683 203.387 97.301 203.784 97.1481C204.182 96.9952 204.616 96.9636 205.031 97.0572C205.446 97.1508 205.825 97.3655 206.118 97.6741C206.412 97.9827 206.607 98.3714 206.679 98.791C206.752 99.2106 206.699 99.6422 206.526 100.031C206.293 100.553 205.863 100.961 205.33 101.166C204.797 101.371 204.205 101.356 203.683 101.125Z" stroke="#263238" stroke-linecap="round" stroke-linejoin="round"/>
<path d="M199.829 110.769L200.854 108.468L199.198 107.551C199.257 107.146 199.267 106.736 199.228 106.329L200.933 105.501L200.041 103.151L198.222 103.678C197.98 103.349 197.696 103.051 197.38 102.791L198.001 100.997L195.68 99.9577L194.768 101.613C194.364 101.555 193.954 101.544 193.546 101.579L192.718 99.8789L190.363 100.786L190.89 102.599C190.563 102.846 190.265 103.131 190.003 103.446L188.215 102.845L187.19 105.146L188.845 106.063C188.786 106.468 188.776 106.878 188.816 107.285L187.111 108.113L188.018 110.463L189.836 109.941C190.08 110.269 190.363 110.567 190.678 110.828L190.058 112.617L192.364 113.642L193.275 111.981C193.68 112.042 194.09 112.053 194.497 112.015L195.325 113.715L197.68 112.814L197.153 110.995C197.48 110.75 197.778 110.467 198.04 110.153L199.829 110.769ZM192.832 109.483C192.303 109.247 191.856 108.86 191.547 108.37C191.238 107.88 191.082 107.309 191.097 106.731C191.113 106.152 191.3 105.59 191.634 105.118C191.969 104.645 192.436 104.282 192.977 104.076C193.518 103.869 194.108 103.827 194.673 103.955C195.237 104.084 195.751 104.377 196.149 104.797C196.547 105.218 196.811 105.747 196.909 106.318C197.006 106.889 196.931 107.476 196.695 108.004C196.539 108.355 196.315 108.672 196.036 108.936C195.757 109.201 195.429 109.407 195.07 109.545C194.711 109.682 194.329 109.747 193.945 109.737C193.561 109.726 193.182 109.64 192.832 109.483Z" stroke="#263238" stroke-linecap="round" stroke-linejoin="round"/>
<path d="M97.6808 88.9245C97.0055 90.2038 96.2432 91.4353 95.3993 92.6103C91.0214 98.6972 84.5884 102.994 77.2889 104.707C69.9894 106.42 62.3166 105.433 55.6882 101.928C55.0032 101.569 54.3331 101.184 53.6925 100.78C53.0519 100.376 52.4261 99.9622 51.825 99.5187C51.0957 98.9915 50.396 98.4298 49.7258 97.8434C49.6829 97.8112 49.6433 97.7749 49.6076 97.735C45.2409 93.8706 42.0493 88.8559 40.3974 83.2637C38.7455 77.6715 38.6999 71.7275 40.2658 66.1107C41.8318 60.4938 44.9461 55.4307 49.2529 51.4998C53.5598 47.5689 58.8855 44.9287 64.6217 43.881C70.3578 42.8332 76.273 43.42 81.6914 45.5744C87.1099 47.7288 91.813 51.364 95.2636 56.0645C98.7141 60.765 100.773 66.3413 101.205 72.1563C101.637 77.9713 100.424 83.7906 97.7054 88.9491L97.6808 88.9245Z" fill="#92E3A9"/>
<mask id="mask0_2005_24580" style="mask-type:luminance" maskUnits="userSpaceOnUse" x="39" y="43" width="63" height="63">
<path d="M97.6808 88.9245C97.0055 90.2038 96.2432 91.4353 95.3993 92.6103C91.0214 98.6972 84.5884 102.994 77.2889 104.707C69.9894 106.42 62.3166 105.433 55.6882 101.928C55.0032 101.569 54.3331 101.184 53.6925 100.78C53.0519 100.376 52.4261 99.9622 51.825 99.5187C51.0957 98.9915 50.396 98.4298 49.7258 97.8434C49.6829 97.8112 49.6433 97.7749 49.6076 97.735C45.2409 93.8706 42.0493 88.8559 40.3974 83.2637C38.7455 77.6715 38.6999 71.7275 40.2658 66.1107C41.8318 60.4938 44.9461 55.4307 49.2529 51.4998C53.5598 47.5689 58.8855 44.9287 64.6217 43.881C70.3578 42.8332 76.273 43.42 81.6914 45.5744C87.1099 47.7288 91.813 51.364 95.2636 56.0645C98.7141 60.765 100.773 66.3413 101.205 72.1563C101.637 77.9713 100.424 83.7906 97.7054 88.9491L97.6808 88.9245Z" fill="white"/>
</mask>
<g mask="url(#mask0_2005_24580)">
<g opacity="0.6">
<path d="M97.6806 88.9245C97.0054 90.2038 96.2431 91.4353 95.3992 92.6103L94.798 92.1175L93.7632 91.5706L92.6742 90.999L92.8566 89.6833L92.7974 88.4958C92.7334 87.3082 93.5908 88.279 94.2757 87.9193C94.8099 87.5375 95.2415 87.0297 95.5322 86.441C95.5322 86.441 96.025 84.8593 95.8624 84.2236C95.5971 83.4912 95.2843 82.7768 94.9261 82.085L93.1621 84.5488L91.6838 84.4355L90.2844 83.6963L90.1021 81.75L89.3826 81.3755L89.0821 80.2569L85.1942 79.1679L84.7507 78.3894C84.3073 77.6108 82.5186 77.2117 82.5186 77.2117L82.9571 76.1966L83.647 75.0633C84.3417 73.9299 85.0612 75.8123 85.0612 75.8123L85.8841 76.241L87.4116 74.9598L87.8157 73.1218L90.3041 73.2647C90.2553 73.016 90.2933 72.758 90.4117 72.5339C90.53 72.3097 90.7216 72.1329 90.9545 72.0328C91.7824 71.7076 91.4177 69.909 91.1024 69.2438C90.787 68.5786 89.6241 69.1157 89.6241 69.1157C89.6241 69.1157 88.3577 67.189 88.1852 66.4203C88.0128 65.6516 90.5997 65.9276 91.7084 65.154C92.8171 64.3803 92.4377 62.8429 91.8957 62.8084C91.3537 62.7739 92.9551 59.3099 96.0348 60.2609C96.8922 60.527 97.4343 60.4334 97.7693 60.1377C100.08 64.5866 101.279 69.5289 101.263 74.542C101.248 79.5551 100.019 84.4899 97.6806 88.9245Z" fill="white"/>
<path d="M76.1325 75.595L75.078 76.9205C75.078 76.9205 74.6296 75.8512 73.989 76.4278L73.0035 77.3049L72.289 79.3055L71.0078 80.1333L70.2243 79.7243L69.4852 79.3301L68.682 78.9063L67.9133 80.3846L67.2875 81.5672C67.5925 82.1478 67.9718 82.6861 68.4159 83.1687L69.7759 85.5684L71.4316 86.4061C72.1221 86.4317 72.8093 86.5141 73.4864 86.6524L74.6246 87.2487L74.2206 89.7125C74.2206 89.7125 73.3632 91.107 72.7916 90.7226L72.2151 90.3432L71.2788 93.5855L71.2394 95.3693C71.2394 95.3693 70.6826 95.6009 70.1208 95.7881C69.5591 95.9754 69.9139 95.8768 68.7362 96.2415C67.5585 96.6061 67.6521 96.5913 66.6962 96.8623C65.8813 97.1476 65.0972 97.5141 64.3556 97.9563L64.4394 99.671L62.1875 100.001L60.926 99.331L61.2365 98.247L61.3843 96.5519L61.2118 95.2855L60.6698 94.167L62.1875 92.7922L61.8524 91.9299L60.9901 90.2151L59.1669 91.2006L58.2307 91.6933L56.1118 90.7423L55.8802 89.4562L55.1706 87.1452L54.5104 85.7064L53.3376 84.1197L53.0419 82.7547L53.7022 81.5032L54.0521 80.8429L52.973 79.3892L52.6773 78.3544L50.859 76.7037C50.859 76.7037 51.3863 76.6692 51.268 75.935C51.1498 75.2008 52.3077 73.964 52.3077 73.964C52.9631 74.3089 54.9292 75.6788 54.9292 75.6788L56.6489 75.9153C56.6489 75.9153 56.9938 75.9153 57.3289 75.2649C57.7203 74.6666 58.18 74.1159 58.6988 73.624C58.6988 73.624 57.9054 70.8695 58.4721 70.4999C59.0388 70.1304 59.6153 68.3269 59.6153 68.3269L60.0686 67.4645C60.0686 67.4645 58.9994 66.9964 58.7973 66.4298C58.5953 65.8631 55.9591 66.617 55.9591 66.617L54.1408 67.8785L52.7069 68.9872L52.086 70.1648C52.086 70.1648 50.8196 68.6422 50.8147 69.4947C50.7181 70.3687 50.5264 71.2295 50.2431 72.062C50.2431 72.062 50.5043 72.1999 50.1593 72.8602C49.8144 73.5205 49.4399 73.486 48.6811 73.5796C47.6918 73.5896 46.7032 73.522 45.7245 73.3776C45.7245 73.3776 45.2318 75.2008 45.5718 75.5162L45.9068 75.8217C45.9068 75.8217 45.3796 77.1472 44.8573 76.8712L43.586 76.2011L41.8071 76.9205L39.8361 79.0985L39.3975 79.0098C38.1895 70.9073 40.229 62.6556 45.0725 56.0487C49.9159 49.4419 57.1718 45.0143 65.2623 43.7285C65.3756 44.2213 65.4988 44.6845 65.4988 44.6845L65.006 47.1187L64.3753 48.321L63.8333 49.3509L63.0695 50.7996L65.0258 52.603L64.6069 54.7367L63.5475 55.4019L63.242 57.0033L65.0602 60.5561L65.553 61.9506C65.2488 62.6182 65.0989 63.3458 65.1144 64.0793C65.1144 64.0793 65.3362 65.4098 66.3069 65.937C67.2776 66.4643 68.5539 67.0851 68.5539 67.0851L68.4504 69.0561L68.0118 69.5489L68.7411 71.6727C70.9635 72.5449 70.7516 73.2741 70.9635 72.5449L71.1803 71.8205L72.693 71.2735L74.6197 73.5747C74.8439 73.5717 75.0652 73.6252 75.2633 73.7303C75.4614 73.8353 75.6298 73.9886 75.753 74.1759C76.3148 74.8854 77.1919 74.2695 76.1325 75.595Z" fill="white"/>
<path d="M50.0161 92.7586C50.0703 93.4583 49.1833 94.3354 49.1833 94.3354L49.9077 94.7149L50.1294 96.6859L49.5825 97.7305C45.7067 94.3067 42.7505 89.9665 40.9839 85.1061L41.3781 83.0168L43.1175 82.7705C43.1175 82.7705 44.6746 81.7357 45.3645 82.0116C46.0543 82.2876 46.6851 83.9827 46.6851 83.9827C46.6851 83.9827 47.1778 86.269 47.1138 86.2247H47.0842H47.1236L47.8332 86.5992L48.0352 87.5009L47.0497 89.3734H45.463C45.463 89.3734 45.1477 89.2059 45.1181 90.0288C45.1438 90.3143 45.2306 90.591 45.3726 90.8401C45.5145 91.0892 45.7084 91.3049 45.941 91.4725L47.6558 91.034L48.1141 89.2601L49.7993 88.9299C49.7993 88.9299 49.5578 90.0189 49.952 90.2259L50.3512 90.4377L50.5877 91.7386C50.4112 91.8434 50.2654 91.9929 50.165 92.1719C50.0647 92.351 50.0133 92.5534 50.0161 92.7586Z" fill="white"/>
<path d="M58.1665 95.5477C58.0137 95.1239 57.9497 94.7543 56.9001 94.2024C55.8505 93.6506 55.9146 93.8477 55.5007 94.3059C55.3224 94.5417 55.079 94.72 54.8006 94.819C54.5221 94.9179 54.2207 94.9331 53.9337 94.8627C53.2438 94.71 53.6036 95.4885 53.6036 95.4885L53.7711 97.5926L51.8247 99.5144C52.4259 99.9578 53.0484 100.378 53.6922 100.776L54.1062 99.5045L57.3386 100.451C56.6537 100.249 57.0578 99.3123 57.0578 99.3123L56.3679 98.9477C56.3679 98.9477 58.3192 95.9616 58.1665 95.5477Z" fill="white"/>
<path d="M78.527 84.6083L77.4676 83.5391L76.2554 83.9185L75.7626 84.904L75.3931 85.6136L75.8858 86.5991L76.8713 87.7965L77.4331 86.7223C77.4331 86.7223 78.9951 86.7223 79.8131 85.8205C80.6311 84.9188 78.527 84.6083 78.527 84.6083Z" fill="white"/>
<path d="M75.4131 79.7851L77.3841 80.8199L77.463 80.3567C77.5656 79.9856 77.7471 79.641 77.9951 79.3465L76.4873 77.75L75.4131 79.7851Z" fill="white"/>
<path d="M74.7427 102.723L74.1761 101.89L73.5158 101.545H71.5004L70.3523 103.723C70.3523 103.723 69.2534 103.575 67.8097 103.447C66.3659 103.319 66.7207 103.915 66.7207 103.915L66.3462 105.285C69.9889 105.733 73.6822 105.535 77.2558 104.699C76.8404 104.409 76.4094 104.142 75.9648 103.9L74.7427 102.723Z" fill="white"/>
</g>
</g>
<path d="M97.6808 88.9245C97.0055 90.2038 96.2432 91.4353 95.3993 92.6103C91.0214 98.6972 84.5884 102.994 77.2889 104.707C69.9894 106.42 62.3166 105.433 55.6882 101.928C55.0032 101.569 54.3331 101.184 53.6925 100.78C53.0519 100.376 52.4261 99.9622 51.825 99.5187C51.0957 98.9915 50.396 98.4298 49.7258 97.8434C49.6829 97.8112 49.6433 97.7749 49.6076 97.735C45.2409 93.8706 42.0493 88.8559 40.3974 83.2637C38.7455 77.6715 38.6999 71.7275 40.2658 66.1107C41.8318 60.4938 44.9461 55.4307 49.2529 51.4998C53.5598 47.5689 58.8855 44.9287 64.6217 43.881C70.3578 42.8332 76.273 43.42 81.6914 45.5744C87.1099 47.7288 91.813 51.364 95.2636 56.0645C98.7141 60.765 100.773 66.3413 101.205 72.1563C101.637 77.9713 100.424 83.7906 97.7054 88.9491L97.6808 88.9245Z" stroke="#263238" stroke-linecap="round" stroke-linejoin="round"/>
<path d="M77.2563 104.699C73.6827 105.535 69.9894 105.733 66.3467 105.285L66.7212 103.915C66.7212 103.915 66.3664 103.319 67.8102 103.447C69.2539 103.575 70.3528 103.723 70.3528 103.723L71.5009 101.545H73.5163L74.1766 101.89L74.7432 102.723L75.9653 103.9C76.4099 104.142 76.8409 104.409 77.2563 104.699Z" stroke="#263238" stroke-linecap="round" stroke-linejoin="round"/>
<path d="M97.789 60.1438C97.454 60.4394 96.9119 60.533 96.0545 60.2669C92.9748 59.3159 91.3783 62.7751 91.9154 62.8145C92.4525 62.8539 92.8319 64.411 91.7282 65.16C90.6244 65.909 88.0325 65.6528 88.2049 66.4264C88.3774 67.2 89.6438 69.1218 89.6438 69.1218C89.6438 69.1218 90.7771 68.5896 91.0974 69.2499C91.4177 69.9102 91.7824 71.7137 90.9545 72.0389C90.7216 72.1389 90.53 72.3158 90.4117 72.5399C90.2933 72.7641 90.2553 73.022 90.3041 73.2708L87.8157 73.1279L87.4116 74.9658L85.8841 76.247L85.0612 75.8183C85.0612 75.8183 84.3417 73.936 83.647 75.0693L82.9571 76.2027L82.5186 77.2177C82.5186 77.2177 84.3073 77.6169 84.7507 78.3954L85.1942 79.174L89.0821 80.263L89.3826 81.3815L90.1021 81.756L90.2844 83.7024L91.7331 84.4612L93.2113 84.5746L94.9754 82.1108C95.3336 82.8026 95.6463 83.5169 95.9116 84.2494C96.0841 84.885 95.5815 86.4668 95.5815 86.4668C95.2908 87.0555 94.8592 87.5633 94.325 87.945C93.6203 88.3047 92.758 87.334 92.8467 88.5215L92.9058 89.7091L92.7235 91.0247L93.8125 91.5963L94.8473 92.1433L95.4485 92.6361" stroke="#263238" stroke-linecap="round" stroke-linejoin="round"/>
<path d="M39.437 79.0113L39.8756 79.1L41.8466 76.922L43.6254 76.2026L44.8967 76.8728C45.4191 77.1487 45.9463 75.8232 45.9463 75.8232L45.6112 75.5177C45.2712 75.2023 45.764 73.3791 45.764 73.3791C46.7427 73.5235 47.7313 73.5911 48.7205 73.5811C49.4991 73.4875 49.8686 73.5171 50.1988 72.8617C50.5289 72.2064 50.2826 72.0635 50.2826 72.0635C50.5659 71.231 50.7575 70.3702 50.8542 69.4962C50.8542 68.6437 52.1255 70.1663 52.1255 70.1663L52.7463 68.9887L54.1359 67.8849L55.9542 66.6234C55.9542 66.6234 58.5904 65.8646 58.7924 66.4362C58.9945 67.0078 60.0638 67.471 60.0638 67.471L59.6104 68.3333C59.6104 68.3333 59.029 70.1269 58.4672 70.5064C57.9055 70.8858 58.6939 73.6304 58.6939 73.6304C58.1751 74.1224 57.7154 74.673 57.324 75.2713C56.9791 75.9316 56.644 75.9217 56.644 75.9217L54.9243 75.6852C54.9243 75.6852 52.9533 74.3154 52.3029 73.9704C52.3029 73.9704 51.1449 75.2072 51.2631 75.9414C51.3814 76.6756 50.8542 76.7101 50.8542 76.7101L52.6724 78.3609L52.9681 79.3957L54.0472 80.8493L53.6974 81.5096L53.0371 82.7612L53.3327 84.1261L54.5055 85.7128L55.1707 87.1467L55.8901 89.4676L56.1217 90.7537L58.2406 91.7047L59.1768 91.2119L61 90.2264L61.8623 91.9412L62.1974 92.8035L60.6797 94.1783L61.2217 95.2969L61.3942 96.5633L61.2464 98.2583L60.9359 99.3424L62.1974 100.013L64.4493 99.6873L64.3655 97.9676C65.1071 97.5254 65.8912 97.1589 66.7061 96.8737C67.662 96.6027 67.5684 96.6175 68.7461 96.2528C69.9238 95.8882 69.5641 95.9867 70.1307 95.7995C70.6974 95.6122 71.2493 95.3807 71.2493 95.3807L71.2887 93.5969L72.225 90.3545L72.8015 90.734C73.3731 91.1183 74.2305 89.7238 74.2305 89.7238L74.6345 87.26L73.4716 86.6539C72.7946 86.5156 72.1074 86.4332 71.4168 86.4076L69.7957 85.5551L68.4357 83.1554C67.9916 82.6728 67.6122 82.1345 67.3073 81.5539L67.9331 80.3713L68.7018 78.8931L69.5049 79.3168L70.2441 79.711L71.0276 80.12L72.3087 79.2922L73.0232 77.2916L74.0087 76.4145C74.6493 75.833 75.0977 76.9072 75.0977 76.9072L76.1522 75.5817C77.2116 74.2562 76.3345 74.8722 75.7925 74.1922C75.6693 74.0049 75.5008 73.8516 75.3028 73.7466C75.1047 73.6415 74.8834 73.588 74.6592 73.591L72.7325 71.2898L71.2 71.8713L70.9832 72.5956C70.7713 73.3249 70.9832 72.5956 68.7609 71.7235L68.0316 69.5997L68.4702 69.1069L68.5736 67.1359C68.5736 67.1359 67.2974 66.5101 66.3267 65.9878C65.3559 65.4655 65.1342 64.1301 65.1342 64.1301C65.1186 63.3966 65.2685 62.669 65.5728 62.0014L65.08 60.6069L63.2617 57.0541L63.5672 55.4527L64.6267 54.7875L65.0455 52.6538L63.1435 50.8503L63.9072 49.4016L64.4493 48.3718L65.08 47.1695L65.5728 44.7352C65.5728 44.7352 65.4496 44.2819 65.3362 43.7793" stroke="#263238" stroke-linecap="round" stroke-linejoin="round"/>
<path d="M49.7503 97.8392C49.7121 97.7952 49.6691 97.7556 49.6222 97.721L50.1692 96.6763L49.9474 94.7053L49.2231 94.3259C49.2231 94.3259 50.11 93.4488 50.0558 92.749C50.0463 92.5403 50.0929 92.3328 50.1908 92.1482C50.2887 91.9635 50.4344 91.8086 50.6127 91.6995L50.3761 90.3986L49.977 90.1867C49.5828 89.9798 49.8242 88.8908 49.8242 88.8908L48.139 89.2209L47.6808 90.9948L45.966 91.4334C45.7334 91.2658 45.5395 91.0501 45.3975 90.801C45.2555 90.5519 45.1688 90.2752 45.1431 89.9896C45.1726 89.1667 45.488 89.3343 45.488 89.3343H47.0747L48.0602 87.4618L47.8582 86.56L47.1486 86.1855" stroke="#263238" stroke-linecap="round" stroke-linejoin="round"/>
<path d="M47.1045 86.1847C47.1833 86.2291 46.6758 83.9427 46.6758 83.9427C46.6758 83.9427 46.0451 82.2722 45.3552 81.9717C44.6653 81.6711 43.1082 82.7305 43.1082 82.7305L41.3688 82.9769L40.9746 85.0662" stroke="#263238" stroke-linecap="round" stroke-linejoin="round"/>
<path d="M54.1066 99.5045L53.6927 100.776C53.0357 100.375 52.4132 99.9545 51.8252 99.5144L53.7716 97.5926L53.604 95.4885C53.604 95.4885 53.2443 94.71 53.9342 94.8627C54.2212 94.9331 54.5226 94.9179 54.801 94.819C55.0795 94.72 55.3229 94.5417 55.5011 94.3059C55.9052 93.8477 55.8559 93.6506 56.9006 94.2024C57.9452 94.7543 58.0142 95.1239 58.167 95.5477C58.3197 95.9714 56.3684 98.9625 56.3684 98.9625L57.0583 99.3271C57.0583 99.3271 56.6542 100.263 57.3391 100.465L54.1066 99.5045Z" stroke="#263238" stroke-linecap="round" stroke-linejoin="round"/>
<path d="M76.2561 83.9185L77.4682 83.5391L78.5277 84.6083C78.5277 84.6083 80.6219 84.8794 79.8039 85.791C78.9859 86.7026 77.4239 86.6927 77.4239 86.6927L76.8523 87.7669L75.8668 86.5695L75.374 85.584L75.7436 84.8744L76.2561 83.9185Z" stroke="#263238" stroke-linecap="round" stroke-linejoin="round"/>
<path d="M77.9951 79.3465C77.7471 79.641 77.5656 79.9856 77.463 80.3567L77.3841 80.8199L75.4131 79.7851L76.4873 77.75L77.9951 79.3465Z" stroke="#263238" stroke-linecap="round" stroke-linejoin="round"/>
<path d="M184.928 195.576C182.287 197.774 161.941 211.739 132.908 209.487C131.346 196.271 125.389 141.979 132.164 133.465C132.164 133.465 148.602 125.625 163.745 128.917C178.887 132.208 184.78 135.362 185.86 138.092C186.678 140.156 185.51 178.601 184.928 195.576Z" fill="#263238"/>
<path d="M163.242 134.717C154.52 142.271 143.285 140.674 143.532 134.874C143.571 133.968 144.542 132.844 144.542 132.844L144.202 132.322L142.724 130.09C141.644 128.419 140.294 126.32 139.353 124.792C138.565 123.492 158.221 111.399 158.221 118.352C158.221 128.148 163.03 129.991 163.03 129.991C164.843 130.72 166.534 131.873 163.242 134.717Z" fill="white" stroke="#263238" stroke-linecap="round" stroke-linejoin="round"/>
<path d="M168.756 149.678C168.756 149.678 166.997 155.709 167.829 157.439" stroke="white" stroke-linecap="round" stroke-linejoin="round"/>
<path d="M166.701 132.164C166.701 137.984 149.341 143.685 144.256 137.846" stroke="white" stroke-linecap="round" stroke-linejoin="round"/>
<path d="M152.421 125.449C152.421 125.449 151.258 129.835 145.838 133.259C145.579 132.816 145.162 132.486 144.67 132.338C144.507 132.311 144.34 132.311 144.177 132.338L142.699 130.106C145.503 128.085 152.421 125.449 152.421 125.449Z" fill="#263238"/>
<path d="M154.855 120.057C154.855 120.057 154.796 124.383 153.87 125.265C146.996 131.858 140.274 132.38 139.166 130.641C131.7 118.933 133.465 115.858 132.706 113.853C131.36 110.335 129.71 104.589 130.439 101.11C132.065 93.3395 146.7 87.3131 154.407 95.1282C158.102 98.8682 159.27 106.984 158.492 113.744" fill="white"/>
<path d="M154.855 120.057C154.855 120.057 154.796 124.383 153.87 125.265C146.996 131.858 140.274 132.38 139.166 130.641C131.7 118.933 133.465 115.858 132.706 113.853C131.36 110.335 129.71 104.589 130.439 101.11C132.065 93.3395 146.7 87.3131 154.407 95.1282C158.102 98.8682 159.27 106.984 158.492 113.744" stroke="#263238" stroke-linecap="round" stroke-linejoin="round"/>
<path d="M133.647 110.237C133.647 110.237 131.592 109.315 131.149 110.414" stroke="#263238" stroke-linecap="round" stroke-linejoin="round"/>
<path d="M138.629 110.306C138.629 110.306 142.901 108.517 144.823 110.69" stroke="#263238" stroke-linecap="round" stroke-linejoin="round"/>
<path d="M143.374 113.335C143.443 113.976 143.133 114.533 142.674 114.587C142.216 114.641 141.792 114.153 141.723 113.513C141.654 112.872 141.965 112.311 142.423 112.261C142.881 112.212 143.285 112.695 143.374 113.335Z" fill="#263238"/>
<path d="M134.997 113.528C135.071 114.168 134.756 114.73 134.298 114.779C133.839 114.829 133.415 114.351 133.347 113.71C133.278 113.07 133.588 112.508 134.046 112.459C134.504 112.409 134.918 112.887 134.997 113.528Z" fill="#263238"/>
<path d="M135.204 111.844C135.8 112.805 135.475 114.446 134.687 116.697C133.898 118.949 134.593 119.762 137.619 119.989" fill="white"/>
<path d="M135.204 111.844C135.8 112.805 135.475 114.446 134.687 116.697C133.898 118.949 134.593 119.762 137.619 119.989" stroke="#263238" stroke-linecap="round" stroke-linejoin="round"/>
<path d="M137.619 123.885C137.619 123.885 141.561 123.526 143.364 122.535" stroke="#263238" stroke-linecap="round" stroke-linejoin="round"/>
<path d="M162.591 101.545C162.591 98.6177 159.704 92.611 154.638 91.9359C151.726 88.8907 147.577 87.7721 142.541 88.9301C130.902 91.6008 127.359 103.092 126.852 104.994C126.802 105.171 126.778 105.27 126.778 105.27L129.892 104.481L128.552 107.098L130.183 108.177L129.808 108.591L131.7 110.414L131.109 107.083C131.474 104.935 133.947 101.929 133.947 101.929C133.045 103.099 132.482 104.496 132.321 105.965C133.307 103.407 139.22 101.037 139.22 101.037C137.303 102.594 136.263 105.639 136.263 105.639C138.087 103.392 142.359 101.939 145.094 101.165C146.015 103.388 147.478 105.708 149.568 106.995C151.539 108.207 151.47 110.71 151.47 110.71C153.59 112.184 155.153 114.33 155.905 116.8L158.29 120.062C158.29 120.062 162.591 114.785 162.591 101.545Z" fill="#263238"/>
<path d="M152.554 111.547C151.756 109.837 154.653 105.205 156.708 105.777C157.861 106.102 159.369 108.206 159.665 110.414C159.96 112.621 158.398 116.82 156.733 117.731C155.673 118.323 154.801 116.711 154.801 116.711" fill="white"/>
<path d="M152.554 111.547C151.756 109.837 154.653 105.205 156.708 105.777C157.861 106.102 159.369 108.206 159.665 110.414C159.96 112.621 158.398 116.82 156.733 117.731C155.673 118.323 154.801 116.711 154.801 116.711" stroke="#263238" stroke-linecap="round" stroke-linejoin="round"/>
<path d="M26.8423 195.183L82.5187 182.164L198.651 195.577L168.751 216.026L26.8423 195.183Z" fill="white"/>
<path d="M26.8423 195.183L82.5187 182.164L198.651 195.577" fill="white"/>
<path d="M26.8423 195.183L82.5187 182.164L198.651 195.577" stroke="#263238" stroke-linecap="round" stroke-linejoin="round"/>
<path d="M75.0239 197.794L97.5626 187.83L126.059 189.303L113.385 200.139L75.0239 197.794Z" fill="white" stroke="#263238" stroke-linecap="round" stroke-linejoin="round"/>
<path d="M133.263 132.973C126.034 135.929 124.477 142.576 112.192 168.845C112.192 168.845 106.738 169.964 103.816 176.591C100.894 183.219 105.787 188.452 111.419 188.275C111.419 188.275 113.681 190.246 118.317 190.044C122.954 189.842 143.448 158.483 143.448 158.483L133.263 132.973Z" fill="#263238"/>
<path d="M114.346 170.387C117.578 173.264 119.436 177.487 118.45 182.169" stroke="white" stroke-linecap="round" stroke-linejoin="round"/>
<path d="M117.465 171.771C117.465 171.771 121.436 172.639 122.052 177.724" stroke="white" stroke-linecap="round" stroke-linejoin="round"/>
<path d="M129.084 156.892C127.208 152.262 126.559 147.226 127.202 142.271" stroke="white" stroke-linecap="round" stroke-linejoin="round"/>
<path d="M128.522 150.189C128.222 152.259 130.36 163.277 130.345 174.862" stroke="white" stroke-linecap="round" stroke-linejoin="round"/>
<path d="M182.558 135.15C191.6 139.694 192.674 153.673 184.145 170.387C178.118 182.184 169.801 199.603 164.538 200.771C159.275 201.938 154.141 198.662 154.141 198.662C154.141 198.662 149.706 198.455 148.366 195.301C144.7 186.683 154.018 175.793 157.664 178.4C157.664 178.4 169.372 152.939 171.506 151.332" fill="#263238"/>
<path d="M147.528 190.063C146.331 184.116 155.693 177.099 157.664 178.4C157.664 178.4 164.617 178.789 165.657 183.598" stroke="white" stroke-linecap="round" stroke-linejoin="round"/>
<path d="M172.999 191.329C177.069 184.149 184.145 170.387 184.145 170.387" stroke="white" stroke-linecap="round" stroke-linejoin="round"/>
<path d="M157.664 178.399C157.664 178.399 162.537 175.482 166.179 178.242" stroke="white" stroke-linecap="round" stroke-linejoin="round"/>
<path d="M159.33 174.857C159.33 174.857 162.02 168.944 164.75 163.524C167.48 158.104 173.728 150.077 176.325 149.688" stroke="white" stroke-linecap="round" stroke-linejoin="round"/>
<path d="M107.974 185.485C107.389 185.457 106.817 185.3 106.299 185.027C97.922 180.656 91.4078 173.433 87.4854 168.249C85.9605 166.268 84.5568 164.196 83.2822 162.045L85.2927 153.432C85.2927 153.432 87.1848 158.359 94.7881 163.203C102.391 168.047 111.423 169.643 114.346 174.536C116.932 178.799 112.375 185.697 107.974 185.485Z" fill="white"/>
<mask id="mask1_2005_24580" style="mask-type:luminance" maskUnits="userSpaceOnUse" x="83" y="153" width="33" height="33">
<path d="M107.974 185.485C107.389 185.457 106.817 185.3 106.299 185.027C97.922 180.656 91.4078 173.433 87.4854 168.249C85.9605 166.268 84.5568 164.196 83.2822 162.045L85.2927 153.432C85.2927 153.432 87.1848 158.359 94.7881 163.203C102.391 168.047 111.423 169.643 114.346 174.536C116.932 178.799 112.375 185.697 107.974 185.485Z" fill="white"/>
</mask>
<g mask="url(#mask1_2005_24580)">
<path opacity="0.4" d="M107.974 185.485C107.881 184.862 107.715 184.252 107.481 183.667C105.722 179.262 95.0788 170.506 95.0788 170.506C92.546 170.427 89.762 169.372 87.4953 168.249C85.967 166.268 84.56 164.196 83.2822 162.045L85.2927 153.432C85.2927 153.432 87.1848 158.359 94.7881 163.203C102.391 168.047 111.423 169.643 114.346 174.536C116.932 178.799 112.375 185.697 107.974 185.485Z" fill="#92E3A9"/>
</g>
<path d="M107.974 185.485C107.389 185.457 106.817 185.3 106.299 185.027C97.922 180.656 91.4078 173.433 87.4854 168.249C85.9605 166.268 84.5568 164.196 83.2822 162.045L85.2927 153.432C85.2927 153.432 87.1848 158.359 94.7881 163.203C102.391 168.047 111.423 169.643 114.346 174.536C116.932 178.799 112.375 185.697 107.974 185.485Z" stroke="#263238" stroke-linecap="round" stroke-linejoin="round"/>
<path d="M89.0033 161.523C89.0033 161.523 87.9636 166.116 85.2239 165.086C83.7456 164.529 80.8975 160.114 80.3604 157.887L89.0033 161.523Z" fill="white" stroke="#263238" stroke-linecap="round" stroke-linejoin="round"/>
<path d="M76.9258 133.243L79.1629 132.09C79.1629 132.09 85.4849 132.144 89.4073 135.332C92.9699 138.23 94.7783 142.768 94.7783 142.768C94.7783 142.768 108.62 135.125 122.757 139.511L128.522 171.643L102.017 173.378L85.4751 157.664L76.9258 133.243Z" fill="white" stroke="#263238" stroke-linecap="round" stroke-linejoin="round"/>
<path d="M130.346 172.93C130.346 172.93 127.236 172.837 123.077 172.974C116.79 173.172 108.103 173.881 104.131 176.192L103.944 176.128L100.307 174.857L100.233 174.748C99.5631 173.763 94.1575 166.002 86.4361 162.843L75.5166 132.332C75.5166 132.332 86.85 132.825 93.0439 143.064L96.1532 144.188C96.1532 144.188 114.656 138.708 125.014 140.679L130.346 172.93Z" fill="#92E3A9"/>
<mask id="mask2_2005_24580" style="mask-type:luminance" maskUnits="userSpaceOnUse" x="75" y="132" width="56" height="45">
<path d="M130.346 172.93C130.346 172.93 127.236 172.837 123.077 172.974C116.79 173.172 108.103 173.881 104.131 176.192L103.944 176.128L100.307 174.857L100.233 174.748C99.5631 173.763 94.1575 166.002 86.4361 162.843L75.5166 132.332C75.5166 132.332 86.85 132.825 93.0439 143.064L96.1532 144.188C96.1532 144.188 114.656 138.708 125.014 140.679L130.346 172.93Z" fill="white"/>
</mask>
<g mask="url(#mask2_2005_24580)">
<path opacity="0.3" d="M100.233 174.752C99.5631 173.767 94.1575 166.006 86.4361 162.847L75.5166 132.336C75.5166 132.336 86.85 132.829 93.0439 143.068L100.233 174.752Z" fill="black" fill-opacity="0.7"/>
<path opacity="0.3" d="M123.078 172.975C116.79 173.172 108.103 173.882 104.131 176.193L103.944 176.129L96.6807 145.292C96.6807 145.292 102.623 143.957 104.451 144.632C104.446 144.642 116.529 153.556 123.078 172.975Z" fill="black" fill-opacity="0.7"/>
</g>
<path d="M130.346 172.93C130.346 172.93 127.236 172.837 123.077 172.974C116.79 173.172 108.103 173.881 104.131 176.192L103.944 176.128L100.307 174.857L100.233 174.748C99.5631 173.763 94.1575 166.002 86.4361 162.843L75.5166 132.332C75.5166 132.332 86.85 132.825 93.0439 143.064L96.1532 144.188C96.1532 144.188 114.656 138.708 125.014 140.679L130.346 172.93Z" stroke="#263238" stroke-linecap="round" stroke-linejoin="round"/>
<path d="M96.1631 144.193L103.293 173.773" stroke="#263238" stroke-linecap="round" stroke-linejoin="round"/>
<path d="M100.307 174.861L93.3789 145.301" stroke="#263238" stroke-linecap="round" stroke-linejoin="round"/>
<path d="M82.7062 162.071C81.1245 161.632 77.9364 152.127 79.3949 148.032C79.3949 148.032 81.1294 145.021 81.8587 144.814C82.9625 144.494 87.417 144.588 87.2002 145.337C86.7074 147.071 83.2877 147.042 83.2877 147.042L82.179 149.072L82.2233 150.19C82.2233 150.19 83.8346 149.018 84.4259 149.052C84.7315 149.052 86.3083 149.841 87.5599 150.501C88.6292 151.068 89.2845 151.378 89.0381 151.89C88.2448 153.595 84.8694 152.383 84.8694 152.383L83.5981 154.3C83.5981 154.3 84.8251 154.512 85.3622 154.571C85.8993 154.63 90.3587 157.601 90.2257 157.971C89.6984 159.42 85.4706 157.853 85.4706 157.853L84.7216 158.479C84.7216 158.479 87.8358 159.282 88.1709 159.4C88.6636 159.582 90.5608 161.041 90.5312 161.208C90.3045 162.49 87.688 161.548 87.688 161.548L85.3967 161.455C85.0477 161.763 84.6278 161.979 84.1746 162.086" fill="white"/>
<path d="M82.7062 162.071C81.1245 161.632 77.9364 152.127 79.3949 148.032C79.3949 148.032 81.1294 145.021 81.8587 144.814C82.9625 144.494 87.417 144.588 87.2002 145.337C86.7074 147.071 83.2877 147.042 83.2877 147.042L82.179 149.072L82.2233 150.19C82.2233 150.19 83.8346 149.018 84.4259 149.052C84.7315 149.052 86.3083 149.841 87.5599 150.501C88.6292 151.068 89.2845 151.378 89.0381 151.89C88.2448 153.595 84.8694 152.383 84.8694 152.383L83.5981 154.3C83.5981 154.3 84.8251 154.512 85.3622 154.571C85.8993 154.63 90.3587 157.601 90.2257 157.971C89.6984 159.42 85.4706 157.853 85.4706 157.853L84.7216 158.479C84.7216 158.479 87.8358 159.282 88.1709 159.4C88.6636 159.582 90.5608 161.041 90.5312 161.208C90.3045 162.49 87.688 161.548 87.688 161.548L85.3967 161.455C85.0477 161.763 84.6278 161.979 84.1746 162.086" stroke="#263238" stroke-linecap="round" stroke-linejoin="round"/>
<path d="M82.2035 150.189C82.2035 150.189 80.7252 151.431 80.3458 151.791C79.9664 152.151 80.06 153.294 80.06 153.294" stroke="#263238" stroke-linecap="round" stroke-linejoin="round"/>
<path d="M81.1343 155.816C81.1343 157.068 81.972 157.827 82.3563 158.231C82.7407 158.635 81.7404 159.734 82.8491 160.522" stroke="#263238" stroke-linecap="round" stroke-linejoin="round"/>
<path d="M154.121 195.488C150.992 196.34 147.592 190.841 143.443 184.84C140.703 180.898 137.638 176.694 134.115 173.999C133.834 173.787 133.548 173.58 133.263 173.383L135.322 163.035C139.6 165.277 142.251 168.869 146.69 172.56C153.835 178.508 160.167 182.159 161.921 184.79C163.676 187.422 159.482 194.025 154.121 195.488Z" fill="white"/>
<mask id="mask3_2005_24580" style="mask-type:luminance" maskUnits="userSpaceOnUse" x="133" y="163" width="30" height="33">
<path d="M154.121 195.488C150.992 196.34 147.592 190.841 143.443 184.84C140.703 180.898 137.638 176.694 134.115 173.999C133.834 173.787 133.548 173.58 133.263 173.383L135.322 163.035C139.6 165.277 142.251 168.869 146.69 172.56C153.835 178.508 160.167 182.159 161.921 184.79C163.676 187.422 159.482 194.025 154.121 195.488Z" fill="white"/>
</mask>
<g mask="url(#mask3_2005_24580)">
<path opacity="0.4" d="M143.443 184.835C140.703 180.893 137.638 176.689 134.115 173.994C134.58 174.018 135.044 173.947 135.48 173.787C135.48 173.787 141.048 178.306 143.443 184.835Z" fill="#92E3A9"/>
</g>
<path d="M154.121 195.488C150.992 196.34 147.592 190.841 143.443 184.84C140.703 180.898 137.638 176.694 134.115 173.999C133.834 173.787 133.548 173.58 133.263 173.383L135.322 163.035C139.6 165.277 142.251 168.869 146.69 172.56C153.835 178.508 160.167 182.159 161.921 184.79C163.676 187.422 159.482 194.025 154.121 195.488Z" stroke="#263238" stroke-linecap="round" stroke-linejoin="round"/>
<path d="M136.475 172.975C136.261 173.358 135.908 173.644 135.49 173.774C135.379 173.817 135.265 173.855 135.15 173.887H135.056C131.75 174.749 124.309 172.956 124.309 172.956C124.309 172.956 119.436 170.64 119.14 170.093C118.934 169.659 118.752 169.215 118.593 168.762L118.46 168.373C118.46 168.373 116.706 167.387 116.489 166.619C116.272 165.85 115.903 165.633 116.982 165.495C118.061 165.357 123.88 165.495 123.88 165.495L117.549 162.913C117.549 162.913 113.355 160.799 112.966 160.055C112.577 159.311 112.089 158.818 114.232 159.114C116.376 159.41 121.057 160.77 121.057 160.77L124.748 161.553L121.082 159.991C121.082 159.991 113.868 159.119 115.233 156.877H119.327C121.647 156.979 123.954 157.273 126.226 157.754C127.418 158.119 135.303 163.017 135.303 163.017" fill="white"/>
<mask id="mask4_2005_24580" style="mask-type:luminance" maskUnits="userSpaceOnUse" x="112" y="156" width="25" height="19">
<path d="M136.475 172.975C136.261 173.358 135.908 173.644 135.49 173.774C135.379 173.817 135.265 173.855 135.15 173.887H135.056C131.75 174.749 124.309 172.956 124.309 172.956C124.309 172.956 119.436 170.64 119.14 170.093C118.934 169.659 118.752 169.215 118.593 168.762L118.46 168.373C118.46 168.373 116.706 167.387 116.489 166.619C116.272 165.85 115.903 165.633 116.982 165.495C118.061 165.357 123.88 165.495 123.88 165.495L117.549 162.913C117.549 162.913 113.355 160.799 112.966 160.055C112.577 159.311 112.089 158.818 114.232 159.114C116.376 159.41 121.057 160.77 121.057 160.77L124.748 161.553L121.082 159.991C121.082 159.991 113.868 159.119 115.233 156.877H119.327C121.647 156.979 123.954 157.273 126.226 157.754C127.418 158.119 135.303 163.017 135.303 163.017" fill="white"/>
</mask>
<g mask="url(#mask4_2005_24580)">
<path opacity="0.4" d="M135.046 173.906C131.74 174.768 124.299 172.975 124.299 172.975C124.299 172.975 119.426 170.659 119.13 170.112C118.924 169.678 118.742 169.234 118.583 168.781L124.566 169.437C124.356 169.813 124.246 170.237 124.246 170.668C124.246 171.1 124.356 171.524 124.566 171.9C125.231 173.098 132.809 174.31 135.046 173.906Z" fill="#92E3A9"/>
</g>
<path d="M136.475 172.975C136.261 173.358 135.908 173.644 135.49 173.774C135.379 173.817 135.265 173.855 135.15 173.887H135.056C131.75 174.749 124.309 172.956 124.309 172.956C124.309 172.956 119.436 170.64 119.14 170.093C118.934 169.659 118.752 169.215 118.593 168.762L118.46 168.373C118.46 168.373 116.706 167.387 116.489 166.619C116.272 165.85 115.903 165.633 116.982 165.495C118.061 165.357 123.88 165.495 123.88 165.495L117.549 162.913C117.549 162.913 113.355 160.799 112.966 160.055C112.577 159.311 112.089 158.818 114.232 159.114C116.376 159.41 121.057 160.77 121.057 160.77L124.748 161.553L121.082 159.991C121.082 159.991 113.868 159.119 115.233 156.877H119.327C121.647 156.979 123.954 157.273 126.226 157.754C127.418 158.119 135.303 163.017 135.303 163.017" stroke="#263238" stroke-linecap="round" stroke-linejoin="round"/>
<path d="M118.451 168.393L125.65 169.452" stroke="#263238" stroke-linecap="round" stroke-linejoin="round"/>
<path d="M46.6855 190.438L64.7302 195.858L97.7449 188.324C97.7449 188.324 77.5813 182.598 77.3941 182.741C77.2068 182.884 46.6855 190.438 46.6855 190.438Z" fill="#92E3A9"/>
<mask id="mask5_2005_24580" style="mask-type:luminance" maskUnits="userSpaceOnUse" x="46" y="182" width="52" height="14">
<path d="M46.6855 190.438L64.7302 195.858L97.7449 188.324C97.7449 188.324 77.5813 182.598 77.3941 182.741C77.2068 182.884 46.6855 190.438 46.6855 190.438Z" fill="white"/>
</mask>
<g mask="url(#mask5_2005_24580)">
<path opacity="0.3" d="M46.6855 190.438L64.7302 195.858L97.7449 188.324C97.7449 188.324 77.5813 182.598 77.3941 182.741C77.2068 182.884 46.6855 190.438 46.6855 190.438Z" fill="black" fill-opacity="0.7"/>
</g>
<path d="M46.6855 190.438L64.7302 195.858L97.7449 188.324C97.7449 188.324 77.5813 182.598 77.3941 182.741C77.2068 182.884 46.6855 190.438 46.6855 190.438Z" stroke="#263238" stroke-linecap="round" stroke-linejoin="round"/>
<path d="M46.9466 184.081C45.6802 184.169 45.3649 188.732 46.6854 190.437L75.8369 184.386L78.1725 178.857L46.9466 184.081Z" fill="#92E3A9"/>
<mask id="mask6_2005_24580" style="mask-type:luminance" maskUnits="userSpaceOnUse" x="45" y="178" width="34" height="13">
<path d="M46.9466 184.081C45.6802 184.169 45.3649 188.732 46.6854 190.437L75.8369 184.386L78.1725 178.857L46.9466 184.081Z" fill="white"/>
</mask>
<g mask="url(#mask6_2005_24580)">
<path opacity="0.3" d="M46.9466 184.081C45.6802 184.169 45.3649 188.732 46.6854 190.437L75.8369 184.386L78.1725 178.857L46.9466 184.081Z" fill="black" fill-opacity="0.7"/>
</g>
<path d="M46.9466 184.081C45.6802 184.169 45.3649 188.732 46.6854 190.437L75.8369 184.386L78.1725 178.857L46.9466 184.081Z" stroke="#263238" stroke-linecap="round" stroke-linejoin="round"/>
<path d="M96.3308 184.017C96.3308 184.017 95.8972 186.417 96.178 187.895L64.6959 195.02L48.0999 190.132C48.0999 190.132 46.3752 187.082 47.8781 184.712L78.2023 179.562L96.3308 184.017Z" fill="white" stroke="#263238" stroke-linecap="round" stroke-linejoin="round"/>
<path d="M46.9468 184.081L78.1727 178.857L97.5626 183.77L64.9521 190.27L46.9468 184.081Z" fill="#92E3A9" stroke="#263238" stroke-linecap="round" stroke-linejoin="round"/>
<path d="M48.0552 186.999L64.5674 191.917L91.595 186.477" stroke="#263238" stroke-linecap="round" stroke-linejoin="round"/>
<path d="M96.0891 186.979L67.0264 193.177" stroke="#263238" stroke-linecap="round" stroke-linejoin="round"/>
<path d="M48.4448 188.936C48.6961 188.96 60.8918 192.715 60.8918 192.715" stroke="#263238" stroke-linecap="round" stroke-linejoin="round"/>
<path d="M93.7144 185.841L96.0254 185.467" stroke="#263238" stroke-linecap="round" stroke-linejoin="round"/>
<path d="M64.0307 193.626L62.8037 193.35" stroke="#263238" stroke-linecap="round" stroke-linejoin="round"/>
<path d="M47.878 184.713C48.5242 185.457 48.8981 186.399 48.9384 187.384C48.9787 188.369 48.683 189.338 48.0998 190.133C47.5599 189.341 47.253 188.413 47.2138 187.455C47.1746 186.497 47.4047 185.547 47.878 184.713Z" fill="#263238"/>
<mask id="mask7_2005_24580" style="mask-type:luminance" maskUnits="userSpaceOnUse" x="47" y="184" width="2" height="7">
<path d="M47.878 184.713C48.5242 185.457 48.8981 186.399 48.9384 187.384C48.9787 188.369 48.683 189.338 48.0998 190.133C47.5599 189.341 47.253 188.413 47.2138 187.455C47.1746 186.497 47.4047 185.547 47.878 184.713Z" fill="white"/>
</mask>
<g mask="url(#mask7_2005_24580)">
<path opacity="0.3" d="M47.878 184.713C48.5242 185.457 48.8981 186.399 48.9384 187.384C48.9787 188.369 48.683 189.338 48.0998 190.133C47.5599 189.341 47.253 188.413 47.2138 187.455C47.1746 186.497 47.4047 185.547 47.878 184.713Z" fill="white" fill-opacity="0.7"/>
</g>
<path d="M47.878 184.713C48.5242 185.457 48.8981 186.399 48.9384 187.384C48.9787 188.369 48.683 189.338 48.0998 190.133C47.5599 189.341 47.253 188.413 47.2138 187.455C47.1746 186.497 47.4047 185.547 47.878 184.713Z" stroke="#263238" stroke-linecap="round" stroke-linejoin="round"/>
<path d="M115.321 191.916L146.833 193.207L143.763 204.053L104.998 202.574L115.321 191.916Z" fill="white"/>
<mask id="mask8_2005_24580" style="mask-type:luminance" maskUnits="userSpaceOnUse" x="104" y="191" width="43" height="14">
<path d="M115.321 191.916L146.833 193.207L143.763 204.053L104.998 202.574L115.321 191.916Z" fill="white"/>
</mask>
<g mask="url(#mask8_2005_24580)">
<path opacity="0.4" d="M115.321 191.916L146.833 193.207L143.763 204.053L104.998 202.574L115.321 191.916Z" fill="#92E3A9"/>
</g>
<path d="M115.321 191.916L146.833 193.207L143.763 204.053L104.998 202.574L115.321 191.916Z" stroke="#263238" stroke-linecap="round" stroke-linejoin="round"/>
</svg>
