<svg width="253" height="189" viewBox="0 0 253 189" fill="none" xmlns="http://www.w3.org/2000/svg">
<path d="M252.74 165.494H0V165.621H252.74V165.494Z" fill="#00552F"/>
<path d="M227.416 173.627H210.674V173.753H227.416V173.627Z" fill="#00552F"/>
<path d="M136.409 172.086H121.133V172.212H136.409V172.086Z" fill="#00552F"/>
<path d="M210.169 168.938H174.841V169.064H210.169V168.938Z" fill="#00552F"/>
<path d="M111.004 169.785H26.5176V169.912H111.004V169.785Z" fill="#00552F"/>
<path d="M118.702 169.785H115.502V169.912H118.702V169.785Z" fill="#00552F"/>
<path d="M119.799 142.95H22.1957C21.4311 142.949 20.6982 142.644 20.158 142.103C19.6178 141.562 19.3145 140.828 19.3145 140.064V2.86102C19.3211 2.10079 19.6274 1.37389 20.1669 0.838197C20.7064 0.302509 21.4354 0.00130231 22.1957 0H119.799C120.564 0 121.299 0.304091 121.84 0.845376C122.381 1.38666 122.685 2.1208 122.685 2.88629V140.064C122.685 140.829 122.381 141.563 121.84 142.105C121.299 142.646 120.564 142.95 119.799 142.95ZM22.1957 0.101097C21.4646 0.102436 20.7639 0.393802 20.2474 0.911244C19.7309 1.42868 19.4408 2.12992 19.4408 2.86102V140.064C19.4408 140.795 19.7309 141.496 20.2474 142.013C20.7639 142.531 21.4646 142.822 22.1957 142.824H119.799C120.531 142.822 121.232 142.531 121.749 142.014C122.266 141.496 122.558 140.795 122.559 140.064V2.86102C122.558 2.12945 122.266 1.42823 121.749 0.910935C121.232 0.393638 120.531 0.102433 119.799 0.101097H22.1957Z" fill="#00552F"/>
<path d="M229.14 142.95H131.531C130.766 142.949 130.033 142.644 129.492 142.103C128.951 141.562 128.646 140.829 128.645 140.064V2.86102C128.653 2.10033 128.96 1.37343 129.501 0.837881C130.041 0.302332 130.771 0.00128811 131.531 0H229.14C229.899 0.00263077 230.627 0.304425 231.165 0.839971C231.704 1.37552 232.009 2.10166 232.016 2.86102V140.064C232.016 140.827 231.713 141.56 231.174 142.101C230.635 142.642 229.903 142.947 229.14 142.95ZM131.531 0.101097C130.8 0.102433 130.099 0.393638 129.581 0.910935C129.064 1.42823 128.773 2.12945 128.771 2.86102V140.064C128.773 140.795 129.064 141.496 129.581 142.014C130.099 142.531 130.8 142.822 131.531 142.824H229.14C229.871 142.822 230.572 142.531 231.09 142.014C231.607 141.496 231.898 140.795 231.9 140.064V2.86102C231.898 2.12945 231.607 1.42823 231.09 0.910935C230.572 0.393638 229.871 0.102433 229.14 0.101097H131.531Z" fill="#00552F"/>
<path d="M224.757 13.3652H170.266V73.5528H224.757V13.3652Z" fill="#A3A3A3"/>
<path d="M169.654 73.5469H170.266V13.3593H169.654V73.5469Z" fill="#00552F"/>
<path d="M210.538 31.6532C208.81 29.9268 206.467 28.957 204.025 28.957C201.582 28.957 199.24 29.9268 197.512 31.6532C195.765 30.0299 193.456 29.1475 191.072 29.1917C188.688 29.2359 186.413 30.2033 184.728 31.8902C183.042 33.5771 182.077 35.8521 182.034 38.2365C181.992 40.6208 182.876 42.9287 184.501 44.6744L197.522 57.7006L210.548 44.6744C212.273 42.946 213.241 40.6035 213.239 38.1617C213.237 35.72 212.265 33.3789 210.538 31.6532Z" fill="#00552F"/>
<path d="M178.556 124.201C173.653 118.232 175.998 107.935 181.831 106.055C187.665 104.174 191.85 99.1245 193.756 94.3427C195.661 89.5608 203.431 79.9011 212.731 78.3998C222.032 76.8985 221.496 74.7654 230.868 72.142C240.24 69.5185 248.56 78.4959 237.52 81.6753C226.48 84.8548 234.371 99.0993 222.801 104.498C211.23 109.896 211.624 116.392 210.558 123.772C209.491 131.152 189.388 137.394 178.556 124.201Z" fill="#00552F"/>
<path d="M177.621 143.45L177.115 143.323C183.874 117.675 199.326 100.499 211.094 90.6067C223.842 79.8905 235.149 75.1744 235.266 75.1289L235.458 75.5939C235.342 75.6394 224.095 80.3354 211.402 91.0061C199.71 100.853 184.344 117.938 177.621 143.45Z" fill="#FAFAFA"/>
<path d="M165.676 131.475C158.312 127.811 155.036 116.119 159.166 111.301C163.296 106.484 164.337 99.2458 163.533 93.4125C162.729 87.5793 164.544 73.8454 171.874 67.6937C179.203 61.542 177.656 59.606 184.511 52.2866C191.365 44.9673 203.254 49.9917 195.247 58.7214C187.24 67.451 201.505 78.0914 194.18 89.3636C186.856 100.636 190.561 107.055 193.442 115.143C196.324 123.231 181.973 139.578 165.676 131.475Z" fill="#525252"/>
<path d="M172.495 142.631C165.924 123.842 170.029 101.687 174.639 86.4113C179.694 69.6192 187.119 55.8146 189.803 54.0605L190.081 54.4801C185.562 57.4624 160.571 107.05 172.981 142.474L172.495 142.631Z" fill="#FAFAFA"/>
<path d="M192.214 136.197H160.333L163.553 165.495H188.994L192.214 136.197Z" fill="#A3A3A3"/>
<path d="M96.5467 94.5247C89.192 96.6072 77.9551 100.712 71.9551 103.81C78.3444 97.0875 91.9317 92.6443 97.2594 91.1733C90.4203 91.0166 73.881 92.0529 73.881 92.0529C79.2555 90.5666 84.7166 89.4136 90.2333 88.6004C86.1035 87.5541 81.8928 86.7352 78.9914 86.624C87.0184 84.0966 100.277 87.6906 101.612 88.1758C102.81 86.7756 106.606 83.0149 110.114 83.9247C108.481 84.6627 106.191 87.0233 104.442 89.2424C107.828 87.7529 111.615 87.4397 115.199 88.3527C111.908 88.656 105.544 90.9661 104.346 95.3082C106.09 104.912 107.106 124.323 107.233 138.203H109.467C111.711 118.196 116.68 87.1851 120.81 75.094C120.891 73.9112 122.594 69.0838 124.616 68.3812C126.441 67.7443 144.663 62.9574 155.001 66.3138C151.118 66.4604 145.396 67.5522 139.73 68.9423C150.032 70.3324 161.016 73.5422 161.016 73.5422C161.016 73.5422 139.123 72.1672 129.989 72.3745C136.869 74.3257 154.333 80.2448 161.86 89.202C151.144 83.3384 126.623 74.7654 121.927 75.0485C121.75 75.4377 121.563 75.9129 121.325 76.5194C120.016 79.8303 116.028 98.0984 114.572 107.475C113.561 113.814 111.65 128.377 110.528 138.193H121.568L119.859 142.399H118.945L115.553 165.494H98.3665L94.9342 142.399H94.0193L92.3108 138.193H106.378C106.308 131.015 106.09 121.77 105.898 117.494C105.64 111.933 104.66 102.168 103.912 97.1178C102.395 97.5424 97.0573 101.975 94.6411 105.746C95.9323 102.241 97.8545 99.0011 100.313 96.1877C96.5619 97.3958 90.7084 100.024 87.4127 102.643C89.9447 99.4097 93.0389 96.6598 96.5467 94.5247Z" fill="#525252"/>
<path d="M126.37 188.321C180.498 188.321 224.378 185.759 224.378 182.599C224.378 179.439 180.498 176.877 126.37 176.877C72.2418 176.877 28.3623 179.439 28.3623 182.599C28.3623 185.759 72.2418 188.321 126.37 188.321Z" fill="#A3A3A3"/>
<path d="M83.8086 31.8662C89.713 31.8662 94.4995 27.0797 94.4995 21.1753C94.4995 15.2709 89.713 10.4844 83.8086 10.4844C77.9042 10.4844 73.1177 15.2709 73.1177 21.1753C73.1177 27.0797 77.9042 31.8662 83.8086 31.8662Z" fill="#263238"/>
<path d="M96.0057 169.61L92.3106 172.051L86.3813 163.979L90.0764 161.537L96.0057 169.61Z" fill="#7F3E3B"/>
<path d="M91.9973 171.652L96.0411 168.988C96.1079 168.939 96.1912 168.917 96.2733 168.929C96.3554 168.94 96.4299 168.983 96.4809 169.048L98.8516 172.081C98.9092 172.163 98.9498 172.255 98.9709 172.353C98.9919 172.451 98.993 172.552 98.9742 172.65C98.9553 172.748 98.9168 172.841 98.861 172.924C98.8052 173.007 98.7332 173.078 98.6494 173.133C97.1835 174.068 95.0403 175.367 93.2104 176.58C91.0723 177.99 91.3806 178.971 88.5095 179.8C86.7706 180.305 86.0731 178.617 86.7807 178.248C89.9956 176.55 89.5356 175.842 91.2593 172.541C91.4285 172.189 91.6819 171.883 91.9973 171.652Z" fill="#263238"/>
<path opacity="0.2" d="M86.3813 163.984L89.4395 168.144L93.1346 165.697L90.0815 161.537L86.3813 163.984Z" fill="black"/>
<path d="M86.9072 39.3767C81.3469 38.1383 75.6451 38.022 69.8523 38.5477C68.8827 38.6402 67.9653 39.0296 67.2252 39.6629C66.4852 40.2962 65.9587 41.1424 65.7175 42.0861C64.3982 47.4492 62.1083 59.5454 62.4723 77.9752L85.8508 78.3543C86.331 75.0687 85.9519 59.8335 89.8946 44.4568C90.0498 43.9269 90.0947 43.3708 90.0268 42.8229C89.9588 42.2749 89.7794 41.7467 89.4995 41.2707C89.2196 40.7948 88.8452 40.3812 88.3994 40.0554C87.9535 39.7297 87.4457 39.4987 86.9072 39.3767Z" fill="#263238"/>
<path d="M72.8296 42.6724L73.4463 44.4163C73.4767 44.5013 73.5293 44.5766 73.5986 44.6344C73.6679 44.6922 73.7515 44.7303 73.8406 44.7449L74.7302 44.8814C74.891 44.9046 75.055 44.8725 75.1952 44.7904L76.8886 43.7794L75.1599 42.1973L72.8296 42.6724Z" fill="#65C098"/>
<path d="M74.811 44.3509C74.4835 44.2154 74.1262 44.1683 73.7748 44.2145C72.7335 46.0089 71.03 51.2558 70.5498 53.5962C71.9753 58.3881 72.6172 58.9138 72.6172 58.9138L74.6897 53.4142C74.6897 53.4142 74.4167 47.6214 74.811 44.3509Z" fill="#65C098"/>
<path d="M83.4698 27.6953C82.5245 30.8394 81.3164 36.6423 83.3282 38.9423C81.4226 40.5345 78.9609 42.3593 75.1647 42.2127C71.3685 42.0661 72.2885 39.5033 73.4258 38.2043C77.0653 37.6179 77.2372 34.9692 76.8682 32.4418L83.4698 27.6953Z" fill="#7F3E3B"/>
<path d="M84.3291 38.7551C84.0763 38.6124 83.8106 38.494 83.5355 38.4013C83.4675 38.3763 83.3933 38.3742 83.324 38.3952C83.2547 38.4161 83.1941 38.4591 83.1513 38.5175C82.7065 39.0988 81.2355 41.7475 75.1597 42.2126C76.0594 42.8899 77.126 44.8158 77.5759 45.751C79.4765 45.0028 84.4706 42.7181 84.4959 39.0634C84.4978 39.0019 84.4833 38.9409 84.454 38.8868C84.4248 38.8326 84.3816 38.7872 84.3291 38.7551Z" fill="white"/>
<path d="M73.4412 38.3515C73.46 38.2981 73.4652 38.2409 73.4561 38.185C73.4471 38.1291 73.4241 38.0763 73.3894 38.0316C73.3547 37.9868 73.3094 37.9515 73.2575 37.9288C73.2056 37.9061 73.1489 37.8968 73.0925 37.9017C72.8816 37.9222 72.6723 37.956 72.4657 38.0028C72.4172 38.0156 72.3711 38.0361 72.3292 38.0634C71.8237 38.4425 68.8717 41.7787 70.8127 44.9177C71.4345 44.1848 73.3401 42.5571 75.1599 42.2134C73.5929 41.2884 72.9509 39.7972 73.4412 38.3515Z" fill="white"/>
<path opacity="0.2" d="M80.7809 29.6328L76.8735 32.4433C76.9704 33.0329 77.0127 33.6302 76.9999 34.2276C78.3799 34.1316 80.3917 32.7769 80.6798 31.3616C80.8162 30.7959 80.8505 30.2105 80.7809 29.6328Z" fill="black"/>
<path d="M86.5637 23.6982C85.1685 27.8836 84.5417 30.3958 81.8678 32.1195C77.8239 34.7076 73.1634 31.6444 73.3049 27.1961C73.4262 23.1877 75.6857 17.0107 80.235 16.207C84.7844 15.4033 87.9537 19.5078 86.5637 23.6982Z" fill="#7F3E3B"/>
<path d="M84.9608 26.6397L82.4688 25.6287C82.4688 25.6287 85.4512 22.3582 85.623 20.3768C80.9979 19.6691 74.558 19.8056 77.227 15.4888C79.0265 12.5822 81.1394 12.5873 85.0468 13.9167C91.4563 16.1004 90.6071 21.6961 89.1614 24.8856C87.7157 28.0752 84.9608 26.6397 84.9608 26.6397Z" fill="#263238"/>
<path d="M86.1138 26.6251C86.0818 26.6242 86.0512 26.6116 86.0279 26.5897C84.8575 25.5054 83.4828 24.6651 81.984 24.1179C81.9512 24.1065 81.9243 24.0825 81.9092 24.0512C81.894 24.02 81.8918 23.984 81.9031 23.9511C81.9083 23.9351 81.9166 23.9202 81.9275 23.9074C81.9385 23.8946 81.9519 23.8842 81.967 23.8766C81.9821 23.8691 81.9985 23.8646 82.0153 23.8635C82.0321 23.8625 82.049 23.8647 82.0649 23.8703C83.5988 24.4298 85.0061 25.2889 86.2048 26.3977C86.2283 26.4221 86.2414 26.4547 86.2414 26.4886C86.2414 26.5226 86.2283 26.5552 86.2048 26.5796C86.1815 26.606 86.1489 26.6223 86.1138 26.6251Z" fill="white"/>
<path d="M76.9948 27.8328C77.3808 27.937 77.7836 27.9638 78.1801 27.9118C78.5765 27.8597 78.9588 27.7298 79.3048 27.5295C79.3264 27.5126 79.3416 27.489 79.348 27.4623C79.3545 27.4357 79.3517 27.4077 79.3402 27.3829C79.3204 27.364 79.2942 27.3535 79.2669 27.3535C79.2396 27.3535 79.2133 27.364 79.1936 27.3829C78.8104 27.5962 78.3836 27.7193 77.9457 27.7429C77.5077 27.7666 77.0702 27.6901 76.6662 27.5194C76.64 27.5089 76.6107 27.5089 76.5844 27.5192C76.5582 27.5295 76.5368 27.5495 76.5247 27.575C76.5188 27.5872 76.5154 27.6005 76.5148 27.6141C76.5141 27.6276 76.5162 27.6412 76.5209 27.6539C76.5257 27.6667 76.5329 27.6783 76.5422 27.6882C76.5516 27.6981 76.5628 27.706 76.5752 27.7114C76.7127 27.7596 76.8528 27.8001 76.9948 27.8328Z" fill="#263238"/>
<path d="M86.801 28.6218C86.0214 29.4149 84.97 29.8828 83.859 29.931C82.4083 29.9664 82.1101 28.5915 82.8481 27.4036C83.5305 26.3421 85.1126 25.038 86.3865 25.5637C87.6603 26.0894 87.7614 27.6361 86.801 28.6218Z" fill="#7F3E3B"/>
<path d="M74.9123 121.402C75.4178 99.398 80.9377 78.2639 80.9377 78.2639L62.6797 77.9707C62.6797 77.9707 63.7968 109.75 64.1153 123.065C64.4438 136.905 87.3219 168.335 87.3219 168.335L93.5848 164.196C93.5848 164.196 75.4026 138.77 74.9123 121.402Z" fill="#65C098"/>
<g style="mix-blend-mode:multiply" opacity="0.2">
<path d="M76.5953 90.3711C71.1766 97.4934 73.0974 110.889 74.9374 120.351C75.3477 109.888 76.5577 99.4719 78.5566 89.1934L76.5953 90.3711Z" fill="black"/>
</g>
<path d="M87.0386 168.736L94.4844 163.813L92.8719 161.508L85.042 166.492L87.0386 168.736Z" fill="#263238"/>
<path d="M80.1084 23.3035C80.0124 23.6472 79.7596 23.8898 79.5372 23.8393C79.3148 23.7888 79.2087 23.4754 79.2997 23.1266C79.3906 22.7778 79.6484 22.5402 79.8708 22.5908C80.0933 22.6413 80.1994 22.9598 80.1084 23.3035Z" fill="#263238"/>
<path d="M76.1554 22.5711C76.0644 22.9148 75.8066 23.1574 75.5842 23.1069C75.3618 23.0563 75.2607 22.7429 75.3517 22.3942C75.4427 22.0454 75.7005 21.8078 75.9229 21.8583C76.1453 21.9089 76.2514 22.2425 76.1554 22.5711Z" fill="#263238"/>
<path d="M77.2373 22.9746C76.5294 23.8292 75.7138 24.5887 74.811 25.2341C75.2559 25.8306 76.3528 25.7901 76.3528 25.7901L77.2373 22.9746Z" fill="#630F0F"/>
<path d="M81.7209 22.3481C81.7552 22.3601 81.7926 22.3601 81.827 22.3481C81.8774 22.3258 81.9174 22.2852 81.9389 22.2346C81.9605 22.1839 81.9621 22.1269 81.9433 22.0752C81.8274 21.7747 81.6381 21.5081 81.3926 21.2997C81.1472 21.0913 80.8533 20.9477 80.538 20.8822C80.4828 20.8761 80.4273 20.8908 80.3824 20.9236C80.3374 20.9563 80.3064 21.0047 80.2954 21.0592C80.2887 21.0855 80.2878 21.1129 80.2925 21.1397C80.2972 21.1664 80.3076 21.1919 80.3229 21.2143C80.3381 21.2368 80.358 21.2557 80.3812 21.2699C80.4043 21.2841 80.4302 21.2933 80.4572 21.2967C80.7052 21.3496 80.9361 21.4638 81.1286 21.6289C81.3211 21.794 81.4691 22.0048 81.5591 22.242C81.5734 22.2731 81.5961 22.2996 81.6247 22.3183C81.6533 22.3371 81.6866 22.3474 81.7209 22.3481Z" fill="#263238"/>
<path d="M74.6494 20.5745C74.6798 20.5904 74.7136 20.5988 74.7479 20.5988C74.7823 20.5988 74.8161 20.5904 74.8465 20.5745C75.0597 20.4124 75.3079 20.3024 75.5712 20.2533C75.8345 20.2041 76.1056 20.2172 76.363 20.2914C76.4161 20.3101 76.4743 20.308 76.5259 20.2855C76.5774 20.263 76.6186 20.2218 76.641 20.1701C76.6516 20.1456 76.6571 20.1192 76.6572 20.0926C76.6574 20.0659 76.6521 20.0394 76.6417 20.0149C76.6313 19.9903 76.616 19.9681 76.5968 19.9496C76.5775 19.9311 76.5547 19.9167 76.5298 19.9073C76.2105 19.8109 75.8731 19.7908 75.5448 19.8488C75.2164 19.9067 74.9062 20.041 74.6393 20.2409C74.6163 20.2557 74.5964 20.275 74.5809 20.2975C74.5654 20.3201 74.5545 20.3455 74.5489 20.3723C74.5432 20.3991 74.543 20.4267 74.5481 20.4536C74.5532 20.4805 74.5635 20.5061 74.5786 20.529C74.5976 20.5503 74.6221 20.5661 74.6494 20.5745Z" fill="#263238"/>
<path d="M91.5426 172.435C91.5523 172.418 91.5575 172.399 91.5575 172.379C91.5575 172.36 91.5523 172.341 91.5426 172.324C91.5334 172.305 91.5188 172.29 91.5007 172.28C91.4827 172.27 91.462 172.266 91.4415 172.268C91.2191 172.268 89.2831 172.516 88.9848 173.062C88.956 173.113 88.9409 173.17 88.9409 173.229C88.9409 173.287 88.956 173.344 88.9848 173.395C89.0214 173.479 89.0786 173.552 89.1511 173.608C89.2236 173.664 89.309 173.7 89.3993 173.714C90.0211 173.805 90.9967 172.961 91.5224 172.445L91.5426 172.435ZM89.2022 173.127C89.4246 172.844 90.4154 172.622 91.1685 172.516C90.4305 173.188 89.8037 173.557 89.4549 173.527C89.3954 173.517 89.3393 173.492 89.2916 173.455C89.244 173.418 89.2063 173.37 89.182 173.314C89.1694 173.295 89.1626 173.272 89.1626 173.249C89.1626 173.225 89.1694 173.203 89.182 173.183C89.1815 173.163 89.1887 173.143 89.2022 173.127Z" fill="#65C098"/>
<path d="M91.5424 172.435C91.5424 172.435 91.5424 172.435 91.5424 172.41C91.5522 172.394 91.5574 172.376 91.5574 172.357C91.5574 172.338 91.5522 172.32 91.5424 172.304C91.5121 172.264 90.8196 171.328 90.1169 171.253C90.0143 171.241 89.9104 171.251 89.8114 171.28C89.7125 171.31 89.6204 171.359 89.5407 171.425C89.3183 171.607 89.3183 171.778 89.3638 171.885C89.5457 172.35 90.8802 172.567 91.4716 172.476C91.4856 172.474 91.4991 172.47 91.5113 172.463C91.5234 172.456 91.5341 172.447 91.5424 172.435ZM89.5912 171.667C89.6122 171.636 89.6377 171.609 89.6671 171.586C89.7251 171.537 89.7931 171.501 89.8663 171.48C89.9395 171.459 90.0163 171.454 90.0917 171.465C90.5601 171.605 90.9712 171.892 91.2644 172.284C90.6426 172.314 89.6671 172.077 89.5559 171.778C89.5508 171.783 89.5306 171.738 89.5912 171.667Z" fill="#65C098"/>
<path d="M88.1559 175.422L83.7785 175.356L82.9849 165.201L87.3573 165.272L88.1559 175.422Z" fill="#7F3E3B"/>
<path d="M83.591 174.846L88.3526 174.922C88.3938 174.921 88.4347 174.928 88.473 174.944C88.5112 174.959 88.5462 174.981 88.5757 175.01C88.6053 175.038 88.6289 175.073 88.6453 175.11C88.6617 175.148 88.6704 175.189 88.6711 175.23L88.8379 179.132C88.8366 179.336 88.7552 179.53 88.6114 179.674C88.4676 179.818 88.2729 179.899 88.0696 179.901C86.356 179.84 85.8252 179.703 83.6668 179.668C81.1394 179.628 79.1782 179.734 76.216 179.668C74.4216 179.643 74.2548 177.828 75.0332 177.646C77.4949 177.141 81.3163 176.17 82.4739 175.119C82.8008 174.895 83.1979 174.798 83.591 174.846Z" fill="#263238"/>
<path opacity="0.2" d="M82.9849 165.207L83.3943 170.439L87.7718 170.51L87.3623 165.278L82.9849 165.207Z" fill="black"/>
<path d="M87.4479 121.099C87.1952 101.385 88.4589 86.0135 85.8708 78.3453L70.4233 78.0977C70.4233 78.0977 75.8522 108.836 77.3838 122.049C78.971 135.783 81.5843 168.109 81.5843 168.109L88.6358 168.205C88.6358 168.205 90.3292 136.481 87.4479 121.099Z" fill="#65C098"/>
<path d="M80.4977 169.559L89.2981 169.7L89.9754 166.844L80.1792 166.541L80.4977 169.559Z" fill="#263238"/>
<path d="M83.3386 174.988C83.3573 174.981 83.3735 174.968 83.3852 174.952C83.3969 174.936 83.4035 174.917 83.4043 174.897C83.4088 174.876 83.4063 174.854 83.3972 174.835C83.388 174.816 83.3727 174.8 83.3537 174.79C83.1617 174.694 81.4481 173.835 80.9173 174.149C80.8662 174.177 80.8228 174.218 80.7911 174.267C80.7594 174.317 80.7402 174.373 80.7353 174.432C80.7222 174.524 80.7313 174.618 80.7621 174.706C80.7929 174.794 80.8444 174.873 80.9123 174.937C81.3773 175.357 82.6208 175.149 83.3234 174.988H83.3386ZM81.0487 174.315C81.3773 174.194 82.3074 174.538 82.9847 174.851C82.0243 175.038 81.3116 175.018 81.0538 174.78C81.0086 174.739 80.9747 174.686 80.9552 174.628C80.9358 174.57 80.9314 174.507 80.9426 174.447C80.942 174.424 80.9478 174.401 80.9594 174.382C80.971 174.362 80.988 174.346 81.0083 174.336L81.0487 174.315Z" fill="#65C098"/>
<path d="M83.3385 174.988C83.3557 174.979 83.3706 174.966 83.382 174.95C83.3934 174.934 83.401 174.916 83.4042 174.897C83.4042 174.846 83.3182 173.653 82.7824 173.208C82.7073 173.14 82.6179 173.09 82.5208 173.061C82.4237 173.032 82.3214 173.026 82.2213 173.042C81.9383 173.077 81.8523 173.224 81.8271 173.345C81.7361 173.85 82.742 174.775 83.2576 175.003C83.2713 175.007 83.2857 175.007 83.2997 175.004C83.3137 175.002 83.3269 174.996 83.3385 174.988ZM82.1354 173.259C82.1695 173.246 82.2052 173.237 82.2416 173.234C82.3145 173.223 82.389 173.228 82.4597 173.249C82.5305 173.27 82.5957 173.306 82.651 173.355C82.9648 173.738 83.1505 174.21 83.1818 174.705C82.6763 174.391 81.9787 173.658 82.0343 173.355C82.041 173.331 82.0539 173.31 82.0717 173.293C82.0895 173.276 82.1115 173.264 82.1354 173.259Z" fill="#65C098"/>
<path d="M83.6568 38.782C81.1041 41.9716 74.3963 46.3642 72.6221 54.0273C70.6912 46.3945 73.2994 38.2058 73.2994 38.2058C71.874 38.0996 68.9169 37.9682 66.8394 38.5495C66.177 38.7403 65.5791 39.1079 65.1097 39.6129C64.6404 40.1178 64.3175 40.741 64.1755 41.4155C62.5155 49.7585 61.6758 58.2438 61.6683 66.7502C61.6279 82.7993 60.3086 107.639 60.3086 107.639C60.3086 107.639 76.5649 108.589 89.3839 107.209C89.4395 94.9409 86.8868 74.1151 87.549 68.6711C88.4032 61.6702 90.3493 48.002 91.3148 42.3153C91.4642 41.5251 91.3182 40.7076 90.9044 40.018C90.4906 39.3284 89.838 38.8148 89.0705 38.5748C87.5846 38.1989 86.0409 38.108 84.5211 38.3068C84.1817 38.3454 83.8712 38.5161 83.6568 38.782Z" fill="#65C098"/>
<path opacity="0.7" d="M83.6517 38.782C81.099 41.9766 74.3913 46.3642 72.6221 54.0273C70.6912 46.3945 73.2994 38.2058 73.2994 38.2058C71.874 38.0996 68.9169 37.9682 66.8394 38.5495C66.177 38.7403 65.5791 39.1079 65.1097 39.6129C64.6404 40.1178 64.3175 40.741 64.1755 41.4155C62.5155 49.7585 61.6758 58.2438 61.6683 66.7502C61.6279 82.7993 60.3086 107.639 60.3086 107.639C60.3086 107.639 76.5649 108.589 89.3839 107.209C89.4395 94.9409 86.8868 74.1151 87.549 68.6711C88.4032 61.6651 90.3493 47.9969 91.3148 42.3153C91.4698 41.5506 91.3427 40.7557 90.9571 40.0774C90.5715 39.3991 89.9534 38.8833 89.217 38.6253C87.6886 38.2174 86.0953 38.1109 84.5262 38.3119C84.1841 38.3472 83.8698 38.5161 83.6517 38.782Z" fill="white"/>
<path opacity="0.5" d="M71.7784 106.151C71.01 90.5421 72.1625 57.8729 72.3496 54.9512H72.6225C72.4355 57.8678 71.283 90.5168 72.0513 106.121L71.7784 106.151Z" fill="#65C098"/>
<path d="M71.3384 43.9772C69.7259 46.7978 68.1791 49.7802 66.789 52.7271C66.0915 54.2082 65.4394 55.6943 64.8783 57.1652C64.5952 57.8982 64.3425 58.6261 64.1251 59.3236C63.931 59.9243 63.7856 60.5396 63.6904 61.1636V61.204C63.6968 61.1317 63.6968 61.059 63.6904 60.9867C63.683 60.8169 63.6628 60.6479 63.6298 60.4812C63.5865 60.3083 63.529 60.1392 63.4579 59.9757C63.3906 59.831 63.3112 59.6924 63.2203 59.5612C63.0525 59.3084 62.8274 59.0988 62.5632 58.9496C62.4015 58.8788 62.6037 58.9799 62.8362 59.0203C63.4809 59.15 64.1352 59.2261 64.7924 59.2478C66.3625 59.313 67.9349 59.2978 69.5035 59.2023C71.1159 59.1012 72.7537 58.9546 74.3864 58.7777C75.2053 58.6867 76.0242 58.5806 76.838 58.4694L78.0613 58.3026L78.6678 58.2065L78.9711 58.161L79.1177 58.1358H79.1935H79.239H79.1632L79.0166 58.1661L80.4825 64.9041L80.3157 64.9345H80.2197H80.1539H80.068H79.9012L79.5777 64.9699L78.9307 65.0406L77.6417 65.1771L75.0688 65.4248C73.3451 65.5865 71.6214 65.723 69.8674 65.809C68.1134 65.8949 66.329 65.9758 64.4689 65.8949C63.44 65.8625 62.4155 65.7459 61.4057 65.5461C60.6696 65.4002 59.9581 65.15 59.2928 64.803C58.6511 64.4631 58.0973 63.9786 57.6752 63.3877C57.3532 62.9328 57.1278 62.4167 57.013 61.8713C56.9501 61.596 56.9179 61.3146 56.917 61.0322C56.917 60.9109 56.917 60.7289 56.917 60.6531V60.5418C57.0233 59.4826 57.2264 58.4352 57.5236 57.4129C57.7814 56.4929 58.0644 55.6235 58.3627 54.7743C58.9692 53.081 59.6163 51.4584 60.2835 49.8509C60.9507 48.2435 61.6584 46.6715 62.3661 45.1045C63.0737 43.5375 63.8016 41.9958 64.5599 40.3984L71.3384 43.9772Z" fill="#65C098"/>
<g opacity="0.7">
<path d="M71.3384 43.9772C69.7259 46.7978 68.1791 49.7802 66.789 52.7271C66.0915 54.2082 65.4394 55.6943 64.8783 57.1652C64.5952 57.8982 64.3425 58.6261 64.1251 59.3236C63.931 59.9243 63.7856 60.5396 63.6904 61.1636V61.204C63.6968 61.1317 63.6968 61.059 63.6904 60.9867C63.683 60.8169 63.6628 60.6479 63.6298 60.4812C63.5865 60.3083 63.529 60.1392 63.4579 59.9757C63.3906 59.831 63.3112 59.6924 63.2203 59.5612C63.0525 59.3084 62.8274 59.0988 62.5632 58.9496C62.4015 58.8788 62.6037 58.9799 62.8362 59.0203C63.4809 59.15 64.1352 59.2261 64.7924 59.2478C66.3625 59.313 67.9349 59.2978 69.5035 59.2023C71.1159 59.1012 72.7537 58.9546 74.3864 58.7777C75.2053 58.6867 76.0242 58.5806 76.838 58.4694L78.0613 58.3026L78.6678 58.2065L78.9711 58.161L79.1177 58.1358H79.1935H79.239H79.1632L79.0166 58.1661L80.4825 64.9041L80.3157 64.9345H80.2197H80.1539H80.068H79.9012L79.5777 64.9699L78.9307 65.0406L77.6417 65.1771L75.0688 65.4248C73.3451 65.5865 71.6214 65.723 69.8674 65.809C68.1134 65.8949 66.329 65.9758 64.4689 65.8949C63.44 65.8625 62.4155 65.7459 61.4057 65.5461C60.6696 65.4002 59.9581 65.15 59.2928 64.803C58.6511 64.4631 58.0973 63.9786 57.6752 63.3877C57.3532 62.9328 57.1278 62.4167 57.013 61.8713C56.9501 61.596 56.9179 61.3146 56.917 61.0322C56.917 60.9109 56.917 60.7289 56.917 60.6531V60.5418C57.0233 59.4826 57.2264 58.4352 57.5236 57.4129C57.7814 56.4929 58.0644 55.6235 58.3627 54.7743C58.9692 53.081 59.6163 51.4584 60.2835 49.8509C60.9507 48.2435 61.6584 46.6715 62.3661 45.1045C63.0737 43.5375 63.8016 41.9958 64.5599 40.3984L71.3384 43.9772Z" fill="white"/>
</g>
<path d="M66.7839 58.8085L63.4831 55.6543L61.2388 60.3452C61.2388 60.3452 64.5446 62.8726 66.0408 61.3561L66.7839 58.8085Z" fill="#7F3E3B"/>
<path d="M78.855 60.4162L81.8879 56.9941L84.5063 61.4929C84.5063 61.4929 81.4228 64.2731 79.8154 62.9083L78.855 60.4162Z" fill="#7F3E3B"/>
<path d="M86.4372 56.5849L87.0842 58.3389C87.2073 58.6888 87.2084 59.0701 87.0872 59.4207C86.9661 59.7713 86.7298 60.0706 86.4169 60.2699L84.5163 61.4931L81.8979 56.9943L84.4557 55.8014C84.6355 55.7115 84.8323 55.6605 85.0331 55.6517C85.234 55.643 85.4344 55.6767 85.6214 55.7506C85.8084 55.8245 85.9777 55.937 86.1182 56.0808C86.2588 56.2246 86.3675 56.3963 86.4372 56.5849Z" fill="#7F3E3B"/>
<path d="M58.9187 55.6042L58.4133 57.3986C58.3208 57.7575 58.3524 58.137 58.5029 58.4756C58.6534 58.8142 58.914 59.092 59.2422 59.2639L61.2642 60.3304L63.5085 55.6396L60.8547 54.6589C60.6667 54.5798 60.4638 54.5417 60.2598 54.5474C60.0559 54.5531 59.8554 54.6024 59.6721 54.6919C59.4887 54.7814 59.3266 54.9092 59.1967 55.0665C59.0667 55.2239 58.972 55.4072 58.9187 55.6042Z" fill="#7F3E3B"/>
<path d="M91.3199 41.582C91.5018 42.5627 91.6434 43.4371 91.79 44.3622C91.9365 45.2872 92.0629 46.192 92.1741 47.112C92.4117 48.9519 92.6088 50.802 92.7049 52.7077C92.8299 54.6959 92.7876 56.6912 92.5785 58.6723C92.4475 59.8879 92.1463 61.079 91.6838 62.2107C91.5393 62.5592 91.3704 62.897 91.1783 63.2217C91.057 63.4036 90.9509 63.5755 90.8043 63.7625L90.6981 63.899C90.6566 63.9577 90.611 64.0135 90.5616 64.0658C90.422 64.2273 90.2717 64.3793 90.1118 64.5208C89.6602 64.9073 89.1478 65.2164 88.5953 65.4357C88.2306 65.584 87.8555 65.7056 87.4732 65.7996C86.3718 66.0417 85.2492 66.1737 84.1218 66.1939C83.1108 66.2242 82.1555 66.1939 81.2102 66.1636C79.3197 66.0877 77.4899 65.9058 75.65 65.7238C73.81 65.5418 72.0307 65.3093 70.2363 65.0566C68.4418 64.8038 66.6726 64.5511 64.8428 64.263L66.0913 57.4794C67.7543 57.8231 69.4983 58.1163 71.2118 58.3943C72.9254 58.6723 74.6542 58.8998 76.3677 59.0868C78.0813 59.2739 79.7898 59.4103 81.4529 59.4811C82.2768 59.5064 83.0957 59.5165 83.864 59.4811C84.5134 59.4698 85.16 59.3953 85.795 59.2587C85.8758 59.2587 85.9618 59.2031 85.9365 59.2031C85.8071 59.2638 85.6878 59.3439 85.5827 59.4407C85.504 59.5067 85.4313 59.5794 85.3653 59.658C85.3198 59.7187 85.3653 59.6884 85.3299 59.6985C85.3299 59.6985 85.3653 59.6226 85.3956 59.5367C85.5728 59.0031 85.6832 58.4496 85.7242 57.8888C85.8439 56.3313 85.8185 54.766 85.6484 53.2131C85.4917 51.5703 85.249 49.8972 84.9508 48.224C84.7941 47.39 84.6222 46.556 84.4453 45.7219C84.2684 44.8879 84.0612 44.0336 83.859 43.2804L91.3199 41.582Z" fill="#65C098"/>
<g opacity="0.7">
<path d="M91.3199 41.582C91.5018 42.5627 91.6434 43.4371 91.79 44.3622C91.9365 45.2872 92.0629 46.192 92.1741 47.112C92.4117 48.9519 92.6088 50.802 92.7049 52.7077C92.8299 54.6959 92.7876 56.6912 92.5785 58.6723C92.4475 59.8879 92.1463 61.079 91.6838 62.2107C91.5393 62.5592 91.3704 62.897 91.1783 63.2217C91.057 63.4036 90.9509 63.5755 90.8043 63.7625L90.6981 63.899C90.6566 63.9577 90.611 64.0135 90.5616 64.0658C90.422 64.2273 90.2717 64.3793 90.1118 64.5208C89.6602 64.9073 89.1478 65.2164 88.5953 65.4357C88.2306 65.584 87.8555 65.7056 87.4732 65.7996C86.3718 66.0417 85.2492 66.1737 84.1218 66.1939C83.1108 66.2242 82.1555 66.1939 81.2102 66.1636C79.3197 66.0877 77.4899 65.9058 75.65 65.7238C73.81 65.5418 72.0307 65.3093 70.2363 65.0566C68.4418 64.8038 66.6726 64.5511 64.8428 64.263L66.0913 57.4794C67.7543 57.8231 69.4983 58.1163 71.2118 58.3943C72.9254 58.6723 74.6542 58.8998 76.3677 59.0868C78.0813 59.2739 79.7898 59.4103 81.4529 59.4811C82.2768 59.5064 83.0957 59.5165 83.864 59.4811C84.5134 59.4698 85.16 59.3953 85.795 59.2587C85.8758 59.2587 85.9618 59.2031 85.9365 59.2031C85.8071 59.2638 85.6878 59.3439 85.5827 59.4407C85.504 59.5067 85.4313 59.5794 85.3653 59.658C85.3198 59.7187 85.3653 59.6884 85.3299 59.6985C85.3299 59.6985 85.3653 59.6226 85.3956 59.5367C85.5728 59.0031 85.6832 58.4496 85.7242 57.8888C85.8439 56.3313 85.8185 54.766 85.6484 53.2131C85.4917 51.5703 85.249 49.8972 84.9508 48.224C84.7941 47.39 84.6222 46.556 84.4453 45.7219C84.2684 44.8879 84.0612 44.0336 83.859 43.2804L91.3199 41.582Z" fill="white"/>
</g>
<path d="M79.8961 77.668L87.4783 83.1929C87.4783 83.1929 88.3376 90.6133 84.0764 91.3412C79.8152 92.0691 78.9761 83.016 79.8961 77.668Z" fill="#65C098"/>
<path opacity="0.5" d="M79.8961 77.668L87.4783 83.1929C87.4783 83.1929 88.3376 90.6133 84.0764 91.3412C79.8152 92.0691 78.9761 83.016 79.8961 77.668Z" fill="white"/>
<path d="M63.4884 77.668L60.7133 83.1929C60.7133 83.1929 59.8287 90.6133 61.0722 91.3412C62.3156 92.0691 63.3215 83.016 63.4884 77.668Z" fill="#65C098"/>
<path opacity="0.5" d="M63.4884 77.668L60.7133 83.1929C60.7133 83.1929 59.8287 90.6133 61.0722 91.3412C62.3156 92.0691 63.3215 83.016 63.4884 77.668Z" fill="white"/>
<path d="M74.3055 25.006C74.2137 25.0059 74.1221 24.9957 74.0325 24.9757C73.8561 24.9319 73.6909 24.8511 73.548 24.7387C73.4051 24.6263 73.2877 24.4848 73.2035 24.3236C73.0135 23.9008 72.9093 23.4444 72.8972 22.9811C72.885 22.5177 72.9651 22.0565 73.1328 21.6243C73.6382 20.0118 74.8969 18.8897 75.9079 19.0969C76.084 19.1416 76.2487 19.2227 76.3915 19.335C76.5343 19.4473 76.6519 19.5884 76.7368 19.749C76.9269 20.1718 77.031 20.6281 77.0432 21.0915C77.0553 21.5549 76.9753 22.0161 76.8076 22.4482C76.3274 23.9445 75.2558 25.006 74.3055 25.006ZM75.6298 19.2081C74.7351 19.2081 73.709 20.2191 73.2541 21.6496C72.9207 22.4916 72.9353 23.4316 73.2945 24.2629C73.3703 24.4088 73.4762 24.5369 73.6052 24.6389C73.7341 24.7408 73.8832 24.8142 74.0426 24.8543C74.9929 25.0767 76.1657 23.99 76.6661 22.4432C76.9862 21.6021 76.9625 20.6689 76.6004 19.845C76.5262 19.6989 76.4214 19.5705 76.2932 19.4684C76.165 19.3664 76.0163 19.2931 75.8573 19.2536C75.7835 19.2298 75.7072 19.2145 75.6298 19.2081Z" fill="white"/>
<path d="M79.6889 26.1689C79.5616 26.168 79.4346 26.1544 79.3098 26.1285C79.0025 26.0453 78.7191 25.8906 78.4828 25.6772C78.2465 25.4637 78.064 25.1975 77.9501 24.9002C77.6593 24.1936 77.6009 23.4129 77.7833 22.671C78.1523 21.0433 79.4413 19.9464 80.6544 20.2194C80.9618 20.3026 81.2451 20.4572 81.4814 20.6707C81.7177 20.8841 81.9002 21.1504 82.0142 21.4477C82.3025 22.153 82.3609 22.9314 82.181 23.6718C81.8474 25.1327 80.7757 26.1689 79.6889 26.1689ZM80.2753 20.3053C79.2643 20.3053 78.2281 21.3163 77.9097 22.7013C77.7343 23.416 77.7891 24.1679 78.0664 24.8496C78.1715 25.1293 78.342 25.3798 78.5635 25.5803C78.7851 25.7807 79.0514 25.9254 79.3402 26.0021C80.4775 26.2649 81.6957 25.2034 82.0546 23.6466C82.23 22.9318 82.1751 22.18 81.8979 21.4983C81.792 21.219 81.6213 20.9689 81.3999 20.7685C81.1784 20.5682 80.9125 20.4233 80.6241 20.3458C80.5096 20.3199 80.3927 20.3063 80.2753 20.3053Z" fill="white"/>
<path d="M77.758 23.4356C77.7265 23.437 77.6957 23.4261 77.6721 23.4052C77.5314 23.2692 77.3624 23.1659 77.1771 23.103C76.9918 23.0401 76.7948 23.019 76.6004 23.0413C76.5669 23.048 76.5321 23.0411 76.5037 23.0221C76.4752 23.0032 76.4555 22.9737 76.4488 22.9402C76.4421 22.9067 76.449 22.8719 76.4679 22.8434C76.4869 22.815 76.5164 22.7952 76.5499 22.7885C76.7828 22.7582 77.0196 22.7806 77.2427 22.8541C77.4658 22.9276 77.6696 23.0503 77.8389 23.2131C77.8511 23.2249 77.8608 23.2391 77.8675 23.2547C77.8741 23.2703 77.8775 23.2871 77.8775 23.3041C77.8775 23.3211 77.8741 23.3379 77.8675 23.3536C77.8608 23.3692 77.8511 23.3833 77.8389 23.3951C77.8173 23.4174 77.7888 23.4317 77.758 23.4356Z" fill="white"/>
<path d="M79.1732 56.1096L78.8951 55.4879C83.2018 53.5872 86.0325 49.7456 85.5928 47.7085C85.3602 46.6318 84.228 46.4044 83.3029 46.4195C78.8598 46.46 77.3736 50.8577 76.1756 54.396C76.024 54.8509 75.8724 55.2857 75.7258 55.69L75.0889 55.4575C75.2304 55.0582 75.377 54.6285 75.5337 54.1787C76.7317 50.6403 78.3745 45.7826 83.2979 45.7422H83.3535C85.5372 45.7422 86.1134 46.8795 86.26 47.5619C86.7604 49.877 83.8387 54.027 79.1732 56.1096Z" fill="#263238"/>
<path d="M78.1066 55.3554C77.7629 56.1035 77.9044 56.8971 78.4149 57.1297C78.9255 57.3622 79.623 56.9477 79.9617 56.1996C80.3004 55.4514 80.1639 54.6578 79.6534 54.4253C79.1428 54.1928 78.4453 54.5921 78.1066 55.3554Z" fill="#263238"/>
<path d="M74.2599 55.3554C73.9162 56.1035 74.0577 56.8971 74.5683 57.1297C75.0788 57.3622 75.7763 56.9477 76.115 56.1996C76.4537 55.4514 76.3223 54.6578 75.8067 54.4253C75.2911 54.1928 74.6036 54.5921 74.2599 55.3554Z" fill="#263238"/>
<path d="M67.8624 47.9448C67.9512 46.9998 67.2751 46.1634 66.3524 46.0767C65.4296 45.9899 64.6095 46.6857 64.5207 47.6307C64.4319 48.5757 65.1079 49.4121 66.0307 49.4989C66.9535 49.5856 67.7735 48.8898 67.8624 47.9448Z" fill="#263238"/>
<path d="M83.6319 46.4145C83.5918 46.4216 83.5507 46.4216 83.5106 46.4145C83.4686 46.3988 83.4301 46.3749 83.3974 46.3443C83.3647 46.3136 83.3385 46.2767 83.3201 46.2358C83.3018 46.1949 83.2917 46.1508 83.2906 46.106C83.2895 46.0611 83.2972 46.0165 83.3134 45.9747C83.3134 45.9495 84.3901 43.0328 82.6967 38.6604C82.6805 38.619 82.6726 38.5747 82.6734 38.5301C82.6743 38.4856 82.6839 38.4416 82.7017 38.4008C82.7195 38.3599 82.7453 38.323 82.7774 38.2921C82.8095 38.2612 82.8473 38.2369 82.8888 38.2207C82.9303 38.2044 82.9746 38.1965 83.0192 38.1973C83.0637 38.1982 83.1077 38.2078 83.1485 38.2256C83.1893 38.2435 83.2263 38.2692 83.2572 38.3013C83.2881 38.3334 83.3123 38.3713 83.3286 38.4128C85.1281 43.048 83.9958 46.091 83.9453 46.2174C83.9184 46.2775 83.8742 46.3283 83.8184 46.3634C83.7627 46.3985 83.6978 46.4163 83.6319 46.4145Z" fill="#263238"/>
<path d="M65.5355 47.6113H65.4647C65.3773 47.5908 65.3011 47.5372 65.2521 47.4619C65.2032 47.3865 65.1852 47.2952 65.2019 47.2069C65.2676 46.8885 66.9104 39.3619 73.2239 37.8758C73.3117 37.8556 73.4039 37.8712 73.4802 37.9191C73.5565 37.967 73.6107 38.0432 73.6308 38.131C73.6509 38.2188 73.6353 38.311 73.5874 38.3874C73.5395 38.4637 73.4633 38.5178 73.3755 38.5379C67.4867 39.928 65.8843 47.2727 65.8691 47.3434C65.852 47.4192 65.8097 47.487 65.7491 47.5356C65.6885 47.5843 65.6132 47.611 65.5355 47.6113Z" fill="#263238"/>
<path d="M124.035 177.833L119.39 177.757L118.915 166.965L123.565 167.036L124.035 177.833Z" fill="#FF8B7B"/>
<path d="M119.354 177.221L124.409 177.297C124.498 177.295 124.585 177.329 124.65 177.39C124.715 177.451 124.754 177.536 124.758 177.625L125.061 181.775C125.064 181.881 125.046 181.987 125.008 182.086C124.969 182.185 124.911 182.275 124.837 182.351C124.763 182.427 124.675 182.487 124.577 182.528C124.479 182.569 124.373 182.59 124.267 182.589C122.443 182.528 119.819 182.382 117.519 182.346C114.83 182.301 115.088 182.412 111.934 182.346C110.028 182.316 109.785 180.375 110.609 180.213C114.365 179.475 114.739 179.435 118.191 177.544C118.544 177.337 118.945 177.225 119.354 177.221Z" fill="#263238"/>
<path opacity="0.2" d="M118.919 166.965L119.162 172.53L123.812 172.601L123.57 167.041L118.919 166.965Z" fill="black"/>
<path d="M135.676 33.15C129.711 31.8357 123.656 31.7093 117.509 32.2704C116.488 32.3648 115.524 32.7807 114.754 33.4584C113.985 34.1361 113.45 35.0405 113.228 36.0413C111.994 41.7431 109.947 54.6026 110.918 74.1899L135.797 74.5943C136.202 71.0964 135.292 54.8806 139.038 38.5434C139.177 37.9683 139.2 37.3713 139.105 36.7872C139.011 36.2031 138.801 35.6436 138.488 35.1415C138.175 34.6394 137.766 34.2046 137.283 33.8627C136.8 33.5207 136.254 33.2785 135.676 33.15Z" fill="#65C098"/>
<path d="M120.81 36.6513L121.518 38.5114C121.554 38.6024 121.612 38.6825 121.689 38.7436C121.765 38.8048 121.856 38.845 121.952 38.8602L122.898 39.0018C123.072 39.0338 123.253 38.9996 123.403 38.9057L125.167 37.8493L123.287 36.166L120.81 36.6513Z" fill="#263238"/>
<path d="M122.983 38.4417C122.635 38.2974 122.255 38.2469 121.882 38.2951C120.825 40.2058 119.182 45.7863 118.748 48.2732C120.416 53.3685 121.118 53.9245 121.118 53.9245L123.14 48.0812C123.14 48.0812 122.655 41.9194 122.983 38.4417Z" fill="#263238"/>
<path d="M131.647 20.7246C130.743 24.0709 129.625 30.2428 131.855 32.6843C129.883 34.3776 127.305 36.3187 123.261 36.162C119.218 36.0053 120.117 33.2808 121.285 31.8957C125.137 31.274 125.238 28.4585 124.763 25.7744L131.647 20.7246Z" fill="#FF8B7B"/>
<path d="M132.942 32.4921C132.668 32.3384 132.38 32.2114 132.082 32.113C132.011 32.0871 131.933 32.0849 131.86 32.1067C131.787 32.1286 131.723 32.1733 131.678 32.2343C131.223 32.856 129.747 35.6716 123.302 36.1669C124.278 36.8847 125.471 38.937 125.981 39.9126C127.978 39.1189 133.215 36.6674 133.124 32.8055C133.123 32.742 133.106 32.6798 133.074 32.6249C133.042 32.57 132.996 32.5243 132.942 32.4921Z" fill="white"/>
<path d="M121.316 32.0626C121.34 32.0033 121.348 31.9386 121.34 31.8751C121.331 31.8116 121.306 31.7514 121.268 31.7004C121.229 31.6494 121.177 31.6094 121.119 31.5842C121.06 31.5591 120.995 31.5498 120.932 31.5571C120.709 31.5786 120.488 31.6141 120.269 31.6633C120.219 31.6769 120.171 31.6991 120.128 31.729C119.622 32.1283 116.589 35.6818 118.733 39.018C119.37 38.2396 121.331 36.4906 123.282 36.1418C121.573 35.1814 120.846 33.5993 121.316 32.0626Z" fill="white"/>
<path opacity="0.2" d="M128.847 22.7871L124.803 25.7745C124.924 26.3994 124.988 27.0337 124.995 27.6701C126.456 27.569 128.534 26.1536 128.817 24.6372C128.942 24.0277 128.952 23.4003 128.847 22.7871Z" fill="black"/>
<path d="M123.373 18.7018C121.007 19.4701 120.643 17.6049 121.128 15.77C121.427 14.6276 121.012 13.8997 120.85 12.6461C120.572 10.5888 121.088 8.76907 124.924 7.4346C129.898 5.7008 128.802 8.62248 128.999 9.83057C129.196 11.0387 127.128 11.7666 127.229 13.01C127.312 14.2527 126.977 15.4872 126.278 16.5181C125.58 17.549 124.557 18.3175 123.373 18.7018Z" fill="#263238"/>
<path d="M134.812 16.4736C133.462 20.9269 132.896 23.6009 130.081 25.4307C125.865 28.1856 120.81 24.9303 120.81 20.2192C120.81 15.958 123.019 9.38678 127.826 8.53252C128.875 8.33449 129.957 8.41293 130.966 8.76012C131.975 9.1073 132.877 9.71127 133.582 10.5126C134.287 11.3139 134.771 12.2849 134.986 13.3301C135.202 14.3754 135.142 15.4587 134.812 16.4736Z" fill="#FF8B7B"/>
<path d="M133.447 11.8683C131.046 11.4437 128.205 12.4648 125.809 11.8683C123.908 11.3628 123.929 10.1143 124.207 8.83544C124.616 6.95 126.183 6.33331 127.123 5.98453C128.064 5.63575 128.549 6.80846 129.848 5.91376C130.722 5.30718 134.059 5.15554 136.035 5.91376C138.011 6.67198 135.752 8.10249 136.808 8.76467C140.074 10.7866 137.996 12.672 133.447 11.8683Z" fill="#263238"/>
<path opacity="0.3" d="M125.936 11.3518C125.086 9.41583 125.981 6.82776 129.55 6.58008C126.421 7.52027 125.936 11.3518 125.936 11.3518Z" fill="white"/>
<path d="M132.775 20.9831C130.753 20.6647 130.869 18.3799 131.855 16.7977C132.795 15.2813 131.41 13.6435 131.309 12.4961C131.208 11.3487 132.279 10.181 134.342 10.277C136.404 10.3731 139.68 11.6823 139.735 13.1937C139.791 14.705 137.678 14.518 138.007 15.9789C138.729 19.2341 135.722 21.4532 132.775 20.9831Z" fill="#263238"/>
<path opacity="0.3" d="M136.986 13.0918C136.131 14.6082 134.357 14.9368 132.057 13.0918C132.834 13.4318 133.673 13.6074 134.521 13.6074C135.37 13.6074 136.209 13.4318 136.986 13.0918Z" fill="white"/>
<path d="M121.71 20.0817C120.785 21.0573 120.866 23.0186 120.916 23.9588C120.967 24.899 121.765 26.4457 124.722 26.8906C127.679 27.3354 128.372 26.289 128.513 25.2983C128.655 24.3076 128.513 21.492 127.558 20.5518C126.603 19.6116 122.756 18.9747 121.71 20.0817Z" fill="#263238"/>
<path d="M123.636 21.5086C124.044 21.621 124.472 21.6503 124.892 21.5948C125.312 21.5392 125.717 21.3999 126.082 21.1851C126.101 21.167 126.113 21.1429 126.115 21.1171C126.118 21.0913 126.112 21.0653 126.097 21.0437C126.083 21.022 126.061 21.0061 126.036 20.9987C126.012 20.9913 125.985 20.9929 125.961 21.0031C125.553 21.2346 125.097 21.3684 124.629 21.3938C124.16 21.4192 123.692 21.3357 123.262 21.1497C123.235 21.1378 123.204 21.1369 123.177 21.1473C123.149 21.1577 123.127 21.1786 123.115 21.2053C123.103 21.2322 123.102 21.2626 123.113 21.2901C123.123 21.3176 123.144 21.3398 123.171 21.3519C123.322 21.4139 123.478 21.4663 123.636 21.5086Z" fill="#FF8B7B"/>
<path d="M135.221 21.736C134.411 22.5817 133.303 23.0785 132.133 23.1211C130.616 23.1666 130.232 21.7007 131.001 20.442C131.698 19.3097 133.336 17.9146 134.716 18.4858C136.096 19.057 136.212 20.6644 135.221 21.736Z" fill="#FF8B7B"/>
<path d="M123.777 120.384C124.384 96.9804 130.348 74.5068 130.348 74.5068L110.953 74.1934C110.953 74.1934 112.035 107.99 112.328 122.148C112.636 136.868 117.236 171.428 117.236 171.428L125.112 171.549C125.112 171.549 124.237 138.849 123.777 120.384Z" fill="#263238"/>
<path opacity="0.2" d="M125.668 87.3825C119.88 94.9647 121.887 109.199 123.808 119.263C124.227 106.753 126.118 94.6058 127.76 86.1289L125.668 87.3825Z" fill="black"/>
<path d="M116.726 171.595L126.082 171.741L126.022 168.708L116.286 168.385L116.726 171.595Z" fill="#263238"/>
<path d="M127.932 16.0536C127.841 16.4226 127.578 16.6804 127.341 16.6299C127.103 16.5793 126.977 16.2406 127.068 15.8716C127.159 15.5026 127.416 15.2448 127.654 15.2954C127.892 15.3459 128.018 15.6694 127.932 16.0536Z" fill="#263238"/>
<path d="M123.706 15.2744C123.621 15.6434 123.358 15.8962 123.115 15.8456C122.872 15.7951 122.756 15.4564 122.842 15.0874C122.928 14.7184 123.196 14.4656 123.434 14.5162C123.671 14.5667 123.792 14.9054 123.706 15.2744Z" fill="#263238"/>
<path d="M124.854 15.8574C124.121 16.766 123.272 17.5733 122.327 18.2585C122.832 18.8954 123.985 18.8499 123.985 18.8499L124.854 15.8574Z" fill="#FF5652"/>
<path d="M129.732 14.5827C129.768 14.592 129.807 14.592 129.843 14.5827C129.897 14.5585 129.938 14.514 129.959 14.4591C129.98 14.4042 129.978 14.3432 129.954 14.2896C129.824 13.9712 129.617 13.6895 129.353 13.4692C129.089 13.249 128.774 13.0967 128.438 13.0259C128.379 13.0172 128.32 13.032 128.273 13.0671C128.225 13.1021 128.194 13.1546 128.185 13.2129C128.18 13.2408 128.181 13.2695 128.187 13.2972C128.193 13.3249 128.205 13.351 128.221 13.3741C128.238 13.3972 128.259 13.4167 128.283 13.4316C128.307 13.4464 128.334 13.4563 128.362 13.4606C128.629 13.5193 128.878 13.642 129.088 13.8181C129.297 13.9941 129.461 14.2184 129.565 14.4715C129.582 14.5021 129.606 14.5282 129.635 14.5475C129.664 14.5669 129.697 14.579 129.732 14.5827Z" fill="#263238"/>
<path d="M122.519 13.2628C122.555 13.2694 122.592 13.2673 122.627 13.2567C122.662 13.2462 122.694 13.2275 122.721 13.2021C122.911 12.9956 123.148 12.8378 123.412 12.7419C123.676 12.6461 123.959 12.6149 124.237 12.6512C124.295 12.6604 124.355 12.6472 124.403 12.6144C124.452 12.5816 124.487 12.5315 124.5 12.4742C124.512 12.4179 124.501 12.3592 124.47 12.3109C124.439 12.2625 124.389 12.2286 124.333 12.2165C123.984 12.1705 123.629 12.2074 123.297 12.3242C122.966 12.441 122.666 12.6344 122.422 12.8887C122.381 12.9304 122.358 12.9867 122.358 13.0454C122.358 13.1041 122.381 13.1605 122.422 13.2021C122.449 13.2297 122.482 13.2505 122.519 13.2628Z" fill="#263238"/>
<path d="M118.5 177.635C118.519 177.628 118.537 177.616 118.55 177.6C118.564 177.584 118.572 177.565 118.576 177.544C118.581 177.523 118.578 177.5 118.569 177.48C118.56 177.46 118.545 177.444 118.525 177.433C118.318 177.322 116.503 176.341 115.917 176.65C115.861 176.676 115.814 176.716 115.779 176.767C115.744 176.817 115.724 176.876 115.72 176.938C115.702 177.035 115.709 177.136 115.74 177.231C115.77 177.325 115.824 177.41 115.897 177.479C116.402 177.939 117.726 177.777 118.485 177.635H118.5ZM116.053 176.826C116.412 176.71 117.403 177.11 118.126 177.473C117.09 177.63 116.326 177.575 116.053 177.317C116.005 177.272 115.969 177.215 115.949 177.152C115.928 177.09 115.924 177.023 115.937 176.958C115.938 176.934 115.946 176.91 115.959 176.889C115.972 176.869 115.991 176.852 116.013 176.842L116.053 176.826Z" fill="#65C098"/>
<path d="M118.5 177.635C118.517 177.625 118.532 177.61 118.541 177.592C118.55 177.574 118.553 177.554 118.55 177.534C118.55 177.484 118.49 176.225 117.924 175.73C117.842 175.658 117.746 175.603 117.643 175.569C117.54 175.535 117.43 175.523 117.322 175.532C117.014 175.532 116.923 175.709 116.892 175.836C116.781 176.341 117.843 177.382 118.409 177.645C118.439 177.652 118.471 177.648 118.5 177.635ZM117.241 175.76C117.28 175.753 117.319 175.753 117.357 175.76C117.437 175.751 117.518 175.759 117.593 175.785C117.669 175.81 117.739 175.852 117.797 175.906C118.126 176.317 118.315 176.822 118.338 177.347C117.782 176.998 117.069 176.195 117.135 175.881C117.14 175.841 117.15 175.79 117.241 175.76Z" fill="#65C098"/>
<path d="M144.659 177.833L140.008 177.757L138.835 166.965L143.491 167.036L144.659 177.833Z" fill="#FF8B7B"/>
<path d="M139.786 177.221L144.84 177.297C144.93 177.296 145.016 177.329 145.081 177.391C145.147 177.452 145.185 177.536 145.189 177.626L145.492 181.776C145.496 181.882 145.478 181.988 145.439 182.087C145.401 182.185 145.343 182.276 145.269 182.352C145.195 182.428 145.106 182.488 145.008 182.529C144.91 182.57 144.805 182.59 144.699 182.59C142.874 182.529 142.308 182.382 140.008 182.347C137.319 182.301 138.557 182.413 135.403 182.347C133.497 182.317 133.26 180.386 134.079 180.214C136.682 179.673 137.395 178.642 138.598 177.545C138.938 177.29 139.363 177.174 139.786 177.221Z" fill="#263238"/>
<path opacity="0.2" d="M138.84 166.965L139.442 172.53L144.097 172.601L143.496 167.041L138.84 166.965Z" fill="black"/>
<path d="M140.018 119.798C138.087 98.8813 138.81 82.7413 135.798 74.5929L119.359 74.3301C119.359 74.3301 126.669 107.399 129.408 121.34C132.249 135.827 137.42 170.058 137.42 170.058L144.922 170.164C144.922 170.164 144.396 135.973 140.018 119.798Z" fill="#263238"/>
<path d="M136.333 171.595L145.695 171.741L146.327 168.708L135.894 168.385L136.333 171.595Z" fill="#263238"/>
<path d="M140.696 177.571C140.717 177.572 140.739 177.567 140.757 177.556C140.776 177.545 140.791 177.529 140.8 177.509C140.81 177.49 140.814 177.469 140.811 177.447C140.809 177.426 140.8 177.405 140.787 177.389C140.635 177.212 139.27 175.655 138.638 175.746C138.577 175.755 138.519 175.779 138.47 175.816C138.42 175.853 138.381 175.902 138.355 175.958C138.309 176.046 138.285 176.144 138.285 176.244C138.285 176.343 138.309 176.441 138.355 176.53C138.648 177.136 139.953 177.444 140.701 177.571H140.696ZM138.704 175.963C139.078 175.963 139.862 176.701 140.402 177.293C139.392 177.086 138.699 176.787 138.537 176.428C138.505 176.37 138.488 176.305 138.488 176.239C138.488 176.173 138.505 176.107 138.537 176.049C138.547 176.027 138.562 176.007 138.581 175.993C138.601 175.979 138.624 175.97 138.648 175.968L138.704 175.963Z" fill="#65C098"/>
<path d="M140.696 177.571H140.726C140.746 177.566 140.763 177.556 140.778 177.541C140.792 177.527 140.802 177.509 140.807 177.49C140.807 177.439 141.196 176.226 140.842 175.559C140.791 175.461 140.719 175.375 140.632 175.307C140.545 175.239 140.444 175.19 140.337 175.164C140.044 175.084 139.907 175.195 139.831 175.306C139.548 175.766 140.18 177.105 140.6 177.54C140.612 177.553 140.627 177.563 140.644 177.568C140.661 177.573 140.678 177.574 140.696 177.571ZM140.19 175.356H140.301C140.379 175.377 140.451 175.414 140.513 175.464C140.574 175.515 140.625 175.578 140.66 175.65C140.822 176.156 140.822 176.7 140.66 177.207C140.266 176.701 139.882 175.69 140.049 175.397C140.049 175.402 140.079 175.356 140.175 175.356H140.19Z" fill="#65C098"/>
<path d="M102.031 76.418L99.332 80.3708L104.675 82.0035C104.675 82.0035 106.697 78.1417 104.857 76.8021L102.031 76.418Z" fill="#FF8B7B"/>
<path d="M100.146 85.1732L102.127 85.4259C102.516 85.4708 102.907 85.38 103.236 85.1691C103.565 84.9581 103.811 84.6399 103.932 84.2684L104.675 82.0038L99.3321 80.3711L98.8266 83.313C98.7861 83.5223 98.7884 83.7376 98.8334 83.9459C98.8785 84.1542 98.9652 84.3513 99.0885 84.5252C99.2119 84.699 99.3691 84.8461 99.5509 84.9574C99.7326 85.0688 99.935 85.1422 100.146 85.1732Z" fill="#FF8B7B"/>
<path d="M119.566 37.7534C118.555 41.1907 117.565 44.6398 116.594 48.1006C115.624 51.548 114.709 55.0308 113.829 58.4529C113.657 59.1909 113.324 60.4748 113.015 61.3038C112.707 62.1328 112.409 63.0881 112.1 63.9575C111.474 65.6863 110.837 67.3847 110.19 69.0781L106.363 79.2332L99.5796 76.4985C100.985 73.2281 102.304 69.8919 103.588 66.5709C104.21 64.9028 104.821 63.2297 105.403 61.5767C105.691 60.7477 105.974 59.9238 106.222 59.1252C106.469 58.3265 106.601 57.7957 106.823 56.7797C107.627 53.2161 108.496 49.7384 109.305 46.2202C110.114 42.7021 110.948 39.2143 111.736 35.7012L119.566 37.7534Z" fill="#65C098"/>
<g opacity="0.6">
<path d="M119.566 37.7534C118.555 41.1907 117.565 44.6398 116.594 48.1006C115.624 51.548 114.709 55.0308 113.829 58.4529C113.657 59.1909 113.324 60.4748 113.015 61.3038C112.707 62.1328 112.409 63.0881 112.1 63.9575C111.474 65.6863 110.837 67.3847 110.19 69.0781L106.363 79.2332L99.5796 76.4985C100.985 73.2281 102.304 69.8919 103.588 66.5709C104.21 64.9028 104.821 63.2297 105.403 61.5767C105.691 60.7477 105.974 59.9238 106.222 59.1252C106.469 58.3265 106.601 57.7957 106.823 56.7797C107.627 53.2161 108.496 49.7384 109.305 46.2202C110.114 42.7021 110.948 39.2143 111.736 35.7012L119.566 37.7534Z" fill="white"/>
</g>
<path d="M123.469 84.4401L95.1265 82.4687C94.7089 82.436 94.3187 82.2482 94.0325 81.9424C93.7462 81.6365 93.5848 81.2347 93.5797 80.8158V61.3599C93.5769 61.1607 93.6158 60.9632 93.694 60.7801C93.7721 60.5969 93.8878 60.4321 94.0335 60.2964C94.1793 60.1607 94.3518 60.057 94.5401 59.992C94.7283 59.9271 94.9281 59.9023 95.1265 59.9192L123.469 61.8856C123.886 61.9207 124.276 62.1098 124.562 62.4163C124.848 62.7227 125.01 63.1245 125.016 63.5436V82.9995C125.018 83.1986 124.98 83.3961 124.901 83.5793C124.823 83.7625 124.708 83.9272 124.562 84.063C124.416 84.1987 124.244 84.3024 124.055 84.3673C123.867 84.4323 123.667 84.4571 123.469 84.4401Z" fill="#263238"/>
<path d="M123.959 84.153L95.6167 82.1816C95.1991 82.1489 94.8089 81.9611 94.5227 81.6552C94.2365 81.3494 94.075 80.9476 94.07 80.5287V61.0728C94.0671 60.8736 94.106 60.6761 94.1842 60.493C94.2624 60.3098 94.378 60.145 94.5238 60.0093C94.6695 59.8736 94.842 59.7699 95.0303 59.7049C95.2185 59.64 95.4183 59.6152 95.6167 59.6321L123.959 61.5985C124.376 61.6323 124.766 61.8204 125.052 62.1261C125.338 62.4317 125.5 62.8329 125.506 63.2514V82.7124C125.509 82.9115 125.47 83.109 125.392 83.2922C125.313 83.4754 125.198 83.6401 125.052 83.7758C124.906 83.9116 124.734 84.0153 124.545 84.0802C124.357 84.1452 124.157 84.17 123.959 84.153Z" fill="#65C098"/>
<path d="M133.149 31.5771C130.824 35.0093 122.66 40.231 120.952 48.7331C118.652 40.6151 120.866 31.3699 120.866 31.3699C118.643 31.3522 116.43 31.6552 114.294 32.2696C113.599 32.4685 112.974 32.858 112.489 33.394C112.004 33.93 111.678 34.5911 111.55 35.3025C110.05 44.2007 109.429 53.2248 109.695 62.2446C110.165 79.3147 109.558 105.716 109.558 105.716C109.558 105.716 126.876 106.727 140.463 105.261C140.135 92.2196 136.753 70.0644 137.284 64.2767C137.966 56.8309 139.604 42.2984 140.448 36.2528C140.574 35.3962 140.388 34.523 139.924 33.792C139.46 33.061 138.749 32.5208 137.921 32.2696C136.368 31.8282 134.763 31.5953 133.149 31.5771Z" fill="#65C098"/>
<path opacity="0.7" d="M133.149 31.5771C130.824 35.0093 122.66 40.231 120.952 48.7331C118.652 40.6151 120.866 31.3699 120.866 31.3699C118.643 31.3522 116.43 31.6552 114.294 32.2696C113.599 32.4685 112.974 32.858 112.489 33.394C112.004 33.93 111.678 34.5911 111.55 35.3025C110.05 44.2007 109.429 53.2248 109.695 62.2446C110.165 79.3147 109.558 105.716 109.558 105.716C109.558 105.716 126.876 106.727 140.463 105.261C140.135 92.2196 136.753 70.0644 137.284 64.2767C137.966 56.8309 139.604 42.2933 140.448 36.2478C140.584 35.4215 140.422 34.574 139.992 33.8558C139.561 33.1376 138.89 32.5953 138.098 32.3252C136.491 31.8457 134.825 31.5938 133.149 31.5771Z" fill="white"/>
<path d="M134.554 73.0977L131.652 76.9039L136.904 78.8146C136.904 78.8146 139.118 75.064 137.354 73.6284L134.554 73.0977Z" fill="#FF8B7B"/>
<path d="M132.213 81.7418L134.175 82.1006C134.56 82.1654 134.956 82.0952 135.296 81.9018C135.636 81.7084 135.899 81.4037 136.04 81.0391L136.904 78.815L131.652 76.9043L130.97 79.8159C130.917 80.0244 130.908 80.2415 130.943 80.4537C130.978 80.6658 131.056 80.8686 131.173 81.0492C131.29 81.2299 131.442 81.3846 131.621 81.5037C131.8 81.6229 132.002 81.7039 132.213 81.7418Z" fill="#FF8B7B"/>
<path d="M140.124 34.5488C140.882 36.2119 141.59 37.794 142.278 39.4368C142.965 41.0796 143.652 42.7022 144.299 44.3754C144.946 46.0485 145.528 47.752 146.084 49.5363C146.352 50.4361 146.589 51.3561 146.807 52.3519C146.908 52.8573 146.999 53.3628 147.07 53.9189C147.151 54.5404 147.184 55.1675 147.166 55.7942C147.166 56.0065 147.135 56.2238 147.115 56.4361L147.034 56.9416C146.973 57.2854 146.903 57.528 146.837 57.8262C146.695 58.3317 146.544 58.8372 146.392 59.3123C146.079 60.2424 145.75 61.1017 145.406 61.9459C144.719 63.6392 143.986 65.2467 143.238 66.849C142.49 68.4514 141.752 70.0285 140.978 71.6006C140.205 73.1726 139.462 74.7244 138.658 76.3167L132.183 72.8693C133.826 69.9426 135.378 66.8844 136.813 63.8566C137.521 62.3402 138.193 60.7984 138.79 59.3073C139.088 58.5592 139.371 57.7908 139.599 57.1034L139.755 56.5979L139.877 56.1177C139.877 55.9964 139.942 55.8245 139.947 55.7436V55.6072V55.3241C139.947 55.1876 139.922 55.0714 139.892 54.9096C139.846 54.6114 139.78 54.2828 139.7 53.9391C139.538 53.2516 139.32 52.5136 139.073 51.7706C138.567 50.2541 137.976 48.7377 137.319 47.2212C136.662 45.7048 135.964 44.1883 135.221 42.6719C134.478 41.1555 133.705 39.639 132.911 38.2439L140.124 34.5488Z" fill="#65C098"/>
<g opacity="0.7">
<path d="M140.124 34.5488C140.882 36.2119 141.59 37.794 142.278 39.4368C142.965 41.0796 143.652 42.7022 144.299 44.3754C144.946 46.0485 145.528 47.752 146.084 49.5363C146.352 50.4361 146.589 51.3561 146.807 52.3519C146.908 52.8573 146.999 53.3628 147.07 53.9189C147.151 54.5404 147.184 55.1675 147.166 55.7942C147.166 56.0065 147.135 56.2238 147.115 56.4361L147.034 56.9416C146.973 57.2854 146.903 57.528 146.837 57.8262C146.695 58.3317 146.544 58.8372 146.392 59.3123C146.079 60.2424 145.75 61.1017 145.406 61.9459C144.719 63.6392 143.986 65.2467 143.238 66.849C142.49 68.4514 141.752 70.0285 140.978 71.6006C140.205 73.1726 139.462 74.7244 138.658 76.3167L132.183 72.8693C133.826 69.9426 135.378 66.8844 136.813 63.8566C137.521 62.3402 138.193 60.7984 138.79 59.3073C139.088 58.5592 139.371 57.7908 139.599 57.1034L139.755 56.5979L139.877 56.1177C139.877 55.9964 139.942 55.8245 139.947 55.7436V55.6072V55.3241C139.947 55.1876 139.922 55.0714 139.892 54.9096C139.846 54.6114 139.78 54.2828 139.7 53.9391C139.538 53.2516 139.32 52.5136 139.073 51.7706C138.567 50.2541 137.976 48.7377 137.319 47.2212C136.662 45.7048 135.964 44.1883 135.221 42.6719C134.478 41.1555 133.705 39.639 132.911 38.2439L140.124 34.5488Z" fill="white"/>
</g>
<path d="M129.438 73.8711L137.663 79.7498C137.663 79.7498 138.815 87.6404 134.306 88.4138C129.797 89.1872 128.635 79.5578 129.438 73.8711Z" fill="#65C098"/>
<path opacity="0.5" d="M129.438 73.8711L137.663 79.7498C137.663 79.7498 138.815 87.6404 134.306 88.4138C129.797 89.1872 128.635 79.5578 129.438 73.8711Z" fill="white"/>
<path d="M111.994 73.8711L109.214 79.7498C109.214 79.7498 108.517 87.6404 109.856 88.4138C111.196 89.1872 111.984 79.5578 111.994 73.8711Z" fill="#65C098"/>
<path opacity="0.5" d="M111.994 73.8711L109.214 79.7498C109.214 79.7498 108.517 87.6404 109.856 88.4138C111.196 89.1872 111.984 79.5578 111.994 73.8711Z" fill="white"/>
<path opacity="0.5" d="M121.735 104.128C120.421 87.5382 120.608 52.7814 120.724 49.6777H121.017C120.911 52.7814 120.729 87.513 122.028 104.093L121.735 104.128Z" fill="#65C098"/>
<path d="M160.495 23.718C156.78 26.4072 153.691 36.9566 162.552 41.2178C171.413 45.479 183.909 45.1352 180.133 35.8698C176.357 26.6043 177.707 21.1552 168.79 20.0988C159.873 19.0423 160.495 23.718 160.495 23.718Z" fill="#263238"/>
<path d="M184.374 79.2246L186.164 79.8464L188.438 83.2937C188.771 83.798 188.919 84.4014 188.858 85.0023L188.726 86.2255C188.707 86.4283 188.615 86.6173 188.467 86.7575C188.32 86.8978 188.126 86.98 187.923 86.9888L185.547 87.0697C185.332 87.0731 185.123 86.998 184.959 86.8584C184.795 86.7189 184.688 86.5244 184.657 86.3115L184.354 83.5161C184.354 83.5161 183.201 80.7259 184.374 79.2246Z" fill="#FFB573"/>
<path d="M181.548 51.1348C181.508 52.4187 181.498 53.7936 181.508 55.123C181.518 56.4524 181.543 57.8071 181.589 59.1669C181.685 61.8408 181.872 64.5098 182.2 67.113L182.231 67.4315C182.231 67.4315 182.231 67.3304 182.231 67.3556C182.231 67.3809 182.231 67.3556 182.231 67.4264V67.5528L182.271 67.7095C182.327 67.9319 182.398 68.1846 182.473 68.4475C182.625 68.953 182.807 69.5191 182.979 70.065C183.358 71.1619 183.783 72.274 184.217 73.381C184.652 74.488 185.107 75.5899 185.577 76.6818C186.047 77.7736 186.537 78.8705 187.033 79.8309L183.247 82.0348C182.534 80.8874 181.958 79.8107 181.366 78.7087C180.775 77.6068 180.224 76.5048 179.673 75.3928C179.122 74.2807 178.596 73.1586 178.086 71.996C177.828 71.4146 177.58 70.8283 177.338 70.2015C177.216 69.8881 177.1 69.5646 176.989 69.1905L176.908 68.9125L176.822 68.5991C176.797 68.493 176.772 68.3464 176.746 68.22C176.721 68.0936 176.696 67.8662 176.681 67.6893L176.716 68.0077C176.16 65.1922 175.771 62.3918 175.473 59.5915C175.326 58.1913 175.2 56.7961 175.093 55.3909C174.987 53.9857 174.901 52.6108 174.846 51.1449L181.548 51.1348Z" fill="#65C098"/>
<path opacity="0.5" d="M181.548 51.1348C181.508 52.4187 181.498 53.7936 181.508 55.123C181.518 56.4524 181.543 57.8071 181.589 59.1669C181.685 61.8408 181.872 64.5098 182.2 67.113L182.231 67.4315C182.231 67.4315 182.231 67.3304 182.231 67.3556C182.231 67.3809 182.231 67.3556 182.231 67.4264V67.5528L182.271 67.7095C182.327 67.9319 182.398 68.1846 182.473 68.4475C182.625 68.953 182.807 69.5191 182.979 70.065C183.358 71.1619 183.783 72.274 184.217 73.381C184.652 74.488 185.107 75.5899 185.577 76.6818C186.047 77.7736 186.537 78.8705 187.033 79.8309L183.247 82.0348C182.534 80.8874 181.958 79.8107 181.366 78.7087C180.775 77.6068 180.224 76.5048 179.673 75.3928C179.122 74.2807 178.596 73.1586 178.086 71.996C177.828 71.4146 177.58 70.8283 177.338 70.2015C177.216 69.8881 177.1 69.5646 176.989 69.1905L176.908 68.9125L176.822 68.5991C176.797 68.493 176.772 68.3464 176.746 68.22C176.721 68.0936 176.696 67.8662 176.681 67.6893L176.716 68.0077C176.16 65.1922 175.771 62.3918 175.473 59.5915C175.326 58.1913 175.2 56.7961 175.093 55.3909C174.987 53.9857 174.901 52.6108 174.846 51.1449L181.548 51.1348Z" fill="white"/>
<path d="M178.389 74.3359C178.389 74.3359 177.803 108.815 176.368 122.771C174.538 140.968 169.63 156.335 168.472 168.906L164.408 168.325C164.408 168.325 164.145 137.546 167.84 122.832C164.489 107.228 164.408 74.3562 164.408 74.3562L178.389 74.3359Z" fill="#FFB573"/>
<path d="M175.983 178.997C175.408 178.587 174.772 178.269 174.098 178.057C174.098 178.057 170.746 176.192 168.896 170.576L166.303 169.934C165.908 169.818 165.484 169.841 165.104 170.001C164.724 170.16 164.41 170.445 164.216 170.809C164.162 170.909 164.127 171.019 164.115 171.132C164.088 171.741 164.101 172.35 164.155 172.957C164.231 174.857 164.539 179.124 164.539 179.124H164.984C164.956 177.831 165.005 176.538 165.131 175.252C165.323 173.998 166.243 175.479 166.768 176.895C167.294 178.31 169.296 179.816 172.212 179.887C175.614 179.953 176.984 179.821 175.983 178.997Z" fill="#263238"/>
<path d="M164.676 170.853C164.394 169.67 164.207 168.467 164.115 167.254L168.917 167.85C168.917 167.85 168.881 170.772 169.761 172.728C168.007 172.278 166.303 171.649 164.676 170.853Z" fill="#263238"/>
<path d="M174.856 74.3359C174.856 74.3359 169.093 109.184 165.848 123.17C161.617 141.418 161.031 170.155 161.031 170.155L157.215 169.786C157.215 169.786 152.827 143.587 157.548 123.17C157.194 107.501 160.248 74.3359 160.248 74.3359H174.856Z" fill="#FFB573"/>
<path d="M165.798 178.997C165.283 178.581 164.698 178.262 164.069 178.057C164.069 178.057 162.188 176.192 161.284 170.576L158.822 169.934C158.404 169.833 157.965 169.862 157.565 170.019C157.164 170.175 156.821 170.451 156.583 170.809C156.514 170.908 156.461 171.017 156.426 171.132C156.299 171.734 156.211 172.344 156.163 172.957C155.915 174.857 156.128 179.124 156.128 179.124H156.572L156.749 175.252C156.815 173.937 157.821 175.479 158.109 176.895C158.397 178.31 159.009 179.816 161.89 179.887C165.252 179.953 166.647 179.821 165.798 178.997Z" fill="#263238"/>
<path d="M156.497 170.853C156.335 169.539 156.285 167.254 156.285 167.254L161.754 167.86C161.754 167.86 161.092 170.459 161.638 172.41C158.883 171.687 156.497 170.853 156.497 170.853Z" fill="#263238"/>
<path d="M180.816 49.5675C181.018 52.9138 181.174 62.3714 179.375 76.8332H159.777C159.803 69.8272 160.374 63.1195 157.179 49.9466C157.055 49.4686 157.033 48.9695 157.117 48.4825C157.201 47.9956 157.387 47.5322 157.664 47.1231C157.941 46.714 158.302 46.3688 158.723 46.1104C159.144 45.852 159.616 45.6865 160.106 45.6248C161.213 45.4833 162.477 45.3569 163.796 45.2962C166.63 45.0888 169.475 45.0888 172.308 45.2962C174.148 45.463 176.12 45.7562 177.621 46.014C178.475 46.1611 179.255 46.5917 179.835 47.2364C180.414 47.8812 180.76 48.7024 180.816 49.5675Z" fill="white"/>
<path d="M165.262 36.0371C165.904 38.7768 166.632 43.7912 164.787 45.6412C164.787 45.6412 166.495 48.3557 171.788 50.6404C174.704 48.8763 173.304 45.6412 173.304 45.6412C170.221 44.9133 170.215 42.6437 170.665 40.5157L165.262 36.0371Z" fill="#FFB573"/>
<path opacity="0.2" d="M167.466 37.8555L170.66 40.4941C170.545 40.9921 170.475 41.4997 170.453 42.0105C169.28 41.8387 167.627 40.5598 167.456 39.3365C167.369 38.8463 167.372 38.3444 167.466 37.8555Z" fill="black"/>
<path d="M162.184 31.0117C163.417 35.465 163.852 37.3757 166.541 39.2915C170.585 42.1828 175.579 39.9183 175.64 35.2476C175.7 31.037 173.668 24.4556 169.033 23.4244C164.398 22.3932 160.945 26.5533 162.184 31.0117Z" fill="#FFB573"/>
<path d="M163.094 33.362C164.18 32.4218 165.262 28.3072 164.696 26.5582C168.583 26.8767 171.823 25.5068 173.39 26.8312C173.557 24.8092 171.758 22.0695 168.558 22.0999C165.358 22.1302 157.665 25.9769 163.094 33.362Z" fill="#263238"/>
<path d="M168.366 31.1591C168.442 31.5281 168.699 31.7909 168.937 31.7454C169.174 31.6999 169.306 31.3714 169.225 31.0074C169.144 30.6435 168.891 30.3756 168.654 30.4211C168.416 30.4665 168.285 30.7951 168.366 31.1591Z" fill="#263238"/>
<path d="M172.758 30.3544C172.839 30.7234 173.097 30.9862 173.335 30.9407C173.572 30.8952 173.704 30.5667 173.623 30.2027C173.542 29.8388 173.289 29.5709 173.046 29.6164C172.804 29.6619 172.682 29.9904 172.758 30.3544Z" fill="#263238"/>
<path d="M172.95 29.6516L173.769 29.2422C173.769 29.2422 173.466 30.0105 172.95 29.6516Z" fill="#263238"/>
<path d="M172.116 31.1484C172.622 31.928 173.228 32.6368 173.921 33.2563C173.762 33.4244 173.567 33.5547 173.351 33.6378C173.135 33.7209 172.903 33.7546 172.672 33.7365L172.116 31.1484Z" fill="#ED893E"/>
<path d="M171.201 35.5816C171.41 35.58 171.618 35.5597 171.823 35.521C171.837 35.5186 171.85 35.5134 171.862 35.5056C171.874 35.4978 171.884 35.4877 171.891 35.4757C171.899 35.4638 171.904 35.4505 171.906 35.4365C171.908 35.4225 171.908 35.4082 171.904 35.3946C171.897 35.3664 171.879 35.342 171.855 35.3261C171.83 35.3102 171.801 35.304 171.772 35.3087C171.314 35.3966 170.842 35.3776 170.392 35.2531C169.942 35.1286 169.527 34.902 169.179 34.5909C169.158 34.5702 169.13 34.5586 169.101 34.5586C169.072 34.5586 169.043 34.5702 169.023 34.5909C169.003 34.6123 168.992 34.6402 168.992 34.6692C168.992 34.6982 169.003 34.7262 169.023 34.7476C169.618 35.2894 170.396 35.5872 171.201 35.5816Z" fill="#263238"/>
<path d="M161.177 34.0997C161.666 34.8572 162.425 35.3996 163.3 35.6162C164.463 35.8891 164.953 34.863 164.559 33.8167C164.205 32.8714 163.179 31.5926 162.032 31.7948C160.884 31.9969 160.591 33.1697 161.177 34.0997Z" fill="#FFB573"/>
<path d="M167.39 29.2682C167.42 29.2654 167.449 29.2563 167.475 29.2415C167.501 29.2267 167.524 29.2065 167.542 29.1822C167.7 28.9624 167.909 28.7842 168.151 28.6627C168.393 28.5412 168.661 28.4801 168.932 28.4847C168.989 28.4889 169.045 28.4706 169.088 28.4337C169.132 28.3968 169.159 28.3443 169.164 28.2875C169.165 28.2294 169.144 28.1732 169.106 28.1294C169.067 28.0856 169.015 28.0574 168.957 28.05C168.614 28.0387 168.273 28.1116 167.965 28.2623C167.657 28.4129 167.39 28.6368 167.188 28.9143C167.154 28.9606 167.139 29.0185 167.148 29.0754C167.156 29.1322 167.187 29.1834 167.233 29.2176C167.279 29.2502 167.334 29.2679 167.39 29.2682Z" fill="#263238"/>
<path d="M174.209 27.913C174.235 27.9031 174.258 27.8882 174.278 27.8691C174.298 27.85 174.314 27.8271 174.325 27.8018C174.337 27.7756 174.343 27.7473 174.344 27.7186C174.345 27.6899 174.34 27.6613 174.33 27.6345C174.319 27.6077 174.304 27.5833 174.284 27.5625C174.264 27.5418 174.24 27.5251 174.214 27.5136C173.905 27.3533 173.563 27.2695 173.215 27.2695C172.868 27.2695 172.526 27.3533 172.217 27.5136C172.193 27.529 172.172 27.5492 172.155 27.5728C172.138 27.5965 172.127 27.6233 172.121 27.6515C172.115 27.6797 172.114 27.7089 172.119 27.7373C172.125 27.7657 172.136 27.7928 172.151 27.8169C172.183 27.8659 172.232 27.9011 172.288 27.9152C172.344 27.9293 172.404 27.9213 172.455 27.8928C172.699 27.766 172.97 27.6999 173.246 27.6999C173.521 27.6999 173.792 27.766 174.037 27.8928C174.062 27.9083 174.091 27.9182 174.121 27.9217C174.15 27.9251 174.18 27.9222 174.209 27.913Z" fill="#263238"/>
<path d="M168.553 30.4563L169.372 30.0469C169.372 30.0469 169.068 30.8354 168.553 30.4563Z" fill="#263238"/>
<path d="M179.375 76.834L179.764 130.44C170.666 131.183 161.966 130.905 153.757 129.298C153.216 109.185 149.284 87.0194 159.778 76.834H179.375Z" fill="#263238"/>
<path opacity="0.2" d="M169.24 113.112L167.188 95.471L172.116 90.3809L169.24 113.112Z" fill="black"/>
<path d="M181.7 52.8942C181.452 48.1882 180.689 46.323 177.596 45.7568C174.502 45.1907 171.595 44.8672 171.595 44.8672C172.648 45.5557 173.54 46.4623 174.212 47.5256C174.884 48.5889 175.319 49.784 175.489 51.0302C175.658 52.2764 175.558 53.5444 175.195 54.7486C174.832 55.9527 174.215 57.0649 173.385 58.0097C171.302 54.1377 163.402 48.0719 165.297 44.9127C163.45 44.8186 161.598 44.951 159.782 45.307C156.75 45.8933 155.86 47.9911 156.608 52.6617C158.534 64.591 157.063 79.0781 157.063 79.0781C157.063 79.0781 168.35 84.3958 172.101 85.4118C178.071 83.956 179.385 79.7807 179.385 79.7807C179.385 79.7807 181.973 57.6255 181.7 52.8942Z" fill="#65C098"/>
<path opacity="0.6" d="M181.7 52.8942C181.452 48.1882 180.689 46.323 177.596 45.7568C174.502 45.1907 171.595 44.8672 171.595 44.8672C172.648 45.5557 173.54 46.4623 174.212 47.5256C174.884 48.5889 175.319 49.784 175.489 51.0302C175.658 52.2764 175.558 53.5444 175.195 54.7486C174.832 55.9527 174.215 57.0649 173.385 58.0097C171.302 54.1377 163.402 48.0719 165.297 44.9127C163.45 44.8186 161.598 44.951 159.782 45.307C156.75 45.8933 155.86 47.9911 156.608 52.6617C158.534 64.591 157.063 79.0781 157.063 79.0781C157.063 79.0781 168.35 84.3958 172.101 85.4118C178.071 83.956 179.385 79.7807 179.385 79.7807C179.385 79.7807 181.973 57.6255 181.7 52.8942Z" fill="white"/>
<path d="M164.883 62.0336C162.78 58.9653 161.203 54.4514 162.426 52.1716C162.655 51.7513 162.999 51.4057 163.419 51.1762C163.838 50.9467 164.315 50.843 164.792 50.8776C165.201 50.8753 165.605 50.9597 165.979 51.1252C166.353 51.2908 166.688 51.5337 166.961 51.838C168.325 53.3292 168.8 56.4278 168.411 61.3006L167.906 61.2602C168.28 56.5997 167.835 53.5466 166.592 52.1868C166.367 51.9331 166.091 51.7308 165.781 51.5938C165.471 51.4568 165.136 51.3884 164.797 51.3932C164.416 51.3609 164.033 51.4391 163.696 51.6183C163.358 51.7976 163.078 52.0704 162.891 52.4042C161.916 54.234 162.982 58.3335 165.318 61.7353L164.883 62.0336Z" fill="#263238"/>
<path d="M165.312 62.9341C165.74 62.9341 166.086 62.4295 166.086 61.8069C166.086 61.1844 165.74 60.6797 165.312 60.6797C164.885 60.6797 164.539 61.1844 164.539 61.8069C164.539 62.4295 164.885 62.9341 165.312 62.9341Z" fill="#263238"/>
<path d="M169.008 61.5022C169.008 62.124 168.659 62.6294 168.234 62.6294C167.81 62.6294 167.461 62.124 167.461 61.5022C167.461 60.8805 167.81 60.375 168.234 60.375C168.659 60.375 169.008 60.8805 169.008 61.5022Z" fill="#263238"/>
<path d="M178.991 52.3223C179.007 52.5713 178.95 52.8196 178.827 53.0363C178.703 53.253 178.519 53.4285 178.296 53.5408C178.073 53.653 177.822 53.6971 177.574 53.6675C177.326 53.6379 177.093 53.5359 176.903 53.3742C176.713 53.2126 176.575 52.9985 176.506 52.7588C176.437 52.519 176.44 52.2643 176.515 52.0263C176.59 51.7884 176.733 51.5778 176.927 51.421C177.121 51.2641 177.357 51.168 177.606 51.1446C177.945 51.118 178.282 51.227 178.541 51.4477C178.801 51.6684 178.962 51.9828 178.991 52.3223Z" fill="#263238"/>
<path d="M164.539 51.4039C164.487 51.4031 164.437 51.3868 164.395 51.3571C164.352 51.3273 164.32 51.2855 164.302 51.237C163.622 49.178 163.42 46.9914 163.71 44.8427C163.713 44.809 163.723 44.7762 163.739 44.7464C163.755 44.7165 163.777 44.6902 163.804 44.669C163.83 44.6478 163.86 44.6321 163.893 44.6229C163.926 44.6136 163.96 44.611 163.993 44.6152C164.061 44.6229 164.123 44.6569 164.165 44.7099C164.208 44.763 164.228 44.8307 164.221 44.8983C163.96 46.9673 164.153 49.0683 164.787 51.0551C164.8 51.0862 164.807 51.1197 164.807 51.1534C164.807 51.1872 164.8 51.2207 164.787 51.2518C164.773 51.2829 164.754 51.311 164.73 51.3345C164.706 51.358 164.677 51.3765 164.645 51.3887C164.612 51.4019 164.575 51.4071 164.539 51.4039Z" fill="#263238"/>
<path d="M178.217 52.3076C178.151 52.3077 178.088 52.2826 178.04 52.2375C177.992 52.1924 177.963 52.1306 177.959 52.0649C177.959 52.0093 177.601 46.353 173.178 45.3117C173.111 45.2961 173.054 45.2549 173.018 45.1971C172.982 45.1394 172.97 45.0697 172.985 45.0034C173.002 44.9367 173.044 44.8793 173.103 44.8434C173.162 44.8075 173.232 44.796 173.299 44.8113C178.096 45.9436 178.47 51.979 178.475 52.0397C178.477 52.0733 178.472 52.1069 178.461 52.1387C178.45 52.1705 178.433 52.1997 178.41 52.2247C178.387 52.2496 178.36 52.2698 178.33 52.2841C178.299 52.2983 178.266 52.3063 178.232 52.3076H178.217Z" fill="#263238"/>
<path d="M165.419 71.6483L169.842 54.8006C169.92 54.544 170.079 54.3195 170.294 54.1602C170.51 54.0008 170.772 53.9152 171.04 53.916L183.085 54.3659C183.202 54.3636 183.317 54.3891 183.422 54.4404C183.527 54.4916 183.618 54.567 183.687 54.6604C183.757 54.7538 183.803 54.8625 183.823 54.9774C183.842 55.0924 183.833 55.2102 183.798 55.3213L179.355 72.1689C179.277 72.4259 179.119 72.651 178.903 72.8104C178.687 72.9698 178.425 73.0551 178.157 73.0535L166.116 72.6036C166.001 72.6035 165.888 72.5762 165.785 72.524C165.682 72.4717 165.593 72.396 165.525 72.3029C165.457 72.2098 165.412 72.1021 165.394 71.9883C165.375 71.8746 165.384 71.7581 165.419 71.6483Z" fill="#263238"/>
<path d="M165.545 71.9452L169.988 55.0975C170.065 54.8401 170.223 54.6146 170.439 54.4551C170.655 54.2955 170.917 54.2105 171.186 54.2129L183.227 54.6628C183.343 54.6594 183.459 54.6842 183.565 54.735C183.67 54.7859 183.761 54.8614 183.831 54.9551C183.901 55.0489 183.948 55.1581 183.966 55.2735C183.985 55.3889 183.976 55.5071 183.939 55.6182L179.501 72.4709C179.422 72.7274 179.262 72.9514 179.045 73.1098C178.829 73.2683 178.567 73.3526 178.298 73.3504L166.258 72.9006C166.141 72.904 166.025 72.8792 165.919 72.8283C165.814 72.7775 165.723 72.702 165.653 72.6082C165.583 72.5145 165.537 72.4053 165.518 72.2899C165.499 72.1745 165.508 72.0563 165.545 71.9452Z" fill="#65C098"/>
<path d="M163.963 66.2636L164.175 64.3781L167.046 61.4059C167.467 60.9742 168.024 60.701 168.623 60.6325L169.847 60.491C170.049 60.4656 170.253 60.514 170.422 60.6273C170.591 60.7407 170.713 60.9112 170.767 61.1076L171.363 63.4126C171.407 63.6186 171.377 63.8335 171.277 64.0188C171.177 64.2041 171.014 64.3477 170.817 64.4236L168.153 65.3234C168.153 65.3234 165.687 67.0824 163.963 66.2636Z" fill="#FFB573"/>
<path d="M162.553 50.7402C162.371 50.9778 162.138 51.3013 161.931 51.5894L161.299 52.5043C160.878 53.121 160.473 53.7461 160.086 54.3797C159.311 55.6333 158.601 56.9256 157.958 58.2516C157.342 59.5175 156.835 60.833 156.441 62.1843C156.075 63.3558 155.916 64.5823 155.971 65.8086L154.834 63.9332C154.515 63.7311 154.526 63.8018 154.596 63.817C154.723 63.8575 154.854 63.888 154.986 63.908C155.375 63.9759 155.768 64.0164 156.163 64.0293C157.072 64.0554 157.982 64.0267 158.888 63.9434C159.818 63.8625 160.748 63.7311 161.658 63.5592C162.546 63.3934 163.421 63.1654 164.276 62.8768L165.954 66.9206C164.926 67.3864 163.865 67.7767 162.78 68.0883C161.729 68.3991 160.663 68.6556 159.585 68.8566C158.483 69.0653 157.369 69.2071 156.249 69.2812C155.632 69.3217 155.012 69.3217 154.394 69.2812C154.02 69.2583 153.648 69.2059 153.282 69.1245C152.695 69.0071 152.138 68.7715 151.644 68.432L150.689 67.8052L150.507 66.5617C150.251 64.6356 150.352 62.6787 150.805 60.7892C151.195 59.0805 151.729 57.408 152.403 55.79C153.047 54.2273 153.77 52.6988 154.571 51.2103C154.965 50.4723 155.375 49.7427 155.799 49.0216L156.456 47.9449C156.684 47.5759 156.891 47.2473 157.169 46.8379L162.553 50.7402Z" fill="#65C098"/>
<path opacity="0.6" d="M162.553 50.7402C162.371 50.9778 162.138 51.3013 161.931 51.5894L161.299 52.5043C160.878 53.121 160.473 53.7461 160.086 54.3797C159.311 55.6333 158.601 56.9256 157.958 58.2516C157.342 59.5175 156.835 60.833 156.441 62.1843C156.075 63.3558 155.916 64.5823 155.971 65.8086L154.834 63.9332C154.515 63.7311 154.526 63.8018 154.596 63.817C154.723 63.8575 154.854 63.888 154.986 63.908C155.375 63.9759 155.768 64.0164 156.163 64.0293C157.072 64.0554 157.982 64.0267 158.888 63.9434C159.818 63.8625 160.748 63.7311 161.658 63.5592C162.546 63.3934 163.421 63.1654 164.276 62.8768L165.954 66.9206C164.926 67.3864 163.865 67.7767 162.78 68.0883C161.729 68.3991 160.663 68.6556 159.585 68.8566C158.483 69.0653 157.369 69.2071 156.249 69.2812C155.632 69.3217 155.012 69.3217 154.394 69.2812C154.02 69.2583 153.648 69.2059 153.282 69.1245C152.695 69.0071 152.138 68.7715 151.644 68.432L150.689 67.8052L150.507 66.5617C150.251 64.6356 150.352 62.6787 150.805 60.7892C151.195 59.0805 151.729 57.408 152.403 55.79C153.047 54.2273 153.77 52.6988 154.571 51.2103C154.965 50.4723 155.375 49.7427 155.799 49.0216L156.456 47.9449C156.684 47.5759 156.891 47.2473 157.169 46.8379L162.553 50.7402Z" fill="white"/>
</svg>
