<svg width="210" height="205" viewBox="0 0 210 205" fill="none" xmlns="http://www.w3.org/2000/svg">
<path d="M67.5861 0H65.6641V8.60603H67.5861V0Z" fill="#5F5E5E"/>
<path d="M62.3223 3.34167V5.26367L70.9283 5.26367V3.34167L62.3223 3.34167Z" fill="#5F5E5E"/>
<path d="M114.537 42.3926H111.593V55.5888H114.537V42.3926Z" fill="#5F5E5E"/>
<path d="M106.465 47.5208V50.4648H119.661V47.5208H106.465Z" fill="#5F5E5E"/>
<path d="M149.839 3.97461H147.917V12.5806H149.839V3.97461Z" fill="#5F5E5E"/>
<path d="M144.57 7.31238V9.23438H153.176V7.31238H144.57Z" fill="#5F5E5E"/>
<path d="M193.873 19.8809H190.929V33.0771H193.873V19.8809Z" fill="#5F5E5E"/>
<path d="M185.801 25.0032V27.9473H198.997V25.0032H185.801Z" fill="#5F5E5E"/>
<path d="M208.666 84.0527H148.875V194.656H208.666V84.0527Z" fill="#14BA6D"/>
<path d="M201.814 190.982H204.785V128.19H201.814V190.982Z" fill="#5F5E5E"/>
<path d="M196.487 190.982H199.458V128.19H196.487V190.982Z" fill="#5F5E5E"/>
<path d="M191.155 190.982H194.126V128.19H191.155V190.982Z" fill="#5F5E5E"/>
<path d="M185.819 190.982H188.79V128.19H185.819V190.982Z" fill="#5F5E5E"/>
<path d="M180.749 190.982H183.72V128.19H180.749V190.982Z" fill="#5F5E5E"/>
<path d="M175.53 190.982H178.501V128.19H175.53V190.982Z" fill="#5F5E5E"/>
<path d="M170.203 190.982H173.174V128.19H170.203V190.982Z" fill="#5F5E5E"/>
<path d="M164.541 190.982H167.512V128.19H164.541V190.982Z" fill="#5F5E5E"/>
<path d="M159.209 190.982H162.18V128.19H159.209V190.982Z" fill="#5F5E5E"/>
<path d="M154.018 190.982H156.989V128.19H154.018V190.982Z" fill="#5F5E5E"/>
<path d="M201.629 124.418H204.6V91.3189H201.629V124.418Z" fill="#5F5E5E"/>
<path d="M196.297 124.418H199.268V91.3189H196.297V124.418Z" fill="#5F5E5E"/>
<path d="M190.965 124.418H193.936V91.3189H190.965V124.418Z" fill="#5F5E5E"/>
<path d="M185.638 124.418H188.609V91.3189H185.638V124.418Z" fill="#5F5E5E"/>
<path d="M180.568 124.418H183.54V91.3189H180.568V124.418Z" fill="#5F5E5E"/>
<path d="M175.345 124.418H178.316V91.3189H175.345V124.418Z" fill="#5F5E5E"/>
<path d="M170.013 124.418H172.984V91.3189H170.013V124.418Z" fill="#5F5E5E"/>
<path d="M164.043 124.418H167.015V91.3189H164.043V124.418Z" fill="#5F5E5E"/>
<path d="M158.712 124.418H161.683V91.3189H158.712V124.418Z" fill="#5F5E5E"/>
<path d="M153.656 124.418H156.627V91.3189H153.656V124.418Z" fill="#5F5E5E"/>
<path d="M147.302 114.537H105.031V194.655H147.302V114.537Z" fill="#14BA6D"/>
<path d="M140.45 190.982H143.422V128.19H140.45V190.982Z" fill="#5F5E5E"/>
<path d="M135.114 190.982H138.085V128.19H135.114V190.982Z" fill="#5F5E5E"/>
<path d="M129.787 190.982H132.758V128.19H129.787V190.982Z" fill="#5F5E5E"/>
<path d="M124.455 190.982H127.426L127.426 128.19H124.455L124.455 190.982Z" fill="#5F5E5E"/>
<path d="M119.385 190.982H122.356L122.356 128.19H119.385L119.385 190.982Z" fill="#5F5E5E"/>
<path d="M114.167 190.982H117.138L117.138 128.19H114.167L114.167 190.982Z" fill="#5F5E5E"/>
<path d="M108.83 190.982H111.801L111.801 128.19H108.83L108.83 190.982Z" fill="#5F5E5E"/>
<path d="M140.265 124.418H143.236V118.48H140.265V124.418Z" fill="#5F5E5E"/>
<path d="M134.933 124.418H137.904V118.48H134.933V124.418Z" fill="#5F5E5E"/>
<path d="M129.597 124.418H132.568V118.48H129.597V124.418Z" fill="#5F5E5E"/>
<path d="M124.265 124.418H127.236V118.48H124.265V124.418Z" fill="#5F5E5E"/>
<path d="M119.2 124.418H122.171V118.48H119.2V124.418Z" fill="#5F5E5E"/>
<path d="M113.981 124.418H116.952V118.48H113.981V124.418Z" fill="#5F5E5E"/>
<path d="M108.649 124.418H111.62V118.48H108.649V124.418Z" fill="#5F5E5E"/>
<path d="M148.984 195.18C148.921 195.18 148.867 170.353 148.867 139.736C148.867 109.12 148.921 84.2832 148.984 84.2832C149.048 84.2832 149.102 109.106 149.102 139.736C149.102 170.366 149.052 195.18 148.984 195.18Z" fill="#5F5E5E"/>
<path d="M203.117 48.9902H157.753V84.2826H203.117V48.9902Z" fill="#14BA6D"/>
<path d="M168.774 79.2812H171.745V56.4705H168.774V79.2812Z" fill="#5F5E5E"/>
<path d="M163.447 79.2812H166.418V56.4705H163.447V79.2812Z" fill="#5F5E5E"/>
<path d="M179.845 79.2812H182.816V56.4705H179.845V79.2812Z" fill="#5F5E5E"/>
<path d="M174.513 79.2812H177.484V56.4705H174.513V79.2812Z" fill="#5F5E5E"/>
<path d="M190.911 79.2812H193.882V56.4705H190.911V79.2812Z" fill="#5F5E5E"/>
<path d="M185.579 79.2812H188.55V56.4705H185.579V79.2812Z" fill="#5F5E5E"/>
<path d="M196.654 79.2812H199.625V56.4705H196.654V79.2812Z" fill="#5F5E5E"/>
<path d="M89.0536 122.809H46.7832V194.917H89.0536V122.809Z" fill="#14BA6D"/>
<path d="M53.6348 142.291H50.6636V192.014H53.6348V142.291Z" fill="#5F5E5E"/>
<path d="M58.9668 142.291H55.9956V192.014H58.9668V142.291Z" fill="#5F5E5E"/>
<path d="M64.2983 142.291H61.3271V192.014H64.2983V142.291Z" fill="#5F5E5E"/>
<path d="M69.6304 142.291H66.6592V192.014H69.6304V142.291Z" fill="#5F5E5E"/>
<path d="M74.7002 142.291H71.729V192.014H74.7002V142.291Z" fill="#5F5E5E"/>
<path d="M79.9187 142.291H76.9475V192.014H79.9187V142.291Z" fill="#5F5E5E"/>
<path d="M85.2507 142.291H82.2795V192.014H85.2507V142.291Z" fill="#5F5E5E"/>
<path d="M53.8203 127.309H50.8491V139.302H53.8203V127.309Z" fill="#5F5E5E"/>
<path d="M59.1518 127.309H56.1807V139.302H59.1518V127.309Z" fill="#5F5E5E"/>
<path d="M64.4839 127.309H61.5127V139.302H64.4839V127.309Z" fill="#5F5E5E"/>
<path d="M69.8159 127.309H66.8447V139.302H69.8159V127.309Z" fill="#5F5E5E"/>
<path d="M74.8853 127.309H71.9141V139.302H74.8853V127.309Z" fill="#5F5E5E"/>
<path d="M80.1042 127.309H77.1331V139.302H80.1042V127.309Z" fill="#5F5E5E"/>
<path d="M85.436 127.309H82.4648V139.302H85.436V127.309Z" fill="#5F5E5E"/>
<path d="M49.0311 57.3535H3.94775V194.919H49.0311V57.3535Z" fill="#14BA6D"/>
<path d="M32.6329 16.4082H21.5576V18.4794H32.6329V16.4082Z" fill="#14BA6D"/>
<path d="M27.9117 0H26.1479V17.0131H27.9117V0Z" fill="#14BA6D"/>
<path d="M42.7358 18.4785H11.4502V58.0264H42.7358V18.4785Z" fill="#14BA6D"/>
<path d="M18.4555 23.3496H15.3486V55.3045H18.4555V23.3496Z" fill="#5F5E5E"/>
<path d="M24.0268 23.3496H20.9199V55.3045H24.0268V23.3496Z" fill="#5F5E5E"/>
<path d="M29.6029 23.3496H26.4961V55.3045H29.6029V23.3496Z" fill="#5F5E5E"/>
<path d="M35.1747 23.3496H32.0679V55.3045H35.1747V23.3496Z" fill="#5F5E5E"/>
<path d="M40.475 23.3496H37.3682V55.3045H40.475V23.3496Z" fill="#5F5E5E"/>
<path d="M11.2561 62.9961H8.08594V189.373H11.2561V62.9961Z" fill="#5F5E5E"/>
<path d="M16.9451 62.9961H13.7749V189.373H16.9451V62.9961Z" fill="#5F5E5E"/>
<path d="M22.6296 62.9961H19.4595V189.373H22.6296V62.9961Z" fill="#5F5E5E"/>
<path d="M28.3142 62.9961H25.144V189.373H28.3142V62.9961Z" fill="#5F5E5E"/>
<path d="M33.7229 62.9961H30.5527V189.373H33.7229V62.9961Z" fill="#5F5E5E"/>
<path d="M39.2898 62.9961H36.1196V189.373H39.2898V62.9961Z" fill="#5F5E5E"/>
<path d="M44.9744 62.9961H41.8042V189.373H44.9744V62.9961Z" fill="#5F5E5E"/>
<path d="M210 195.338C210 195.401 162.968 195.455 105.005 195.455C47.0415 195.455 0 195.401 0 195.338C0 195.274 47.0053 195.211 105 195.211C162.995 195.211 210 195.274 210 195.338Z" fill="#263238"/>
<path d="M145.389 35.3873L141.111 36.1516C138.962 38.5782 135.983 40.1134 132.76 40.4554C129.537 40.7974 126.302 39.9214 123.692 37.9996C121.082 36.0778 119.285 33.2493 118.655 30.0699C118.024 26.8905 118.606 23.5903 120.285 20.8178C121.964 18.0454 124.62 16.0014 127.729 15.0874C130.839 14.1734 134.178 14.4557 137.091 15.8787C140.003 17.3017 142.277 19.7626 143.467 22.7775C144.657 25.7925 144.677 29.1435 143.521 32.1719L145.389 35.3873Z" fill="black"/>
<path d="M145.389 35.3883C145.389 35.3883 145.339 35.3159 145.254 35.1757L144.887 34.5562L143.481 32.191H143.558C143.548 32.1996 143.536 32.2043 143.524 32.2043C143.511 32.2043 143.499 32.1996 143.49 32.191C143.484 32.1824 143.48 32.1722 143.48 32.1616C143.48 32.151 143.484 32.1407 143.49 32.1322C144.236 30.1419 144.483 27.9991 144.209 25.8913C144.122 25.2287 143.983 24.574 143.793 23.9332C143.576 23.2531 143.307 22.5908 142.988 21.9524C142.304 20.531 141.363 19.2491 140.211 18.1717C138.885 16.935 137.315 15.9902 135.601 15.3981C133.887 14.8061 132.068 14.5801 130.262 14.7347C128.263 14.9329 126.337 15.5873 124.632 16.6477C122.84 17.7586 121.355 19.301 120.313 21.1338C118.734 23.8943 118.232 27.1414 118.905 30.2495C119.578 33.3576 121.377 36.1068 123.956 37.9674C126.535 39.828 129.711 40.6684 132.873 40.3266C136.034 39.9849 138.958 38.4851 141.079 36.1164C141.079 36.1164 141.079 36.1164 141.106 36.1164L144.272 35.5873L145.1 35.4516L145.389 35.4064L145.122 35.4652L144.317 35.6189L141.12 36.2204H141.152C139.727 37.8494 137.915 39.0936 135.883 39.8383C133.362 40.7621 130.617 40.8861 128.023 40.1933C125.428 39.5005 123.111 38.0247 121.386 35.9668C119.661 33.909 118.612 31.3694 118.383 28.694C118.154 26.0186 118.755 23.3375 120.105 21.0163L120.525 20.3153C120.679 20.0937 120.842 19.8631 121 19.6596C121.323 19.2302 121.671 18.8195 122.04 18.4295C122.217 18.2305 122.429 18.0632 122.619 17.8823C122.807 17.6954 123.007 17.5202 123.216 17.3577C123.626 17.0284 124.056 16.7263 124.505 16.4532C126.241 15.3757 128.201 14.7119 130.235 14.5131C132.074 14.3584 133.925 14.5921 135.668 15.199C137.41 15.806 139.006 16.7725 140.351 18.036C141.514 19.1329 142.464 20.4363 143.151 21.88C143.467 22.5363 143.73 23.2168 143.937 23.9151C144.127 24.5647 144.263 25.2287 144.345 25.9004C144.609 28.0312 144.341 30.1944 143.562 32.1955L143.481 32.1503C143.49 32.1426 143.502 32.1384 143.515 32.1384C143.527 32.1384 143.539 32.1426 143.549 32.1503L144.905 34.5788L145.254 35.1938L145.389 35.3883Z" fill="#263238"/>
<path d="M131.257 32.8553L124.898 28.6043L126.382 26.3884L130.646 29.2374L135.947 22.2188L138.077 23.8287L131.257 32.8553Z" fill="#65C098"/>
<path d="M71.8013 34.1336L73.9313 29.9414C73.0529 27.5677 72.8245 25.0024 73.2696 22.5108C73.7148 20.0193 74.8174 17.6918 76.4634 15.7692C78.1095 13.8465 80.2392 12.3984 82.6324 11.5746C85.0256 10.7507 87.5954 10.5811 90.0761 11.0832C92.2937 11.5267 94.3735 12.493 96.1427 13.9017C97.9119 15.3105 99.3193 17.1211 100.248 19.1831C101.177 21.2451 101.6 23.4989 101.483 25.7574C101.366 28.0159 100.712 30.2139 99.5744 32.1687C98.4371 34.1235 96.8498 35.7786 94.9443 36.9967C93.0389 38.2148 90.8702 38.9607 88.6186 39.1723C86.367 39.3839 84.0974 39.0552 81.9983 38.2134C79.8992 37.3717 78.0313 36.0412 76.5497 34.3326L71.8013 34.1336Z" fill="black"/>
<path d="M71.8013 34.134H72.1178L73.0223 34.1611L76.5317 34.2787L76.4864 34.3511C76.4792 34.3397 76.4769 34.3259 76.4798 34.3127C76.4828 34.2996 76.4909 34.2882 76.5023 34.281C76.5137 34.2738 76.5274 34.2714 76.5406 34.2744C76.5537 34.2773 76.5652 34.2854 76.5724 34.2968C78.1315 36.073 80.1085 37.4329 82.3248 38.2538C83.0113 38.5114 83.7176 38.7125 84.4367 38.8553C85.2087 38.9995 85.9901 39.0872 86.7748 39.1176C88.7309 39.1939 90.6814 38.8614 92.5017 38.1414C94.3221 37.4214 95.9723 36.3296 97.3469 34.9358C98.7215 33.5421 99.7903 31.877 100.485 30.0468C101.18 28.2167 101.485 26.2618 101.382 24.3069C101.359 24.0311 101.359 23.7507 101.328 23.4748C101.296 23.199 101.242 22.9231 101.197 22.6472L101.133 22.2312C101.106 22.0955 101.065 21.9598 101.034 21.8242L100.821 21.0011C100.749 20.7298 100.631 20.4675 100.541 20.2006C100.452 19.9301 100.35 19.6644 100.233 19.4047C100 18.8799 99.736 18.3694 99.4419 17.8762C99.2881 17.6319 99.1525 17.3787 98.9897 17.139L98.4786 16.4471L98.2163 16.126L97.9314 15.8094L97.3616 15.1718C96.5687 14.377 95.6871 13.676 94.7341 13.0825C92.8861 11.9401 90.8036 11.2305 88.6425 11.0067C86.6814 10.8238 84.7037 11.051 82.8351 11.6738C80.9665 12.2967 79.248 13.3016 77.7889 14.6246C76.513 15.7798 75.46 17.1594 74.682 18.6947C74.5147 19.061 74.3067 19.4092 74.18 19.7801L73.7821 20.8699C73.5782 21.5745 73.4151 22.2902 73.2936 23.0135C72.9428 25.3515 73.1854 27.7402 73.9991 29.9599C74.0036 29.9731 74.0036 29.9874 73.9991 30.0006C73.2982 31.3573 72.76 32.3793 72.3937 33.0893L71.9731 33.8898C71.8782 34.0707 71.8239 34.1656 71.8239 34.1656L71.9505 33.9034C72.041 33.7134 72.1721 33.4511 72.344 33.1029L73.9087 29.9373V29.978C73.0661 27.7466 72.8032 25.338 73.1444 22.9774C73.2626 22.2452 73.4226 21.5205 73.6238 20.8066L74.0263 19.7032C74.1723 19.3268 74.3384 18.9584 74.5237 18.5997C75.3072 17.0421 76.3694 15.6412 77.6577 14.4663C80.4052 11.9756 84.0079 10.6413 87.7149 10.7416C91.4219 10.8419 94.9473 12.3689 97.5561 15.0045L98.1349 15.6512L98.4289 15.9722L98.6867 16.3205L99.166 17.0305C99.3288 17.2702 99.4736 17.5279 99.6183 17.7812C99.9196 18.2671 100.19 18.7716 100.428 19.2916C100.563 19.5494 100.636 19.8343 100.744 20.1011C100.853 20.368 100.957 20.6393 101.029 20.9152L101.242 21.7518C101.273 21.8875 101.319 22.0277 101.346 22.1679L101.409 22.5884C101.454 22.8688 101.495 23.1492 101.54 23.4296C101.585 23.71 101.576 23.9949 101.595 24.2753C101.697 26.2571 101.386 28.2385 100.68 30.0932C99.9739 31.9478 98.8891 33.635 97.4946 35.0469C96.1001 36.4588 94.4266 37.5645 92.5809 38.2934C90.7351 39.0224 88.7577 39.3585 86.7748 39.2804C85.9804 39.2505 85.1896 39.1583 84.4096 39.0046C81.3345 38.3766 78.5553 36.7444 76.509 34.3646L76.5904 34.3104C76.5981 34.32 76.6024 34.332 76.6024 34.3443C76.6024 34.3566 76.5981 34.3686 76.5904 34.3782H76.5633L73.0223 34.1928L72.1178 34.143L71.8013 34.134Z" fill="#263238"/>
<path d="M87.8373 31.7642H80.8865V17.5957H87.8373V31.7642ZM81.3387 31.312H87.3851V18.0479H81.3387V31.312Z" fill="#263238"/>
<path d="M83.8351 19.6855H82.406V21.4131H83.8351V19.6855Z" fill="#263238"/>
<path d="M86.318 19.6855H84.8889V21.4131H86.318V19.6855Z" fill="#263238"/>
<path d="M83.8351 22.3809H82.406V24.1084H83.8351V22.3809Z" fill="#263238"/>
<path d="M86.318 22.3809H84.8889V24.1084H86.318V22.3809Z" fill="#263238"/>
<path d="M83.8351 25.0801H82.406V26.8076H83.8351V25.0801Z" fill="#263238"/>
<path d="M86.318 25.0801H84.8889V26.8076H86.318V25.0801Z" fill="#263238"/>
<path d="M83.8351 27.8613H82.406V29.5889H83.8351V27.8613Z" fill="#263238"/>
<path d="M86.318 27.8613H84.8889V29.5889H86.318V27.8613Z" fill="#263238"/>
<path d="M90.2298 26.3066H88.8008V28.0342H90.2298V26.3066Z" fill="#263238"/>
<path d="M92.7125 26.3066H91.2834V28.0342H92.7125V26.3066Z" fill="#263238"/>
<path d="M90.2298 28.7266H88.8008V30.4541H90.2298V28.7266Z" fill="#263238"/>
<path d="M92.7125 28.7266H91.2834V30.4541H92.7125V28.7266Z" fill="#263238"/>
<path d="M94.1461 31.7646H87.3625V24.7188H94.1461V31.7646ZM87.8148 31.3123H93.6938V25.171H87.8148V31.3123Z" fill="#263238"/>
<path d="M92.8753 19.2695H89.687V23.8054H92.8753V19.2695Z" fill="#455A64"/>
<path d="M91.2789 20.0431H89.0042L90.1438 18.614L91.2789 17.1895L92.4185 18.614L93.5582 20.0431H91.2789Z" fill="#455A64"/>
<path d="M164.071 189.206V189.722C164.071 189.722 155.42 193.29 155.343 194.941L172.582 194.687L172.265 188.953C170.998 189.581 169.61 189.929 168.196 189.972C166.782 190.016 165.375 189.755 164.071 189.206Z" fill="#263238"/>
<path d="M172.587 194.687L172.51 193.33L156.017 194.076C156.017 194.076 155.252 194.42 155.347 194.981L172.587 194.687Z" fill="#455A64"/>
<path d="M164.017 189.785C164.017 189.867 164.442 189.898 164.858 190.165C165.274 190.432 165.5 190.78 165.577 190.744C165.654 190.708 165.523 190.224 165.012 189.916C164.501 189.609 163.994 189.695 164.017 189.785Z" fill="black"/>
<path d="M162.217 190.544C162.217 190.626 162.565 190.762 162.859 191.114C163.153 191.467 163.234 191.842 163.311 191.838C163.388 191.833 163.442 191.354 163.072 190.933C162.701 190.513 162.217 190.463 162.217 190.544Z" fill="black"/>
<path d="M161.222 192.724C161.299 192.724 161.412 192.317 161.186 191.86C160.96 191.403 160.566 191.222 160.535 191.295C160.503 191.367 160.747 191.607 160.923 191.987C161.1 192.367 161.141 192.715 161.222 192.724Z" fill="black"/>
<path d="M176.399 184.01L169.059 186.063L170.891 190.223L168.987 200.756C168.934 201.045 168.99 201.343 169.144 201.593C169.297 201.844 169.538 202.028 169.819 202.113C170.037 202.174 170.269 202.174 170.487 202.11C170.705 202.047 170.901 201.924 171.053 201.755C172.672 199.947 178.597 193.226 178.457 192.408L178.221 190.219C178.172 189.767 177.733 188.686 177.733 188.586L176.399 184.01Z" fill="#263238"/>
<path d="M170.036 202.166L178.389 191.656L178.429 192.136C178.459 192.333 178.444 192.534 178.385 192.724C178.327 192.914 178.226 193.089 178.09 193.235C177.434 194.293 175.571 196.694 171.085 201.768C170.955 201.914 170.792 202.026 170.609 202.095C170.426 202.165 170.23 202.189 170.036 202.166Z" fill="#455A64"/>
<path d="M172.238 196.985C171.926 196.655 171.553 196.388 171.139 196.198C170.699 196.073 170.239 196.03 169.783 196.071C169.783 196.044 169.909 195.94 170.181 195.881C170.533 195.808 170.898 195.837 171.234 195.963C171.571 196.085 171.864 196.302 172.08 196.587C172.229 196.804 172.265 196.971 172.238 196.985Z" fill="black"/>
<path d="M171.547 198.572C171.197 198.421 170.839 198.289 170.475 198.179C170.094 198.146 169.712 198.134 169.331 198.143C169.5 198.017 169.697 197.933 169.905 197.897C170.113 197.861 170.327 197.874 170.529 197.935C171.23 198.07 171.605 198.536 171.547 198.572Z" fill="black"/>
<path d="M173.6 194.899C173.08 194.623 172.54 194.386 171.985 194.189C171.405 194.069 170.817 193.991 170.226 193.954C170.811 193.747 171.45 193.747 172.035 193.954C172.652 194.073 173.207 194.408 173.6 194.899Z" fill="black"/>
<path d="M170.805 188.795C170.878 189.263 170.907 189.737 170.891 190.21C170.8 190.821 170.669 191.603 170.524 192.449C170.348 193.448 170.176 194.353 170.04 195.009C169.989 195.366 169.901 195.718 169.778 196.058C169.779 195.696 169.817 195.336 169.891 194.981C169.986 194.321 170.131 193.412 170.307 192.408C170.456 191.563 170.601 190.785 170.723 190.183C170.713 189.719 170.74 189.255 170.805 188.795Z" fill="#455A64"/>
<path d="M181.247 120.991C181.826 118.201 183.291 113.154 182.717 110.83C181.36 105.443 179.031 102.328 175.825 95.4898H173.441L150.567 95.0918L148.695 99.2433C146.615 104.837 145.195 108.175 144.625 112.268C143.951 116.98 145.131 123.809 147.754 130.705C153.407 145.588 156.564 157.491 156.799 160.697C157.034 163.904 157.355 167.214 160.331 177.367C162.497 184.779 164.103 189.206 164.103 189.206C166.364 190.482 168.747 190.825 170.922 189.586L177.561 187.027C177.561 187.027 175.526 169.548 173.152 164.908C171.442 161.57 168.63 159.987 169.95 155.637C171.271 151.286 179.474 129.561 181.247 120.991Z" fill="#263238"/>
<path d="M154.475 106.877C154.508 106.913 154.538 106.953 154.565 106.995L154.818 107.343L155.786 108.722L159.404 113.936V113.959V113.982C159.228 115.935 159.16 118.201 159.038 120.729C158.916 123.257 158.784 126.034 158.644 129.018C158.504 132.003 158.319 135.196 158.147 138.538C157.975 141.88 157.776 145.38 157.441 148.975C157.093 151.965 156.786 154.904 157.039 157.726C157.107 158.432 157.193 159.128 157.324 159.811C157.439 160.487 157.606 161.154 157.821 161.805C158.273 163.072 158.843 164.302 159.363 165.496C161.475 170.276 163.433 174.54 165.098 178.136L169.041 186.619L170.104 188.935C170.217 189.193 170.307 189.387 170.375 189.536C170.443 189.686 170.461 189.744 170.461 189.744C170.461 189.744 170.42 189.681 170.353 189.545L170.063 188.953C169.805 188.419 169.439 187.646 168.964 186.66L164.98 178.19C163.316 174.608 161.321 170.344 159.2 165.568C158.676 164.37 158.124 163.158 157.64 161.864C157.423 161.204 157.255 160.528 157.138 159.843C157.003 159.151 156.912 158.45 156.844 157.74C156.587 154.886 156.894 151.929 157.242 148.939C157.577 145.362 157.749 141.857 157.952 138.538C158.156 135.218 158.31 132.003 158.468 129.018C158.626 126.034 158.762 123.252 158.893 120.729C159.024 118.205 159.106 115.935 159.295 113.982V114.022C157.767 111.761 156.555 109.993 155.718 108.772L154.778 107.374L154.542 107.013C154.515 106.97 154.492 106.925 154.475 106.877Z" fill="#455A64"/>
<path d="M157.523 58.012L158.929 54.462L167.3 54.0098L170.719 54.462L171.094 55.4479L173.414 96.5017C173.414 96.5017 165.306 98.1388 161.254 97.569C157.202 96.9992 152.43 95.1496 152.43 95.1496V71.8007L157.523 58.012Z" fill="#DBDBDB"/>
<path d="M170.122 59.681C170.122 59.681 170.122 59.7081 170.063 59.7533L169.882 59.9568C169.724 60.1332 169.484 60.4091 169.168 60.6985C168.305 61.5549 167.39 62.3569 166.427 63.0999L166.386 63.1315L166.355 63.0908C165.449 62.0989 164.609 61.049 163.84 59.9478C163.754 59.8257 163.673 59.6991 163.592 59.586H163.696C162.977 60.5493 162.298 61.4628 161.683 62.2994C161.604 62.4061 161.51 62.5006 161.403 62.5798C161.349 62.6229 161.286 62.6547 161.219 62.6733C161.153 62.692 161.083 62.6971 161.014 62.6883C160.886 62.6604 160.769 62.5942 160.679 62.4984C160.589 62.4079 160.521 62.313 160.449 62.227L159.653 61.2321L158.513 59.7895L158.21 59.3961C158.173 59.352 158.14 59.3051 158.111 59.2559L158.228 59.3825L158.549 59.7624L159.721 61.1779L160.526 62.1637C160.67 62.3356 160.815 62.5436 161.032 62.5798C161.249 62.616 161.444 62.426 161.593 62.2316L163.596 59.5182L163.646 59.4458L163.696 59.5182L163.94 59.8754C164.708 60.9723 165.542 62.0219 166.436 63.0185H166.359C167.324 62.2856 168.246 61.499 169.123 60.6623C169.444 60.3548 169.688 60.1106 169.86 59.9433L170.054 59.7533C170.074 59.7266 170.097 59.7023 170.122 59.681Z" fill="#263238"/>
<g opacity="0.3">
<path d="M160.557 62.2873C160.557 62.2873 161.62 63.5943 161.914 63.2641C162.208 62.934 163.786 60.501 163.972 60.4015C164.157 60.302 166.061 63.7119 166.807 63.4767C167.553 63.2415 170.212 60.5779 170.212 60.5779L170.262 59.5332L166.391 63.0561L163.646 59.5422L161.33 62.5496C161.33 62.5496 160.842 62.9476 160.557 62.2873Z" fill="black"/>
</g>
<path d="M162.339 97.8181C162.328 97.6902 162.328 97.5616 162.339 97.4337C162.339 97.1624 162.339 96.7915 162.375 96.3303C162.416 95.3534 162.47 93.9741 162.538 92.2602C162.683 88.8367 162.877 84.1199 163.058 78.8876C163.239 73.6552 163.37 68.9384 163.465 65.5105C163.51 63.8146 163.551 62.4353 163.578 61.4404C163.596 60.9791 163.61 60.6128 163.619 60.3414C163.619 60.2126 163.629 60.0841 163.65 59.957C163.661 60.0849 163.661 60.2135 163.65 60.3414V61.4449C163.65 62.4262 163.628 63.8056 163.61 65.515C163.56 68.9384 163.451 73.6552 163.275 78.8966C163.099 84.138 162.873 88.8458 162.687 92.2692C162.588 93.9606 162.506 95.3399 162.448 96.3393C162.416 96.7915 162.389 97.1669 162.366 97.4428C162.365 97.5683 162.356 97.6937 162.339 97.8181Z" fill="#263238"/>
<g opacity="0.3">
<path d="M154.963 81.248L150.567 110.105L150.906 113.23C151.291 113.682 152.064 113.524 152.453 113.09C152.805 112.619 153.015 112.057 153.059 111.471C154.746 101.49 155.65 91.3419 154.963 81.248Z" fill="black"/>
</g>
<path d="M148.776 58.1219C147.97 58.3819 147.238 58.8338 146.644 59.4387C146.05 60.0436 145.612 60.7836 145.367 61.5951L140.13 80.0689L144.426 92.7314L148.912 85.0977L152.078 57.4707L148.776 58.1219Z" fill="#65C098"/>
<path d="M154.827 56.9372L149.853 57.9095L148.46 84.3155C148.46 84.6411 148.785 89.7423 148.785 89.7423L140.193 108.926C142.11 112.345 147.293 113.95 150.947 114.805C150.947 114.805 154.646 88.5756 154.886 82.796C155.126 77.0165 158.839 54.5449 158.839 54.5449L154.827 56.9372Z" fill="#65C098"/>
<path d="M141.269 106.75L141.301 106.664L141.409 106.411L141.826 105.443C142.192 104.598 142.73 103.377 143.39 101.853L148.745 89.6966V89.7238C148.704 88.4168 148.654 87.0601 148.591 85.6537C148.446 82.5287 148.274 79.5485 148.161 76.8396C148.048 74.1307 147.976 71.6841 147.953 69.631C147.931 67.5778 147.953 65.9181 147.953 64.774C147.953 64.2042 147.976 63.761 147.985 63.4535C147.985 63.3042 147.985 63.1912 147.985 63.1098C147.985 63.0284 147.985 62.9922 147.985 62.9922C147.985 62.9922 147.985 63.0329 147.985 63.1098V63.4535C147.985 63.761 147.985 64.2042 147.985 64.774C147.985 65.9181 147.985 67.5824 148.017 69.631C148.048 71.6796 148.125 74.1217 148.252 76.8351C148.378 79.5485 148.532 82.5242 148.704 85.6491C148.767 87.0375 148.817 88.3987 148.853 89.7193V89.7464L143.463 101.889C142.784 103.404 142.242 104.602 141.862 105.462C141.676 105.878 141.527 106.199 141.409 106.42C141.36 106.529 141.324 106.61 141.292 106.669C141.288 106.697 141.28 106.724 141.269 106.75Z" fill="#263238"/>
<path d="M154.651 79.9285C154.651 79.9285 154.651 79.9059 154.628 79.8652L154.583 79.6798C154.542 79.5079 154.488 79.2728 154.42 78.9698C154.289 78.3502 154.108 77.4502 153.936 76.3242C153.765 75.1981 153.602 73.864 153.484 72.3671C153.367 70.8702 153.249 69.2286 153.168 67.5011C153.14 66.8544 153.109 66.2213 153.082 65.6017L153.041 64.6972C153.041 64.548 153.041 64.3988 153.041 64.245V64.0189V63.9058C153.041 63.9058 153.041 63.8696 153.041 63.847C153.041 63.8244 153.041 63.847 153.041 63.8063V63.7792C153.041 63.7792 153.095 63.7566 153.104 63.7792C153.113 63.8018 153.136 63.7792 153.149 63.8154H153.064L154.393 62.8838V62.9833L152.937 62.2552H152.896V62.2145C153.113 61.3959 153.376 60.6633 153.602 60.0211C153.828 59.379 154.054 58.8182 154.221 58.3614C154.389 57.9047 154.542 57.5519 154.642 57.3077C154.692 57.1947 154.732 57.1042 154.759 57.0319C154.787 56.9595 154.805 56.9414 154.805 56.9414C154.798 56.9758 154.788 57.0092 154.773 57.0409L154.674 57.3213C154.579 57.5745 154.447 57.9318 154.276 58.384C154.104 58.8363 153.905 59.4016 153.683 60.0483C153.462 60.695 153.208 61.405 152.996 62.2416L152.969 62.1828L154.416 62.8476L154.506 62.8883L154.425 62.9471L153.1 63.8787H153.014C153.014 63.8787 153.059 63.847 153.055 63.847C153.058 63.849 153.062 63.8501 153.066 63.8501C153.07 63.8501 153.074 63.849 153.077 63.847H153.1V64.0144V64.236L153.122 64.6882C153.122 64.9867 153.149 65.2942 153.163 65.5927C153.19 66.2122 153.222 66.8453 153.249 67.492C153.33 69.2196 153.43 70.8612 153.556 72.3536C153.683 73.8459 153.837 75.1891 154.009 76.3106C154.181 77.4322 154.339 78.3321 154.461 78.9562C154.52 79.2592 154.57 79.4989 154.601 79.6707C154.601 79.7476 154.628 79.8109 154.637 79.8561C154.646 79.9014 154.651 79.9285 154.651 79.9285Z" fill="#263238"/>
<path d="M179.284 92.1345L182.45 60.1841L173.554 56.9235C173.554 56.9235 171.469 55.006 170.361 54.0156L169.968 59.0264C169.968 59.0264 168.765 79.5352 170.66 89.8643C172.555 100.193 172.288 99.8406 173.672 106.561C174.68 111.449 174.848 115.719 176.385 116.148C177.923 116.578 185.593 113.769 185.593 113.769L179.284 92.1345Z" fill="#65C098"/>
<path d="M182.445 60.1836C182.445 60.1836 185.927 61.5086 186.452 65.9903C186.836 69.3006 188.871 88.2086 186.741 90.5647C184.194 93.3033 181.408 95.8095 178.416 98.0537L173.441 91.5822L178.163 86.3906L180.826 63.4849L182.445 60.1836Z" fill="#65C098"/>
<path d="M172.573 78.8286C172.571 78.8076 172.571 78.7864 172.573 78.7653C172.573 78.7201 172.573 78.6613 172.605 78.5889C172.638 78.4261 172.683 78.2 172.74 77.9106C172.849 77.3227 173.012 76.468 173.161 75.4052C173.477 73.2797 173.749 70.3266 173.903 67.0524C173.939 66.2806 173.975 65.5269 174.011 64.7913C174.011 64.425 174.043 64.0677 174.061 63.7149L174.088 63.1949C174.088 63.109 174.088 63.023 174.088 62.9371V62.815C174.09 62.7955 174.09 62.7757 174.088 62.7562C174.1 62.76 174.112 62.76 174.124 62.7562H174.16H174.079L172.754 61.8201L172.677 61.7703L172.763 61.7296L174.21 61.0649L174.183 61.1191C174.056 60.5365 173.957 59.9479 173.889 59.3554C173.821 58.8308 173.758 58.3831 173.686 58.0213C173.613 57.6595 173.536 57.3791 173.482 57.1892L173.41 56.9767C173.41 56.9314 173.387 56.9043 173.41 56.9043C173.422 56.9261 173.432 56.9488 173.441 56.9721C173.441 57.0219 173.491 57.0897 173.523 57.1802C173.619 57.4504 173.696 57.7269 173.753 58.0078C173.835 58.3741 173.907 58.8218 173.984 59.3418C174.059 59.9316 174.163 60.5172 174.296 61.0965V61.1327H174.26L172.835 61.8427V61.7523L174.165 62.6793H174.079C174.092 62.668 174.107 62.6602 174.124 62.6567C174.139 62.6531 174.155 62.6531 174.169 62.6567C174.169 62.6567 174.169 62.6839 174.169 62.6974V62.8964C174.169 62.9823 174.169 63.0683 174.169 63.1542C174.169 63.326 174.169 63.4979 174.147 63.6743C174.147 64.027 174.115 64.3843 174.102 64.7506C174.065 65.4787 174.034 66.2339 173.998 67.0117C173.882 69.8107 173.62 72.6017 173.215 75.3736C173.052 76.4363 172.876 77.2865 172.763 77.8744C172.695 78.1593 172.645 78.3854 172.605 78.5482C172.587 78.6206 172.573 78.6794 172.564 78.7246C172.582 78.8105 172.578 78.8286 172.573 78.8286Z" fill="#263238"/>
<path d="M184.824 87.1554C184.824 87.1554 184.512 86.9473 183.978 86.7031C183.664 86.5509 183.337 86.4253 183.002 86.3278C182.589 86.2134 182.166 86.1377 181.74 86.1016C181.313 86.0744 180.885 86.0865 180.46 86.1378C180.113 86.1827 179.771 86.2583 179.438 86.3639C178.868 86.5403 178.533 86.7257 178.533 86.7031C178.602 86.6459 178.678 86.5987 178.76 86.5629C178.849 86.5141 178.941 86.4703 179.035 86.4318C179.159 86.3731 179.286 86.3218 179.415 86.278C179.752 86.1614 180.099 86.0766 180.451 86.0248C181.317 85.899 182.2 85.9654 183.038 86.2192C183.376 86.3235 183.705 86.4583 184.019 86.6217C184.141 86.6837 184.259 86.7532 184.372 86.8297C184.461 86.8817 184.547 86.9391 184.63 87.0016C184.7 87.0452 184.765 87.0967 184.824 87.1554Z" fill="#263238"/>
<g opacity="0.3">
<path d="M173.559 57.334C173.559 57.334 175.164 61.0785 174.916 61.4041C174.667 61.7297 173.848 61.9377 173.848 61.9377C173.848 61.9377 175.232 62.5392 175.232 63.0683C175.232 64.1266 173.744 70.3855 173.744 70.3855L174.111 62.7382L172.786 61.8337L174.233 61.1599L173.559 57.334Z" fill="black"/>
</g>
<path d="M179.962 67.877C179.974 67.964 179.974 68.0522 179.962 68.1393C179.962 68.3337 179.935 68.5915 179.917 68.8854C179.867 69.5683 179.795 70.4954 179.709 71.6305C179.506 73.9776 179.234 77.1613 178.931 80.6752C178.827 81.7696 178.732 82.8324 178.637 83.8408C178.589 84.3473 178.535 84.8403 178.475 85.3196C178.43 85.7882 178.349 86.2525 178.23 86.708L174.78 90.2942L173.803 91.2711C173.694 91.3944 173.573 91.5065 173.441 91.6057C173.535 91.4709 173.641 91.3453 173.758 91.2304L174.689 90.2083L178.054 86.6311V86.6673C178.16 86.221 178.234 85.7676 178.276 85.3106C178.33 84.8358 178.38 84.3428 178.429 83.8363C178.52 82.8233 178.615 81.7606 178.714 80.6707C179.044 77.1568 179.343 73.9731 179.56 71.626C179.677 70.4909 179.777 69.5638 179.845 68.8854C179.881 68.587 179.913 68.3382 179.935 68.1438C179.933 68.054 179.942 67.9644 179.962 67.877Z" fill="#263238"/>
<path d="M141.07 76.7539L137.62 84.4419L134.364 80.7924L130.018 83.8585L135.123 92.0485C136.729 94.1062 138.262 95.5081 140.007 95.2865C140.359 95.2381 140.704 95.1548 141.039 95.0378C143.435 94.2192 145.086 92.6093 145.71 90.1536L147.686 80.2452L141.07 76.7539Z" fill="#65C098"/>
<path d="M141.428 90.4835C141.398 90.3766 141.375 90.2678 141.36 90.1579C141.324 89.9499 141.26 89.6469 141.174 89.2761C141.088 88.9052 140.971 88.4711 140.817 87.9917C140.663 87.5124 140.469 86.9968 140.238 86.4677C140.008 85.9386 139.75 85.4456 139.506 85.007C139.261 84.5683 139.013 84.1884 138.8 83.8764C138.588 83.5643 138.402 83.3111 138.276 83.1438C138.205 83.0592 138.14 82.9701 138.081 82.877C138.162 82.9514 138.236 83.0332 138.303 83.1212C138.443 83.284 138.633 83.5282 138.854 83.8357C139.076 84.1432 139.307 84.5276 139.582 84.9618C139.856 85.4373 140.105 85.9264 140.329 86.427C140.559 86.9606 140.749 87.4852 140.903 87.9646C141.057 88.444 141.165 88.8691 141.242 89.2625C141.319 89.6559 141.369 89.9409 141.396 90.167C141.416 90.2714 141.426 90.3773 141.428 90.4835Z" fill="#263238"/>
<path d="M160.453 27.7891L160.426 27.9066C160.449 27.884 160.449 27.8298 160.453 27.7891Z" fill="#263238"/>
<path d="M152.091 49.908C152.15 48.6779 151.689 47.4885 151.3 46.3172C150.911 45.1459 150.59 43.8797 150.92 42.6993C151.336 41.207 152.679 40.1668 153.403 38.792C154.126 37.4172 154.181 35.7937 154.307 34.2426C154.434 32.6914 154.696 31.0453 155.727 29.874C157.03 28.3906 160.44 28.1238 162.059 29.268C162.307 38.0956 162.23 46.8373 160.34 55.4659C156.03 55.6513 153.846 54.8102 150.088 52.7028C151.286 52.445 152.032 51.1426 152.091 49.908Z" fill="#263238"/>
<path d="M170.574 55.5025L172.134 34.0666C172.157 33.5934 172.001 33.129 171.698 32.7648C171.395 32.4007 170.967 32.1633 170.497 32.0994L160.548 29.2819C157.346 28.8297 155.099 32.7461 154.805 35.9615C154.479 39.5341 154.221 43.9117 154.57 46.5935C155.27 51.9886 159.368 52.7891 159.368 52.7891C159.282 55.4482 159.313 55.5025 159.313 55.5025L163.705 59.5184L170.574 55.5025Z" fill="#FFBF9D"/>
<path d="M156.256 40.6286C156.249 40.808 156.312 40.9832 156.432 41.1167C156.552 41.2502 156.719 41.3315 156.899 41.3432C156.986 41.3525 157.075 41.3443 157.159 41.319C157.243 41.2936 157.321 41.2517 157.389 41.1957C157.457 41.1397 157.513 41.0706 157.554 40.9927C157.595 40.9147 157.619 40.8294 157.627 40.7417C157.633 40.5626 157.57 40.3881 157.45 40.2548C157.33 40.1216 157.163 40.0399 156.985 40.0272C156.897 40.0178 156.809 40.0261 156.724 40.0514C156.64 40.0767 156.562 40.1186 156.494 40.1747C156.426 40.2307 156.37 40.2997 156.329 40.3777C156.289 40.4556 156.264 40.541 156.256 40.6286Z" fill="#263238"/>
<path d="M155.682 38.286C155.763 38.3764 156.297 38.0056 157.039 38.0282C157.78 38.0508 158.314 38.4397 158.395 38.3493C158.477 38.2588 158.355 38.1458 158.124 37.9649C157.809 37.7342 157.43 37.6064 157.039 37.5986C156.654 37.5864 156.275 37.6973 155.958 37.9151C155.723 38.0644 155.65 38.2272 155.682 38.286Z" fill="#263238"/>
<path d="M162.578 40.76C162.571 40.9394 162.634 41.1145 162.754 41.2481C162.874 41.3816 163.041 41.4629 163.221 41.4745C163.308 41.4839 163.397 41.4756 163.481 41.4503C163.565 41.425 163.643 41.3831 163.711 41.327C163.779 41.271 163.835 41.202 163.876 41.124C163.917 41.046 163.941 40.9607 163.949 40.873C163.956 40.6937 163.893 40.5185 163.773 40.385C163.653 40.2515 163.486 40.1702 163.307 40.1585C163.219 40.1485 163.13 40.1563 163.046 40.1814C162.961 40.2065 162.883 40.2483 162.815 40.3045C162.747 40.3606 162.691 40.4299 162.65 40.5082C162.61 40.5864 162.585 40.6721 162.578 40.76Z" fill="#263238"/>
<path d="M162.963 38.6121C163.049 38.7026 163.583 38.3317 164.32 38.3544C165.057 38.377 165.595 38.7659 165.677 38.6754C165.758 38.585 165.636 38.4719 165.405 38.2956C165.09 38.0628 164.711 37.9333 164.32 37.9247C163.935 37.9126 163.556 38.0235 163.239 38.2413C163.008 38.4086 162.922 38.5714 162.963 38.6121Z" fill="#263238"/>
<path d="M160.118 44.0343C159.732 43.898 159.329 43.8128 158.92 43.7811C158.73 43.7584 158.554 43.7132 158.527 43.5821C158.515 43.3866 158.564 43.1922 158.667 43.0258C158.857 42.5736 159.06 42.1214 159.268 41.6013C160.105 39.5708 160.715 37.902 160.625 37.8658C160.534 37.8296 159.797 39.4532 158.961 41.4837C158.762 41.9812 158.567 42.4605 158.386 42.9173C158.259 43.1422 158.216 43.4051 158.264 43.659C158.291 43.7257 158.332 43.7857 158.384 43.8349C158.437 43.8841 158.499 43.9213 158.567 43.9439C158.672 43.9751 158.779 43.9934 158.888 43.9981C159.295 44.0599 159.708 44.072 160.118 44.0343Z" fill="#263238"/>
<path d="M159.359 52.7895C161.883 52.8974 164.387 52.3042 166.594 51.0755C166.915 50.3338 165.156 53.7572 159.318 54.1959L159.359 52.7895Z" fill="#FF9A6C"/>
<path d="M160.173 45.797C160.345 45.5558 160.575 45.3608 160.84 45.2291C161.106 45.0974 161.4 45.0331 161.697 45.0418C161.891 45.0502 162.08 45.1057 162.248 45.2034C162.415 45.3011 162.557 45.4381 162.66 45.6026C162.761 45.7882 162.81 45.9981 162.8 46.2094C162.791 46.4206 162.723 46.6252 162.606 46.801C162.466 46.9815 162.276 47.1159 162.059 47.1869C161.842 47.2578 161.609 47.262 161.389 47.199C160.981 47.0521 160.614 46.8103 160.317 46.4935C160.223 46.4153 160.146 46.3183 160.091 46.2086C160.064 46.148 160.054 46.0813 160.061 46.0154C160.068 45.9495 160.093 45.8866 160.132 45.8332" fill="#FF9A6C"/>
<path d="M162.285 44.6172C162.162 44.6172 162.14 45.4086 161.434 45.9739C160.729 46.5392 159.879 46.4261 159.865 46.5256C159.852 46.6251 160.055 46.6884 160.417 46.7065C160.887 46.726 161.35 46.5805 161.724 46.295C162.082 46.0181 162.319 45.6126 162.384 45.1644C162.434 44.8071 162.339 44.6172 162.285 44.6172Z" fill="#263238"/>
<path d="M162.723 35.572C162.791 35.7755 163.533 35.7031 164.401 35.8297C165.269 35.9564 165.966 36.2186 166.083 36.0423C166.138 35.9564 166.02 35.7619 165.744 35.5584C165.373 35.3114 164.948 35.1564 164.505 35.1062C164.062 35.0392 163.61 35.0779 163.185 35.2192C162.859 35.3006 162.696 35.4544 162.723 35.572Z" fill="#5F5E5E"/>
<path d="M156.017 35.7222C156.143 35.8941 156.659 35.7222 157.269 35.7222C157.88 35.7222 158.4 35.8669 158.527 35.6951C158.581 35.6092 158.504 35.4418 158.282 35.2745C157.985 35.0691 157.631 34.9616 157.269 34.967C156.908 34.9653 156.554 35.0741 156.256 35.279C156.035 35.469 155.962 35.6408 156.017 35.7222Z" fill="#263238"/>
<path d="M159.354 29.2408C160.259 27.0339 162.271 26.5681 164.41 26.3375C166.549 26.1069 169.724 26.9932 171.492 28.1464C172.963 29.0421 174.284 30.1621 175.409 31.4658C176.358 32.6914 176.765 34.0888 177.371 35.4998C178.276 37.6976 178.231 40.1261 178.357 42.4868C178.521 45.4527 178.996 48.3932 179.773 51.2601C180.053 52.2912 180.338 53.5213 178.868 54.1137C178.595 54.2196 178.309 54.2895 178.018 54.3218C175.757 54.5931 173.568 55.3303 171.049 55.4885H169.498C167.531 55.4885 166.522 54.2223 166.59 52.6168C166.794 47.7644 169.159 39.796 169.421 38.2674C169.435 38.2855 170.253 27.8118 159.354 29.2408Z" fill="#263238"/>
<path d="M160.064 29.1958C160.393 29.4697 160.662 29.8072 160.856 30.188C161.051 30.5689 161.166 30.9852 161.195 31.4117C161.312 32.2574 161.263 33.1257 161.421 33.9623C161.586 34.8031 161.952 35.5917 162.486 36.2615C163.021 36.9314 163.709 37.4628 164.492 37.8109C164.994 38.0234 165.676 38.1139 165.988 37.6661C165.97 38.2624 166.133 38.8502 166.456 39.3517C166.779 39.8533 167.247 40.2448 167.797 40.4745C168.593 40.7956 169.484 40.7413 170.321 40.9268C171.158 41.1122 172.035 41.6865 172.08 42.5458L172.433 36.5808L170.755 31.3077L165.6 28.2461L160.064 29.1958Z" fill="#263238"/>
<path d="M169.217 39.0288C169.044 38.9083 168.879 38.7753 168.724 38.6309C168.336 38.2012 168.057 37.6848 167.91 37.1249C167.704 36.2938 167.585 35.4436 167.553 34.5879C167.513 33.5323 167.39 32.4814 167.187 31.4449C166.979 30.3976 166.495 29.4249 165.785 28.6275C165.467 28.2856 165.084 28.0104 164.659 27.8179C164.287 27.6533 163.889 27.5553 163.483 27.5285C162.895 27.4811 162.308 27.6221 161.805 27.931C161.726 27.9762 161.652 28.0292 161.584 28.0893C161.529 28.1288 161.479 28.1743 161.434 28.225C161.394 28.2645 161.356 28.3068 161.321 28.3516C161.477 28.2071 161.645 28.0769 161.823 27.9627C162.324 27.6743 162.903 27.5479 163.478 27.6009C164.343 27.663 165.152 28.0528 165.74 28.6908C166.427 29.4814 166.895 30.439 167.096 31.4675C167.297 32.4985 167.421 33.543 167.467 34.5924C167.503 35.4555 167.631 36.3122 167.852 37.1476C168.006 37.7145 168.3 38.2338 168.706 38.658C168.854 38.8096 169.027 38.935 169.217 39.0288Z" fill="black"/>
<path d="M173.677 38.3084C173.407 38.2767 173.142 38.2098 172.89 38.1094C172.22 37.7851 171.651 37.2848 171.243 36.6622C170.949 36.2447 170.696 35.7994 170.488 35.3327C170.265 34.7896 170.124 34.2166 170.068 33.6323C169.991 33.0172 169.968 32.3615 169.896 31.6831C169.855 31.3485 169.81 31.0002 169.733 30.6565C169.651 30.3072 169.536 29.9664 169.389 29.639C168.81 28.3843 167.78 27.3931 166.504 26.8623C165.465 26.437 164.317 26.3593 163.23 26.6407C162.5 26.8207 161.816 27.152 161.222 27.613C161.005 27.78 160.805 27.9678 160.625 28.1738C160.641 28.1644 160.655 28.1521 160.666 28.1376L160.783 28.0336C160.833 27.9838 160.896 27.9251 160.973 27.8617C161.05 27.7984 161.141 27.717 161.249 27.6447C161.845 27.2006 162.525 26.8835 163.248 26.7131C164.319 26.4479 165.447 26.5302 166.468 26.9482C167.713 27.4728 168.719 28.4393 169.294 29.6616C169.436 29.9839 169.548 30.3184 169.629 30.6611C169.701 30.9973 169.755 31.3369 169.792 31.6786C169.864 32.3479 169.891 33.0036 169.968 33.6277C170.033 34.2199 170.185 34.7991 170.42 35.3462C170.633 35.8226 170.892 36.277 171.194 36.7029C171.615 37.3295 172.2 37.8285 172.885 38.1456C173.075 38.2173 173.272 38.2659 173.473 38.2903H173.631L173.677 38.3084Z" fill="#455A64"/>
<path d="M165.989 37.6677C165.989 37.6677 165.989 37.6677 165.989 37.7174C165.989 37.7671 165.989 37.8033 165.989 37.8621C165.989 37.9209 165.989 38.0114 166.02 38.1063C166.052 38.2013 166.061 38.3098 166.088 38.4319C166.161 38.7297 166.275 39.0158 166.427 39.2821C166.634 39.6362 166.911 39.9441 167.241 40.1866C168.156 40.7849 169.247 41.0544 170.335 40.9509C170.982 40.9192 171.625 40.8192 172.252 40.6524C172.936 40.481 173.594 40.2162 174.206 39.8655L174.328 39.7932H174.188C173.402 39.6822 172.638 39.4471 171.926 39.0967H171.886L171.854 39.1917C173.452 39.4493 175.09 39.1559 176.498 38.3596L176.593 38.3053L176.489 38.2736C175.496 37.9747 174.563 37.5016 173.735 36.8762C173.089 36.3835 172.591 35.7214 172.297 34.9633C172.127 34.4628 172.047 33.936 172.062 33.4076C172.062 33.2312 172.085 33.091 172.094 32.987V32.8604V32.8242C172.095 32.8363 172.095 32.8484 172.094 32.8604V32.9689C172.094 33.0684 172.067 33.2086 172.044 33.3895C172.018 33.9242 172.09 34.4591 172.257 34.9678C172.557 35.7481 173.071 36.4281 173.74 36.9305C174.574 37.5649 175.514 38.0471 176.517 38.3551V38.2691C175.125 39.0497 173.511 39.3366 171.935 39.0831L171.587 39.0244L171.904 39.1781H171.944C172.657 39.5305 173.42 39.7685 174.206 39.8836V39.7886C173.6 40.1346 172.95 40.3977 172.275 40.571C171.655 40.7381 171.02 40.8381 170.38 40.8695C169.311 40.9776 168.236 40.721 167.332 40.1414C167.002 39.8994 166.726 39.5914 166.522 39.2369C166.371 38.9735 166.252 38.6925 166.169 38.4003C166.142 38.2782 166.115 38.1742 166.097 38.0792C166.079 37.9842 166.07 37.9028 166.056 37.8395C166.043 37.7762 166.056 37.731 166.034 37.6948C166.02 37.6844 166.004 37.6753 165.989 37.6677Z" fill="#455A64"/>
<path d="M177.014 52.3456C177.041 52.3456 176.715 49.4694 176.286 45.9329C175.856 42.3965 175.481 39.5293 175.454 39.5293C175.427 39.5293 175.752 42.4055 176.182 45.942C176.611 49.4785 176.982 52.3456 177.014 52.3456Z" fill="#455A64"/>
<path d="M166.124 92.9308C165.698 92.8429 165.259 92.8445 164.834 92.9356C164.409 93.0267 164.007 93.2053 163.655 93.4599C162.533 94.283 160.611 95.3774 158.68 94.9975C155.682 94.4051 154.054 91.5922 154.723 88.214C155.393 84.8358 157.957 82.8188 160.96 83.4112C162.9 83.7911 164.265 85.5277 164.993 86.7171C165.224 87.0844 165.528 87.4003 165.886 87.6454C166.244 87.8904 166.648 88.0593 167.074 88.1416C167.485 88.2225 167.908 88.2217 168.318 88.1391C168.729 88.0565 169.119 87.8938 169.467 87.6603C169.815 87.4268 170.113 87.127 170.345 86.7782C170.577 86.4293 170.738 86.0382 170.818 85.6272L174.147 65.6113L142.798 60.1347L121.371 56.4219L118.024 75.4157C117.685 77.1433 119.137 78.6763 120.864 79.0336C121.29 79.1208 121.729 79.1183 122.153 79.0264C122.577 78.9346 122.978 78.7553 123.329 78.5C124.451 77.6769 126.377 76.5825 128.304 76.9624C131.306 77.5548 132.935 80.3677 132.265 83.7685C131.596 87.1693 129.027 89.1637 126.024 88.5712C124.089 88.1914 122.719 86.4548 121.99 85.2654C121.76 84.8973 121.457 84.5804 121.099 84.3346C120.741 84.0887 120.336 83.9191 119.91 83.8363C119.499 83.753 119.076 83.7521 118.665 83.8337C118.253 83.9153 117.862 84.0777 117.514 84.3117C117.167 84.5456 116.869 84.8463 116.638 85.1963C116.407 85.5464 116.248 85.9388 116.17 86.3508L112.154 108.718L143.684 114.267L162.181 117.523L164.442 117.926L168.625 96.7024C168.713 96.2902 168.718 95.8646 168.64 95.4504C168.561 95.0363 168.401 94.642 168.168 94.2906C167.935 93.9393 167.634 93.6381 167.283 93.4046C166.932 93.171 166.538 93.01 166.124 92.9308Z" fill="#455A64"/>
<path d="M134.897 80.2178C134.902 80.1048 134.883 79.992 134.841 79.8868C134.8 79.7815 134.737 79.686 134.656 79.6065C134.576 79.5269 134.48 79.465 134.374 79.4246C134.268 79.3843 134.155 79.3664 134.042 79.3721C133.78 79.3721 133.441 79.4038 133.025 79.4445C131.944 79.553 128.747 81.1268 128.661 81.7599C128.603 81.9866 128.604 82.2243 128.665 82.4502C128.726 82.676 128.845 82.8822 129.009 83.0488C129.009 83.0488 128.385 83.8764 128.611 84.5638C128.81 85.1472 129.751 85.3507 129.751 85.3507C129.751 85.3507 129.054 86.1602 129.751 86.739C130 86.938 130.501 87.3224 130.615 87.4536C130.66 87.627 130.727 87.7941 130.814 87.951C130.97 88.1714 131.173 88.3557 131.407 88.4914C131.641 88.6272 131.901 88.7112 132.17 88.7379H132.351C132.698 88.7722 133.044 88.6718 133.319 88.4575C134.567 87.5033 138.104 84.7356 138.171 83.9668C138.171 83.9668 138.845 83.4423 138.583 82.895C138.321 82.3478 137.312 82.583 137.312 82.583C137.449 82.4728 137.548 82.3218 137.593 82.1519C137.639 81.9819 137.629 81.8018 137.565 81.6378C137.335 81.059 135.548 81.1087 134.739 81.2173C134.092 81.2987 132.292 81.5926 132.292 81.5926C132.292 81.5926 134.689 80.7695 134.829 80.3625C134.858 80.3175 134.881 80.2688 134.897 80.2178Z" fill="#FFBF9D"/>
<path d="M138.208 83.9844C138.132 84.0413 138.052 84.0913 137.968 84.1336C137.81 84.2195 137.579 84.3416 137.285 84.4864C136.706 84.7758 135.883 85.1376 134.961 85.4948C134.038 85.8521 133.183 86.137 132.564 86.336C132.256 86.4355 132.008 86.5078 131.831 86.5621C131.742 86.591 131.652 86.6137 131.56 86.6299C131.645 86.589 131.732 86.5542 131.822 86.5259L132.546 86.2772C133.161 86.0647 134.002 85.7662 134.929 85.4134C135.856 85.0607 136.67 84.7034 137.258 84.4321L137.954 84.102C138.036 84.0572 138.121 84.0179 138.208 83.9844Z" fill="#FF9A6C"/>
<path d="M137.457 82.5781C137.372 82.6075 137.284 82.6272 137.195 82.6369C137.027 82.6686 136.783 82.7138 136.48 82.7816C135.879 82.9128 135.06 83.1389 134.165 83.4238C133.712 83.564 133.287 83.6906 132.903 83.8218C132.519 83.9529 132.179 84.0976 131.899 84.2152C131.619 84.3328 131.392 84.4459 131.234 84.5182C131.157 84.5623 131.075 84.5987 130.99 84.6267L131.049 84.586L131.221 84.4866C131.37 84.4052 131.591 84.2876 131.872 84.1609C132.152 84.0343 132.491 83.8851 132.876 83.7449C133.26 83.6047 133.69 83.4781 134.138 83.3379C134.904 83.0909 135.683 82.8841 136.471 82.7183C136.77 82.6595 137.018 82.6233 137.19 82.6007L137.457 82.5781Z" fill="#FF9A6C"/>
<path d="M132.329 81.6094C132.208 81.6907 132.079 81.759 131.944 81.8129C131.7 81.9259 131.356 82.0707 130.976 82.2289C130.596 82.3872 130.262 82.5365 130.018 82.6495C129.889 82.7167 129.756 82.7756 129.62 82.8259C129.733 82.7336 129.858 82.6561 129.99 82.5952C130.299 82.4258 130.618 82.2748 130.945 82.143C131.325 81.9847 131.668 81.8491 131.917 81.7496C132.05 81.691 132.188 81.6441 132.329 81.6094Z" fill="#FF9A6C"/>
<path d="M137.082 85.3867C137.034 85.4551 136.979 85.5187 136.919 85.5767C136.806 85.6897 136.639 85.8525 136.426 86.0289C136.001 86.4223 135.386 86.9334 134.717 87.4896C134.554 87.6298 134.395 87.779 134.228 87.9057C134.073 88.0321 133.91 88.1484 133.74 88.2539C133.452 88.4376 133.138 88.575 132.808 88.6609C132.586 88.7209 132.355 88.7408 132.125 88.7197C132.063 88.717 132.001 88.7094 131.94 88.6971H131.876C131.959 88.692 132.042 88.692 132.125 88.6971C132.35 88.7024 132.575 88.6719 132.79 88.6066C133.11 88.5152 133.415 88.3765 133.694 88.1951C133.861 88.088 134.021 87.9717 134.174 87.8469C134.337 87.7203 134.49 87.5755 134.658 87.4308C135.327 86.861 135.951 86.3681 136.385 85.9927L136.892 85.5405C136.951 85.4848 137.015 85.4334 137.082 85.3867Z" fill="#FF9A6C"/>
<path d="M172.541 92.8528C172.541 92.8528 171.42 91.6499 170.475 91.4554C169.529 91.261 168.213 91.4283 167.992 91.2655C167.77 91.1027 167.273 90.4605 166.825 90.8585C166.377 91.2565 165.654 92.8438 167.567 93.6216L168.923 93.8432C168.744 94.4829 168.472 95.0925 168.114 95.6522C167.698 96.1361 162.104 101.228 162.104 101.228C162.104 101.228 161.43 101.717 161.624 102.345C161.819 102.974 163.117 102.843 163.117 102.843C163.333 103.105 163.613 103.308 163.929 103.433C164.245 103.558 164.588 103.601 164.926 103.557C165.448 103.465 165.958 103.313 166.445 103.105C166.727 103.403 167.098 103.6 167.503 103.666C167.907 103.732 168.322 103.664 168.684 103.471C169.986 102.788 175.54 97.8319 175.54 97.8319L174.142 92.9071L172.541 92.8528Z" fill="#FFBF9D"/>
<path d="M173.839 91.8848L172.447 92.8571C174.174 94.5982 175.486 96.1448 175.128 98.2341L177.815 97.1442C177.815 97.1442 178.045 92.9656 173.839 91.8848Z" fill="#FFBF9D"/>
<path d="M167.336 100.071C166.81 100.732 166.168 101.293 165.441 101.726C164.758 102.221 163.993 102.59 163.18 102.816C163.153 102.748 164.171 102.287 165.315 101.527C166.459 100.767 167.287 100.021 167.336 100.071Z" fill="#FF9A6C"/>
<path d="M169.285 101.148C168.929 101.704 168.465 102.185 167.922 102.561C167.378 102.938 166.766 103.203 166.12 103.341C166.097 103.273 166.911 102.975 167.779 102.364C168.648 101.754 169.217 101.112 169.285 101.148Z" fill="#FF9A6C"/>
<path d="M89.4751 67.1289L91.1755 66.1113L93.4141 72.1441L91.6006 73.2657L89.4751 67.1289Z" fill="#14BA6D"/>
<path d="M59.6907 28.2201C59.5939 25.882 58.621 23.6658 56.9655 22.012C55.3099 20.3581 53.0928 19.3875 50.7546 19.293H50.2752C45.0564 19.3789 42.2209 23.8605 42.4515 29.0703L43.1118 50.054L51.356 53.2196L54.5443 50.2891C54.5443 48.8194 54.5443 45.7668 54.576 45.7668C54.6076 45.7668 59.6093 45.197 59.8762 40.1998C60.0073 37.7351 59.8671 32.7379 59.6907 28.2201Z" fill="#FFBF9D"/>
<path d="M54.5759 45.7168C52.2649 45.6179 50.031 44.8565 48.1406 43.5234C48.1406 43.5234 49.5516 47.3493 54.5624 47.1051L54.5759 45.7168Z" fill="#FF9A6C"/>
<path d="M57.968 32.5337C57.9633 32.7205 57.8851 32.8978 57.7505 33.0273C57.6159 33.1568 57.4357 33.2281 57.2489 33.2257C57.1578 33.2299 57.0668 33.2157 56.9813 33.1838C56.8959 33.1518 56.8178 33.1029 56.7519 33.0399C56.6859 32.9769 56.6334 32.9011 56.5976 32.8172C56.5618 32.7333 56.5434 32.6431 56.5435 32.5518C56.5482 32.3659 56.6257 32.1892 56.7593 32.0598C56.8929 31.9305 57.072 31.8587 57.258 31.8599C57.3492 31.8563 57.4401 31.871 57.5256 31.9031C57.611 31.9352 57.6891 31.9841 57.7553 32.0469C57.8214 32.1097 57.8744 32.1852 57.9109 32.2688C57.9474 32.3524 57.9669 32.4425 57.968 32.5337Z" fill="#263238"/>
<path d="M58.5376 30.3861C58.4426 30.4766 57.918 30.0515 57.1492 30.0243C56.3804 29.9972 55.7925 30.3545 55.7247 30.255C55.6568 30.1555 55.7835 30.0469 56.0367 29.8796C56.3775 29.6625 56.7773 29.5566 57.1809 29.5766C57.5812 29.5918 57.9662 29.7344 58.2798 29.9836C58.5104 30.1736 58.5828 30.3454 58.5376 30.3861Z" fill="#263238"/>
<path d="M51.2836 32.5337C51.2777 32.7201 51.1992 32.8967 51.0648 33.026C50.9305 33.1553 50.7509 33.2269 50.5645 33.2257C50.4733 33.2293 50.3823 33.2146 50.2969 33.1825C50.2115 33.1504 50.1334 33.1015 50.0672 33.0387C50.001 32.9758 49.9481 32.9004 49.9116 32.8168C49.875 32.7332 49.8556 32.6431 49.8545 32.5518C49.8615 32.3659 49.9404 32.1899 50.0745 32.0608C50.2086 31.9318 50.3874 31.8598 50.5735 31.8599C50.6647 31.8563 50.7557 31.871 50.8411 31.9031C50.9265 31.9352 51.0046 31.9841 51.0708 32.0469C51.137 32.1097 51.1899 32.1852 51.2265 32.2688C51.263 32.3524 51.2824 32.4425 51.2836 32.5337Z" fill="#263238"/>
<path d="M50.9943 30.2553C50.9039 30.3412 50.3793 29.9206 49.6105 29.889C48.8417 29.8573 48.2538 30.2236 48.1814 30.1241C48.109 30.0246 48.2402 29.9161 48.4934 29.7488C48.8358 29.5315 49.2371 29.4257 49.6421 29.4458C50.0412 29.4633 50.4251 29.6039 50.7411 29.8483C50.9672 30.0427 51.0395 30.2146 50.9943 30.2553Z" fill="#263238"/>
<path d="M53.5089 36.2737C53.9187 36.1615 54.3412 36.1022 54.7661 36.0974C54.9651 36.0974 55.1505 36.0566 55.1912 35.921C55.2144 35.72 55.1765 35.5168 55.0827 35.3376C54.9199 34.8537 54.7435 34.3472 54.5626 33.8181C53.8436 31.6564 53.3325 29.8836 53.423 29.852C53.5134 29.8203 54.1601 31.5524 54.8792 33.7141C55.051 34.2477 55.2183 34.7542 55.3721 35.2426C55.4883 35.4833 55.514 35.7579 55.4445 36.016C55.4126 36.0838 55.366 36.1438 55.3082 36.1915C55.2503 36.2392 55.1825 36.2735 55.1098 36.2918C54.9997 36.3143 54.8875 36.325 54.7752 36.3235C54.3526 36.358 53.9274 36.3413 53.5089 36.2737Z" fill="#263238"/>
<path d="M51.3425 27.8583C51.2295 28.0528 50.4923 27.8131 49.5879 27.7588C48.6834 27.7046 47.9146 27.8086 47.8332 27.6051C47.797 27.5056 47.9553 27.3337 48.2854 27.189C48.7163 27.0157 49.1811 26.9431 49.6443 26.9768C50.1075 27.0105 50.5569 27.1496 50.9581 27.3835C51.2611 27.578 51.3923 27.7679 51.3425 27.8583Z" fill="#263238"/>
<path d="M58.6642 28.1296C58.5014 28.297 57.8819 28.1025 57.1266 28.0709C56.3714 28.0392 55.7338 28.1523 55.5936 27.9668C55.5302 27.8764 55.6343 27.7045 55.9192 27.5463C56.3089 27.357 56.7403 27.2697 57.173 27.2927C57.6056 27.3156 58.0254 27.448 58.3929 27.6774C58.6552 27.8854 58.7366 28.0437 58.6642 28.1296Z" fill="#263238"/>
<path d="M42.7094 32.7512C42.6235 32.7105 39.3131 31.5935 39.2815 35.0124C39.2498 38.4313 42.6913 37.762 42.7004 37.6625C42.7094 37.563 42.7094 32.7512 42.7094 32.7512Z" fill="#FFBF9D"/>
<path d="M41.6875 36.3608C41.6875 36.3608 41.6287 36.4015 41.5292 36.4467C41.4577 36.477 41.3808 36.4927 41.3031 36.4927C41.2254 36.4927 41.1485 36.477 41.077 36.4467C40.8568 36.3051 40.6786 36.1071 40.5609 35.8732C40.4432 35.6394 40.3903 35.3783 40.4077 35.1171C40.4012 34.8245 40.4599 34.5341 40.5795 34.2669C40.6136 34.1611 40.6724 34.0649 40.7511 33.9862C40.8297 33.9076 40.9259 33.8488 41.0318 33.8147C41.1002 33.7986 41.1721 33.8064 41.2354 33.8368C41.2988 33.8673 41.3498 33.9185 41.38 33.982C41.4252 34.0815 41.38 34.1493 41.4207 34.1539C41.4614 34.1584 41.4931 34.0951 41.4704 33.9549C41.4513 33.8692 41.4035 33.7925 41.3348 33.7378C41.242 33.6667 41.1253 33.6343 41.0092 33.6474C40.8677 33.674 40.7355 33.7367 40.6254 33.8294C40.5153 33.9221 40.431 34.0417 40.3806 34.1765C40.2315 34.4705 40.157 34.7966 40.1635 35.1262C40.1635 35.8181 40.5253 36.4829 41.0182 36.614C41.11 36.6414 41.2069 36.648 41.3015 36.6331C41.3962 36.6182 41.4864 36.5824 41.5654 36.5281C41.6604 36.4422 41.6875 36.3698 41.6875 36.3608Z" fill="#FF9A6C"/>
<path d="M51.0939 36.7481C51.2114 36.7481 51.216 37.526 51.8943 38.1048C52.5727 38.6837 53.4048 38.5571 53.4093 38.6792C53.4138 38.8013 53.2239 38.8329 52.8711 38.842C52.4088 38.8462 51.96 38.6859 51.6049 38.3897C51.2611 38.1121 51.0388 37.7114 50.9853 37.2727C50.9537 36.929 51.0396 36.7436 51.0939 36.7481Z" fill="#263238"/>
<path d="M66.601 23.715C66.5402 23.5207 66.4054 23.3582 66.2256 23.2627C65.8282 23.0752 65.3879 22.9972 64.9503 23.0366C63.8593 23.0056 62.7901 22.724 61.8254 22.2136C62.1654 22.052 62.4782 21.8384 62.7524 21.5804C63.0477 21.3158 63.264 20.9747 63.3773 20.5947C63.4907 20.2148 63.4967 19.8109 63.3946 19.4278C63.381 19.3556 63.35 19.2878 63.3043 19.2303C63.2586 19.1728 63.1996 19.1272 63.1323 19.0977C62.9107 19.0253 62.7117 19.2424 62.5535 19.4142C62.3528 19.6798 62.0846 19.8866 61.7767 20.0131C61.4689 20.1396 61.1327 20.1811 60.8033 20.1333C60.3474 20.0981 59.9053 19.9606 59.5099 19.7308C59.4925 19.7165 59.4773 19.6997 59.4647 19.681L58.9491 19.1474C57.6738 17.854 56.5749 16.9586 55.4398 16.4837C53.7756 15.7918 50.9853 15.4888 49.2351 15.9275C47.485 16.3662 45.9067 17.7364 45.6444 19.5454C44.6766 18.7042 43.2068 18.6952 42.0265 19.161H41.9948C40.6653 19.6132 39.8965 21.0106 39.4894 22.3583C39.4894 22.4306 39.4487 22.5075 39.4261 22.5799C38.9702 23.291 38.3497 23.882 37.6172 24.3029C37.4906 24.3752 37.3413 24.4657 37.3232 24.6149C37.3297 24.6876 37.3536 24.7576 37.393 24.8191C37.4324 24.8805 37.486 24.9315 37.5494 24.9677C37.868 25.1943 38.2322 25.3486 38.6166 25.4199C38.4916 25.7336 38.3403 26.0361 38.1644 26.3244C38.0152 26.5776 37.8343 26.8806 37.9609 27.1429C38.014 27.2423 38.0961 27.3232 38.1963 27.3749C38.2964 27.4265 38.4099 27.4466 38.5217 27.4323C38.7447 27.3858 38.9557 27.2934 39.1412 27.161L38.689 28.2192C39.1697 28.3037 39.6635 28.2758 40.1316 28.1378C40.3984 29.4041 40.5839 31.7557 40.9004 32.6104C41.8049 32.6376 42.031 32.5426 42.4878 32.6964C43.0802 32.8999 42.8405 33.949 43.6138 33.6596C44.0073 33.5104 44.6314 32.0316 44.767 31.6291C45.671 28.973 45.9948 26.1541 45.7167 23.3622C46.2764 22.7906 46.9393 22.3303 47.6704 22.0055L47.6116 22.0598C49.018 21.6076 50.6054 21.1282 51.9259 21.7975C52.9525 22.3221 53.5449 23.3984 54.3047 24.2577C54.9451 25.044 55.7451 25.6855 56.6517 26.14C57.5583 26.5945 58.5509 26.8515 59.5642 26.8942C59.7451 28.4046 59.7722 30.8784 59.831 32.2893L61.0701 29.481C61.1696 29.3136 61.251 29.1463 61.3324 28.9835L61.3596 28.9338C61.4801 28.6618 61.6144 28.3961 61.762 28.1378C61.928 28.2512 62.1269 28.3061 62.3275 28.2938C62.5281 28.2816 62.7189 28.2029 62.8697 28.0701C63.0206 27.9374 63.123 27.7582 63.1607 27.5608C63.1984 27.3635 63.1693 27.1591 63.078 26.9801C62.962 26.8086 62.8201 26.6561 62.6575 26.5279C62.828 26.6979 63.0398 26.8207 63.2721 26.8841C63.5044 26.9475 63.7492 26.9495 63.9825 26.8897C64.2105 26.8187 64.4091 26.6751 64.5479 26.4808C64.6867 26.2865 64.7582 26.0521 64.7513 25.8133C64.7354 25.6508 64.6768 25.4954 64.5815 25.3628C64.4862 25.2301 64.3576 25.125 64.2086 25.0581C64.8351 25.117 65.4648 24.9879 66.0176 24.6873C66.3658 24.4883 66.7185 24.1627 66.601 23.715Z" fill="#263238"/>
<path d="M47.2138 20.1387C47.0331 20.2756 46.8637 20.4268 46.7073 20.5909C46.3063 21.0653 46.0351 21.6356 45.9204 22.2461C45.8278 22.6634 45.7793 23.0894 45.7757 23.5169C45.7757 23.9691 45.8028 24.4756 45.83 24.9957C45.8642 25.5423 45.8642 26.0906 45.83 26.6373C45.8115 26.9294 45.7707 27.2197 45.7079 27.5056C45.6595 27.8104 45.5351 28.0982 45.3461 28.3422C45.2579 28.4389 45.146 28.511 45.0216 28.5514C44.8971 28.5918 44.7643 28.5992 44.6361 28.5728C44.3912 28.5218 44.1693 28.3933 44.0029 28.2065C43.7431 27.8267 43.5872 27.3855 43.5507 26.9267H43.6592C43.5036 27.3023 43.2933 27.6528 43.0352 27.9669C42.788 28.2611 42.4361 28.4477 42.0538 28.4869C41.8766 28.5019 41.6985 28.4691 41.5383 28.392C41.393 28.3108 41.2738 28.19 41.1946 28.0437C41.1184 27.9056 41.0824 27.749 41.0905 27.5915C41.0993 27.4463 41.1585 27.3088 41.2579 27.2026L41.3076 27.2523C41.0063 27.5915 40.6364 27.8628 40.2223 28.0483C40.0821 28.1116 39.9645 28.1477 39.8876 28.1749C39.8492 28.187 39.8099 28.196 39.77 28.202L39.8831 28.1523C39.9554 28.1251 40.0685 28.0799 40.2087 28.0121C40.6086 27.8164 40.9653 27.5427 41.2579 27.2071L41.3076 27.2523C41.2232 27.3566 41.1738 27.4849 41.1665 27.6188C41.1592 27.7528 41.1943 27.8857 41.2669 27.9985C41.3397 28.1285 41.4479 28.2351 41.579 28.306C41.7202 28.3716 41.876 28.3997 42.0312 28.3874C42.3843 28.3438 42.7077 28.1676 42.9357 27.8945C43.1839 27.5851 43.3851 27.2407 43.5326 26.8724L43.6095 26.7142L43.6412 26.886C43.6807 27.3274 43.8367 27.7503 44.0934 28.1116C44.2414 28.2787 44.4399 28.393 44.6587 28.4372C44.7679 28.4607 44.8813 28.4551 44.9877 28.421C45.094 28.3868 45.1895 28.3254 45.2647 28.2427C45.4411 28.0147 45.5563 27.7454 45.5993 27.4603C45.6599 27.1817 45.7007 26.8991 45.7214 26.6147C45.7556 26.071 45.7556 25.5258 45.7214 24.9821C45.6943 24.462 45.6672 23.9646 45.6807 23.4988C45.6885 23.0648 45.7416 22.6329 45.839 22.2099C45.9636 21.5969 46.2474 21.0276 46.6621 20.5593C46.8196 20.3875 47.0064 20.2451 47.2138 20.1387Z" fill="#455A64"/>
<path d="M62.662 25.1712L62.6213 25.2028L62.4947 25.2933C62.4264 25.3425 62.3555 25.3878 62.2821 25.429C62.1824 25.4856 62.0798 25.5369 61.9746 25.5827C61.3001 25.8813 60.5615 26.0057 59.8265 25.9445C58.7323 25.862 57.6858 25.4629 56.8146 24.7958C55.7626 23.9726 54.89 22.9431 54.2504 21.7704C53.8932 21.1599 53.5992 20.5358 53.2826 19.9614C52.9889 19.3996 52.6175 18.8819 52.1792 18.4238C51.7851 18.0065 51.292 17.6954 50.7456 17.5194C50.4988 17.4486 50.2425 17.4166 49.9858 17.4244C49.7476 17.4351 49.5118 17.4777 49.2849 17.551C48.8949 17.6811 48.5362 17.8905 48.2312 18.1661C48.0028 18.3761 47.8103 18.622 47.6613 18.8942C47.5396 19.1315 47.4499 19.3839 47.3945 19.6449C47.3945 19.6449 47.3945 19.6449 47.3945 19.5906C47.3945 19.5363 47.3945 19.5002 47.4171 19.4368C47.4607 19.2412 47.5275 19.0514 47.6161 18.8715C47.7621 18.5908 47.9548 18.337 48.1859 18.1208C48.4941 17.8349 48.8594 17.6175 49.2577 17.4832C49.4919 17.4065 49.7352 17.3608 49.9813 17.3475C50.2485 17.3374 50.5155 17.3695 50.7727 17.4425C51.3348 17.6156 51.8448 17.9265 52.2561 18.347C52.7032 18.8112 53.0823 19.3365 53.3821 19.9072C53.7077 20.486 53.9972 21.1101 54.3499 21.7161C54.9848 22.875 55.8442 23.8958 56.8779 24.7189C57.7316 25.378 58.7566 25.7783 59.831 25.8721C60.555 25.9375 61.2841 25.8274 61.9565 25.5511C62.1985 25.4375 62.434 25.3107 62.662 25.1712Z" fill="#455A64"/>
<path d="M63.1414 22.9917C63.1414 22.9917 63.0826 23.0414 62.9605 23.1138C62.7898 23.2164 62.6114 23.3056 62.4269 23.3806C62.1528 23.4928 61.87 23.582 61.5812 23.6474C61.2252 23.7214 60.8637 23.7652 60.5003 23.7786C60.1368 23.7814 59.7736 23.7526 59.415 23.6927C59.1239 23.6387 58.838 23.56 58.5603 23.4575C58.3736 23.3913 58.1922 23.3112 58.0176 23.2178C57.949 23.1878 57.885 23.1482 57.8276 23.1002C57.8276 23.1002 58.1125 23.2268 58.5874 23.3806C58.8653 23.4694 59.1495 23.5375 59.4376 23.5841C59.7891 23.6388 60.1446 23.6646 60.5003 23.661C60.8559 23.6503 61.2099 23.6094 61.5586 23.5389C61.8428 23.4809 62.1224 23.4023 62.3952 23.3037C62.861 23.1274 63.1324 22.9736 63.1414 22.9917Z" fill="#455A64"/>
<path d="M57.6966 179.836L57.769 189.536C57.769 189.536 67.6503 192.702 67.8403 194.511L49.0363 195.325L48.3037 180.216L57.6966 179.836Z" fill="#263238"/>
<path d="M51.9171 188.985C51.7382 189.049 51.589 189.176 51.4981 189.343C51.4072 189.51 51.3809 189.705 51.4241 189.89C51.4808 190.074 51.6068 190.229 51.7756 190.321C51.9445 190.414 52.1428 190.438 52.3286 190.387C52.5176 190.32 52.6752 190.186 52.7712 190.009C52.8672 189.833 52.8948 189.628 52.8487 189.433C52.7715 189.249 52.6258 189.103 52.4425 189.025C52.2592 188.948 52.0529 188.945 51.8673 189.017" fill="#5F5E5E"/>
<path d="M49.0361 195.338V193.814L67.0713 193.602C67.0713 193.602 67.9215 193.932 67.8536 194.506L49.0361 195.338Z" fill="#455A64"/>
<path d="M58.0672 189.442C58.0672 189.532 57.6149 189.595 57.1627 189.894C56.7105 190.192 56.5024 190.604 56.4165 190.572C56.3306 190.54 56.4436 190.002 56.9818 189.631C57.52 189.261 58.0853 189.356 58.0672 189.442Z" fill="black"/>
<path d="M60.075 190.169C60.1021 190.259 59.7087 190.431 59.4147 190.834C59.1208 191.236 59.0484 191.648 58.9625 191.648C58.8766 191.648 58.7906 191.132 59.1705 190.639C59.5504 190.146 60.0705 190.083 60.075 190.169Z" fill="black"/>
<path d="M61.2964 192.497C61.215 192.52 61.0703 192.067 61.2964 191.556C61.5225 191.045 61.9296 190.824 61.9748 190.896C62.02 190.969 61.7622 191.253 61.5904 191.679C61.4185 192.104 61.3914 192.465 61.2964 192.497Z" fill="black"/>
<path d="M57.8049 187.23C57.7732 187.316 57.3526 187.207 56.828 187.266C56.3034 187.325 55.9236 187.506 55.8602 187.429C55.7969 187.352 56.1859 187.008 56.7964 186.945C57.4069 186.882 57.8501 187.157 57.8049 187.23Z" fill="black"/>
<path d="M35.8944 181.912L34.8723 193.607L36.7355 203.104C36.7672 203.266 36.7652 203.432 36.7298 203.593C36.6943 203.754 36.6261 203.906 36.5294 204.04C36.4327 204.174 36.3096 204.286 36.1677 204.37C36.0257 204.454 35.8681 204.508 35.7044 204.528C35.514 204.553 35.3205 204.531 35.1403 204.465C34.9601 204.399 34.7984 204.29 34.6688 204.148C32.9955 202.34 26.8587 195.556 26.9808 194.71C27.121 193.724 27.2341 182.31 27.2341 182.31L35.8944 181.912Z" fill="#263238"/>
<path d="M35.7041 204.509L27.0303 193.904L26.9986 194.397C26.9701 194.826 27.0952 195.251 27.3514 195.596C28.0387 196.5 29.9924 199.024 34.6369 204.129C34.7694 204.276 34.9363 204.388 35.1226 204.454C35.3089 204.52 35.5087 204.539 35.7041 204.509Z" fill="#455A64"/>
<g opacity="0.6">
<path d="M29.676 190.278C29.8134 190.393 29.9033 190.555 29.9283 190.733C29.9534 190.911 29.9118 191.092 29.8117 191.241C29.7022 191.382 29.5426 191.476 29.3658 191.503C29.189 191.53 29.0086 191.488 28.862 191.386C28.7173 191.263 28.6229 191.091 28.597 190.904C28.5712 190.716 28.6156 190.525 28.7218 190.368C28.8507 190.231 29.0279 190.151 29.2155 190.143C29.4031 190.136 29.5862 190.202 29.7258 190.327" fill="black"/>
</g>
<path d="M33.3573 199.219C33.6647 198.871 34.0363 198.585 34.4517 198.378C34.8886 198.234 35.3493 198.175 35.8084 198.206C35.8084 198.174 35.6772 198.075 35.4059 198.021C35.0478 197.955 34.6783 197.996 34.3431 198.138C34.0026 198.28 33.7126 198.521 33.511 198.83C33.3573 199.038 33.3256 199.21 33.3573 199.219Z" fill="black"/>
<path d="M34.0896 200.843C34.4378 200.671 34.7956 200.52 35.1614 200.391C35.5442 200.346 35.9292 200.322 36.3146 200.318C36.1415 200.194 35.9411 200.113 35.7301 200.082C35.5192 200.052 35.304 200.072 35.1026 200.142C34.3971 200.314 34.0308 200.807 34.0896 200.843Z" fill="black"/>
<path d="M31.9326 197.11C32.4502 196.808 32.9899 196.544 33.5471 196.323C34.1268 196.181 34.7164 196.083 35.3108 196.029C34.7046 195.871 34.0657 195.888 33.469 196.079C32.8722 196.271 32.3425 196.628 31.9417 197.11H31.9326Z" fill="black"/>
<path d="M31.9463 193.529C31.9734 193.601 32.6382 193.375 33.4794 193.398C34.3205 193.421 34.9763 193.665 35.0079 193.597C34.5703 193.269 34.0296 193.108 33.4839 193.145C32.9422 193.09 32.3984 193.226 31.9463 193.529Z" fill="black"/>
<path d="M32.1587 190.093C32.6781 189.958 33.2141 189.897 33.7506 189.912C34.28 190.005 34.7943 190.169 35.2791 190.401C35.2791 190.378 35.1796 190.22 34.9219 190.048C34.5766 189.829 34.1846 189.694 33.7777 189.655C33.3709 189.612 32.9599 189.668 32.5793 189.817C32.2898 189.935 32.1406 190.066 32.1587 190.093Z" fill="black"/>
<path d="M33.7732 189.257C33.8194 189.111 33.8348 188.957 33.8184 188.804C33.8047 188.395 33.7094 187.992 33.538 187.62C33.4381 187.337 33.2473 187.095 32.9954 186.932C32.9071 186.886 32.8068 186.868 32.7081 186.881C32.6093 186.894 32.517 186.937 32.4436 187.004C32.3116 187.145 32.2346 187.328 32.2266 187.52C32.2272 187.915 32.3658 188.298 32.6185 188.602C32.8711 188.905 33.222 189.112 33.6104 189.184C33.9958 189.25 34.3919 189.199 34.748 189.037C35.1041 188.876 35.404 188.612 35.6093 188.28C35.6616 188.196 35.6952 188.103 35.7077 188.005C35.7202 187.907 35.7113 187.808 35.6816 187.714C35.6407 187.624 35.5726 187.548 35.4867 187.498C35.4008 187.448 35.3014 187.425 35.2023 187.434C34.9093 187.477 34.6331 187.597 34.4018 187.782C34.067 188.014 33.7773 188.306 33.5471 188.642C33.4518 188.757 33.3811 188.891 33.3391 189.035C33.6736 188.615 34.0665 188.245 34.5058 187.936C34.7128 187.785 34.9533 187.685 35.2068 187.647C35.2614 187.64 35.3167 187.651 35.3642 187.679C35.4116 187.707 35.4485 187.749 35.4691 187.8C35.4844 187.863 35.4863 187.928 35.4746 187.991C35.4629 188.054 35.4379 188.114 35.4013 188.167C35.2152 188.448 34.952 188.67 34.6432 188.805C34.3344 188.941 33.9931 188.984 33.6601 188.931C33.3322 188.869 33.0351 188.697 32.8174 188.444C32.5997 188.191 32.4743 187.872 32.4617 187.538C32.4648 187.402 32.5143 187.271 32.6019 187.167C32.6415 187.129 32.6922 187.104 32.7467 187.097C32.8012 187.09 32.8567 187.1 32.9049 187.127C33.1104 187.268 33.2681 187.468 33.3572 187.701C33.5867 188.191 33.7276 188.718 33.7732 189.257Z" fill="black"/>
<path d="M67.641 99.4335C68.5452 103.452 68.85 107.582 68.5455 111.689C68.342 114.294 59.5551 186.348 59.5551 186.348H47.6929L51.0259 118.626L50.0581 118.839C50.0581 118.839 43.5776 147.728 43.044 152.399C42.5917 156.6 36.7579 189.641 36.7579 189.641L25.5605 189.519L29.7256 146.873L33.7596 108.116L35.2746 96.8105L67.641 99.4335Z" fill="#263238"/>
<path d="M89.4884 66.1122L77.961 71.8149L71.4397 54.829C70.8461 53.3752 69.9076 52.0878 68.7053 51.0777C67.503 50.0677 66.073 49.3653 64.5386 49.0313C64.1451 48.9492 63.7461 48.8963 63.3447 48.873L68.0073 76.0071C68.9231 78.2272 70.1405 80.3105 71.6252 82.1982C72.5975 83.3695 74.533 84.5996 78.8157 83.2564L92.5908 74.0354L89.4884 66.1122Z" fill="#263238"/>
<path d="M42.524 45.5664L48.2312 50.3103L51.1436 52.5715L52.6179 52.3635L53.4319 50.1385L54.5308 45.8016L56.0684 47.8321L60.229 56.6642L64.9006 99.3868C64.9006 99.3868 56.7604 101.775 52.5365 102.06C48.3126 102.344 41.5969 101.196 41.5969 101.196V78.7152L39.2046 56.4517L42.0944 47.9225L42.524 45.5664Z" fill="#E0E2E1"/>
<path d="M54.585 101.775C54.5793 101.736 54.5793 101.697 54.585 101.658C54.585 101.567 54.585 101.454 54.585 101.305C54.585 100.984 54.5579 100.532 54.5353 99.9483C54.4946 98.7589 54.4403 97.063 54.3679 94.9737C54.2232 90.7679 53.9926 84.9612 53.6625 78.553C53.3323 72.1449 52.957 66.3427 52.6675 62.146L52.3238 57.1714C52.2831 56.5925 52.2515 56.1403 52.2334 55.8147C52.2334 55.6654 52.2334 55.5524 52.2334 55.4619C52.2334 55.3715 52.2334 55.3444 52.2334 55.3398C52.2382 55.3804 52.2382 55.4214 52.2334 55.4619C52.2334 55.5479 52.2334 55.6654 52.2741 55.8102C52.3012 56.1313 52.3419 56.5835 52.3962 57.1669C52.5002 58.3382 52.6404 60.034 52.7987 62.1414C53.1198 66.3337 53.5087 72.1313 53.8388 78.544C54.169 84.9567 54.3815 90.7543 54.4946 94.9692C54.5534 97.0721 54.5941 98.7725 54.6076 99.9437C54.6076 100.527 54.6076 100.979 54.6076 101.3V101.653C54.5895 101.735 54.585 101.775 54.585 101.775Z" fill="#263238"/>
<path d="M39.6974 49.9529L40.1044 49.7359L31.9642 54.0004L35.0394 75.0565L36.7488 85.9101L30.3813 111.651C30.3813 111.651 35.166 114.776 37.5628 114.161C38.8427 113.831 39.9371 111.258 40.7828 109.232C42.4754 105.191 43.5736 100.925 44.0434 96.5693C44.4956 92.1871 44.9478 86.6201 44.6358 82.8123C44.0389 75.7258 43.1027 64.0355 43.0168 60.9603C42.9309 57.8851 42.2073 46.5566 42.2073 46.5566L39.6974 49.9529Z" fill="#263238"/>
<path d="M54.7207 45.5996L59.4511 48.1638L63.6026 48.8738L69.2013 61.1293L68.134 83.2888L73.7236 110.645C73.7236 110.645 69.6264 112.096 68.0029 111.499C66.3793 110.902 64.1634 107.23 64.0774 105.01C63.9915 102.789 60.8349 81.2809 60.8349 81.2809L58.1486 55.9965C57.8946 53.5858 57.2212 51.238 56.1588 49.0592L54.7207 45.5996Z" fill="#263238"/>
<path d="M59.4512 48.873C59.5051 48.9266 59.555 48.984 59.6004 49.0449L60.0255 49.5604L61.5902 51.5231L61.6219 51.5638L61.5812 51.5955L60.2516 52.604V52.4954L61.8118 52.9884H61.8571V53.0427C61.8299 55.8148 61.7937 59.3106 61.753 63.1003C61.6852 67.7267 61.6219 71.9099 61.5767 74.9579C61.5495 76.4639 61.5224 77.6713 61.5043 78.5487C61.5043 78.9602 61.5043 79.2904 61.4772 79.5255C61.4772 79.6295 61.4772 79.7109 61.4772 79.7788C61.4772 79.8466 61.4772 79.8647 61.4772 79.8647C61.4772 79.8647 61.4772 79.8376 61.4772 79.7788C61.4772 79.72 61.4772 79.6295 61.4772 79.5255C61.4772 79.2858 61.4772 78.9602 61.4772 78.5487C61.4772 77.6849 61.4772 76.4594 61.4772 74.9534C61.5088 71.9099 61.5495 67.7177 61.5993 63.0958C61.6536 59.3106 61.7033 55.8148 61.7395 53.0381L61.7892 53.106L60.2381 52.5995L60.1205 52.5633L60.22 52.4909L61.5767 51.496V51.5729L60.0481 49.5831L59.6456 49.0494C59.5765 48.9956 59.5114 48.9367 59.4512 48.873Z" fill="#455A64"/>
<path d="M44.2695 78.4035C44.2548 78.3781 44.2441 78.3507 44.2378 78.3221L44.1564 78.0733L43.8444 77.1146C43.573 76.287 43.166 75.0886 42.646 73.6143L41.7867 71.2084C41.4472 70.2896 41.1559 69.3537 40.9139 68.4045C40.3887 66.2269 39.9797 64.0229 39.6883 61.8019C39.2678 58.7267 38.9919 55.8234 38.8291 53.3316V53.2954L38.8562 53.2683L40.2129 51.9749V52.0834L38.9376 51.1156L38.8924 51.0749L38.9286 51.0252L41.226 47.9093L41.8546 47.0681L42.0264 46.8556C42.0443 46.8301 42.0639 46.8059 42.0852 46.7832C42.0852 46.7832 42.0852 46.8149 42.04 46.8646L41.8862 47.0907L41.2802 47.9545L39.019 51.1201V51.0297L40.2989 51.9884L40.3667 52.0382L40.3079 52.0924L38.9512 53.3994L38.9738 53.3361C39.1547 55.8279 39.4261 58.7267 39.8783 61.7974C40.1664 64.0159 40.5679 66.2181 41.0812 68.3955C41.3405 69.3934 41.6254 70.325 41.936 71.1903L42.7771 73.6052C43.2836 75.0841 43.6816 76.287 43.9213 77.1236C44.0479 77.5442 44.1429 77.8698 44.2017 78.0914C44.2288 78.1954 44.2514 78.2814 44.265 78.3447C44.2785 78.408 44.2695 78.4035 44.2695 78.4035Z" fill="#455A64"/>
<path d="M65.1992 93.8388L66.2167 96.9999L71.9782 96.4708L70.1828 93.4453L65.1992 93.8388Z" fill="#263238"/>
<path d="M65.2036 93.8395C65.2036 93.8395 65.3167 93.8395 65.5473 93.7942L66.5558 93.6948C67.4286 93.6133 68.6858 93.4958 70.1737 93.3691H70.2189L70.246 93.4144L72.055 96.4308L72.1228 96.5483H71.9871L71.6887 96.5755L66.2257 97.0775H66.1714V97.0277C65.8594 96.0373 65.6197 95.2188 65.4569 94.6851C65.3845 94.4274 65.3212 94.2329 65.2714 94.0565C65.2487 93.987 65.2306 93.916 65.2172 93.844C65.2526 93.9187 65.2828 93.9958 65.3076 94.0746L65.5292 94.7123C65.7237 95.2776 65.9815 96.069 66.3025 96.9735L66.2302 96.9237L71.6932 96.3991L71.9871 96.372L71.9193 96.5031L70.133 93.4777L70.2053 93.5184C68.7491 93.6269 67.4919 93.7038 66.6327 93.7581L65.6016 93.8168C65.3438 93.8395 65.2036 93.844 65.2036 93.8395Z" fill="#455A64"/>
<g opacity="0.3">
<path d="M61.7709 53.0508L62.7206 54.3623C62.7206 54.3623 62.4538 74.2335 61.4453 79.1673L61.7709 53.0508Z" fill="black"/>
</g>
<path d="M42.5239 49.7324C42.6235 49.8881 42.7437 50.0296 42.8812 50.153C43.1254 50.4108 43.4827 50.7771 43.9304 51.2293C44.8348 52.1338 46.0695 53.3503 47.4623 54.6889L48.3668 55.5934L48.5206 55.7426L48.5929 55.5436C49.0452 54.2864 49.4974 53.1468 49.823 52.2061L49.6557 52.2423L50.8315 53.3006C50.9669 53.4379 51.1188 53.5579 51.2837 53.6578C51.176 53.4908 51.0468 53.3388 50.8993 53.2056C50.6415 52.9388 50.2617 52.5544 49.7868 52.084L49.6783 51.9755L49.6195 52.1202C49.2577 53.0563 48.8145 54.1869 48.3261 55.4351L48.5522 55.3854L47.6478 54.4809C46.2549 53.1242 44.9841 51.9393 44.0525 51.0801C43.6002 50.6278 43.2113 50.3022 42.9445 50.0716C42.8195 49.9408 42.6782 49.8268 42.5239 49.7324Z" fill="#263238"/>
<path d="M53.1924 53.2365C53.5226 52.6579 53.8039 52.0528 54.0335 51.4275L53.8481 51.4592C54.5236 52.3396 55.0801 53.3051 55.5033 54.3309C55.5802 54.5072 55.6435 54.6836 55.7068 54.8509L55.8606 55.267L55.9782 54.8419C56.2793 53.7339 56.4449 52.5935 56.4711 51.4456C56.5055 50.9794 56.475 50.5106 56.3806 50.0527C56.3232 50.5119 56.29 50.9739 56.2812 51.4366C56.198 52.5624 56.0041 53.6772 55.7023 54.765H55.9736C55.9103 54.5932 55.8425 54.4123 55.7656 54.2314C55.3338 53.1809 54.7453 52.202 54.02 51.328L53.8979 51.1833L53.83 51.3552C53.5672 51.9641 53.354 52.5932 53.1924 53.2365Z" fill="#263238"/>
<path d="M54.219 54.386L53.0929 56.0457H51.4015L50.4971 54.386L51.3608 52.5635L52.8351 52.3555L54.219 54.386Z" fill="#65C098"/>
<path d="M53.1561 55.1992L58.2573 93.716L53.8978 99.6268L49.5337 93.3588L51.4647 55.1992H53.1561Z" fill="#65C098"/>
<path d="M63.0872 97.0762C63.0808 97.3606 63.0989 97.6451 63.1415 97.9264C63.2093 98.5233 63.2952 99.2831 63.3992 100.228C63.5033 101.173 63.6615 102.372 63.8198 103.643C64.0189 105.042 64.3629 106.416 64.8464 107.744C65.3755 109.133 66.0629 110.498 67.2342 111.222C67.7873 111.528 68.411 111.684 69.0431 111.674C69.5828 111.678 70.1217 111.633 70.6531 111.539C71.42 111.412 72.176 111.226 72.9143 110.982C73.1902 110.908 73.4571 110.803 73.7102 110.67C73.4304 110.723 73.154 110.792 72.8826 110.878C72.1382 111.073 71.3832 111.224 70.6214 111.331C70.1007 111.409 69.5741 111.443 69.0477 111.43C68.455 111.438 67.8705 111.292 67.3518 111.005C66.289 110.34 65.6061 109.015 65.0906 107.649C64.0369 104.868 63.8967 102.137 63.5756 100.21C63.4354 99.2786 63.3178 98.5098 63.2274 97.9173C63.2038 97.6336 63.157 97.3522 63.0872 97.0762Z" fill="#455A64"/>
<path d="M44.3467 98.207C44.3452 98.293 44.3315 98.3782 44.306 98.4603L44.1296 99.1839C43.9758 99.8079 43.7316 100.708 43.4151 101.816C42.6086 104.707 41.6316 107.547 40.4891 110.322C40.154 111.115 39.7688 111.885 39.3359 112.629C39.1284 112.987 38.8877 113.324 38.6169 113.637L38.4043 113.854C38.3229 113.922 38.237 113.981 38.1556 114.044C38.0659 114.102 37.9704 114.151 37.8707 114.189C37.7757 114.221 37.6762 114.23 37.5812 114.252C36.8509 114.361 36.1058 114.31 35.3969 114.103C34.7783 113.942 34.1734 113.732 33.588 113.474C32.7532 113.11 31.9448 112.689 31.1685 112.213C30.8927 112.045 30.6801 111.905 30.5445 111.81C30.4691 111.766 30.3993 111.713 30.3364 111.652C30.418 111.681 30.4955 111.721 30.5671 111.77L31.2138 112.131C32.0034 112.574 32.8172 112.973 33.6513 113.325C34.2273 113.564 34.8197 113.76 35.4241 113.913C36.1037 114.103 36.8159 114.146 37.5134 114.04C37.8762 113.98 38.201 113.78 38.4179 113.484C38.678 113.18 38.9096 112.853 39.1098 112.507C39.5335 111.777 39.9111 111.022 40.2404 110.246C41.3787 107.478 42.3749 104.654 43.2251 101.784C43.5507 100.708 43.8176 99.826 44.012 99.1748C44.0995 98.8914 44.1718 98.6563 44.2291 98.4693C44.2585 98.3778 44.2979 98.2899 44.3467 98.207Z" fill="#455A64"/>
<path d="M35.4014 52.3047C35.4014 52.3047 28.4053 53.8739 27.5144 59.8887C26.4878 66.8124 25.5879 82.6587 25.5879 82.6587L37.5812 66.5998" fill="#263238"/>
<path d="M33.1719 53.6855C33.1719 53.6855 33.4794 53.9614 33.9407 54.4363C35.147 55.6799 35.9832 57.2349 36.3556 58.9269C36.4958 59.5736 36.5275 59.9852 36.5546 59.9852C36.5706 59.8878 36.5706 59.7886 36.5546 59.6912C36.5415 59.427 36.5098 59.1641 36.4596 58.9043C36.1421 57.1708 35.2878 55.5809 34.0176 54.3594C33.8271 54.1744 33.6247 54.0021 33.4116 53.8438C33.3389 53.7808 33.2584 53.7276 33.1719 53.6855Z" fill="#263238"/>
<path d="M68.975 57.2031C68.8981 57.2031 68.6539 62.7973 68.4369 69.7029C68.2198 76.6085 68.1022 82.2072 68.1836 82.2072C68.265 82.2072 68.5002 76.6176 68.7218 69.7119C68.9434 62.8063 69.0519 57.2076 68.975 57.2031Z" fill="#455A64"/>
<path d="M31.9777 54.002C31.9777 54.002 28.7216 56.1998 28.3598 57.9771C28.0523 59.4152 25.4791 81.0411 25.149 83.7273C24.8188 86.4136 23.539 92.0123 26.8222 94.2418C29.0292 95.7387 36.0026 97.2401 36.0026 97.2401C35.3152 94.0247 36.7217 91.6731 40.1541 89.8913L35.4916 85.4911L37.5809 66.6012L31.9777 54.002Z" fill="#263238"/>
<path d="M36.7625 85.9018C36.6811 85.9018 35.5415 80.0227 34.2165 72.7463C32.8914 65.4698 31.8784 59.541 31.9553 59.541C32.0322 59.541 33.1763 65.4201 34.5059 72.6965C35.8355 79.973 36.8394 85.8837 36.7625 85.9018Z" fill="#455A64"/>
<path d="M35.8626 81.5703C35.8857 81.9444 35.8751 82.3197 35.8309 82.6919C35.7857 83.3928 35.7043 84.3742 35.6048 85.5048L35.5731 85.4098L36.4776 86.2509C37.5132 87.2323 38.4403 88.1322 39.1051 88.7925C39.4808 89.1302 39.8286 89.4977 40.1452 89.8914C39.7358 89.5949 39.3503 89.2668 38.992 88.9101C38.2956 88.286 37.3504 87.4041 36.3148 86.4228L35.4103 85.5771L35.3696 85.5364V85.4821C35.4827 84.3561 35.5867 83.3747 35.6726 82.6783C35.7016 82.3039 35.7652 81.933 35.8626 81.5703Z" fill="#455A64"/>
<path d="M30.8335 88.2811C31.3113 87.4866 32.0043 86.8437 32.8324 86.4269C33.6213 85.9405 34.5332 85.691 35.4599 85.7078C34.5908 85.9154 33.7475 86.2187 32.9454 86.6123C32.1829 87.0901 31.4747 87.6497 30.8335 88.2811Z" fill="#455A64"/>
<path d="M46.6844 69.7258C46.6596 70.1422 46.5528 70.5496 46.3701 70.9246C46.1874 71.2996 45.9324 71.6347 45.6197 71.9108C45.307 72.187 44.9429 72.3985 44.5482 72.5335C44.1535 72.6684 43.736 72.7239 43.3197 72.697C42.8844 72.6745 42.4584 72.5615 42.0691 72.3653C41.6798 72.1691 41.3356 71.894 41.0586 71.5574C40.1857 70.481 38.6074 68.9434 36.6447 68.844C33.6057 68.654 31.331 70.9559 31.1139 74.4019C30.8968 77.8479 32.8731 80.4121 35.9166 80.6021C37.8793 80.7242 39.634 79.3946 40.6335 78.4359C40.9473 78.1378 41.3195 77.9079 41.7266 77.7608C42.1336 77.6137 42.5668 77.5525 42.9987 77.5811C43.415 77.6059 43.8224 77.7127 44.1974 77.8954C44.5724 78.0781 44.9076 78.3331 45.1837 78.6458C45.4598 78.9585 45.6714 79.3226 45.8063 79.7173C45.9412 80.112 45.9968 80.5295 45.9698 80.9458L44.6131 102.445L92.4551 104.48L93.4907 81.8683C93.5155 81.4519 93.6223 81.0445 93.805 80.6695C93.9877 80.2946 94.2427 79.9594 94.5554 79.6833C94.8681 79.4072 95.2322 79.1956 95.6269 79.0607C96.0216 78.9258 96.4391 78.8702 96.8554 78.8971C97.2907 78.9196 97.7167 79.0326 98.106 79.2288C98.4953 79.425 98.8395 79.7002 99.1165 80.0368C99.9894 81.1131 101.568 82.6507 103.53 82.7728C106.569 82.9627 108.849 80.6608 109.061 77.2148C109.274 73.7688 107.302 71.2046 104.263 71.0147C102.3 70.8926 100.541 72.2221 99.5416 73.1809C99.2281 73.4794 98.856 73.7095 98.4488 73.8567C98.0417 74.0038 97.6084 74.0647 97.1764 74.0356C95.4263 73.9271 93.7983 72.602 93.9068 70.87L94.7208 51.6771L47.3446 49.6602L46.6844 69.7258Z" fill="#65C098"/>
<path d="M40.8508 91.456C40.8508 91.456 42.2617 90.3616 43.3109 90.3164C44.3601 90.2712 45.7259 90.6827 45.9972 90.547C46.2686 90.4114 46.9017 89.8099 47.3177 90.3119C47.7338 90.8139 48.2222 92.6409 46.0424 93.1429H44.541C44.6179 93.8642 44.8023 94.57 45.0882 95.2367C45.45 95.8291 50.5512 102.251 50.5512 102.251C50.5512 102.251 51.1889 102.889 50.8723 103.526C50.5557 104.164 49.1855 103.798 49.1855 103.798C48.9103 104.04 48.5779 104.209 48.2196 104.288C47.8612 104.367 47.4887 104.354 47.1368 104.25C46.5949 104.068 46.0758 103.823 45.5902 103.522C45.2372 103.792 44.8049 103.939 44.3601 103.939C43.9153 103.939 43.483 103.792 43.13 103.522C41.8547 102.567 36.7671 96.2859 36.7671 96.2859L39.1187 91.2616L40.8508 91.456Z" fill="#FFBF9D"/>
<path d="M39.4261 90.293L40.8733 91.4462C38.7251 93.0109 37.6081 94.9284 37.6217 97.2302L35.772 95.9504C35.772 95.9504 35.4374 91.2291 39.4261 90.293Z" fill="#14BA6D"/>
<path d="M45.2466 99.6264C45.3054 99.5812 46.0696 100.603 47.1595 101.72C48.2494 102.837 49.2715 103.611 49.2217 103.674C48.9658 103.558 48.7282 103.406 48.5162 103.222C47.976 102.817 47.4666 102.372 46.9922 101.892C46.5209 101.409 46.0856 100.892 45.6898 100.346C45.5054 100.13 45.3559 99.8878 45.2466 99.6264Z" fill="#FF9A6C"/>
<path d="M42.7183 100.903C42.7771 100.853 43.3423 101.536 44.179 102.21C44.7298 102.58 45.2157 103.038 45.6171 103.567C45.0602 103.214 44.5311 102.819 44.0343 102.386C43.4924 101.994 43.0431 101.488 42.7183 100.903Z" fill="#FF9A6C"/>
<path d="M92.116 61.4549C92.116 61.4549 92.3421 59.9082 95.5937 60.4328C97.6333 60.7629 96.566 62.0835 96.566 62.0835C96.7184 62.2151 96.8365 62.3818 96.9102 62.5691C96.984 62.7565 97.0111 62.959 96.9893 63.1591C96.9675 63.3593 96.8974 63.5512 96.7851 63.7183C96.6728 63.8854 96.5215 64.0228 96.3444 64.1185L96.557 64.2768C96.557 64.2768 98.1805 65.0908 96.7786 66.538C96.9207 66.7957 96.9792 67.0913 96.9459 67.3838C96.9127 67.6763 96.7894 67.9512 96.5931 68.1705C95.8967 68.8715 94.1465 67.9399 94.1465 67.9399C94.1465 67.9399 91.6728 67.8992 91.5326 67.2435C91.4892 67.0444 91.5143 66.8365 91.6037 66.6535C91.6932 66.4705 91.8418 66.323 92.0256 66.235C92.5949 66.1293 93.1704 66.0598 93.7486 66.0269C93.7486 66.0269 91.5869 66.0043 91.3924 65.5747C91.0442 64.8195 91.1347 64.0462 93.7486 64.1456C93.7486 64.1456 91.804 64.1049 91.5824 63.6934C91.3608 63.2819 91.6321 62.6578 92.3331 62.3367C92.746 62.1391 93.2007 62.0445 93.6581 62.0609C93.6581 62.0609 91.8401 62.4317 92.116 61.4549Z" fill="#FFBF9D"/>
<path d="M96.4666 62.0912C95.8829 62.1602 95.2946 62.1813 94.7074 62.1545C94.1218 62.1974 93.5339 62.1974 92.9482 62.1545C93.5119 61.96 94.1073 61.8741 94.7029 61.9012C95.2975 61.855 95.8955 61.9194 96.4666 62.0912Z" fill="#FF9A6C"/>
<path d="M96.3807 64.1955C95.8283 64.2399 95.2733 64.2399 94.721 64.1955C94.1677 64.2277 93.6127 64.2156 93.0613 64.1593C93.5975 63.9839 94.1631 63.9163 94.7255 63.9603C95.2875 63.9249 95.8508 64.0049 96.3807 64.1955Z" fill="#FF9A6C"/>
<path d="M96.8193 66.6449C96.7921 66.7082 96.055 66.3872 95.0917 66.2334C94.1285 66.0796 93.3325 66.1384 93.3235 66.0661C93.9104 65.8871 94.5338 65.8637 95.1324 65.9982C95.7421 66.0604 96.3243 66.2836 96.8193 66.6449Z" fill="#FF9A6C"/>
</svg>
