<svg width="210" height="204" viewBox="0 0 210 204" fill="none" xmlns="http://www.w3.org/2000/svg">
<path d="M195.881 135.312C195.881 135.312 196.772 131.011 195.217 128.881C193.661 126.751 190.827 128.881 191.205 131.555C191.584 134.229 195.881 135.312 195.881 135.312Z" fill="#92E3A9"/>
<path d="M188.928 154.17C188.928 154.17 190.292 147.484 187.89 144.146C185.487 140.808 181.053 144.146 181.65 148.3C182.247 152.454 188.928 154.17 188.928 154.17Z" fill="#92E3A9"/>
<path d="M186.348 164.994C186.348 164.994 186.29 158.153 183.25 155.403C180.21 152.653 176.565 156.816 178.013 160.752C179.462 164.687 186.348 164.994 186.348 164.994Z" fill="#92E3A9"/>
<path d="M192.667 171.359C188.585 171.72 184.417 177.153 184.417 177.153C184.417 177.153 190.073 181.075 193.616 178.802C197.16 176.529 196.75 170.994 192.667 171.359Z" fill="#92E3A9"/>
<path d="M192.957 181.685C187.119 182.206 181.155 189.966 181.155 189.966C181.155 189.966 189.249 195.572 194.316 192.319C199.384 189.065 198.8 181.163 192.957 181.685Z" fill="#92E3A9"/>
<path d="M183.963 177.194H184.248C184.248 177.194 184.248 176.868 184.208 176.329C184.926 173.811 185.715 170.629 186.655 166.832C186.784 166.315 186.913 165.784 187.047 165.249C188.536 166.141 192.841 168.414 195.716 166.555C199.259 164.282 198.836 158.756 194.771 159.121C191.816 159.389 188.821 162.294 187.386 163.886C187.988 161.474 188.643 158.885 189.356 156.171C189.476 155.725 189.61 155.239 189.752 154.745C191.179 156.037 194.704 158.8 197.775 157.646C201.715 156.157 202.463 150.666 198.394 150.176C195.462 149.82 191.945 152.026 190.203 153.296C191.094 150.457 192.239 147.186 193.443 143.968C194.307 144.766 196.634 146.642 198.648 145.889C201.171 144.93 201.652 141.432 199.041 141.093C197.142 140.866 194.864 142.305 193.759 143.112C194.726 140.549 195.707 138.045 196.589 135.838C197.588 136.708 199.709 138.25 201.563 137.55C204.09 136.596 204.572 133.093 201.96 132.759C200.302 132.558 198.35 133.65 197.146 134.443C198.439 131.243 199.433 128.886 199.691 128.271C200.73 127.727 203.867 126.011 204.478 124.852C204.654 124.522 204.762 124.16 204.798 123.787C204.834 123.414 204.796 123.038 204.686 122.68C204.576 122.322 204.397 121.989 204.159 121.7C203.92 121.412 203.628 121.173 203.297 120.997C202.966 120.821 202.604 120.713 202.231 120.677C201.859 120.641 201.483 120.679 201.125 120.789C200.767 120.899 200.434 121.078 200.145 121.316C199.856 121.555 199.617 121.847 199.442 122.178C198.853 123.292 199.148 126.613 199.295 127.91L199.125 127.838C199.094 127.914 197.788 130.958 196.095 135.21L196.01 135.281L196.05 135.326C195.132 137.617 194.102 140.228 193.091 142.938C193.264 141.628 193.469 138.807 192.311 137.207C190.773 135.076 187.925 137.207 188.3 139.881C188.643 142.27 192.101 143.397 192.828 143.607C191.491 147.23 190.154 150.921 189.262 154.014L189.111 154.134C189.111 154.134 189.142 154.17 189.2 154.223C189.013 154.847 188.848 155.444 188.696 156.006C187.68 159.865 186.784 163.484 185.995 166.676C185.251 169.666 184.605 172.273 184.016 174.475C183.696 172.247 182.938 169.229 181.155 167.612C178.116 164.862 174.47 169.024 175.918 172.96C177.033 175.982 181.32 176.855 183.272 177.1L182.938 178.179C182.492 179.547 181.641 183.34 180.75 187.538C180.42 184.365 179.435 179.008 176.484 176.343C172.139 172.407 166.911 178.362 168.997 184.013C170.744 188.755 177.96 189.807 180.228 190.012C179.007 195.837 177.861 201.626 177.777 202.072L178.45 202.206C178.49 202.001 182.461 181.882 183.589 178.415C183.704 178.027 183.834 177.622 183.963 177.194Z" fill="#92E3A9"/>
<path d="M79.9793 67.2109C79.9793 67.2109 77.947 62.803 75.2907 62.2281C72.6344 61.6531 71.6137 65.7936 73.655 67.7858C75.6962 69.778 79.9793 67.2109 79.9793 67.2109Z" fill="#92E3A9"/>
<path d="M86.2815 89.0806C86.2815 89.0806 83.1127 82.2126 78.9678 81.3168C74.8229 80.4209 73.2362 86.8879 76.4184 89.972C79.6007 93.0562 86.2815 89.0806 86.2815 89.0806Z" fill="#92E3A9"/>
<path d="M91.0819 100.485C91.0819 100.485 86.625 94.6554 82.3285 94.7712C78.0321 94.8871 77.6355 101.457 81.3926 103.649C85.1498 105.842 91.0819 100.485 91.0819 100.485Z" fill="#92E3A9"/>
<path d="M100.459 100.797C97.2813 104.438 97.2769 112.496 97.2769 112.496C97.2769 112.496 104.528 111.253 106.03 106.408C107.532 101.563 103.641 97.151 100.459 100.797Z" fill="#92E3A9"/>
<path d="M107.341 109.43C102.794 114.645 102.79 126.17 102.79 126.17C102.79 126.17 113.166 124.388 115.314 117.462C117.462 110.536 111.891 104.22 107.341 109.43Z" fill="#92E3A9"/>
<path d="M96.9244 112.912L97.1785 112.693C97.1785 112.693 96.9646 112.417 96.5902 111.985C95.5695 109.23 94.1879 105.856 92.53 101.827L91.8436 100.147C93.6665 99.7014 98.7117 98.1504 99.9373 94.2016C101.439 89.357 97.5439 84.9446 94.3662 88.5859C92.0664 91.2199 91.4291 96.1626 91.2464 98.6986C90.199 96.1359 89.0803 93.3771 87.9349 90.4667C87.7433 89.9765 87.5472 89.4595 87.3511 88.9202C89.37 88.8667 94.0988 88.3631 95.9127 84.8733C98.2526 80.3853 95.3512 75.0682 91.6297 77.9563C88.9555 80.0421 87.4224 84.802 86.7761 87.3157C85.6887 84.1558 84.5477 80.4075 83.487 76.6593C84.7215 76.6593 87.8814 76.3562 89.0759 74.0654C90.5778 71.1818 88.7149 67.7634 86.3304 69.6085C84.5923 70.9456 83.6117 74.0654 83.2106 75.6521C82.3683 72.6615 81.5794 69.711 80.902 67.0948C82.297 67.028 85.0647 66.6224 86.1655 64.5099C87.663 61.6263 85.8001 58.2123 83.4156 60.053C81.9003 61.234 80.9599 63.7477 80.4741 65.4235C79.4936 61.6218 78.8117 58.7872 78.6334 58.0474C79.1504 56.7326 80.6747 52.6991 80.4429 51.2061C80.1621 49.4233 78.6111 48.3626 76.971 48.8618C76.1354 49.1658 75.4323 49.7522 74.9831 50.5196C74.5339 51.287 74.3668 52.1871 74.5108 53.0646C74.7336 54.4997 77.1181 57.1114 78.0763 58.1098L77.8891 58.1855C77.9114 58.2747 78.7805 61.9561 80.1176 66.9879C80.1176 67.0681 80.0908 67.1216 80.0908 67.1216H80.1532C80.8574 69.8403 81.6864 72.9423 82.5688 76.0799C81.8736 74.8142 80.229 72.2203 78.2323 71.7879C75.5582 71.213 74.5598 75.3534 76.6011 77.3412C78.4284 79.124 82.0429 77.261 82.7872 76.851C83.9817 81.0627 85.2697 85.2923 86.4864 88.6973C86.4552 88.8444 86.4419 88.9291 86.4419 88.9291H86.5444C86.7895 89.6155 87.0346 90.2662 87.2708 90.8723C88.9021 95.0127 90.4753 98.8546 91.8659 102.242C93.1718 105.42 94.3038 108.183 95.2264 110.554C93.5283 108.909 90.9522 106.926 88.4207 106.988C84.1109 107.104 83.7276 113.674 87.4848 115.866C90.3639 117.556 94.5088 114.806 96.3005 113.424C96.4476 113.843 96.5857 114.244 96.7105 114.627C97.2231 116.161 98.9389 120.118 100.887 124.433C98.569 121.977 94.2993 118.193 90.1188 118.291C83.9549 118.456 83.4067 127.838 88.7817 130.993C93.2965 133.641 100.004 128.649 102.036 126.982C104.764 132.985 107.527 138.891 107.737 139.345L108.388 138.9C108.289 138.695 98.6894 118.166 97.3969 114.271C97.2409 113.834 97.0938 113.384 96.9244 112.912Z" fill="#92E3A9"/>
<path d="M77.9205 145.282C77.9205 145.282 75.692 141.877 73.4368 141.716C71.1817 141.556 70.8251 145.117 72.7549 146.512C74.6848 147.907 77.9205 145.282 77.9205 145.282Z" fill="#92E3A9"/>
<path d="M85.7781 162.614C85.7781 162.614 82.3285 157.315 78.7898 157.074C75.251 156.833 74.7206 162.378 77.729 164.544C80.7374 166.71 85.7781 162.614 85.7781 162.614Z" fill="#92E3A9"/>
<path d="M91.1306 171.471C91.1306 171.471 86.745 167.188 83.1929 167.803C79.6408 168.418 80.1176 173.895 83.496 175.263C86.8743 176.632 91.1306 171.471 91.1306 171.471Z" fill="#92E3A9"/>
<path d="M98.9303 170.596C96.7375 173.997 97.7091 180.664 97.7091 180.664C97.7091 180.664 103.561 178.757 104.216 174.567C104.871 170.378 101.119 167.196 98.9303 170.596Z" fill="#92E3A9"/>
<path d="M105.669 176.908C102.549 181.775 103.926 191.312 103.926 191.312C103.926 191.312 112.296 188.585 113.237 182.59C114.177 176.596 108.802 172.063 105.669 176.908Z" fill="#92E3A9"/>
<path d="M97.4684 181.049L97.6512 180.839C97.6512 180.839 97.4417 180.634 97.0762 180.322C95.9041 178.17 94.3486 175.544 92.4946 172.407L91.7191 171.101C93.172 170.517 97.1609 168.618 97.6957 165.2C98.3553 161.011 94.5759 157.833 92.4099 161.229C90.8232 163.689 90.8945 167.856 91.0728 169.973C89.8962 167.981 88.6349 165.833 87.3379 163.564C87.1196 163.181 86.8923 162.775 86.665 162.352C88.3318 162.067 92.1826 161.077 93.2611 157.971C94.6561 153.96 91.6076 149.917 88.88 152.761C86.9145 154.811 86.2282 158.938 85.9964 161.086C84.7128 158.604 83.3223 155.64 81.9852 152.667C83.0059 152.502 85.5864 151.887 86.295 149.842C87.1864 147.279 85.2343 144.676 83.4827 146.499C82.2125 147.836 81.7758 150.51 81.6287 151.878C80.5724 149.507 79.5651 147.159 78.6827 145.077C79.8326 144.854 82.0744 144.186 82.7295 142.301C83.6209 139.733 81.6643 137.131 79.9172 138.958C78.803 140.117 78.3306 142.314 78.1345 143.762C76.8687 140.732 75.9551 138.468 75.7233 137.879C75.9907 136.729 76.7618 133.204 76.3918 131.996C75.9462 130.543 74.5289 129.866 73.2364 130.481C72.5879 130.831 72.0807 131.395 71.8012 132.076C71.5217 132.758 71.487 133.516 71.7032 134.22C72.0598 135.379 74.3506 137.255 75.2687 137.964L75.1216 138.049C75.1528 138.12 76.325 141.062 78.0142 145.068C78.0142 145.135 78.0142 145.18 78.0142 145.18H78.0676C78.9813 147.341 80.0376 149.806 81.1473 152.311C80.4209 151.348 78.7495 149.4 77.0425 149.285C74.774 149.133 74.4353 152.69 76.3651 154.08C78.0899 155.324 80.8576 153.354 81.4237 152.921C82.9212 156.268 84.4989 159.607 85.9162 162.281C85.9162 162.406 85.9162 162.477 85.9162 162.477H86.0232C86.3129 163.012 86.5892 163.52 86.8611 163.992C88.7107 167.223 90.48 170.232 92.0399 172.848C93.5018 175.317 94.7765 177.47 95.8238 179.319C94.2194 178.165 91.8483 176.837 89.7625 177.198C86.197 177.813 86.6872 183.286 90.0655 184.659C92.6461 185.706 95.7481 182.929 97.0584 181.57C97.2322 181.895 97.3971 182.212 97.5487 182.515C98.1548 183.723 100.062 186.789 102.188 190.123C99.9598 188.367 95.9843 185.742 92.5347 186.343C87.4538 187.235 88.1357 195.052 92.9804 197.013C97.0361 198.658 101.979 193.72 103.463 192.111C106.445 196.746 109.444 201.301 109.676 201.648L110.157 201.203C110.055 201.042 99.6256 185.216 98.0835 182.15C97.8517 181.775 97.6868 181.423 97.4684 181.049Z" fill="#92E3A9"/>
<path d="M196.072 60.7249C196.072 60.7249 196.942 56.7627 195.457 55.0379C193.973 53.3131 191.201 55.5683 191.567 57.917C191.932 60.2658 196.072 60.7249 196.072 60.7249Z" fill="#92E3A9"/>
<path d="M189.253 78.496C189.253 78.496 190.59 72.3143 188.291 69.6268C185.991 66.9393 181.659 70.4558 182.225 74.1238C182.791 77.7918 189.253 78.496 189.253 78.496Z" fill="#92E3A9"/>
<path d="M186.704 88.5225C186.704 88.5225 186.677 82.3943 183.745 80.2995C180.812 78.2048 177.247 82.3853 178.642 85.7503C180.037 89.1152 186.704 88.5225 186.704 88.5225Z" fill="#92E3A9"/>
<path d="M192.806 93.4614C188.843 94.2904 184.783 99.6654 184.783 99.6654C184.783 99.6654 190.252 102.491 193.697 100.017C197.142 97.5439 196.763 92.6369 192.806 93.4614Z" fill="#92E3A9"/>
<path d="M193.064 102.696C187.399 103.877 181.587 111.569 181.587 111.569C181.587 111.569 189.409 115.612 194.334 112.073C199.259 108.534 198.706 101.51 193.064 102.696Z" fill="#92E3A9"/>
<path d="M184.337 99.7636H184.614C184.614 99.7636 184.614 99.4695 184.583 98.9926C185.287 96.6438 186.067 93.6933 186.994 90.1724C187.125 89.6911 187.254 89.2008 187.382 88.7016C188.821 89.3256 192.975 90.832 195.783 88.8131C199.223 86.3395 198.854 81.4325 194.891 82.2614C192.026 82.8587 189.097 85.827 187.711 87.4359C188.304 85.2074 188.95 82.7963 189.655 80.2737C189.775 79.8503 189.904 79.4046 190.047 78.9366C191.419 79.9216 194.829 81.9718 197.797 80.5589C201.621 78.7405 202.37 73.7221 198.43 73.78C195.591 73.8201 192.168 76.2268 190.475 77.5728C191.339 74.8987 192.476 71.8413 193.652 68.8017C194.49 69.4123 196.737 70.8206 198.693 69.8892C201.144 68.7259 201.626 65.508 199.099 65.5437C197.258 65.5704 195.043 67.1393 193.969 67.9994C194.914 65.5793 195.876 63.2127 196.741 61.1225C197.708 61.7865 199.758 62.9052 201.554 62.054C204.01 60.8863 204.491 57.6684 201.96 57.704C200.355 57.7263 198.461 58.9297 197.289 59.8077C198.555 56.777 199.518 54.5397 199.781 53.9558C200.788 53.3408 203.841 51.4154 204.438 50.3012C205.16 48.9641 204.652 47.48 203.306 46.9897C202.6 46.7754 201.842 46.8113 201.16 47.0915C200.478 47.3717 199.913 47.8789 199.562 48.5273C198.992 49.597 199.264 52.5385 199.397 53.6884L199.232 53.6438C199.201 53.7151 197.931 56.6166 196.264 60.6322L196.184 60.7035L196.219 60.7392C195.328 62.9052 194.312 65.3922 193.318 67.9326C193.492 66.7381 193.701 64.1799 192.587 62.8829C191.107 61.1581 188.335 63.4133 188.696 65.7665C189.026 67.8702 192.369 68.4407 193.073 68.5565C191.736 71.9705 190.475 75.4424 189.565 78.326L189.423 78.4597L189.503 78.5266C189.325 79.106 189.16 79.6631 189.013 80.189C188.01 83.7545 187.127 87.1328 186.339 90.0966C185.608 92.8688 184.97 95.2889 184.386 97.3346C184.088 95.378 183.366 92.7574 181.646 91.5407C178.713 89.4459 175.147 93.6265 176.542 96.9914C177.612 99.5675 181.766 99.826 183.673 99.8082C183.562 100.16 183.451 100.495 183.344 100.815C182.898 102.099 182.064 105.607 181.186 109.462C180.879 106.654 179.943 101.97 177.099 99.9374C172.901 96.938 167.807 102.919 169.804 107.737C171.479 111.779 178.468 111.828 180.669 111.748C179.462 117.128 178.325 122.445 178.24 122.868L178.891 122.908C178.931 122.721 182.876 104.189 183.976 100.931C184.088 100.544 184.213 100.165 184.337 99.7636Z" fill="#92E3A9"/>
<g opacity="0.3">
<path d="M81.2899 15.6281V21.9791C81.2899 22.121 81.2336 22.257 81.1333 22.3573C81.033 22.4576 80.8969 22.514 80.7551 22.514H49.9982C49.9278 22.5145 49.858 22.5011 49.7928 22.4745C49.7277 22.4478 49.6685 22.4084 49.6187 22.3586C49.5689 22.3088 49.5295 22.2497 49.5029 22.1845C49.4762 22.1193 49.4628 22.0495 49.4634 21.9791V3.26024C49.4603 3.18815 49.472 3.1162 49.4975 3.04872C49.523 2.98123 49.5619 2.91961 49.6119 2.86757C49.6619 2.81552 49.7218 2.77412 49.7882 2.74586C49.8546 2.7176 49.926 2.70306 49.9982 2.70313H80.7506C80.8925 2.70313 81.0285 2.75947 81.1288 2.85977C81.2291 2.96007 81.2855 3.09611 81.2855 3.23795V13.8854" stroke="black" stroke-linecap="round" stroke-linejoin="round"/>
<path d="M56.5231 7.80664H81.29V12.0852H49.459V7.80664H54.317" stroke="black" stroke-linecap="round" stroke-linejoin="round"/>
<path d="M68.1825 15.293H53.7378V20.3738H68.1825V15.293Z" stroke="black" stroke-linecap="round" stroke-linejoin="round"/>
<path d="M74.6001 15.0273H69.7866V20.3756H74.6001V15.0273Z" stroke="black" stroke-linecap="round" stroke-linejoin="round"/>
</g>
<g opacity="0.3">
<path d="M10.3319 131.168H2.06885V159.358L2.79086 158.132L3.52179 159.371H3.58864L4.31957 158.132L5.0505 159.371H5.1129L5.84382 158.132L6.57475 159.371H6.64161L7.37253 158.132L8.10346 159.371H8.16586L8.89679 158.132L9.62771 159.371H9.69457L10.421 158.132L11.152 159.371H11.2188L11.9497 158.132L12.6807 159.371H12.7431L13.474 158.132L14.2049 159.371H14.2718L15.0027 158.132L15.7336 159.371H15.796L16.527 158.132L17.2579 159.371H17.3247L18.0557 158.132L18.7866 159.371H18.849L19.5799 158.132L20.3109 159.371H20.3643V131.168H12.3954" stroke="black" stroke-linecap="round" stroke-linejoin="round"/>
<path d="M4.42676 137.189H18.0202" stroke="black" stroke-linecap="round" stroke-linejoin="round"/>
<path d="M4.42676 140.531H18.0202" stroke="black" stroke-linecap="round" stroke-linejoin="round"/>
<path d="M4.42676 143.875H18.0202" stroke="black" stroke-linecap="round" stroke-linejoin="round"/>
<path d="M4.42676 147.217H18.0202" stroke="black" stroke-linecap="round" stroke-linejoin="round"/>
<path d="M16.2642 153.123H18.0202" stroke="black" stroke-linecap="round" stroke-linejoin="round"/>
<path d="M4.42676 153.123H14.4592" stroke="black" stroke-linecap="round" stroke-linejoin="round"/>
</g>
<g opacity="0.3">
<path d="M61.8268 48.2971C65.2236 48.2971 67.9773 45.5434 67.9773 42.1466C67.9773 38.7498 65.2236 35.9961 61.8268 35.9961C58.4299 35.9961 55.6763 38.7498 55.6763 42.1466C55.6763 45.5434 58.4299 48.2971 61.8268 48.2971Z" stroke="black" stroke-linecap="round" stroke-linejoin="round"/>
<path d="M61.8266 46.8524C64.4259 46.8524 66.5331 44.7452 66.5331 42.1459C66.5331 39.5466 64.4259 37.4395 61.8266 37.4395C59.2273 37.4395 57.1201 39.5466 57.1201 42.1459C57.1201 44.7452 59.2273 46.8524 61.8266 46.8524Z" stroke="black" stroke-linecap="round" stroke-linejoin="round"/>
<path d="M61.9842 44.6392L62.0641 43.2984C62.0714 43.1759 62.043 43.0785 61.979 43.0064C61.9198 42.93 61.8199 42.8877 61.6792 42.8793L60.0185 42.7803L60.0583 42.1133L61.3583 42.1908C61.6577 42.2086 61.8911 42.152 62.0582 42.0208C62.2302 41.8853 62.3249 41.6724 62.3422 41.382C62.3598 41.087 62.2911 40.8644 62.1361 40.714C61.986 40.5593 61.7611 40.4731 61.4617 40.4552L60.1617 40.3778L60.199 39.7516L63.8947 39.9718L63.8603 40.5503L62.6352 40.4773L62.6291 40.5794C62.7691 40.6743 62.8781 40.7946 62.9559 40.9404C63.0386 41.082 63.0728 41.2707 63.0588 41.5066C63.0426 41.7789 62.9614 41.9949 62.8153 42.1547C62.6739 42.3102 62.4946 42.4156 62.2773 42.471L62.2708 42.5798C62.443 42.5947 62.578 42.6596 62.6759 42.7747C62.7737 42.8899 62.8169 43.045 62.8052 43.2401L62.7192 44.683L61.9842 44.6392ZM60.0928 41.5348L60.1272 40.9563L63.823 41.1765L63.7885 41.755L60.0928 41.5348Z" fill="black"/>
</g>
<g opacity="0.3">
<path d="M25.0528 176.031C28.4497 176.031 31.2033 173.278 31.2033 169.881C31.2033 166.484 28.4497 163.73 25.0528 163.73C21.656 163.73 18.9023 166.484 18.9023 169.881C18.9023 173.278 21.656 176.031 25.0528 176.031Z" stroke="black" stroke-linecap="round" stroke-linejoin="round"/>
<path d="M25.0527 174.587C27.652 174.587 29.7591 172.48 29.7591 169.88C29.7591 167.281 27.652 165.174 25.0527 165.174C22.4533 165.174 20.3462 167.281 20.3462 169.88C20.3462 172.48 22.4533 174.587 25.0527 174.587Z" stroke="black" stroke-linecap="round" stroke-linejoin="round"/>
<path d="M25.2103 172.374L25.2902 171.033C25.2975 170.91 25.2691 170.813 25.2051 170.741C25.1459 170.664 25.046 170.622 24.9053 170.614L23.2446 170.515L23.2844 169.848L24.5843 169.925C24.8838 169.943 25.1171 169.886 25.2843 169.755C25.4563 169.62 25.551 169.407 25.5683 169.116C25.5858 168.821 25.5172 168.599 25.3622 168.448C25.212 168.294 24.9872 168.207 24.6877 168.19L23.3878 168.112L23.4251 167.486L27.1208 167.706L27.0863 168.285L25.8612 168.212L25.8552 168.314C25.9952 168.409 26.1042 168.529 26.182 168.675C26.2646 168.816 26.2989 169.005 26.2849 169.241C26.2686 169.513 26.1875 169.729 26.0413 169.889C25.9 170.045 25.7207 170.15 25.5034 170.205L25.4969 170.314C25.669 170.329 25.8041 170.394 25.9019 170.509C25.9998 170.624 26.0429 170.779 26.0313 170.974L25.9453 172.417L25.2103 172.374ZM23.3188 169.269L23.3533 168.691L27.049 168.911L27.0146 169.489L23.3188 169.269Z" fill="black"/>
</g>
<g opacity="0.3">
<path d="M10.7911 186.281C14.1879 186.281 16.9416 183.528 16.9416 180.131C16.9416 176.734 14.1879 173.98 10.7911 173.98C7.39429 173.98 4.64062 176.734 4.64062 180.131C4.64062 183.528 7.39429 186.281 10.7911 186.281Z" stroke="black" stroke-linecap="round" stroke-linejoin="round"/>
<path d="M10.7909 184.837C13.3902 184.837 15.4974 182.73 15.4974 180.13C15.4974 177.531 13.3902 175.424 10.7909 175.424C8.19163 175.424 6.08447 177.531 6.08447 180.13C6.08447 182.73 8.19163 184.837 10.7909 184.837Z" stroke="black" stroke-linecap="round" stroke-linejoin="round"/>
<path d="M10.9485 182.624L11.0284 181.283C11.0357 181.16 11.0074 181.063 10.9434 180.991C10.8842 180.914 10.7843 180.872 10.6436 180.864L8.9829 180.765L9.02265 180.098L10.3226 180.175C10.6221 180.193 10.8554 180.136 11.0226 180.005C11.1946 179.87 11.2893 179.657 11.3066 179.366C11.3241 179.071 11.2554 178.849 11.1005 178.698C10.9503 178.544 10.7255 178.457 10.426 178.44L9.12606 178.362L9.16337 177.736L12.8591 177.956L12.8246 178.535L11.5995 178.462L11.5934 178.564C11.7335 178.659 11.8424 178.779 11.9203 178.925C12.0029 179.066 12.0372 179.255 12.0231 179.491C12.0069 179.763 11.9257 179.979 11.7796 180.139C11.6383 180.295 11.459 180.4 11.2417 180.455L11.2352 180.564C11.4073 180.579 11.5423 180.644 11.6402 180.759C11.7381 180.874 11.7812 181.029 11.7696 181.224L11.6836 182.667L10.9485 182.624ZM9.05712 179.519L9.09159 178.941L12.7873 179.161L12.7528 179.739L9.05712 179.519Z" fill="black"/>
</g>
<g opacity="0.3">
<path d="M14.8648 20.022L10.1851 12.9177L28.2622 1L31.538 5.96942" stroke="black" stroke-linecap="round" stroke-linejoin="round"/>
<path d="M17.9131 9.77908L27.7895 3.26758L29.8575 6.40522" stroke="black" stroke-linecap="round" stroke-linejoin="round"/>
<path d="M13.7238 15.303L12.458 13.3776L13.1176 12.9453" stroke="black" stroke-linecap="round" stroke-linejoin="round"/>
<path d="M29.3364 18.3471L16.1084 21.9036L13.314 11.5147L34.2256 5.89453L37.0201 16.2835L30.8161 17.9504" stroke="black" stroke-linecap="round" stroke-linejoin="round"/>
<path d="M35.0071 15.1299L33.063 7.89453L15.3253 12.6606L17.2695 19.896L35.0071 15.1299Z" stroke="black" stroke-linecap="round" stroke-linejoin="round"/>
<path d="M25.6057 15.5425C24.2286 15.9124 22.9316 15.4756 22.6687 14.5664C22.4057 13.6572 23.3461 12.6232 24.7233 12.2533C26.1005 11.8834 27.3974 12.3157 27.6648 13.2249C27.9322 14.1341 26.9874 15.1815 25.6057 15.5425Z" stroke="black" stroke-linecap="round" stroke-linejoin="round"/>
</g>
<path d="M8.8932 75.4117L4.37402 80.0996L13.8076 89.1936L18.3268 84.5057L8.8932 75.4117Z" fill="#92E3A9" stroke="#263238" stroke-linecap="round" stroke-linejoin="round"/>
<path d="M8.92216 76.8129L5.77637 80.0762L13.7757 87.7875L16.9215 84.5243L8.92216 76.8129Z" fill="white" stroke="#263238" stroke-linecap="round" stroke-linejoin="round"/>
<path d="M12.0698 81.5527C12.6938 82.1544 12.8765 82.9745 12.4843 83.3845C12.0921 83.7946 11.2631 83.6386 10.6391 83.0369C10.0152 82.4352 9.83245 81.6196 10.2291 81.2096C10.6258 80.7995 11.4458 80.9555 12.0698 81.5527Z" fill="white" stroke="#263238" stroke-linecap="round" stroke-linejoin="round"/>
<path d="M12.4 73.9579L6.83203 77.334L13.6257 88.5385L19.1937 85.1624L12.4 73.9579Z" fill="#92E3A9" stroke="#263238" stroke-linecap="round" stroke-linejoin="round"/>
<path d="M12.2999 75.6919L8.40186 78.0488L14.1796 87.6043L18.0776 85.2473L12.2999 75.6919Z" fill="white" stroke="#263238" stroke-width="1.00499" stroke-linecap="round" stroke-linejoin="round"/>
<path d="M13.8974 80.6963C14.3431 81.4361 14.3163 82.274 13.8261 82.5726C13.3358 82.8713 12.5603 82.5236 12.1146 81.7838C11.6689 81.0439 11.6957 80.206 12.1815 79.9119C12.6673 79.6177 13.4517 79.9743 13.8974 80.6963Z" fill="#92E3A9" stroke="#263238" stroke-linecap="round" stroke-linejoin="round"/>
<path d="M17.9164 73.5419L11.4673 74.4414L13.2773 87.419L19.7264 86.5195L17.9164 73.5419Z" fill="#92E3A9" stroke="#263238" stroke-linecap="round" stroke-linejoin="round"/>
<path d="M17.0737 74.6629L12.5845 75.2891L14.1199 86.298L18.6091 85.6718L17.0737 74.6629Z" fill="white" stroke="#263238" stroke-linecap="round" stroke-linejoin="round"/>
<path d="M16.6157 80.3352C16.736 81.1909 16.375 81.9485 15.8134 82.0288C15.2518 82.109 14.6947 81.4761 14.5744 80.6204C14.4541 79.7647 14.8151 79.007 15.3811 78.9268C15.9471 78.8466 16.4953 79.4794 16.6157 80.3352Z" fill="#92E3A9" stroke="#263238" stroke-linecap="round" stroke-linejoin="round"/>
<path d="M22.3155 76.1363L15.98 74.6328L12.9545 87.382L19.29 88.8855L22.3155 76.1363Z" fill="#92E3A9" stroke="#263238" stroke-linecap="round" stroke-linejoin="round"/>
<path d="M21.1226 76.8786L16.7124 75.832L14.1459 86.6471L18.556 87.6937L21.1226 76.8786Z" fill="white" stroke="#263238" stroke-linecap="round" stroke-linejoin="round"/>
<path d="M18.6303 81.9993C18.4342 82.8372 17.8236 83.4166 17.2665 83.2829C16.7093 83.1491 16.4286 82.3647 16.6291 81.5001C16.8297 80.6355 17.4358 80.0828 17.9929 80.2121C18.55 80.3413 18.8308 81.1435 18.6303 81.9993Z" fill="#92E3A9" stroke="#263238" stroke-linecap="round" stroke-linejoin="round"/>
<path d="M31.1185 118.099C31.1185 118.099 29.6789 119.93 29.2822 128.581C28.8856 137.232 34.6572 149.676 34.9202 153.344C35.1831 157.012 35.5753 160.421 35.5753 160.421C34.8829 163.976 34.9269 167.634 35.7046 171.171C37.0149 176.805 41.0529 191.873 41.0529 191.873C41.0529 191.873 37.933 198.425 37.933 198.817C37.933 199.209 36.3598 199.998 36.2305 201.046C36.1416 201.566 36.1416 202.098 36.2305 202.619H46.5794C46.5794 202.619 47.2345 201.701 47.2345 199.602C47.2345 197.502 45.795 188.072 45.795 188.072L45.9242 155.839V134.741L59.2949 169.33C62.2949 178.094 65.7492 186.696 69.6437 195.1C69.9156 195.693 71.7385 200.471 73.8332 202.044C75.9279 203.617 77.8979 204.009 78.0271 201.652C78.1564 199.294 76.4538 194.182 74.7513 192.738C73.0488 191.294 70.8204 188.152 70.8204 187.626C70.8204 187.1 64.5094 147.55 64.5094 147.55L59.9456 124.922C59.9456 124.922 60.2709 122.627 59.4553 119.057C58.6397 115.487 53.6614 115.879 53.6614 115.879L32.8255 114.961L31.1185 118.099Z" fill="white" stroke="#263238" stroke-linecap="round" stroke-linejoin="round"/>
<path d="M64.5094 147.55L59.9455 124.922C59.9455 124.922 60.2709 122.627 59.4553 119.057C58.6396 115.487 53.6613 115.879 53.6613 115.879L32.8254 114.961L31.1229 118.107C31.1229 118.107 29.6833 119.939 29.2866 128.59C28.89 137.241 34.6572 149.676 34.9201 153.344C35.1831 157.012 35.5753 160.421 35.5753 160.421C34.8828 163.976 34.9268 167.634 35.7045 171.171C36.1502 173.025 36.8678 175.904 37.6522 178.931C40.3655 179.267 43.1066 179.317 45.8306 179.082L45.9242 155.839V134.741L59.2948 169.33C59.2948 169.33 61.0776 174.451 63.0832 179.332C65.2225 179.367 67.2682 179.136 69.1401 178.151C67.0409 166.63 64.5094 147.55 64.5094 147.55Z" fill="#263238" stroke="#263238" stroke-linecap="round" stroke-linejoin="round"/>
<path d="M47.2348 199.598C47.2348 198.706 46.9807 196.545 46.6866 194.316C45.6258 195.631 43.5133 198.029 41.7305 198.684C39.7873 199.397 38.4859 198.836 38.009 198.555C37.9736 198.638 37.9482 198.725 37.9332 198.813C37.9332 199.206 36.36 199.994 36.2307 201.042C36.1418 201.562 36.1418 202.094 36.2307 202.615H46.5796C46.5796 202.615 47.2348 201.697 47.2348 199.598Z" fill="#263238" stroke="#263238" stroke-linecap="round" stroke-linejoin="round"/>
<path d="M74.7471 192.742L74.6268 192.631C75.2463 194.454 75.7053 197.088 73.9627 198.113C72.9198 198.737 71.7342 198.242 70.7314 197.426C71.5069 199.067 72.5989 201.121 73.829 202.044C75.9282 203.617 77.8937 204.009 78.0229 201.652C78.1521 199.294 76.4496 194.182 74.7471 192.742Z" fill="#263238" stroke="#263238" stroke-linecap="round" stroke-linejoin="round"/>
<path d="M39.6044 75.1222C39.9097 76.583 40.1388 78.0587 40.2908 79.5434C40.3888 81.1167 38.0311 81.6069 38.0311 81.6069C38.0311 81.6069 31.2478 83.4744 30.9536 84.8515C30.6595 86.2287 24.763 104.907 24.763 104.907C23.2878 101.957 20.1546 100.491 18.5724 98.0261C17.7165 96.7314 16.9295 95.3925 16.2147 94.0149C16.5116 93.2915 16.7095 92.5315 16.803 91.7552C16.7771 91.228 16.6075 90.7179 16.3128 90.28C16.3128 90.28 17.6855 89.7897 17.6855 89.1034C17.6855 88.417 16.7941 86.9418 16.5089 86.6432C15.4793 85.5423 13.7545 87.0399 13.7545 87.0399C14.1738 86.3307 14.7051 85.694 15.3278 85.1546C16.2192 84.4638 17.1106 83.4833 16.9011 83.0911C16.6916 82.6988 15.9206 82.895 14.6414 84.0716C13.3623 85.2482 11.691 86.8259 11.691 86.8259C11.691 86.8259 12.3818 85.2526 12.8721 84.0716C13.3623 82.8905 14.4453 82.7969 14.3473 82.1061C14.2492 81.4153 12.9701 81.8119 11.8915 83.1891C10.9203 84.5819 10.3429 86.2109 10.2202 87.9045C10.2202 88.8895 12.1857 90.1641 12.9701 91.7374C13.8475 93.6755 14.5703 95.6799 15.1317 97.7319C15.5239 99.2071 18.1802 105.986 18.9646 108.428C19.749 110.871 24.1747 114.325 25.5474 113.438C26.9201 112.551 33.6099 101.645 33.6099 101.645L34.9782 107.336L30.2673 119.343C35.7675 121.765 41.7744 122.811 47.7694 122.392C57.7929 121.701 59.4643 119.049 59.4643 119.049C59.123 116.849 58.5769 114.685 57.8331 112.587C56.9952 110.126 54.8425 105.487 54.8425 104.899C54.8425 104.31 56.3177 98.708 56.3177 98.708C56.3177 98.708 64.2777 108.928 65.851 109.516C67.4243 110.104 85.1136 108.625 85.1136 108.625C85.9683 109.052 86.8549 109.413 87.7655 109.703C88.8485 109.997 93.4658 110.193 94.1522 109.997C94.8385 109.801 94.4463 109.106 94.4463 109.106C94.4463 109.106 96.4118 109.204 96.4118 108.518C96.4183 108.326 96.3652 108.138 96.2597 107.978C96.1543 107.818 96.0019 107.695 95.8235 107.626C95.912 107.639 96.0022 107.633 96.088 107.607C96.1738 107.582 96.2531 107.538 96.3204 107.48C96.3877 107.421 96.4415 107.348 96.4781 107.266C96.5146 107.185 96.5331 107.096 96.5321 107.007C96.5321 106.316 95.7745 106.169 95.7745 106.169C95.7745 106.169 96.0686 105.777 95.4803 105.384C94.892 104.992 91.3042 103.499 91.3042 103.499C91.3042 103.499 93.087 103.303 93.087 102.715C93.087 102.126 87.8769 102.318 87.293 102.715C86.7092 103.111 84.3426 105.389 84.3426 105.389C84.3426 105.389 71.9614 104.012 70.8783 103.606C69.7953 103.2 67.246 102.528 67.246 102.528C67.246 102.528 60.6587 86.0371 58.7779 84.1473C57.1405 82.4966 54.984 81.4609 52.672 81.2147C51.3095 81.0464 49.9663 80.7479 48.6608 80.3233L47.1677 70.8926C47.1677 70.8926 43.6334 75.2202 39.6044 75.1222Z" fill="white" stroke="#263238" stroke-linecap="round" stroke-linejoin="round"/>
<path d="M70.8518 103.619C69.7732 103.227 67.2194 102.541 67.2194 102.541C67.2194 102.541 60.6322 86.0504 58.7514 84.1607C57.1228 82.5106 54.9765 81.4705 52.6722 81.2147C51.3097 81.0464 49.9665 80.7479 48.661 80.3233L47.1679 70.8926C47.1679 70.8926 43.6336 75.2157 39.5913 75.1177C39.8966 76.5785 40.1257 78.0543 40.2776 79.5389C40.3757 81.1122 38.018 81.6025 38.018 81.6025C38.018 81.6025 31.2346 83.4699 30.9404 84.8471C30.6463 86.2242 24.7498 104.903 24.7498 104.903C24.2847 104.005 23.6833 103.184 22.9671 102.47L22.9938 102.643L22.5883 103.027L18.4434 106.922C18.6573 107.515 18.8356 108.036 18.9648 108.442C19.7537 110.898 24.1749 114.338 25.5476 113.451C26.9203 112.564 33.6101 101.645 33.6101 101.645L34.9784 107.336L30.2675 119.343C35.7677 121.765 41.7746 122.811 47.7696 122.392C57.7931 121.701 59.4645 119.049 59.4645 119.049C59.0248 116.561 58.3411 114.121 57.4232 111.767C56.4293 109.369 54.8427 105.487 54.8427 104.899C54.8427 104.31 56.3179 98.708 56.3179 98.708C56.3179 98.708 64.2779 108.928 65.8512 109.516C66.5063 109.761 69.9738 109.65 73.7844 109.431L74.4039 104.194C73.2102 104.068 72.0243 103.876 70.8518 103.619Z" fill="#92E3A9" stroke="#263238" stroke-linecap="round" stroke-linejoin="round"/>
<path d="M50.8089 98.4492C48.1927 99.608 44.3063 101.36 41.5742 102.723" stroke="#263238" stroke-linecap="round" stroke-linejoin="round"/>
<path d="M53.6256 97.2148L52.1548 97.8566" stroke="#263238" stroke-linecap="round" stroke-linejoin="round"/>
<path d="M45.7056 102.379L40.8833 104.447" stroke="#263238" stroke-linecap="round" stroke-linejoin="round"/>
<path d="M24.7632 104.898C25.3099 105.603 25.803 106.348 26.2384 107.127" stroke="#263238" stroke-linecap="round" stroke-linejoin="round"/>
<path d="M57.5791 92.7398L57.9223 91.1309" stroke="#263238" stroke-linecap="round" stroke-linejoin="round"/>
<path d="M56.3086 98.707L57.2757 94.1699" stroke="#263238" stroke-linecap="round" stroke-linejoin="round"/>
<path d="M31.1944 94.6073L30.7041 93.1855" stroke="#263238" stroke-linecap="round" stroke-linejoin="round"/>
<path d="M33.6101 101.653L31.5688 95.707" stroke="#263238" stroke-linecap="round" stroke-linejoin="round"/>
<path d="M16.3127 90.2532L16.0186 89.5668L16.6069 88.9785" stroke="#263238" stroke-linecap="round" stroke-linejoin="round"/>
<path d="M16.277 86.4902L14.1065 88.3577C14.0533 88.4605 14.0394 88.5791 14.0673 88.6915C14.0951 88.8038 14.1629 88.9022 14.258 88.9683" stroke="#263238" stroke-linecap="round" stroke-linejoin="round"/>
<path d="M91.2955 103.521L89.8203 104.11C89.8203 104.11 90.1144 106.075 87.6587 106.472" stroke="#263238" stroke-linecap="round" stroke-linejoin="round"/>
<path d="M95.7653 106.191L91.9814 105.486" stroke="#263238" stroke-linecap="round" stroke-linejoin="round"/>
<path d="M95.8146 107.647L92.2759 106.961" stroke="#263238" stroke-linecap="round" stroke-linejoin="round"/>
<path d="M94.4375 109.123L91.7856 108.73" stroke="#263238" stroke-linecap="round" stroke-linejoin="round"/>
<path d="M92.2757 105.094C92.2757 105.094 92.2757 107.942 91.3843 109.319" stroke="#263238" stroke-linecap="round" stroke-linejoin="round"/>
<path d="M48.6606 80.3278L47.1676 70.8926C47.1676 70.8926 43.6333 75.2157 39.5909 75.1177C39.8962 76.5785 40.1253 78.0543 40.2772 79.5389C40.3307 80.3946 39.6533 80.9295 39.0293 81.2415C39.9207 83.1044 42.47 87.9268 45.0907 87.2048C47.3191 86.5897 48.5938 82.7746 49.1553 80.4838C48.8389 80.3946 48.6606 80.3278 48.6606 80.3278Z" fill="white" stroke="#263238" stroke-linecap="round" stroke-linejoin="round"/>
<path d="M47.3682 73.6113L46.8779 71.2402C45.942 72.2609 42.947 75.2024 39.6177 75.1222C39.923 76.583 40.1521 78.0588 40.304 79.5434C40.304 79.5657 40.304 79.588 40.304 79.6103C40.9427 79.8137 41.619 79.8704 42.2826 79.7763C42.9462 79.6821 43.5801 79.4395 44.137 79.0665C46.557 77.3239 47.3682 73.6113 47.3682 73.6113Z" fill="#263238" stroke="#263238" stroke-linecap="round" stroke-linejoin="round"/>
<path d="M34.8442 59.3798C34.8442 59.3798 30.0308 59.0812 29.2419 63.2127C28.9685 64.2777 29.1216 65.4074 29.6684 66.3613C30.2153 67.3152 31.1129 68.0181 32.1701 68.3203C32.0529 68.9701 32.1089 69.6394 32.3327 70.2606C32.5565 70.8819 32.9401 71.4332 33.4448 71.859C35.2275 73.4323 39.5418 76.4764 44.3552 75.3978C49.1686 74.3192 53.2957 69.4033 53.1174 66.435C52.9392 63.4667 51.5486 62.8962 51.5486 62.8962C51.5486 62.8962 54.0044 59.6561 51.1519 55.8232C48.2995 51.9903 35.8247 52.3825 33.8593 54.9318C31.8938 57.4811 34.8442 59.3798 34.8442 59.3798Z" fill="#263238" stroke="#263238" stroke-linecap="round" stroke-linejoin="round"/>
<path d="M38.4677 62.6191L34.4565 65.9395C34.4565 65.9395 35.1429 71.6621 36.8588 73.9619C38.5747 76.2616 41.5965 78.704 43.7714 77.9018C45.9464 77.0995 48.0768 73.5028 48.0768 69.8437C48.0768 66.1846 47.3904 64.3484 47.3904 64.3484C47.3904 64.3484 40.5268 64.3395 38.4677 62.6191Z" fill="white" stroke="#263238" stroke-linecap="round" stroke-linejoin="round"/>
<path d="M43.3125 67.063C43.3125 67.063 45.1175 66.6619 45.8529 67.063" stroke="#263238" stroke-linecap="round" stroke-linejoin="round"/>
<path d="M37.2915 68.735C37.5065 68.3241 37.8567 67.9999 38.283 67.8172C38.7093 67.6345 39.1855 67.6045 39.6314 67.7322" stroke="#263238" stroke-linecap="round" stroke-linejoin="round"/>
<path d="M36.1548 66.5283C36.3507 66.0552 36.7036 65.6639 37.1541 65.4204C37.6046 65.1769 38.1252 65.096 38.6284 65.1913" stroke="#263238" stroke-linecap="round" stroke-linejoin="round"/>
<path d="M42.3721 64.652C42.8914 64.3679 43.4869 64.2537 44.0745 64.3257C44.6621 64.3976 45.2124 64.6521 45.6479 65.0531" stroke="#263238" stroke-linecap="round" stroke-linejoin="round"/>
<path d="M40.166 72.7468C40.166 72.7468 43.1076 74.2175 44.712 71.4766" stroke="#263238" stroke-linecap="round" stroke-linejoin="round"/>
<path d="M40.9014 70.0007C40.9014 70.0007 41.971 70.8921 42.9738 69.5996" stroke="#263238" stroke-linecap="round" stroke-linejoin="round"/>
<path d="M47.7695 66.0604C47.7695 66.0604 48.6386 64.3222 49.4409 65.6147C50.2431 66.9072 48.1038 69.4253 48.1038 69.4253L47.7695 66.0604Z" fill="white" stroke="#263238" stroke-linecap="round" stroke-linejoin="round"/>
<path d="M34.751 67.8648C34.751 67.8648 33.0128 67.1962 33.1465 69.2018C33.2802 71.2074 35.7359 71.408 35.7359 71.408L34.751 67.8648Z" stroke="#263238" stroke-linecap="round" stroke-linejoin="round"/>
<path d="M30.2762 47.4843V35.843C30.2762 35.0061 29.9438 34.2035 29.352 33.6117C28.7602 33.02 27.9576 32.6875 27.1207 32.6875H12.8097C11.9736 32.6887 11.1721 33.0217 10.5813 33.6133C9.99053 34.2049 9.65869 35.0069 9.65869 35.843V47.4843C9.65869 48.32 9.99067 49.1215 10.5816 49.7124C11.1725 50.3034 11.974 50.6354 12.8097 50.6354H24.0321L29.7904 55.7385L27.3391 50.6354C28.1372 50.581 28.8848 50.2252 29.4302 49.6401C29.9756 49.0549 30.2781 48.2843 30.2762 47.4843Z" fill="#263238"/>
<path d="M20.91 47V43.79C20.91 43.49 20.83 43.26 20.67 43.1C20.51 42.93 20.265 42.845 19.935 42.845H16.035V41.705H19.035C19.775 41.705 20.34 41.535 20.73 41.195C21.13 40.845 21.33 40.33 21.33 39.65C21.33 38.96 21.13 38.445 20.73 38.105C20.34 37.755 19.775 37.58 19.035 37.58H16.035V36.5H24.225V37.49H21.405V37.7C21.735 37.89 22.01 38.15 22.23 38.48C22.46 38.81 22.575 39.225 22.575 39.725C22.575 40.385 22.415 40.91 22.095 41.3C21.775 41.68 21.385 41.935 20.925 42.065V42.275C21.285 42.285 21.58 42.405 21.81 42.635C22.05 42.855 22.17 43.185 22.17 43.625V47H20.91ZM16.035 40.145V39.155H24.225V40.145H16.035Z" fill="#64CA95"/>
<path d="M185.719 24.3633H92.9712V196.18H185.719V24.3633Z" fill="#92E3A9"/>
<path d="M185.719 24.3633H92.9712V35.0687H185.719V24.3633Z" fill="white"/>
<path opacity="0.3" d="M157.516 24.3633L92.9712 136.966V177.257L180.611 24.3633H157.516Z" fill="white"/>
<path opacity="0.3" d="M185.719 94.7362L184.186 93.6309L128.395 192.181L129.919 196.179H185.719V94.7362Z" fill="white"/>
<path d="M188.504 58.1679C188.808 58.1679 189.099 58.0472 189.314 57.8324C189.529 57.6176 189.65 57.3262 189.65 57.0224V45.5683C189.65 45.2645 189.529 44.9731 189.314 44.7583C189.099 44.5435 188.808 44.4228 188.504 44.4228C188.433 44.4181 188.362 44.4181 188.29 44.4228V23.012C188.29 22.0418 188.099 21.0811 187.728 20.1848C187.356 19.2886 186.812 18.4742 186.126 17.7884C185.44 17.1026 184.625 16.5587 183.728 16.1878C182.832 15.817 181.871 15.6264 180.901 15.627H99.496C98.5258 15.6264 97.565 15.817 96.6684 16.1878C95.7719 16.5587 94.9573 17.1026 94.2711 17.7884C93.5848 18.4742 93.0404 19.2886 92.669 20.1848C92.2976 21.0811 92.1064 22.0418 92.1064 23.012V195.939C92.1064 197.899 92.885 199.778 94.2708 201.164C95.6566 202.55 97.5361 203.328 99.496 203.328H180.901C182.861 203.328 184.74 202.55 186.126 201.164C187.512 199.778 188.29 197.899 188.29 195.939V90.7566C188.361 90.7636 188.433 90.7636 188.504 90.7566C188.808 90.7566 189.099 90.6359 189.314 90.4211C189.529 90.2063 189.65 89.9149 189.65 89.6111V78.1525C189.65 77.8487 189.529 77.5574 189.314 77.3426C189.099 77.1278 188.808 77.0071 188.504 77.0071C188.432 77.0074 188.361 77.0149 188.29 77.0294V74.4578C188.361 74.4648 188.433 74.4648 188.504 74.4578C188.808 74.4578 189.099 74.3371 189.314 74.1223C189.529 73.9075 189.65 73.6161 189.65 73.3123V61.8582C189.65 61.5544 189.529 61.263 189.314 61.0482C189.099 60.8334 188.808 60.7127 188.504 60.7127C188.433 60.7057 188.361 60.7057 188.29 60.7127V58.1456C188.361 58.1601 188.432 58.1675 188.504 58.1679ZM184.012 192.182H96.3851V28.3736H184.012V192.182Z" fill="#263238"/>
<path d="M177.5 45.9434H103.021C101.451 45.9434 100.178 47.2164 100.178 48.7869V74.1108C100.178 75.6813 101.451 76.9543 103.021 76.9543H177.5C179.071 76.9543 180.344 75.6813 180.344 74.1108V48.7869C180.344 47.2164 179.071 45.9434 177.5 45.9434Z" fill="#263238" stroke="#263238" stroke-linecap="round" stroke-linejoin="round"/>
<path d="M133.97 49.459V53.956H133.671V49.459H133.97Z" fill="white"/>
<path d="M134.754 53.956H134.482V49.459H134.87L136.207 53.2607V49.459H136.479V53.956H136.149L134.741 49.9448L134.754 53.956Z" fill="white"/>
<path d="M138.922 50.5609V50.9353H138.641V50.5431C138.641 50.0573 138.454 49.6918 137.959 49.6918C137.464 49.6918 137.277 50.0573 137.277 50.5431V52.8829C137.277 53.3687 137.464 53.7253 137.959 53.7253C138.454 53.7253 138.641 53.3687 138.641 52.8829V52.3481H138.922V52.8651C138.922 53.5158 138.641 54.0061 137.95 54.0061C137.259 54.0061 136.979 53.5158 136.979 52.8651V50.5609C136.979 49.9102 137.264 49.4199 137.95 49.4199C138.636 49.4199 138.922 49.9102 138.922 50.5609Z" fill="white"/>
<path d="M139.385 50.5609C139.385 49.9057 139.688 49.4199 140.37 49.4199C141.052 49.4199 141.369 49.9057 141.369 50.5609V52.8651C141.369 53.5203 141.065 54.0061 140.37 54.0061C139.675 54.0061 139.385 53.5203 139.385 52.8651V50.5609ZM139.684 52.8829C139.684 53.3732 139.876 53.7342 140.37 53.7342C140.865 53.7342 141.07 53.3732 141.07 52.8829V50.5431C141.07 50.0528 140.874 49.6918 140.37 49.6918C139.867 49.6918 139.684 50.0528 139.684 50.5431V52.8829Z" fill="white"/>
<path d="M143.369 53.956H143.071L142.121 49.9715V53.9827H141.854V49.459H142.3L143.245 53.4434L144.185 49.459H144.608V53.956H144.328V49.9448L143.369 53.956Z" fill="white"/>
<path d="M146.632 51.5448V51.8122H145.402V53.693H146.881V53.956H145.099V49.459H146.881V49.7309H145.402V51.5448H146.632Z" fill="white"/>
<path d="M120.167 60.3695V59.75H121.272V60.3918C122.231 60.5879 122.725 61.3233 122.725 62.4954V62.7628H121.446V62.4063C121.446 61.7913 121.201 61.5595 120.769 61.5595C120.336 61.5595 120.091 61.7913 120.091 62.4063C120.091 64.1891 122.739 64.2648 122.739 66.725C122.739 67.8927 122.231 68.6415 121.272 68.842V69.466H120.167V68.842C119.195 68.6415 118.701 67.8927 118.701 66.725V66.1323H119.971V66.8097C119.971 67.4247 120.243 67.6476 120.675 67.6476C121.107 67.6476 121.375 67.4247 121.375 66.8097C121.375 65.0269 118.732 64.9556 118.732 62.4954C118.741 61.3144 119.218 60.579 120.167 60.3695Z" fill="white"/>
<path d="M124.481 61.3643C125.529 61.3643 125.761 60.8606 125.97 60.2812H126.884V68.8919H125.547V62.327H124.499L124.481 61.3643Z" fill="white"/>
<path d="M129.736 66.1108V66.9131C129.736 67.5281 130.003 67.7465 130.436 67.7465C130.868 67.7465 131.135 67.5281 131.135 66.9131V65.0189C131.135 64.4039 130.868 64.1676 130.436 64.1676C130.003 64.1676 129.736 64.4039 129.736 65.0189V65.2774H128.439L128.684 60.2812H132.25V61.5336H129.901L129.789 63.5883C129.911 63.3866 130.085 63.2218 130.293 63.1119C130.501 63.0019 130.735 62.9509 130.97 62.9643C131.969 62.9643 132.472 63.664 132.472 64.9298V66.8507C132.472 68.2279 131.782 69.0123 130.453 69.0123C129.125 69.0123 128.439 68.219 128.439 66.8284V66.1108H129.736Z" fill="white"/>
<path d="M133.386 68.8913V67.5898H134.679V68.7576L134.086 70.1214H133.533L133.89 68.8913H133.386Z" fill="white"/>
<path d="M135.57 62.4238C135.57 60.9708 136.234 60.1953 137.638 60.1953C138.975 60.1953 139.652 60.9842 139.652 62.3614V62.5842H138.373V62.2767C138.373 61.6616 138.106 61.4254 137.673 61.4254C137.241 61.4254 136.925 61.6616 136.925 62.4861V64.0594C137.03 63.8193 137.207 63.6175 137.431 63.4811C137.655 63.3448 137.915 63.2806 138.177 63.2973C139.175 63.2973 139.679 63.997 139.679 65.2628V66.8405C139.679 68.2177 138.953 69.0021 137.624 69.0021C136.296 69.0021 135.57 68.2177 135.57 66.8272V62.4238ZM136.907 65.3608V66.9118C136.907 67.5269 137.174 67.7453 137.607 67.7453C138.039 67.7453 138.306 67.5269 138.306 66.9118V65.3608C138.306 64.7458 138.039 64.514 137.607 64.514C137.174 64.514 136.943 64.7458 136.943 65.3608H136.907Z" fill="white"/>
<path d="M144.519 60.2812V61.4623L142.527 68.8919H141.19L143.147 61.5336H140.473V60.3035L144.519 60.2812Z" fill="white"/>
<path d="M147.358 68.9887C145.994 68.9887 145.241 68.2043 145.241 66.8272V66.1497C145.241 65.3252 145.491 64.6834 146.079 64.367C145.513 64.0594 145.241 63.4756 145.241 62.6332V62.3614C145.241 60.9842 145.994 60.1953 147.358 60.1953C148.722 60.1953 149.475 60.9842 149.475 62.3614V62.6332C149.475 63.48 149.19 64.0594 148.637 64.367C149.226 64.6968 149.475 65.3386 149.475 66.1497V66.8272C149.475 68.2177 148.722 68.9887 147.358 68.9887ZM146.596 62.8694C146.596 63.5558 146.917 63.7608 147.358 63.7608C147.799 63.7608 148.12 63.538 148.12 62.8694V62.3881C148.12 61.6126 147.791 61.4031 147.358 61.4031C146.926 61.4031 146.596 61.6126 146.596 62.3881V62.8694ZM147.358 67.772C147.804 67.772 148.107 67.5625 148.12 66.8004V65.9893C148.12 65.3118 147.84 65.0177 147.358 65.0177C146.877 65.0177 146.596 65.3118 146.596 65.9893V66.787C146.596 67.5492 146.926 67.772 147.358 67.772Z" fill="white"/>
<path d="M151.588 67.5898V68.8913H150.278V67.5898H151.588Z" fill="white"/>
<path d="M154.552 61.4117C154.106 61.4117 153.852 61.648 153.852 62.263V63.1856H152.573V62.3477C152.573 60.9705 153.264 60.1816 154.592 60.1816C155.92 60.1816 156.606 60.9705 156.606 62.3477C156.606 65.053 153.932 66.0603 153.932 67.4776C153.925 67.5383 153.925 67.5996 153.932 67.6603H156.49V68.8904H152.577V67.8341C152.577 65.2981 155.251 64.8836 155.251 62.3967C155.256 61.6212 154.984 61.4117 154.552 61.4117Z" fill="white"/>
<path d="M157.355 62.4238C157.355 60.9708 158.019 60.1953 159.423 60.1953C160.76 60.1953 161.442 60.9842 161.442 62.3614V62.5842H160.163V62.2767C160.163 61.6616 159.891 61.4254 159.459 61.4254C159.026 61.4254 158.71 61.6616 158.71 62.4861V64.0594C158.816 63.819 158.994 63.617 159.218 63.4806C159.443 63.3443 159.704 63.2804 159.967 63.2973C160.961 63.2973 161.464 63.997 161.464 65.2628V66.8405C161.464 68.2177 160.738 69.0021 159.41 69.0021C158.081 69.0021 157.355 68.2177 157.355 66.8405V62.4238ZM158.692 65.3608V66.9118C158.692 67.5269 158.964 67.7453 159.392 67.7453C159.82 67.7453 160.096 67.5269 160.096 66.9118V65.3608C160.096 64.7458 159.824 64.514 159.392 64.514C158.959 64.514 158.71 64.7458 158.71 65.3608H158.692Z" fill="white"/>
<path d="M177.808 85.0918H102.714C101.143 85.0918 99.8701 86.3649 99.8701 87.9353V178.597C99.8701 180.168 101.143 181.441 102.714 181.441H177.808C179.378 181.441 180.651 180.168 180.651 178.597V87.9353C180.651 86.3649 179.378 85.0918 177.808 85.0918Z" fill="#D9D9D9" stroke="#263238" stroke-linecap="round" stroke-linejoin="round"/>
<path d="M179.867 120.782H146.03V97.1875H99.8701V181.423H179.867C180.075 181.423 180.274 181.34 180.421 181.193C180.568 181.046 180.651 180.846 180.651 180.638V121.567C180.651 121.359 180.568 121.159 180.421 121.012C180.274 120.865 180.075 120.782 179.867 120.782Z" fill="white" stroke="#263238" stroke-linecap="round" stroke-linejoin="round"/>
<path d="M111.699 148.357H104.978V164.594H111.699V148.357Z" fill="#92E3A9" stroke="#263238" stroke-linecap="round" stroke-linejoin="round"/>
<path d="M122.529 137.941H115.808V164.594H122.529V137.941Z" fill="#263238" stroke="#263238" stroke-linecap="round" stroke-linejoin="round"/>
<path d="M133.355 146.516H126.634V164.593H133.355V146.516Z" fill="#92E3A9" stroke="#263238" stroke-linecap="round" stroke-linejoin="round"/>
<path d="M144.185 143.674H137.464V164.594H144.185V143.674Z" fill="#263238" stroke="#263238" stroke-linecap="round" stroke-linejoin="round"/>
<path d="M155.011 142.537H148.29V164.594H155.011V142.537Z" fill="#92E3A9" stroke="#263238" stroke-linecap="round" stroke-linejoin="round"/>
<path d="M165.841 128.137H159.12V164.594H165.841V128.137Z" fill="#263238" stroke="#263238" stroke-linecap="round" stroke-linejoin="round"/>
<path d="M176.667 132.424H169.946V164.594H176.667V132.424Z" fill="#92E3A9" stroke="#263238" stroke-linecap="round" stroke-linejoin="round"/>
<path d="M106.957 169.531V169.616H106.716V169.518C106.716 169.108 106.56 168.8 106.141 168.8C105.722 168.8 105.566 169.103 105.566 169.509C105.566 170.449 106.961 170.463 106.961 171.528C106.961 172.085 106.721 172.49 106.132 172.49C105.544 172.49 105.299 172.085 105.299 171.528V171.327H105.539V171.546C105.539 171.956 105.7 172.254 106.123 172.254C106.547 172.254 106.707 171.956 106.707 171.546C106.707 170.619 105.317 170.601 105.317 169.527C105.317 168.947 105.566 168.573 106.137 168.568C106.707 168.564 106.957 168.974 106.957 169.531Z" fill="#263238"/>
<path d="M107.612 171.528C107.612 171.942 107.768 172.259 108.191 172.259C108.615 172.259 108.771 171.942 108.771 171.528V168.6H109.007V171.514C109.007 172.067 108.775 172.49 108.187 172.49C107.599 172.49 107.362 172.067 107.362 171.514V168.6H107.612V171.528Z" fill="#263238"/>
<path d="M109.676 172.459H109.444V168.6H109.774L110.932 171.858V168.6H111.164V172.459H110.883L109.676 169.019V172.459Z" fill="#263238"/>
<path d="M116.98 172.455H116.726L115.911 169.041V172.459H115.688V168.6H116.049L116.86 172.014L117.667 168.6H118.028V172.459H117.787V169.032L116.98 172.455Z" fill="#263238"/>
<path d="M118.456 169.544C118.456 168.983 118.714 168.568 119.298 168.568C119.882 168.568 120.154 168.983 120.154 169.544V171.514C120.154 172.08 119.895 172.49 119.298 172.49C118.701 172.49 118.456 172.08 118.456 171.514V169.544ZM118.71 171.532C118.71 171.951 118.875 172.259 119.298 172.259C119.721 172.259 119.9 171.951 119.9 171.532V169.527C119.9 169.108 119.73 168.8 119.298 168.8C118.866 168.8 118.71 169.108 118.71 169.527V171.532Z" fill="#263238"/>
<path d="M120.805 172.459H120.573V168.6H120.903L122.061 171.858V168.6H122.293V172.459H122.012L120.805 169.019V172.459Z" fill="#263238"/>
<path d="M127.922 172.459V168.831H127.138V168.6H128.961V168.831H128.176V172.459H127.922Z" fill="#263238"/>
<path d="M129.522 171.528C129.522 171.942 129.674 172.259 130.097 172.259C130.52 172.259 130.676 171.942 130.676 171.528V168.6H130.917V171.514C130.917 172.067 130.685 172.49 130.093 172.49C129.5 172.49 129.268 172.067 129.268 171.514V168.6H129.522V171.528Z" fill="#263238"/>
<path d="M132.66 170.387V170.619H131.603V172.228H132.896V172.459H131.372V168.6H132.896V168.831H131.603V170.387H132.66Z" fill="#263238"/>
<path d="M138.565 172.459H138.213L137.589 168.6H137.838L138.413 172.116L138.979 168.617H139.247L139.786 172.107L140.343 168.6H140.571L139.951 172.459H139.621L139.104 169.299L138.565 172.459Z" fill="#263238"/>
<path d="M142.255 170.387V170.619H141.204V172.228H142.469V172.459H140.963V168.6H142.483V168.831H141.217V170.387H142.255Z" fill="#263238"/>
<path d="M143.748 168.6C144.341 168.6 144.604 168.992 144.604 169.558V171.501C144.604 172.067 144.341 172.459 143.748 172.459H142.897V168.6H143.748ZM143.748 172.228C144.194 172.228 144.354 171.938 144.354 171.51V169.549C144.354 169.126 144.172 168.831 143.748 168.831H143.147V172.228H143.748Z" fill="#263238"/>
<path d="M148.941 172.459V168.831H148.156V168.6H149.984V168.831H149.195V172.459H148.941Z" fill="#263238"/>
<path d="M150.554 170.645V172.459H150.304V168.6H150.554V170.414H151.757V168.6H152.016V172.459H151.757V170.645H150.554Z" fill="#263238"/>
<path d="M152.702 171.528C152.702 171.942 152.854 172.259 153.277 172.259C153.701 172.259 153.857 171.942 153.857 171.528V168.6H154.097V171.514C154.097 172.067 153.866 172.49 153.273 172.49C152.68 172.49 152.448 172.067 152.448 171.514V168.6H152.702V171.528Z" fill="#263238"/>
<path d="M161.447 170.481V170.726H160.448V172.473H160.194V168.613H161.661V168.845H160.448V170.494L161.447 170.481Z" fill="#263238"/>
<path d="M162.855 168.6C163.443 168.6 163.679 168.925 163.679 169.491V169.825C163.679 170.271 163.506 170.538 163.122 170.623C163.299 170.658 163.455 170.759 163.559 170.906C163.663 171.053 163.706 171.234 163.679 171.412V172.014C163.672 172.168 163.704 172.321 163.773 172.459H163.51C163.444 172.32 163.415 172.167 163.425 172.014V171.407C163.425 170.895 163.145 170.752 162.703 170.752H162.311V172.477H162.057V168.617L162.855 168.6ZM162.712 170.503C163.158 170.503 163.425 170.378 163.425 169.856V169.495C163.425 169.081 163.265 168.831 162.846 168.831H162.311V170.503H162.712Z" fill="#263238"/>
<path d="M164.433 168.6V172.459H164.179V168.6H164.433Z" fill="#263238"/>
<path d="M173.11 169.531V169.616H172.865V169.518C172.865 169.108 172.714 168.8 172.295 168.8C171.876 168.8 171.72 169.103 171.72 169.509C171.72 170.449 173.115 170.463 173.115 171.528C173.115 172.085 172.869 172.49 172.281 172.49C171.693 172.49 171.448 172.085 171.448 171.528V171.327H171.693V171.546C171.693 171.956 171.853 172.254 172.277 172.254C172.7 172.254 172.861 171.956 172.861 171.546C172.861 170.619 171.466 170.601 171.466 169.527C171.466 168.947 171.72 168.573 172.286 168.568C172.852 168.564 173.11 168.974 173.11 169.531Z" fill="#263238"/>
<path d="M173.899 171.618L173.703 172.473H173.454L174.296 168.609H174.666L175.526 172.473H175.272L175.08 171.618H173.899ZM173.935 171.399H175.058L174.492 168.904L173.935 171.399Z" fill="#263238"/>
<path d="M176.368 172.459V168.831H175.584V168.6H177.411V168.831H176.622V172.459H176.368Z" fill="#263238"/>
<path d="M132.638 89.696V89.7896H132.353V89.6737C132.353 89.2013 132.175 88.8403 131.685 88.8403C131.194 88.8403 131.016 89.1924 131.016 89.6692C131.016 90.7656 132.643 90.7835 132.643 92.0269C132.643 92.6732 132.362 93.1501 131.671 93.1501C130.98 93.1501 130.7 92.6732 130.7 92.0269V91.7952H130.985V92.0448C130.985 92.5261 131.172 92.8737 131.667 92.8737C132.162 92.8737 132.349 92.5261 132.349 92.0448C132.349 90.9617 130.718 90.9439 130.718 89.6871C130.718 89.0141 131.016 88.5728 131.68 88.5684C132.344 88.5639 132.638 89.0453 132.638 89.696Z" fill="#263238"/>
<path d="M133.401 92.0258C133.401 92.5072 133.583 92.8816 134.078 92.8816C134.573 92.8816 134.755 92.5072 134.755 92.0258V88.6074H135.032V92.0125C135.032 92.6543 134.76 93.149 134.074 93.149C133.387 93.149 133.106 92.6543 133.106 92.0125V88.6074H133.401V92.0258Z" fill="#263238"/>
<path d="M137.051 93.1044H136.757L135.821 89.12V93.1312H135.558V88.6074H135.981L136.926 92.5919L137.866 88.6074H138.29V93.1133H138.009V89.1021L137.051 93.1044Z" fill="#263238"/>
<path d="M140.3 93.1044H140.006L139.052 89.12V93.1312H138.789V88.6074H139.212L140.157 92.5919L141.098 88.6074H141.543V93.1133H141.263V89.1021L140.3 93.1044Z" fill="#263238"/>
<path d="M142.466 92.1161L142.243 93.1144H141.971L142.952 88.5996H143.397L144.4 93.1144H144.106L143.879 92.1161H142.466ZM142.506 91.8398H143.843L143.179 88.925L142.506 91.8398Z" fill="#263238"/>
<path d="M145.782 88.6074C146.468 88.6074 146.744 88.9863 146.744 89.6236V90.0158C146.777 90.2244 146.729 90.4377 146.608 90.6112C146.488 90.7847 146.305 90.9051 146.098 90.9473C146.304 90.9884 146.486 91.1073 146.606 91.2791C146.726 91.4509 146.776 91.6625 146.744 91.8699V92.5696C146.73 92.7577 146.769 92.946 146.856 93.1133H146.548C146.467 92.9442 146.433 92.7564 146.45 92.5696V91.8654C146.45 91.2637 146.12 91.0988 145.608 91.0988H145.135V93.1133H144.841V88.6074H145.782ZM145.612 90.8359C146.143 90.8359 146.45 90.6888 146.45 90.0826V89.6592C146.45 89.1734 146.263 88.8837 145.773 88.8837H145.135V90.8359H145.612Z" fill="#263238"/>
<path d="M148.188 91.3933L147.177 88.6211H147.484L148.349 90.9877L149.209 88.6211H149.499L148.483 91.3933V93.127H148.188V91.3933Z" fill="#263238"/>
<path d="M103.997 105.365H103.587L102.861 100.859H103.151L103.824 104.969L104.483 100.882H104.795L105.428 104.955L106.079 100.859H106.342L105.62 105.365H105.236L104.63 101.679L103.997 105.365Z" fill="#263238"/>
<path d="M108.321 102.945V103.217H107.095V105.098H108.575V105.365H106.792V100.859H108.575V101.131H107.095V102.945H108.321Z" fill="#263238"/>
<path d="M110.58 102.945V103.217H109.35V105.098H110.83V105.365H109.047V100.859H110.83V101.131H109.35V102.945H110.58Z" fill="#263238"/>
<path d="M111.917 103.248L111.61 103.739V105.365H111.315V100.859H111.61V103.244L113.076 100.859H113.388L112.1 102.981L113.468 105.388H113.161L111.917 103.248Z" fill="#263238"/>
<path d="M113.914 105.365V100.859H114.208V105.098H115.626V105.365H113.914Z" fill="#263238"/>
<path d="M116.597 103.636L115.585 100.859H115.893L116.758 103.23L117.618 100.859H117.907L116.891 103.636V105.365H116.597V103.636Z" fill="#263238"/>
<path d="M104.015 110.006V109.561H104.818V110.006C105.508 110.144 105.865 110.675 105.865 111.517V111.713H104.942V111.45C104.942 111.005 104.764 110.84 104.456 110.84C104.149 110.84 103.971 111.009 103.971 111.45C103.971 112.725 105.874 112.787 105.874 114.57C105.874 115.412 105.508 115.952 104.818 116.094V116.54H104.015V116.094C103.316 115.952 102.959 115.412 102.959 114.57V114.124H103.882V114.61C103.882 115.056 104.078 115.212 104.385 115.212C104.693 115.212 104.889 115.051 104.889 114.61C104.889 113.336 102.986 113.273 102.986 111.49C102.986 110.684 103.333 110.153 104.015 110.006Z" fill="#263238"/>
<path d="M109.377 114.597C109.377 115.639 108.9 116.205 107.888 116.205C106.877 116.205 106.44 115.639 106.44 114.65V114.49H107.358V114.712C107.358 115.158 107.554 115.323 107.862 115.323C108.169 115.323 108.383 115.154 108.383 114.57V113.438C108.307 113.609 108.182 113.753 108.023 113.85C107.863 113.948 107.678 113.996 107.492 113.986C106.774 113.986 106.413 113.482 106.413 112.569V111.45C106.413 110.461 106.935 109.895 107.888 109.895C108.842 109.895 109.368 110.461 109.368 111.45L109.377 114.597ZM108.383 112.48V111.365C108.383 110.92 108.191 110.764 107.879 110.764C107.567 110.764 107.376 110.924 107.376 111.365V112.48C107.376 112.925 107.572 113.09 107.879 113.09C108.187 113.09 108.383 112.925 108.383 112.48Z" fill="#263238"/>
<path d="M109.943 111.45C109.943 110.461 110.464 109.895 111.418 109.895C112.372 109.895 112.898 110.461 112.898 111.45V114.672C112.898 115.662 112.376 116.228 111.418 116.228C110.46 116.228 109.943 115.662 109.943 114.672V111.45ZM110.914 114.735C110.914 115.18 111.111 115.345 111.418 115.345C111.726 115.345 111.926 115.176 111.926 114.735V111.388C111.926 110.942 111.73 110.777 111.418 110.777C111.106 110.777 110.914 110.946 110.914 111.388V114.735Z" fill="#263238"/>
<path d="M113.446 111.45C113.446 110.461 113.967 109.895 114.925 109.895C115.884 109.895 116.405 110.438 116.405 111.45V114.672C116.405 115.662 115.884 116.228 114.93 116.228C113.976 116.228 113.45 115.662 113.45 114.672L113.446 111.45ZM114.417 114.735C114.417 115.18 114.614 115.345 114.925 115.345C115.237 115.345 115.429 115.176 115.429 114.735V111.388C115.429 110.942 115.233 110.777 114.925 110.777C114.618 110.777 114.417 110.946 114.417 111.388V114.735Z" fill="#263238"/>
<path d="M117.97 115.197V116.133H117.029V115.197H117.97Z" fill="#263238"/>
<path d="M120.073 116.205C119.093 116.205 118.554 115.639 118.554 114.649V114.163C118.522 113.913 118.561 113.659 118.668 113.43C118.774 113.202 118.943 113.008 119.155 112.871C118.946 112.742 118.778 112.556 118.672 112.335C118.565 112.114 118.524 111.867 118.554 111.623V111.449C118.554 110.46 119.093 109.894 120.073 109.894C120.282 109.873 120.492 109.899 120.688 109.97C120.885 110.041 121.063 110.156 121.209 110.305C121.356 110.455 121.466 110.635 121.534 110.833C121.601 111.031 121.623 111.242 121.598 111.449V111.645C121.625 111.889 121.582 112.135 121.476 112.356C121.37 112.576 121.203 112.763 120.996 112.893C121.206 113.032 121.373 113.226 121.479 113.455C121.585 113.683 121.626 113.936 121.598 114.186V114.671C121.619 114.877 121.595 115.085 121.526 115.281C121.457 115.476 121.345 115.653 121.2 115.8C121.054 115.947 120.877 116.059 120.682 116.129C120.487 116.199 120.279 116.225 120.073 116.205ZM119.525 111.81C119.525 112.305 119.757 112.465 120.073 112.465C120.39 112.465 120.622 112.305 120.622 111.81V111.449C120.622 110.892 120.385 110.74 120.073 110.74C119.761 110.74 119.525 110.905 119.525 111.449V111.81ZM120.073 115.322C120.385 115.322 120.613 115.171 120.622 114.622V114.047C120.622 113.562 120.417 113.348 120.073 113.348C119.73 113.348 119.525 113.562 119.525 114.047V114.622C119.525 115.171 119.766 115.322 120.073 115.322Z" fill="#263238"/>
<path d="M125.038 114.597C125.038 115.639 124.561 116.205 123.55 116.205C122.538 116.205 122.101 115.639 122.101 114.65V114.49H123.019V114.712C123.019 115.158 123.215 115.323 123.523 115.323C123.83 115.323 124.062 115.154 124.062 114.561V113.429C123.987 113.6 123.861 113.744 123.702 113.842C123.543 113.939 123.357 113.987 123.171 113.977C122.453 113.977 122.092 113.473 122.092 112.56V111.45C122.092 110.461 122.614 109.895 123.568 109.895C124.521 109.895 125.047 110.461 125.047 111.45L125.038 114.597ZM124.062 112.48V111.365C124.062 110.92 123.871 110.764 123.559 110.764C123.247 110.764 123.055 110.924 123.055 111.365V112.48C123.055 112.925 123.251 113.09 123.559 113.09C123.866 113.09 124.062 112.925 124.062 112.48Z" fill="#263238"/>
<path d="M150.995 105.361H150.724L149.77 101.376V105.365H149.507V100.859H149.93L150.88 104.844L151.816 100.859H152.261V105.365H151.976V101.354L150.995 105.361Z" fill="#263238"/>
<path d="M152.715 101.961C152.715 101.306 153.014 100.824 153.7 100.824C154.387 100.824 154.694 101.306 154.694 101.961V104.265C154.694 104.925 154.396 105.406 153.7 105.406C153.005 105.406 152.715 104.925 152.715 104.265V101.961ZM153.009 104.287C153.009 104.773 153.201 105.134 153.7 105.134C154.199 105.134 154.4 104.773 154.4 104.287V101.943C154.4 101.453 154.199 101.092 153.7 101.092C153.201 101.092 153.009 101.453 153.009 101.943V104.287Z" fill="#263238"/>
<path d="M155.452 105.365H155.18V100.859H155.568L156.905 104.666V100.859H157.172V105.365H156.847L155.434 101.354L155.452 105.365Z" fill="#263238"/>
<path d="M158.461 105.365V101.131H157.547V100.859H159.677V101.131H158.746V105.365H158.461Z" fill="#263238"/>
<path d="M160.337 103.248V105.365H160.042V100.859H160.337V102.981H161.741V100.864H162.044V105.37H161.741V103.248H160.337Z" fill="#263238"/>
<path d="M162.556 105.365V100.859H162.855V105.098H164.268V105.365H162.556Z" fill="#263238"/>
<path d="M165.239 103.636L164.228 100.859H164.54L165.4 103.23L166.264 100.859H166.554L165.538 103.636V105.365H165.239V103.636Z" fill="#263238"/>
<path d="M150.581 110.006V109.561H151.378V110.006C152.069 110.144 152.421 110.675 152.421 111.517V111.713H151.499V111.45C151.499 111.005 151.325 110.84 151.013 110.84C150.701 110.84 150.527 111.009 150.527 111.45C150.527 112.725 152.43 112.787 152.43 114.57C152.43 115.412 152.069 115.952 151.378 116.094V116.54H150.581V116.094C149.881 115.952 149.529 115.412 149.529 114.57V114.124H150.447V114.61C150.447 115.056 150.643 115.212 150.951 115.212C151.258 115.212 151.454 115.051 151.454 114.61C151.454 113.336 149.556 113.273 149.556 111.49C149.556 110.684 149.899 110.153 150.581 110.006Z" fill="#263238"/>
<path d="M153.687 110.719C153.931 110.75 154.177 110.688 154.376 110.544C154.575 110.399 154.711 110.185 154.757 109.943H155.412V116.134H154.44V111.41H153.687V110.719Z" fill="#263238"/>
<path d="M156.517 111.45C156.517 110.461 157.039 109.895 157.997 109.895C158.955 109.895 159.472 110.461 159.472 111.45V114.672C159.472 115.662 158.951 116.228 157.997 116.228C157.043 116.228 156.517 115.639 156.517 114.65V111.45ZM157.489 114.735C157.489 115.18 157.685 115.345 157.997 115.345C158.309 115.345 158.5 115.176 158.5 114.735V111.388C158.5 110.942 158.304 110.777 157.997 110.777C157.689 110.777 157.489 110.946 157.489 111.388V114.735Z" fill="#263238"/>
<path d="M160.083 116.133V115.197H161.023V116.04L160.578 117.02H160.181L160.44 116.129L160.083 116.133Z" fill="#263238"/>
<path d="M163.163 110.755C162.855 110.755 162.659 110.924 162.659 111.365V112.029H161.737V111.45C161.737 110.461 162.236 109.895 163.189 109.895C164.143 109.895 164.642 110.461 164.642 111.45C164.642 113.398 162.704 114.124 162.704 115.14C162.699 115.185 162.699 115.23 162.704 115.274H164.54V116.165H161.723V115.408C161.723 113.585 163.653 113.282 163.653 111.495C163.649 110.906 163.475 110.755 163.163 110.755Z" fill="#263238"/>
<path d="M165.164 111.45C165.164 110.461 165.685 109.895 166.639 109.895C167.593 109.895 168.105 110.438 168.105 111.45V114.672C168.105 115.662 167.584 116.228 166.626 116.228C165.667 116.228 165.15 115.662 165.15 114.672L165.164 111.45ZM166.135 114.735C166.135 115.18 166.331 115.345 166.639 115.345C166.947 115.345 167.143 115.176 167.143 114.735V111.388C167.143 110.942 166.951 110.777 166.639 110.777C166.327 110.777 166.135 110.946 166.135 111.388V114.735Z" fill="#263238"/>
<path d="M168.667 111.45C168.667 110.461 169.188 109.895 170.142 109.895C171.096 109.895 171.621 110.461 171.621 111.45V114.672C171.621 115.662 171.1 116.228 170.142 116.228C169.184 116.228 168.667 115.662 168.667 114.672V111.45ZM169.638 114.735C169.638 115.18 169.834 115.345 170.142 115.345C170.449 115.345 170.65 115.176 170.65 114.735V111.388C170.65 110.942 170.454 110.777 170.142 110.777C169.83 110.777 169.638 110.946 169.638 111.388V114.735Z" fill="#263238"/>
<path d="M173.186 115.197V116.133H172.25V115.197H173.186Z" fill="#263238"/>
<path d="M174.79 114.124V114.699C174.79 115.144 174.982 115.3 175.294 115.3C175.606 115.3 175.798 115.14 175.798 114.699V113.335C175.798 112.889 175.601 112.724 175.294 112.724C174.986 112.724 174.79 112.894 174.79 113.335V113.522H173.868L174.046 109.93H176.613V110.821H174.924L174.844 112.301C174.931 112.156 175.056 112.038 175.205 111.96C175.354 111.881 175.522 111.845 175.691 111.855C176.408 111.855 176.774 112.363 176.774 113.272V114.654C176.774 115.643 176.274 116.209 175.321 116.209C174.367 116.209 173.868 115.643 173.868 114.654V114.124H174.79Z" fill="#263238"/>
<path d="M196.184 203.352H210" stroke="#263238" stroke-miterlimit="10"/>
<path d="M3.20068 203.352H192.172" stroke="#263238" stroke-miterlimit="10"/>
</svg>
