<svg width="513" height="382" viewBox="0 0 513 382" fill="none" xmlns="http://www.w3.org/2000/svg">
<path d="M512.667 335.695H0V335.952H512.667V335.695Z" fill="#4A4646"/>
<path d="M461.298 352.193H427.339V352.45H461.298V352.193Z" fill="#4A4646"/>
<path d="M339.611 354.982H330.701V355.239H339.611V354.982Z" fill="#4A4646"/>
<path d="M426.314 342.676H406.638V342.932H426.314V342.676Z" fill="#4A4646"/>
<path d="M98.0733 344.4H53.7891V344.657H98.0733V344.4Z" fill="#4A4646"/>
<path d="M113.699 344.4H107.209V344.657H113.699V344.4Z" fill="#4A4646"/>
<path d="M230.854 348.727H134.801V348.983H230.854V348.727Z" fill="#4A4646"/>
<path d="M243.004 289.965H45.0226C43.4717 289.962 41.9851 289.344 40.8894 288.246C39.7936 287.148 39.1782 285.661 39.1782 284.11V5.80339C39.1917 4.26132 39.8131 2.78684 40.9074 1.70023C42.0017 0.61362 43.4805 0.00264166 45.0226 0H243.004C244.557 0 246.046 0.616829 247.144 1.71479C248.242 2.81275 248.859 4.30191 248.859 5.85466V284.11C248.859 285.663 248.242 287.152 247.144 288.25C246.046 289.348 244.557 289.965 243.004 289.965ZM45.0226 0.205068C43.5396 0.207784 42.1183 0.798802 41.0706 1.8484C40.023 2.89799 39.4346 4.3204 39.4346 5.80339V284.11C39.4346 285.593 40.023 287.015 41.0706 288.065C42.1183 289.114 43.5396 289.706 45.0226 289.708H243.004C244.488 289.706 245.911 289.115 246.96 288.066C248.009 287.016 248.6 285.594 248.603 284.11V5.80339C248.6 4.31946 248.009 2.89707 246.96 1.84777C245.911 0.798469 244.488 0.207778 243.004 0.205068H45.0226Z" fill="#4A4646"/>
<path d="M464.794 289.965H266.802C265.25 289.962 263.763 289.344 262.666 288.247C261.568 287.149 260.95 285.662 260.948 284.11V5.80339C260.964 4.26038 261.588 2.78591 262.684 1.69959C263.779 0.613261 265.259 0.00261285 266.802 0H464.794C466.335 0.00533635 467.811 0.617507 468.903 1.70383C469.995 2.79015 470.615 4.26309 470.629 5.80339V284.11C470.629 285.659 470.015 287.145 468.921 288.243C467.828 289.34 466.344 289.959 464.794 289.965ZM266.802 0.205068C265.318 0.207778 263.896 0.798469 262.847 1.84777C261.797 2.89707 261.207 4.31946 261.204 5.80339V284.11C261.207 285.594 261.797 287.016 262.847 288.066C263.896 289.115 265.318 289.706 266.802 289.708H464.794C466.278 289.706 467.701 289.115 468.75 288.066C469.799 287.016 470.39 285.594 470.393 284.11V5.80339C470.39 4.31946 469.799 2.89707 468.75 1.84777C467.701 0.798469 466.278 0.207778 464.794 0.205068H266.802Z" fill="#4A4646"/>
<path d="M382.614 76.9102H368.085V122.138H382.614V76.9102Z" fill="#E6E6E6"/>
<path d="M421.997 122.139H373.786L366.506 69.2012H414.717L421.997 122.139Z" fill="#828080"/>
<path d="M427.216 122.139H377.425L370.146 69.2012H419.936L427.216 122.139Z" fill="#64CA95"/>
<path d="M381.025 117.965L374.894 73.373H416.338L422.479 117.965H381.025Z" fill="white"/>
<path d="M389.217 104.459L386.91 87.7256C386.841 87.284 386.87 86.8327 386.993 86.4032C387.117 85.9737 387.333 85.5763 387.625 85.2387C387.918 84.901 388.281 84.6312 388.689 84.448C389.096 84.2648 389.539 84.1727 389.986 84.1779H405.048C405.802 84.1722 406.532 84.4437 407.099 84.9408C407.666 85.438 408.031 86.1262 408.124 86.8746L410.421 103.618C410.488 104.059 410.458 104.509 410.334 104.937C410.209 105.366 409.993 105.762 409.701 106.098C409.408 106.435 409.046 106.704 408.639 106.886C408.232 107.069 407.791 107.161 407.345 107.156H392.303C391.547 107.164 390.815 106.894 390.246 106.396C389.676 105.899 389.31 105.209 389.217 104.459Z" fill="#64CA95"/>
<path d="M292.169 27.3574H75.0137V161.317H292.169V27.3574Z" fill="#E6E6E6"/>
<path d="M297.747 27.3574H77.6182V161.317H297.747V27.3574Z" fill="#828080"/>
<path d="M292.169 161.324H75.0137V171.69H292.169V161.324Z" fill="#E6E6E6"/>
<path d="M307.037 161.324H86.9077V171.69H307.037V161.324Z" fill="#828080"/>
<path d="M289.934 153.51V35.166L85.4307 35.166V153.51H289.934Z" fill="white"/>
<path d="M100.441 153.51L146.284 35.166H167.919L122.076 153.51H100.441Z" fill="#B1B1B1"/>
<path d="M126.732 153.51L172.575 35.166H181.003L135.16 153.51H126.732Z" fill="#B1B1B1"/>
<path d="M206.934 153.51L252.776 35.166H261.205L215.372 153.51H206.934Z" fill="#B1B1B1"/>
<path d="M289.924 153.51V35.166H288.929V153.51H289.924Z" fill="#E6E6E6"/>
<path d="M456.787 122.139H410.811V335.695H456.787V122.139Z" fill="#E6E6E6"/>
<path d="M452.162 335.696H456.787V322.541H447.312L452.162 335.696Z" fill="#828080"/>
<path d="M376.226 122.139H330.25V335.695H376.226V122.139Z" fill="#E6E6E6"/>
<path d="M456.786 122.139H372.186V327.626H456.786V122.139Z" fill="#828080"/>
<path d="M376.81 335.696H372.186V322.541H381.66L376.81 335.696Z" fill="#828080"/>
<path d="M453.198 125.902H375.775V222.837H453.198V125.902Z" fill="#E6E6E6"/>
<path d="M422.869 133.447H406.104C402.5 133.446 398.934 132.712 395.623 131.287C392.313 129.863 389.327 127.779 386.849 125.162H442.124C439.647 127.78 436.662 129.865 433.351 131.29C430.04 132.714 426.473 133.448 422.869 133.447Z" fill="#828080"/>
<path d="M453.198 226.762H375.775V323.697H453.198V226.762Z" fill="#E6E6E6"/>
<path d="M422.869 234.31H406.104C402.5 234.31 398.934 233.575 395.623 232.151C392.313 230.726 389.327 228.642 386.849 226.025H442.124C439.647 228.643 436.662 230.729 433.351 232.153C430.04 233.578 426.473 234.312 422.869 234.31Z" fill="#828080"/>
<path d="M132.781 189.574H209.291L220.385 234.761H143.865L132.781 189.574Z" fill="#E6E6E6"/>
<path d="M143.865 234.762L144.183 237.253H220.693L220.385 234.762H143.865Z" fill="#E6E6E6"/>
<path d="M135.139 189.574H211.65L222.744 234.761H146.223L135.139 189.574Z" fill="#828080"/>
<path d="M147.843 232.687L137.764 191.633H210.029L220.108 232.687H147.843Z" fill="#B1B1B1"/>
<path d="M166.166 234.762L166.473 237.253H250.725L250.417 234.762H166.166Z" fill="#828080"/>
<path d="M269.95 237.256H260.784V335.688H269.95V237.256Z" fill="#E6E6E6"/>
<path d="M272.852 237.256H266.484V335.688H272.852V237.256Z" fill="#828080"/>
<path d="M156.702 248.521L274.831 248.521V237.253H156.702V248.521Z" fill="#828080"/>
<path d="M152.59 248.521H143.424V335.685H152.59V248.521Z" fill="#E6E6E6"/>
<path d="M155.481 248.521H149.114V335.685H155.481V248.521Z" fill="#828080"/>
<path d="M94.5669 248.521H85.4004V335.685H94.5669V248.521Z" fill="#E6E6E6"/>
<path d="M97.4689 248.521H91.1016V335.685H97.4689V248.521Z" fill="#828080"/>
<path d="M211.937 248.521H202.77V335.685H211.937V248.521Z" fill="#E6E6E6"/>
<path d="M214.828 248.521H208.461V335.685H214.828V248.521Z" fill="#828080"/>
<path d="M156.692 237.256H85.4004V248.524H156.692V237.256Z" fill="#E6E6E6"/>
<path d="M299.746 335.692H297.521L291.195 304.276L290.077 298.77L283.064 264.534H256.405L241.979 335.692H239.723L254.447 263.221C254.493 262.981 254.62 262.764 254.807 262.606C254.993 262.447 255.228 262.357 255.472 262.35H284.018C284.265 262.347 284.505 262.434 284.693 262.594C284.882 262.754 285.006 262.977 285.043 263.221L291.195 293.284L292.22 298.78L299.746 335.692Z" fill="#828080"/>
<path d="M342.554 335.693H340.319L325.862 264.535H299.203L292.221 298.781L291.195 304.277L284.807 335.693H282.583L290.078 298.781L291.185 293.296L297.337 263.233C297.385 262.994 297.513 262.777 297.699 262.619C297.885 262.461 298.118 262.37 298.362 262.361H326.815C327.06 262.369 327.295 262.459 327.481 262.617C327.667 262.776 327.794 262.993 327.841 263.233L342.554 335.693Z" fill="#828080"/>
<path d="M276.84 263.441H325.831C335.182 263.441 340.37 257.084 343.015 246.605L344.307 240.617C344.744 238.806 344.763 236.919 344.364 235.1C343.965 233.28 343.158 231.575 342.003 230.112C340.849 228.65 339.378 227.469 337.701 226.658C336.023 225.847 334.184 225.428 332.321 225.432H301.561C295.204 225.432 293.523 226.949 289.124 236.526C284.725 246.102 276.84 263.441 276.84 263.441Z" fill="#828080"/>
<path d="M303.55 263.441H251.34C250.69 263.441 250.067 263.183 249.607 262.723C249.148 262.264 248.89 261.64 248.89 260.99V260.765C248.89 259.884 249.063 259.012 249.4 258.199C249.737 257.385 250.231 256.646 250.854 256.023C251.476 255.4 252.216 254.907 253.029 254.57C253.843 254.233 254.715 254.059 255.595 254.059H303.55V263.451V263.441Z" fill="#828080"/>
<path d="M256.334 382.001C366.129 382.001 455.136 376.804 455.136 370.394C455.136 363.984 366.129 358.787 256.334 358.787C146.538 358.787 57.5317 363.984 57.5317 370.394C57.5317 376.804 146.538 382.001 256.334 382.001Z" fill="#64CA95"/>
<path d="M208.174 337.593L201.612 341.818L189.718 327.986L196.28 323.762L208.174 337.593Z" fill="#FF8B7B"/>
<path opacity="0.2" d="M196.29 323.762L189.718 327.986L195.86 335.122L202.422 330.888L196.29 323.762Z" fill="black"/>
<path d="M158.025 360.152L150.478 360.891L142.634 342.947L150.181 342.209L158.025 360.152Z" fill="#FF8B7B"/>
<path opacity="0.2" d="M142.645 342.955L146.685 352.204H154.549L150.181 342.217L142.645 342.955Z" fill="black"/>
<path d="M100.719 117.914C96.9255 118.252 96.823 111.813 90.1583 114.838C81.6891 118.693 84.5498 124.671 77.9364 124.425C71.3229 124.179 66.8935 129.336 68.37 133.181C69.8465 137.026 72.133 140.666 67.4574 142.214C62.7819 143.763 59.6034 145.126 60.2801 149.002C60.9568 152.878 64.2686 154.436 58.6908 156.907C53.113 159.378 53.6769 170.062 59.142 170.073C64.607 170.083 59.3675 175.404 64.2686 180.818C69.1697 186.232 76.6239 186.97 79.7307 184.304C82.8375 181.638 86.3031 179.434 92.1475 183.535C97.9919 187.637 107.886 188.662 107.435 182.161C106.984 175.661 101.283 171.395 106.656 168.012C112.029 164.628 118.96 162.957 116.786 156.374C115.402 152.273 111.219 148.705 114.592 145.639C120.078 140.656 120.108 129.377 113.382 126.516C109.476 124.866 113.239 116.786 100.719 117.914Z" fill="#263238"/>
<path d="M93.4186 168.589C93.2341 171.665 92.8445 174.402 92.3933 177.284C91.9422 180.165 91.286 182.974 90.5375 185.794C89.8078 188.644 88.8793 191.44 87.7588 194.161C87.2051 195.535 86.5694 196.898 85.8927 198.262C85.5543 198.939 85.1852 199.605 84.8058 200.261C84.6315 200.6 84.4162 200.928 84.2214 201.287L83.924 201.769C83.7222 202.09 83.4959 202.395 83.2473 202.681C82.6786 203.324 81.9795 203.837 81.1967 204.188C80.4973 204.505 79.7476 204.696 78.9819 204.752C77.8559 204.817 76.7279 204.664 75.6599 204.301C74.0693 203.755 72.5537 203.011 71.1484 202.086C68.6736 200.468 66.3318 198.654 64.1454 196.662C59.9301 192.828 55.9995 188.692 52.3848 184.287L55.2967 181.488C57.3474 183.292 59.3981 185.127 61.541 186.871C63.684 188.614 65.7756 190.367 67.9596 191.997C70.0389 193.597 72.2321 195.043 74.5217 196.324C75.4898 196.873 76.5233 197.296 77.5977 197.585C77.8563 197.665 78.1288 197.69 78.3975 197.657H78.1924C78.057 197.723 77.9324 197.809 77.8233 197.913L77.772 197.965L77.9976 197.544C78.1412 197.267 78.3052 197.001 78.4385 196.714C78.7256 196.146 79.0024 195.572 79.269 194.991C79.7817 193.822 80.2944 192.633 80.7045 191.392C81.5658 188.931 82.2835 186.389 82.9192 183.805C83.5549 181.221 84.0368 178.586 84.4675 175.93C84.8981 173.275 85.2262 170.557 85.4928 168.035L93.4186 168.589Z" fill="#FF8B7B"/>
<path d="M99.3759 169.55C98.9657 172.031 96.9048 176.727 95.2745 180.214C94.0646 182.736 93.0803 184.633 93.0803 184.633L91.6449 183.997L79.7612 178.706C80.6635 172.298 82.1297 165.377 89.1943 162.229C93.6032 160.281 100.104 165.08 99.3759 169.55Z" fill="#64CA95"/>
<path opacity="0.6" d="M99.3759 169.55C98.9657 172.031 96.9048 176.727 95.2745 180.214C94.0646 182.736 93.0803 184.633 93.0803 184.633L91.6449 183.997L79.7612 178.706C80.6635 172.298 82.1297 165.377 89.1943 162.229C93.6032 160.281 100.104 165.08 99.3759 169.55Z" fill="black"/>
<path opacity="0.3" d="M95.2439 180.214C94.034 182.736 93.0497 184.633 93.0497 184.633L91.6143 183.997C91.8091 181.465 92.3115 177.476 93.6649 175.682C94.5103 177.062 95.0488 178.607 95.2439 180.214Z" fill="black"/>
<path d="M55.7477 183.832L56.691 176.932L48.9497 179.433C48.9497 179.433 50.1801 183.607 52.9383 185.319L55.7477 183.832Z" fill="#FF8B7B"/>
<path d="M53.1843 171.039L47.7808 174.002L48.9496 179.478L56.6909 176.935L53.1843 171.039Z" fill="#FF8B7B"/>
<path d="M199.192 339.745L206.318 334.619C206.44 334.529 206.591 334.487 206.741 334.5C206.892 334.514 207.033 334.581 207.138 334.69L211.988 339.745C212.106 339.876 212.195 340.031 212.249 340.199C212.303 340.367 212.321 340.544 212.301 340.719C212.282 340.894 212.226 341.064 212.136 341.216C212.047 341.368 211.927 341.499 211.783 341.601C209.271 343.344 207.969 344.052 204.831 346.297C202.903 347.681 198.843 351.024 196.177 352.931C193.511 354.838 191.491 352.316 192.425 351.28C196.628 346.646 197.746 343.488 198.412 340.883C198.533 340.425 198.808 340.023 199.192 339.745Z" fill="#263238"/>
<path d="M149.484 358.559H158.712C158.878 358.562 159.038 358.618 159.169 358.72C159.301 358.821 159.395 358.963 159.44 359.123L161.49 366.444C161.54 366.617 161.549 366.799 161.515 366.976C161.482 367.153 161.407 367.319 161.297 367.462C161.187 367.605 161.046 367.72 160.883 367.797C160.721 367.875 160.542 367.914 160.362 367.91C157.102 367.91 155.554 367.91 151.483 367.91H139.036C135.652 367.91 134.934 364.485 136.339 364.178C142.614 362.793 146.233 360.876 148.171 359.051C148.53 358.726 149 358.55 149.484 358.559Z" fill="#263238"/>
<path d="M135.396 197.337L105.179 206.893C84.2624 165.49 87.2461 163.296 87.2461 163.296C87.2461 163.296 92.0755 160.538 97.0996 158.241C97.8583 157.893 98.6273 157.554 99.3861 157.216C103.85 155.442 108.434 153.989 113.105 152.869C113.792 152.684 114.479 152.52 115.156 152.356C118.875 151.515 122.641 150.895 126.434 150.5C126.886 156.232 127.337 161.081 127.829 165.296C128.465 170.791 129.152 175.19 129.88 178.994C131.225 185.246 133.07 191.38 135.396 197.337Z" fill="#64CA95"/>
<path opacity="0.6" d="M135.396 197.337L105.179 206.893C84.2624 165.49 87.2461 163.296 87.2461 163.296C87.2461 163.296 92.0755 160.538 97.0996 158.241C97.8583 157.893 98.6273 157.554 99.3861 157.216C103.85 155.442 108.434 153.989 113.105 152.869C113.792 152.684 114.479 152.52 115.156 152.356C118.875 151.515 122.641 150.895 126.434 150.5C126.886 156.232 127.337 161.081 127.829 165.296C128.465 170.791 129.152 175.19 129.88 178.994C131.225 185.246 133.07 191.38 135.396 197.337Z" fill="black"/>
<path opacity="0.3" d="M129.961 179.013C127.06 174.911 124.281 165.366 124.999 161.787L127.87 165.314C128.505 170.81 129.192 175.209 129.961 179.013Z" fill="black"/>
<path d="M106.256 171.025C106.256 171.025 113.874 169.374 116.325 172.686C119.688 169.374 118.498 156.434 116.878 151.82C115.594 152.039 114.333 152.382 113.115 152.846L107.732 161.171L106.256 171.025Z" fill="#B1B1B1"/>
<path d="M106.256 171.025C106.256 171.025 101.129 172.173 100.586 176.367C93.4082 171.025 93.9107 163.202 95.5307 158.588C96.7605 157.992 98.0539 157.538 99.3859 157.234L104.769 163.161L106.256 171.025Z" fill="#B1B1B1"/>
<path d="M108.009 144.151C109.034 147.924 110.593 151.656 113.136 152.887C113.136 152.887 115.504 159.675 106.276 171.025C96.6176 164.145 99.4065 157.234 99.4065 157.234C103.959 154.497 102.677 150.887 100.739 147.729L103.416 143.433C103.682 143.019 104.063 142.692 104.512 142.49C104.961 142.289 105.459 142.222 105.946 142.298C106.432 142.374 106.886 142.59 107.252 142.919C107.618 143.247 107.881 143.676 108.009 144.151Z" fill="#FF8B7B"/>
<path opacity="0.2" d="M108.009 144.152C107.886 143.669 107.624 143.232 107.255 142.896C106.886 142.561 106.427 142.341 105.934 142.264C105.441 142.188 104.937 142.258 104.484 142.466C104.03 142.674 103.648 143.011 103.385 143.435L102.523 144.808C102.595 145.721 102.636 146.469 102.626 146.859C102.544 149.525 106.286 149.402 109.332 148.12C108.789 146.834 108.347 145.507 108.009 144.152Z" fill="black"/>
<path d="M89.4605 133.847C92.1264 141.117 93.0902 144.255 97.9708 146.941C105.302 150.991 113.648 146.131 113.217 138.205C112.828 131.079 108.542 120.375 100.411 119.585C98.6188 119.404 96.81 119.683 95.1561 120.397C93.5023 121.111 92.0583 122.236 90.9613 123.665C89.8643 125.093 89.1505 126.779 88.8879 128.561C88.6252 130.343 88.8223 132.163 89.4605 133.847Z" fill="#FF8B7B"/>
<path d="M108.317 122.919C105.815 120.51 103.19 117.711 98.1658 118.254C92.6085 118.859 90.4143 122.222 90.4143 122.222L85.6362 132.67C85.6362 132.67 88.5995 146.123 93.4903 139.848C96.31 136.218 96.3817 130.732 95.3564 126.631C97.2778 126.36 99.1717 125.921 101.016 125.319C103.272 126.159 105.805 126.159 107.681 124.437C108.091 124.057 108.388 123.76 108.604 123.524L108.778 123.329C109.332 122.622 108.87 122.694 108.317 122.919ZM101.857 125.093C103.609 124.526 105.388 124.051 107.189 123.668C106.519 124.376 105.666 124.884 104.725 125.136C103.783 125.387 102.791 125.373 101.857 125.093Z" fill="#263238"/>
<path d="M89.8297 141.24C90.5996 142.53 91.8494 143.463 93.3056 143.834C95.2332 144.316 96.1457 142.583 95.5613 140.758C95.0384 139.148 93.4081 136.954 91.46 137.262C91.0388 137.339 90.6437 137.52 90.3112 137.79C89.9786 138.06 89.7192 138.409 89.5569 138.805C89.3945 139.201 89.3344 139.632 89.3821 140.057C89.4298 140.483 89.5837 140.889 89.8297 141.24Z" fill="#FF8B7B"/>
<path d="M105.179 206.901C105.179 206.901 104.154 268.821 112.244 291.194C120.036 312.644 143.281 349.515 143.281 349.515L156.753 349.177C156.753 349.177 135.344 302.473 131.848 284.017C126.024 253.39 127.306 199.939 127.306 199.939L105.179 206.901Z" fill="#64CA95"/>
<path opacity="0.3" d="M117.278 212.243L120.897 201.99L127.306 199.939C127.306 199.939 126.721 224.271 128.126 249.504C122.312 238.307 117.278 217.801 117.278 212.243Z" fill="black"/>
<path d="M141.383 350.213L158.024 349.792L157.061 344.676L138.892 345.537L141.383 350.213Z" fill="#263238"/>
<path d="M111.762 204.905C111.762 204.905 132.781 252.983 146.367 280.349C157.338 302.455 191.481 332.108 191.481 332.108L200.843 325.617C200.843 325.617 175.148 290.49 167.571 275.499C143.322 227.534 149.299 207.766 135.355 197.338L111.762 204.905Z" fill="#64CA95"/>
<path d="M192.035 335.202L203.027 327.379L200.535 322.58L188.457 331.716L192.035 335.202Z" fill="#263238"/>
<path d="M135.344 195.418L137.559 197.694C137.733 197.868 137.559 198.166 137.2 198.279L105.507 208.296C105.241 208.388 104.974 208.296 104.902 208.163L103.774 205.538C103.692 205.364 103.877 205.128 104.174 205.036L134.781 195.346C134.873 195.308 134.973 195.295 135.072 195.307C135.171 195.32 135.265 195.358 135.344 195.418Z" fill="#263238"/>
<path d="M132.269 200.143L133.089 199.887C133.253 199.887 133.355 199.702 133.304 199.61L131.817 196.216C131.773 196.161 131.712 196.121 131.644 196.105C131.575 196.088 131.503 196.095 131.438 196.124L130.618 196.39C130.454 196.442 130.351 196.565 130.402 196.667L131.899 200.051C131.93 200.153 132.094 200.194 132.269 200.143Z" fill="#64CA95"/>
<path d="M107.856 207.865L108.676 207.609C108.84 207.558 108.932 207.435 108.891 207.332L107.394 203.938C107.394 203.836 107.179 203.805 107.015 203.856L106.195 204.113C106.041 204.164 105.938 204.287 105.979 204.39L107.476 207.783C107.523 207.836 107.584 207.872 107.653 207.887C107.721 207.901 107.792 207.894 107.856 207.865Z" fill="#64CA95"/>
<path d="M120.057 204.043L120.877 203.787C121.041 203.736 121.143 203.612 121.092 203.51L119.595 200.116C119.595 200.024 119.39 199.983 119.226 200.034L118.406 200.29C118.242 200.29 118.139 200.465 118.191 200.567L119.677 203.961C119.729 204.043 119.893 204.043 120.057 204.043Z" fill="#64CA95"/>
<path d="M102.215 132.269C102.4 132.874 102.861 133.295 103.241 133.151C103.62 133.008 103.805 132.444 103.62 131.849C103.436 131.254 102.984 130.824 102.595 130.967C102.205 131.111 102.041 131.644 102.215 132.269Z" fill="#263238"/>
<path d="M109.034 130.219C109.219 130.824 109.68 131.244 110.06 131.101C110.439 130.957 110.624 130.404 110.449 129.799C110.275 129.194 109.803 128.773 109.424 128.917C109.045 129.06 108.86 129.614 109.034 130.219Z" fill="#263238"/>
<path d="M109.26 128.999L110.582 128.148C110.582 128.148 110.183 129.502 109.26 128.999Z" fill="#263238"/>
<path d="M107.332 131.789C108.283 133.002 109.394 134.082 110.634 134.998C110.386 135.307 110.075 135.559 109.721 135.736C109.367 135.913 108.979 136.011 108.583 136.024L107.332 131.789Z" fill="#FF5652"/>
<path d="M106.553 139.343C106.581 139.32 106.602 139.289 106.613 139.255C106.624 139.22 106.625 139.183 106.615 139.148C106.6 139.102 106.569 139.062 106.528 139.038C106.486 139.013 106.436 139.005 106.389 139.015C105.644 139.258 104.852 139.321 104.079 139.198C103.305 139.075 102.572 138.769 101.939 138.307C101.92 138.291 101.898 138.279 101.875 138.271C101.851 138.263 101.826 138.26 101.802 138.262C101.777 138.264 101.753 138.271 101.73 138.282C101.708 138.293 101.689 138.309 101.672 138.328C101.656 138.347 101.644 138.368 101.636 138.392C101.629 138.416 101.626 138.441 101.628 138.465C101.629 138.49 101.636 138.514 101.647 138.536C101.659 138.558 101.674 138.578 101.693 138.594C102.373 139.097 103.163 139.43 103.998 139.565C104.832 139.701 105.687 139.635 106.492 139.374L106.553 139.343Z" fill="#263238"/>
<path d="M99.6425 130.6C99.6903 130.555 99.7256 130.498 99.745 130.436C99.8972 129.998 100.15 129.602 100.483 129.28C100.816 128.958 101.22 128.718 101.662 128.58C101.714 128.575 101.764 128.558 101.809 128.533C101.853 128.507 101.892 128.472 101.923 128.43C101.953 128.388 101.974 128.34 101.985 128.289C101.996 128.239 101.996 128.186 101.985 128.136C101.974 128.085 101.953 128.037 101.922 127.995C101.892 127.953 101.853 127.918 101.808 127.893C101.763 127.867 101.713 127.851 101.661 127.846C101.61 127.84 101.558 127.846 101.509 127.862C100.939 128.025 100.417 128.326 99.99 128.737C99.5629 129.148 99.2429 129.657 99.0581 130.221C99.04 130.266 99.0312 130.315 99.0323 130.364C99.0334 130.413 99.0443 130.462 99.0643 130.507C99.0844 130.552 99.1132 130.592 99.1491 130.626C99.185 130.659 99.2273 130.685 99.2734 130.702C99.3386 130.716 99.4061 130.713 99.4703 130.696C99.5345 130.678 99.5935 130.645 99.6425 130.6Z" fill="#263238"/>
<path d="M111.116 126.353C111.112 126.329 111.112 126.305 111.116 126.281C111.128 126.185 111.105 126.088 111.05 126.009C110.995 125.929 110.913 125.873 110.818 125.851C110.244 125.728 109.649 125.745 109.082 125.898C108.515 126.051 107.992 126.337 107.558 126.732C107.49 126.803 107.453 126.898 107.455 126.996C107.457 127.094 107.497 127.187 107.568 127.255C107.639 127.323 107.734 127.36 107.832 127.358C107.93 127.357 108.023 127.316 108.091 127.245C108.438 126.938 108.854 126.717 109.303 126.601C109.752 126.485 110.222 126.477 110.675 126.579C110.763 126.6 110.856 126.589 110.937 126.548C111.018 126.506 111.081 126.437 111.116 126.353Z" fill="#263238"/>
<path d="M131.069 157.758C132.289 158.67 133.315 159.521 134.381 160.444C135.447 161.367 136.432 162.29 137.457 163.254C139.456 165.181 141.384 167.191 143.209 169.303C145.054 171.427 146.767 173.663 148.336 175.999C148.746 176.573 149.105 177.198 149.484 177.793C149.863 178.388 150.243 178.992 150.581 179.628C150.92 180.264 151.278 180.828 151.607 181.535L152.15 182.673L152.591 183.822C153.536 186.733 153.98 189.785 153.903 192.845C153.841 195.689 153.536 198.522 152.991 201.314C152.458 204.052 151.76 206.728 150.94 209.353C150.113 211.982 149.148 214.566 148.049 217.094L144.337 215.72C144.973 213.259 145.578 210.675 146.029 208.122C146.53 205.594 146.896 203.041 147.126 200.473C147.372 197.986 147.43 195.484 147.3 192.988C147.227 191.805 147.083 190.627 146.869 189.461C146.645 188.385 146.332 187.329 145.936 186.303L145.619 185.596L145.27 184.95C144.993 184.478 144.614 183.924 144.245 183.401C143.875 182.878 143.568 182.376 143.219 181.853C142.871 181.33 142.512 180.828 142.122 180.336C140.625 178.285 138.933 176.419 137.252 174.522C135.57 172.625 133.725 170.841 131.848 169.098C130.926 168.216 129.972 167.355 129.018 166.514C128.065 165.673 127.04 164.833 126.158 164.115L131.069 157.758Z" fill="#FF8B7B"/>
<path d="M145.516 213.271L139.897 217.373L147.074 221.167C147.074 221.167 149.217 217.373 148.53 214.205L145.516 213.271Z" fill="#FF8B7B"/>
<path d="M138.124 224.028L143.999 225.843L147.126 221.188L139.897 217.395L138.124 224.028Z" fill="#FF8B7B"/>
<path d="M126.475 150.522C130.402 150.348 138.123 159.996 138.123 159.996L130.105 171.336C130.105 171.336 121.102 164.159 120.405 159.165C119.821 154.91 121.472 150.727 126.475 150.522Z" fill="#64CA95"/>
<path opacity="0.6" d="M126.475 150.522C130.402 150.348 138.123 159.996 138.123 159.996L130.105 171.336C130.105 171.336 121.102 164.159 120.405 159.165C119.821 154.91 121.472 150.727 126.475 150.522Z" fill="black"/>
<path d="M196.496 342.956H196.373C196.193 342.934 196.022 342.864 195.878 342.754C195.734 342.645 195.622 342.498 195.552 342.331C195.498 342.234 195.47 342.124 195.47 342.013C195.47 341.902 195.498 341.793 195.552 341.695C196.055 340.834 198.874 340.67 199.192 340.67C199.228 340.669 199.263 340.679 199.294 340.697C199.325 340.715 199.35 340.741 199.367 340.772C199.387 340.803 199.398 340.839 199.398 340.875C199.398 340.912 199.387 340.947 199.367 340.978C198.68 341.736 197.459 342.956 196.496 342.956ZM198.751 341.08C197.624 341.162 196.127 341.429 195.87 341.88C195.842 341.921 195.828 341.969 195.828 342.018C195.828 342.068 195.842 342.116 195.87 342.157C195.914 342.269 195.986 342.368 196.079 342.443C196.173 342.519 196.285 342.568 196.403 342.587C196.947 342.649 197.808 342.085 198.751 341.08Z" fill="#64CA95"/>
<path d="M198.997 341.057C198.054 341.057 196.198 340.534 195.849 339.775C195.794 339.641 195.784 339.492 195.821 339.351C195.858 339.211 195.94 339.086 196.054 338.996C196.161 338.901 196.286 338.829 196.422 338.785C196.558 338.74 196.702 338.725 196.844 338.74C197.962 338.863 199.284 340.678 199.335 340.79C199.353 340.818 199.362 340.85 199.362 340.883C199.362 340.915 199.353 340.947 199.335 340.975C199.321 341.002 199.301 341.026 199.276 341.043C199.251 341.061 199.222 341.073 199.192 341.078L198.997 341.057ZM196.721 339.109C196.568 339.108 196.421 339.167 196.311 339.273C196.136 339.427 196.157 339.55 196.188 339.632C196.413 340.124 197.869 340.657 198.823 340.657C198.351 340.073 197.469 339.15 196.772 339.078L196.721 339.109Z" fill="#64CA95"/>
<path d="M145.372 360.087C144.741 360.132 144.11 359.982 143.567 359.656C143.427 359.553 143.311 359.419 143.229 359.264C143.148 359.11 143.102 358.939 143.096 358.764C143.087 358.667 143.105 358.569 143.146 358.481C143.188 358.393 143.252 358.317 143.332 358.262C144.172 357.698 147.32 359.123 147.946 359.42C147.981 359.436 148.009 359.462 148.028 359.495C148.047 359.529 148.054 359.567 148.048 359.605C148.045 359.644 148.029 359.681 148.003 359.71C147.977 359.74 147.943 359.76 147.905 359.769C147.073 359.959 146.225 360.066 145.372 360.087ZM143.906 358.487C143.778 358.48 143.65 358.509 143.537 358.569C143.51 358.589 143.49 358.616 143.477 358.646C143.464 358.677 143.46 358.711 143.465 358.743C143.469 358.864 143.501 358.983 143.557 359.089C143.614 359.196 143.695 359.288 143.793 359.359C144.336 359.769 145.618 359.83 147.269 359.523C146.209 359.004 145.074 358.654 143.906 358.487Z" fill="#64CA95"/>
<path d="M147.863 359.77H147.802C146.777 359.34 144.644 357.648 144.726 356.776C144.726 356.592 144.88 356.346 145.351 356.294C147.197 356.069 147.976 359.37 148.007 359.555C148.014 359.588 148.012 359.623 148.001 359.655C147.99 359.688 147.971 359.717 147.945 359.739C147.921 359.757 147.893 359.768 147.863 359.77ZM145.597 356.643H145.474C145.28 356.643 145.177 356.725 145.157 356.817C145.095 357.32 146.551 358.663 147.617 359.247C147.341 358.437 146.674 356.643 145.597 356.643Z" fill="#64CA95"/>
<path d="M102.441 131.031L103.764 130.18C103.764 130.18 103.364 131.533 102.441 131.031Z" fill="#263238"/>
<path d="M295.943 56.0569H146.931C145.339 56.0461 143.761 56.3614 142.296 56.9835C140.83 57.6056 139.508 58.5213 138.41 59.6741C137.312 60.8269 136.462 62.1924 135.911 63.6865C135.361 65.1805 135.123 66.7713 135.211 68.3609L149.187 358.09C149.386 361.39 150.826 364.493 153.219 366.776C155.611 369.058 158.779 370.35 162.085 370.394H311.097C312.689 370.405 314.266 370.089 315.731 369.467C317.196 368.845 318.518 367.929 319.615 366.776C320.712 365.623 321.561 364.257 322.11 362.763C322.659 361.269 322.896 359.679 322.806 358.09L308.841 68.3609C308.642 65.0603 307.202 61.9573 304.809 59.675C302.417 57.3927 299.249 56.1001 295.943 56.0569Z" fill="black"/>
<path d="M301.449 56.0569H152.396C150.804 56.046 149.227 56.3614 147.762 56.9836C146.297 57.6058 144.975 58.5217 143.878 59.6746C142.781 60.8276 141.932 62.1932 141.383 63.6872C140.834 65.1812 140.597 66.7718 140.686 68.3609L154.652 358.09C154.851 361.39 156.291 364.493 158.684 366.776C161.076 369.058 164.244 370.35 167.55 370.394H316.562C318.154 370.405 319.731 370.089 321.196 369.467C322.661 368.845 323.983 367.929 325.08 366.776C326.177 365.623 327.026 364.257 327.575 362.763C328.124 361.269 328.361 359.679 328.271 358.09L314.306 68.3609C314.108 65.0673 312.673 61.97 310.289 59.6888C307.905 57.4075 304.748 56.1104 301.449 56.0569Z" fill="#263238"/>
<path d="M167.129 362.191C166.032 362.163 164.984 361.728 164.189 360.97C163.395 360.212 162.912 359.185 162.833 358.09L148.889 68.3611C148.864 67.8323 148.946 67.3039 149.131 66.8079C149.316 66.3119 149.6 65.8585 149.965 65.4751C150.33 65.0918 150.769 64.7865 151.256 64.5776C151.742 64.3687 152.266 64.2606 152.795 64.2598H301.807C302.906 64.2829 303.957 64.7167 304.752 65.4758C305.547 66.2349 306.029 67.2643 306.103 68.3611L320.068 358.09C320.093 358.618 320.011 359.145 319.827 359.641C319.642 360.136 319.359 360.589 318.995 360.972C318.631 361.355 318.194 361.661 317.708 361.87C317.223 362.08 316.7 362.189 316.172 362.191H167.129Z" fill="#64CA95"/>
<path opacity="0.1" d="M167.058 360.139C166.51 360.12 165.988 359.901 165.591 359.523C165.194 359.145 164.949 358.634 164.904 358.088L150.939 68.3593C150.93 68.096 150.973 67.8334 151.066 67.587C151.159 67.3406 151.301 67.1153 151.482 66.9243C151.664 66.7333 151.881 66.5805 152.123 66.4747C152.364 66.369 152.624 66.3125 152.887 66.3086H301.899C302.448 66.3246 302.971 66.5429 303.369 66.9214C303.766 67.3 304.01 67.8121 304.052 68.3593L318.018 358.088C318.027 358.351 317.984 358.614 317.891 358.86C317.798 359.107 317.656 359.332 317.475 359.523C317.293 359.714 317.075 359.867 316.834 359.973C316.593 360.078 316.333 360.135 316.069 360.139H167.058Z" fill="black"/>
<g opacity="0.3">
<path d="M212.029 343.49H182.51C181.699 343.481 180.923 343.165 180.337 342.605C179.75 342.046 179.398 341.285 179.352 340.476L177.198 295.658C177.172 295.262 177.227 294.865 177.361 294.491C177.495 294.117 177.705 293.775 177.977 293.486C178.25 293.197 178.579 292.968 178.944 292.812C179.31 292.657 179.703 292.578 180.1 292.582H209.671C210.479 292.589 211.255 292.903 211.839 293.461C212.424 294.019 212.774 294.779 212.819 295.586L214.941 340.414C214.966 340.811 214.91 341.208 214.775 341.582C214.639 341.956 214.429 342.298 214.155 342.586C213.882 342.875 213.552 343.104 213.186 343.26C212.821 343.415 212.427 343.494 212.029 343.49ZM180.059 293.628C179.803 293.627 179.55 293.677 179.314 293.775C179.078 293.874 178.864 294.019 178.685 294.202C178.511 294.391 178.376 294.612 178.288 294.853C178.2 295.094 178.161 295.35 178.173 295.607L180.336 340.414C180.365 340.963 180.601 341.48 180.997 341.861C181.393 342.242 181.919 342.458 182.469 342.465H212.029C212.286 342.467 212.541 342.416 212.777 342.315C213.014 342.214 213.227 342.066 213.404 341.88C213.581 341.693 213.718 341.472 213.806 341.231C213.894 340.989 213.931 340.732 213.916 340.476L211.752 295.658C211.726 295.11 211.492 294.593 211.098 294.212C210.703 293.831 210.178 293.615 209.63 293.607L180.059 293.628Z" fill="white"/>
<path d="M209.24 304.037H181.484C181.348 304.037 181.218 303.983 181.122 303.887C181.026 303.791 180.972 303.66 180.972 303.524C180.972 303.388 181.026 303.258 181.122 303.162C181.218 303.066 181.348 303.012 181.484 303.012H209.271C209.407 303.012 209.537 303.066 209.633 303.162C209.73 303.258 209.784 303.388 209.784 303.524C209.784 303.66 209.73 303.791 209.633 303.887C209.537 303.983 209.407 304.037 209.271 304.037H209.24Z" fill="white"/>
<path d="M209.527 309.826H181.73C181.595 309.823 181.466 309.769 181.37 309.673C181.275 309.577 181.22 309.449 181.217 309.313C181.217 309.177 181.271 309.047 181.367 308.951C181.464 308.855 181.594 308.801 181.73 308.801H209.527C209.663 308.801 209.793 308.855 209.889 308.951C209.985 309.047 210.039 309.177 210.039 309.313C210.037 309.449 209.982 309.577 209.886 309.673C209.791 309.769 209.662 309.823 209.527 309.826Z" fill="white"/>
<path d="M209.804 315.619H182.007C181.872 315.616 181.743 315.562 181.648 315.466C181.552 315.37 181.497 315.242 181.495 315.106C181.495 314.97 181.549 314.84 181.645 314.744C181.741 314.648 181.871 314.594 182.007 314.594H209.804C209.94 314.594 210.07 314.648 210.167 314.744C210.263 314.84 210.317 314.97 210.317 315.106C210.317 315.242 210.263 315.373 210.167 315.469C210.07 315.565 209.94 315.619 209.804 315.619Z" fill="white"/>
<path d="M210.081 321.414H182.295C182.159 321.414 182.029 321.36 181.932 321.264C181.836 321.168 181.782 321.037 181.782 320.901C181.782 320.765 181.836 320.635 181.932 320.539C182.029 320.443 182.159 320.389 182.295 320.389H210.081C210.217 320.389 210.348 320.443 210.444 320.539C210.54 320.635 210.594 320.765 210.594 320.901C210.594 321.037 210.54 321.168 210.444 321.264C210.348 321.36 210.217 321.414 210.081 321.414Z" fill="white"/>
<path d="M210.358 327.207H182.571C182.435 327.207 182.305 327.153 182.209 327.057C182.113 326.961 182.059 326.83 182.059 326.694C182.059 326.558 182.113 326.428 182.209 326.332C182.305 326.236 182.435 326.182 182.571 326.182H210.358C210.494 326.182 210.624 326.236 210.72 326.332C210.816 326.428 210.87 326.558 210.87 326.694C210.87 326.83 210.816 326.961 210.72 327.057C210.624 327.153 210.494 327.207 210.358 327.207Z" fill="white"/>
<path d="M204.944 333.002H182.848C182.712 333.002 182.582 332.948 182.486 332.852C182.389 332.756 182.335 332.625 182.335 332.489C182.335 332.353 182.389 332.223 182.486 332.127C182.582 332.031 182.712 331.977 182.848 331.977H204.944C205.08 331.977 205.21 332.031 205.307 332.127C205.403 332.223 205.457 332.353 205.457 332.489C205.454 332.624 205.399 332.753 205.304 332.849C205.208 332.944 205.079 332.999 204.944 333.002Z" fill="white"/>
</g>
<g opacity="0.3">
<path d="M204.793 234.724L203.268 213.341C203.128 211.388 202.477 209.907 201.314 208.899C200.219 207.813 198.549 207.351 196.306 207.511L169.822 209.4L169.063 198.763L189.794 197.284C194.57 196.943 198.144 195.561 200.517 193.137C202.957 190.635 204.012 187.069 203.681 182.438C203.346 177.734 201.795 174.354 199.03 172.297C196.332 170.162 192.595 169.265 187.82 169.605L167.088 171.084L166.375 161.099L225.314 156.894L225.973 166.12L206.435 167.514L206.551 169.142C208.965 170.351 210.939 172.029 212.474 174.174C214.076 176.242 215.011 179.157 215.28 182.92C215.589 187.261 214.754 190.848 212.775 193.681C210.862 196.435 208.244 198.477 204.92 199.805L205.044 201.541C207.799 201.418 210.071 202.165 211.859 203.783C213.647 205.401 214.652 207.765 214.874 210.877L216.516 233.888L204.793 234.724ZM168.404 189.537L167.746 180.311L226.685 176.106L227.343 185.332L168.404 189.537Z" fill="black"/>
</g>
<path opacity="0.2" d="M284.223 93.8828H182.715L192.609 299.062C193.092 307.468 196.749 315.377 202.839 321.19C208.93 327.003 217.001 330.286 225.42 330.376H326.928L317.044 125.197C316.566 116.787 312.909 108.874 306.815 103.06C300.721 97.2461 292.645 93.9655 284.223 93.8828Z" fill="black"/>
<path d="M309.087 93.8828H182.746C191.165 93.9705 199.237 97.2531 205.329 103.066C211.42 108.88 215.076 116.79 215.556 125.197L223.626 292.223C224.109 300.629 227.765 308.538 233.856 314.351C239.947 320.164 248.017 323.447 256.436 323.537H320.14C324.196 323.579 328.218 322.787 331.954 321.209C335.691 319.63 339.062 317.3 341.86 314.363C344.658 311.426 346.821 307.945 348.216 304.136C349.61 300.328 350.207 296.273 349.967 292.223L341.908 125.197C341.43 116.787 337.774 108.874 331.68 103.06C325.586 97.2461 317.51 93.9655 309.087 93.8828Z" fill="white"/>
<path d="M286.253 292.221C286.493 296.268 285.899 300.321 284.507 304.128C283.114 307.935 280.954 311.416 278.159 314.352C275.365 317.289 271.996 319.62 268.262 321.2C264.529 322.779 260.51 323.574 256.457 323.534H382.788C386.842 323.574 390.861 322.779 394.595 321.2C398.329 319.62 401.699 317.29 404.494 314.353C407.289 311.416 409.451 307.936 410.844 304.129C412.238 300.321 412.834 296.268 412.594 292.221H286.253Z" fill="#E6E6E6"/>
<path d="M326.877 197.553H237.591C236.965 197.547 236.365 197.303 235.912 196.871C235.459 196.439 235.187 195.851 235.15 195.226C235.134 194.925 235.179 194.625 235.282 194.342C235.386 194.06 235.547 193.801 235.754 193.583C235.962 193.365 236.212 193.192 236.489 193.074C236.766 192.956 237.064 192.897 237.365 192.898H326.651C327.284 192.895 327.895 193.134 328.356 193.567C328.818 194 329.096 194.594 329.133 195.226C329.15 195.53 329.104 195.834 328.997 196.12C328.891 196.405 328.727 196.665 328.515 196.884C328.303 197.103 328.048 197.275 327.766 197.39C327.484 197.505 327.181 197.561 326.877 197.553Z" fill="#64CA95"/>
<path d="M327.574 212.085H238.287C237.662 212.078 237.062 211.834 236.609 211.402C236.156 210.97 235.884 210.382 235.847 209.757C235.83 209.457 235.875 209.156 235.979 208.873C236.083 208.591 236.244 208.333 236.451 208.115C236.659 207.896 236.909 207.723 237.186 207.605C237.463 207.488 237.761 207.428 238.062 207.43H327.358C327.982 207.439 328.58 207.684 329.031 208.116C329.481 208.548 329.752 209.134 329.788 209.757C329.805 210.058 329.76 210.359 329.656 210.641C329.552 210.924 329.392 211.182 329.184 211.4C328.977 211.618 328.727 211.791 328.45 211.909C328.173 212.027 327.875 212.087 327.574 212.085Z" fill="#64CA95"/>
<path d="M328.282 226.602H238.985C238.359 226.596 237.759 226.352 237.306 225.92C236.853 225.488 236.581 224.9 236.545 224.275C236.528 223.974 236.573 223.673 236.677 223.391C236.781 223.108 236.941 222.85 237.149 222.632C237.356 222.414 237.606 222.241 237.883 222.123C238.16 222.005 238.459 221.945 238.76 221.947H328.107C328.733 221.954 329.333 222.198 329.786 222.63C330.239 223.062 330.511 223.65 330.548 224.275C330.565 224.58 330.518 224.885 330.411 225.171C330.304 225.457 330.139 225.718 329.926 225.937C329.713 226.155 329.457 226.328 329.174 226.442C328.891 226.557 328.587 226.611 328.282 226.602Z" fill="#64CA95"/>
<path d="M328.978 241.151H239.692C239.067 241.142 238.468 240.897 238.016 240.466C237.564 240.034 237.291 239.448 237.252 238.824C237.235 238.523 237.28 238.222 237.384 237.94C237.488 237.657 237.648 237.399 237.856 237.181C238.063 236.963 238.313 236.79 238.59 236.672C238.867 236.554 239.166 236.494 239.467 236.496H328.753C329.379 236.503 329.979 236.747 330.432 237.179C330.885 237.611 331.157 238.199 331.193 238.824C331.21 239.124 331.165 239.425 331.061 239.708C330.957 239.99 330.797 240.248 330.589 240.466C330.382 240.684 330.132 240.858 329.855 240.975C329.578 241.093 329.279 241.153 328.978 241.151Z" fill="#64CA95"/>
<path d="M294.179 255.678H240.39C239.764 255.672 239.164 255.428 238.711 254.996C238.258 254.564 237.986 253.976 237.949 253.351C237.932 253.05 237.977 252.75 238.081 252.467C238.185 252.185 238.346 251.926 238.553 251.708C238.761 251.49 239.011 251.317 239.288 251.199C239.565 251.081 239.863 251.022 240.164 251.023H293.953C294.579 251.03 295.179 251.274 295.632 251.706C296.085 252.138 296.357 252.726 296.393 253.351C296.41 253.652 296.365 253.952 296.261 254.235C296.157 254.517 295.997 254.776 295.789 254.994C295.582 255.212 295.332 255.385 295.055 255.503C294.778 255.621 294.48 255.68 294.179 255.678Z" fill="#64CA95"/>
<path d="M300.382 167.434C310.948 156.611 310.306 138.849 298.948 127.761C287.59 116.673 269.817 116.459 259.251 127.282C248.686 138.105 249.328 155.867 260.686 166.955C272.044 178.043 289.817 178.257 300.382 167.434Z" fill="#64CA95"/>
<path d="M302.966 147.341C303.16 151.151 302.38 154.948 300.7 158.373C298.879 162.046 296.059 165.131 292.565 167.275C289.07 169.419 285.042 170.534 280.942 170.493C276.701 170.461 272.541 169.327 268.871 167.202C265.2 165.077 262.145 162.035 260.005 158.373C258.008 155.024 256.864 151.235 256.673 147.341C256.495 144.348 256.935 141.352 257.965 138.537C258.995 135.722 260.593 133.148 262.659 130.977C264.726 128.806 267.217 127.083 269.978 125.915C272.738 124.747 275.71 124.159 278.707 124.189C284.928 124.266 290.89 126.697 295.391 130.993C299.892 135.288 302.599 141.13 302.966 147.341Z" fill="white"/>
<path opacity="0.4" d="M300.7 158.373C298.879 162.046 296.059 165.132 292.564 167.275C289.069 169.419 285.041 170.534 280.942 170.493C276.701 170.461 272.541 169.327 268.87 167.202C265.2 165.077 262.144 162.035 260.004 158.373C265.905 154.324 272.904 152.177 280.06 152.221C287.39 152.235 294.559 154.372 300.7 158.373Z" fill="#64CA95"/>
<path opacity="0.4" d="M286.985 146.788C290.869 142.809 290.635 136.28 286.461 132.206C282.287 128.131 275.755 128.054 271.87 132.033C267.986 136.013 268.22 142.541 272.394 146.616C276.568 150.69 283.1 150.767 286.985 146.788Z" fill="#64CA95"/>
<path d="M365.798 362.703H358.272L357.514 345.252H365.05L365.798 362.703Z" fill="#B55B52"/>
<path opacity="0.2" d="M357.524 345.262L357.903 354.254H365.44L365.05 345.262H357.524Z" fill="black"/>
<path d="M429.913 342.256L422.756 344.594L413.743 329.183L420.91 326.846L429.913 342.256Z" fill="#B55B52"/>
<path opacity="0.2" d="M420.91 326.846L413.743 329.183L418.398 337.13L425.555 334.792L420.91 326.846Z" fill="black"/>
<path d="M391.268 110.654C392.201 111.792 392.99 112.808 393.8 113.925C394.61 115.043 395.379 116.109 396.148 117.216C397.666 119.441 399.122 121.718 400.485 124.066C403.323 128.829 405.637 133.886 407.386 139.148L407.56 139.661L407.642 139.928L407.755 140.348L407.96 141.189L408.073 141.958C408.194 142.879 408.232 143.809 408.186 144.736C408.09 146.301 407.864 147.855 407.509 149.381C406.86 152.116 405.999 154.797 404.935 157.399C402.908 162.387 400.451 167.19 397.594 171.754L392.467 169.303C394.005 164.495 395.543 159.573 396.671 154.785C397.258 152.476 397.704 150.134 398.004 147.771C398.13 146.751 398.168 145.722 398.117 144.695C398.101 144.33 398.053 143.966 397.973 143.609L397.922 143.424C397.903 143.391 397.886 143.357 397.871 143.321L397.789 143.127L397.625 142.727L396.938 141.117L396.169 139.517C395.656 138.492 395.092 137.385 394.528 136.318C393.359 134.206 392.098 132.104 390.786 130.013C389.473 127.921 388.079 125.911 386.684 123.861C385.29 121.81 383.762 119.759 382.378 117.903L391.268 110.654Z" fill="#B55B52"/>
<path d="M392.939 168.032L389.997 174.543H398.415C398.415 174.543 399.758 169.601 396.702 167.602L392.939 168.032Z" fill="#B55B52"/>
<path d="M390.981 181.864L398.794 180.357L398.415 174.543H389.997L390.981 181.864Z" fill="#B55B52"/>
<path d="M353.967 77.6088C353.967 78.224 353.649 78.7162 353.249 78.7162C352.849 78.7162 352.531 78.224 352.531 77.6088C352.531 76.9936 352.859 76.5117 353.249 76.5117C353.639 76.5117 353.967 77.0039 353.967 77.6088Z" fill="#263238"/>
<path d="M353.741 78.7148C353.018 80.5701 352.041 82.3161 350.839 83.903C351.253 84.2002 351.728 84.4037 352.229 84.4993C352.73 84.5949 353.246 84.5804 353.741 84.4567V78.7148Z" fill="#A02724"/>
<path d="M356.12 74.2465C356.045 74.2474 355.973 74.2219 355.915 74.1747C355.558 73.9059 355.143 73.7243 354.703 73.6442C354.264 73.5641 353.811 73.5878 353.382 73.7133C353.297 73.7366 353.205 73.7273 353.126 73.6872C353.047 73.647 352.985 73.5788 352.953 73.4958C352.921 73.4129 352.921 73.321 352.953 73.238C352.985 73.1551 353.047 73.0869 353.126 73.0468C353.666 72.8753 354.24 72.836 354.798 72.9324C355.357 73.0287 355.884 73.2579 356.335 73.6005C356.411 73.6577 356.462 73.7418 356.477 73.8353C356.492 73.9288 356.471 74.0246 356.417 74.1029C356.382 74.1477 356.337 74.1839 356.285 74.2087C356.234 74.2336 356.177 74.2465 356.12 74.2465Z" fill="#263238"/>
<path d="M373.581 84.6113C372.494 90.1276 371.417 100.227 375.273 103.898C375.273 103.898 373.765 109.486 363.533 109.486C352.254 109.486 358.15 103.898 358.15 103.898C364.302 102.432 364.137 97.8791 363.061 93.5933L373.581 84.6113Z" fill="#B55B52"/>
<path d="M376.749 105.816C377.559 104.052 378.451 102.022 376.605 101.386C374.555 100.689 363.522 99.9817 359.698 101.294C359.195 101.433 358.724 101.671 358.314 101.994C357.904 102.317 357.562 102.718 357.308 103.174C357.055 103.63 356.894 104.132 356.836 104.651C356.778 105.169 356.824 105.694 356.97 106.195L376.749 105.816Z" fill="#263238"/>
<path d="M421.208 346.388C420.654 346.921 420.028 347.351 419.557 347.28C419.408 347.25 419.272 347.174 419.167 347.064C419.063 346.954 418.995 346.815 418.972 346.664C418.941 346.548 418.936 346.426 418.957 346.307C418.978 346.188 419.026 346.076 419.095 345.977C419.711 345.024 422.171 344.614 422.305 344.604C422.338 344.599 422.371 344.603 422.402 344.615C422.432 344.628 422.459 344.649 422.479 344.675C422.498 344.704 422.509 344.738 422.509 344.773C422.509 344.807 422.498 344.841 422.479 344.87C422.109 345.419 421.683 345.928 421.208 346.388ZM419.536 345.998C419.483 346.047 419.435 346.102 419.393 346.162C419.352 346.221 419.324 346.288 419.311 346.359C419.299 346.43 419.302 346.503 419.321 346.572C419.403 346.89 419.557 346.921 419.608 346.921C420.131 347.003 421.249 345.895 421.936 345.034C421.075 345.175 420.255 345.504 419.536 345.998Z" fill="#64CA95"/>
<path d="M422.438 344.904L422.356 344.955C421.505 345.181 419.28 345.037 418.809 344.319C418.738 344.205 418.708 344.07 418.723 343.936C418.738 343.802 418.797 343.677 418.891 343.581C418.979 343.477 419.087 343.392 419.208 343.33C419.33 343.269 419.462 343.232 419.598 343.222C420.726 343.14 422.356 344.586 422.428 344.647C422.453 344.668 422.471 344.696 422.48 344.727C422.489 344.758 422.489 344.791 422.479 344.822C422.477 344.853 422.462 344.883 422.438 344.904ZM419.229 343.755L419.167 343.817C419.024 343.991 419.085 344.083 419.106 344.124C419.383 344.545 420.941 344.781 421.905 344.668C421.268 344.092 420.477 343.714 419.629 343.581C419.486 343.592 419.351 343.654 419.249 343.755H419.229Z" fill="#64CA95"/>
<path d="M355.237 363.081C354.274 363.081 353.341 362.948 353.033 362.517C352.95 362.404 352.905 362.268 352.905 362.127C352.905 361.987 352.95 361.85 353.033 361.738C353.094 361.633 353.175 361.542 353.272 361.47C353.369 361.397 353.479 361.345 353.597 361.317C354.848 360.979 357.483 362.476 357.596 362.548C357.628 362.565 357.654 362.592 357.669 362.626C357.683 362.659 357.687 362.697 357.678 362.732C357.672 362.767 357.657 362.799 357.633 362.825C357.609 362.85 357.578 362.868 357.544 362.876C356.783 363.009 356.011 363.077 355.237 363.081ZM354.048 361.625C353.932 361.609 353.815 361.609 353.699 361.625C353.627 361.639 353.559 361.668 353.499 361.711C353.439 361.753 353.388 361.808 353.351 361.871C353.228 362.097 353.269 362.209 353.351 362.271C353.699 362.753 355.607 362.763 357.001 362.568C356.087 362.065 355.084 361.744 354.048 361.625Z" fill="#64CA95"/>
<path d="M357.514 362.877H357.442C356.54 362.467 354.735 360.826 354.868 359.986C354.868 359.78 355.043 359.534 355.535 359.483C355.718 359.463 355.903 359.479 356.079 359.532C356.255 359.585 356.419 359.673 356.56 359.791C357.514 360.58 357.719 362.61 357.729 362.692C357.728 362.724 357.721 362.755 357.706 362.784C357.692 362.812 357.672 362.837 357.647 362.856C357.627 362.869 357.605 362.877 357.582 362.88C357.56 362.884 357.536 362.883 357.514 362.877ZM355.678 359.801H355.576C355.248 359.801 355.227 359.955 355.227 359.996C355.145 360.508 356.365 361.79 357.278 362.344C357.189 361.483 356.83 360.671 356.253 360.027C356.089 359.897 355.887 359.824 355.678 359.821V359.801Z" fill="#64CA95"/>
<path d="M422.131 343.765L428.283 337.911C428.39 337.805 428.53 337.74 428.68 337.727C428.83 337.714 428.979 337.753 429.103 337.839L434.804 341.653C434.942 341.746 435.057 341.869 435.14 342.013C435.223 342.157 435.273 342.318 435.285 342.484C435.296 342.65 435.27 342.817 435.208 342.971C435.146 343.126 435.05 343.264 434.927 343.376C432.763 345.426 431.605 346.257 428.918 348.82C427.257 350.409 422.315 355.792 420.029 357.987C417.742 360.181 415.281 358.192 416.02 357.095C419.342 352.163 421.413 347.436 421.598 344.944C421.631 344.501 421.82 344.083 422.131 343.765Z" fill="#263238"/>
<path d="M358.314 361.83H366.517C366.665 361.829 366.81 361.88 366.926 361.973C367.042 362.067 367.122 362.197 367.152 362.343L368.639 369.038C368.676 369.199 368.677 369.366 368.64 369.527C368.603 369.688 368.53 369.839 368.426 369.967C368.322 370.096 368.19 370.199 368.041 370.269C367.891 370.339 367.728 370.374 367.562 370.371C364.589 370.371 360.303 370.156 356.571 370.156C352.213 370.156 348.45 370.392 343.334 370.392C340.258 370.392 339.386 367.264 340.678 366.977C346.564 365.696 351.383 365.552 356.468 362.415C357.017 362.051 357.656 361.849 358.314 361.83Z" fill="#263238"/>
<path d="M347.589 120.992C344.595 125.401 341.509 129.523 338.187 133.594C334.852 137.714 331.288 141.644 327.513 145.365L326.057 146.779L325.688 147.128L325.421 147.374L325.031 147.651C324.549 148.04 324.03 148.384 323.483 148.676C321.753 149.589 319.848 150.124 317.895 150.245C314.915 150.421 311.926 150.173 309.016 149.507C303.743 148.344 298.63 146.547 293.79 144.155L295.676 138.823C300.477 139.783 305.333 140.447 310.215 140.812C312.361 140.982 314.52 140.892 316.644 140.545C317.255 140.454 317.836 140.226 318.346 139.879C318.398 139.879 318.346 139.817 318.346 139.817L318.428 139.735L318.726 139.397L319.946 138.064C323.145 134.414 326.252 130.518 329.266 126.539C332.281 122.561 335.305 118.48 338.187 114.502L347.589 120.992Z" fill="#B55B52"/>
<path d="M388.766 105.609C395.82 107.229 403.92 126.474 403.92 126.474L389.74 136.195C386.218 131.134 383.095 125.806 380.399 120.261C376.195 111.453 381.548 103.948 388.766 105.609Z" fill="#64CA95"/>
<path opacity="0.3" d="M383.701 117.916L390.406 135.767L389.74 136.228C389.74 136.228 386.838 132.127 383.701 126.662V117.916Z" fill="black"/>
<path d="M346.564 105.99C346.564 105.99 338.546 115.044 346.123 171.099H386.408C386.685 164.947 382.799 134.741 388.766 105.601C384.31 104.744 379.803 104.175 375.273 103.899C369.57 103.57 363.853 103.57 358.15 103.899C354.239 104.293 350.365 104.992 346.564 105.99Z" fill="#64CA95"/>
<path opacity="0.3" d="M351.034 122.201C349.986 128.562 347.237 134.521 343.078 139.447C342.914 135.838 342.852 132.598 342.862 129.696L351.034 122.201Z" fill="black"/>
<path d="M354.509 112.103C355.535 119.229 341.447 137.449 341.447 137.449L327.328 127.729C327.328 127.729 331.244 117.691 337.837 111.108C345.374 103.562 353.433 104.341 354.509 112.103Z" fill="#64CA95"/>
<path d="M296.65 139.445L291.124 133.734L285.228 141.332C285.228 141.332 289.719 145.669 295.061 144.408L296.65 139.445Z" fill="#B55B52"/>
<path d="M283.536 130.557L281.003 138.534L285.228 141.302L291.123 133.704L283.536 130.557Z" fill="#B55B52"/>
<path d="M374.248 76.3298C373.787 83.7839 373.899 88.1826 370.147 92.0071C364.476 97.7695 355.269 94.3551 353.495 86.8804C351.885 80.1748 352.911 69.1011 360.211 66.1379C361.819 65.4772 363.569 65.2387 365.295 65.4452C367.022 65.6517 368.666 66.2963 370.073 67.3177C371.48 68.3391 372.602 69.7033 373.332 71.2807C374.063 72.8581 374.378 74.5962 374.248 76.3298Z" fill="#B55B52"/>
<path d="M380.738 60.7522C383.035 62.8644 382.061 65.2227 380.861 65.6636C384.583 66.4326 385.126 69.3958 383.168 75.6503C381.302 81.6383 376.78 89.6666 371.131 90.1588C362.641 90.897 360.159 82.0484 360.098 73.2715C355.299 73.5689 357.371 69.3137 351.475 70.2981C346.348 71.1491 348.276 67.1503 343.918 65.4072C338.863 63.3566 339.878 55.6153 344.595 57.8403C344.595 57.8403 342.411 59.2757 344.954 60.6292C347.497 61.9826 347.25 58.8553 352.285 58.476C357.319 58.0966 357.904 62.403 363.789 59.8089C371.172 56.5483 376.021 56.3945 380.738 60.7522Z" fill="#263238"/>
<path d="M377.908 65.6236C378.243 65.0866 378.742 64.672 379.331 64.4411C379.92 64.2102 380.568 64.1755 381.179 64.3419C383.486 64.8341 383.67 65.8491 385.116 65.7158C386.562 65.5826 386.039 67.1206 386.039 67.1206C386.039 67.1206 385.649 65.9619 383.906 66.6079C382.163 67.2538 381.025 65.6748 380.276 66.3823C379.528 67.0898 377.908 65.6236 377.908 65.6236Z" fill="#263238"/>
<path d="M364.117 78.3572C363.789 80.1851 362.862 81.8519 361.482 83.0942C359.657 84.7143 358.078 83.4121 358.016 81.1974C358.016 79.198 358.867 75.9374 360.969 75.1581C363.071 74.3789 364.496 76.1425 364.117 78.3572Z" fill="#B55B52"/>
<path d="M360.405 171.1C360.405 171.1 368.957 228.652 373.653 250.184C378.779 273.766 414.512 336.517 414.512 336.517L427.636 332.251C427.636 332.251 399.183 275.714 396.251 252.327C393.062 226.95 386.408 171.059 386.408 171.059L360.405 171.1Z" fill="#263238"/>
<path d="M410.841 332.417C410.79 332.417 413.846 337.01 413.846 337.01L428.59 332.212L426.857 327.803L410.841 332.417Z" fill="#64CA95"/>
<path opacity="0.3" d="M365.809 191.606C375.693 193.544 374.647 230.405 373.458 249.363C370.608 235.962 366.434 210.175 363.584 191.873C364.274 191.533 365.059 191.439 365.809 191.606Z" fill="black"/>
<path d="M346.122 171.1C346.122 171.1 345.097 227.421 345.896 250.389C346.747 274.279 355.124 352.512 355.124 352.512H367.89C367.89 352.512 368.351 275.673 368.915 252.214C369.53 226.58 372.617 171.1 372.617 171.1H346.122Z" fill="#263238"/>
<path d="M352.644 347.424C352.582 347.424 353.361 352.725 353.361 352.725H368.885L369.305 347.998L352.644 347.424Z" fill="#64CA95"/>
</svg>
