<svg width="24" height="24" viewBox="0 0 24 24" fill="none" xmlns="http://www.w3.org/2000/svg">
<path d="M14 4.1001L12 6.0001" stroke="#F6F6F8" stroke-width="2" stroke-linecap="round" stroke-linejoin="round"/>
<path d="M5.09922 8.0002L2.19922 7.2002" stroke="#F6F6F8" stroke-width="2" stroke-linecap="round" stroke-linejoin="round"/>
<path d="M5.99961 12L4.09961 14" stroke="#F6F6F8" stroke-width="2" stroke-linecap="round" stroke-linejoin="round"/>
<path d="M7.19922 2.2002L7.99922 5.1002" stroke="#F6F6F8" stroke-width="2" stroke-linecap="round" stroke-linejoin="round"/>
<path d="M9.03764 9.69015C8.99886 9.5988 8.98826 9.49795 9.0072 9.40054C9.02613 9.30313 9.07374 9.21359 9.14391 9.14342C9.21408 9.07325 9.30362 9.02564 9.40103 9.00671C9.49844 8.98777 9.59929 8.99837 9.69064 9.03715L20.6906 13.5372C20.7885 13.5773 20.8712 13.6475 20.9266 13.7376C20.9821 13.8277 21.0076 13.9331 20.9994 14.0386C20.9911 14.1441 20.9496 14.2443 20.8809 14.3247C20.8121 14.4051 20.7196 14.4616 20.6166 14.4862L16.2676 15.5272C16.0881 15.57 15.9239 15.6618 15.7933 15.7922C15.6627 15.9226 15.5708 16.0867 15.5276 16.2662L14.4876 20.6161C14.4634 20.7194 14.4069 20.8123 14.3264 20.8814C14.2459 20.9505 14.1455 20.9922 14.0397 21.0004C13.9339 21.0087 13.8283 20.983 13.738 20.9273C13.6477 20.8715 13.5776 20.7884 13.5376 20.6902L9.03764 9.69015Z" stroke="#F6F6F8" stroke-width="2" stroke-linecap="round" stroke-linejoin="round"/>
</svg>
