<svg width="24" height="24" viewBox="0 0 24 24" fill="none" xmlns="http://www.w3.org/2000/svg">
<path d="M10.5 3L8 9L12 22L16 9L13.5 3" stroke="black" stroke-width="2" stroke-linecap="round" stroke-linejoin="round"/>
<path d="M17.0003 3C17.3108 3 17.617 3.07229 17.8948 3.21115C18.1725 3.35 18.414 3.55161 18.6003 3.8L21.6003 7.8C21.8576 8.14316 21.9978 8.55995 22.0001 8.98885C22.0025 9.41776 21.8669 9.83605 21.6133 10.182L13.6233 21.168C13.4381 21.4255 13.1943 21.6352 12.912 21.7799C12.6297 21.9245 12.317 22 11.9998 22C11.6826 22 11.37 21.9245 11.0877 21.7799C10.8054 21.6352 10.5616 21.4255 10.3763 21.168L2.38633 10.182C2.13294 9.83594 1.99751 9.41759 2.00003 8.98869C2.00256 8.55979 2.14289 8.14306 2.40033 7.8L5.39833 3.803C5.58451 3.55379 5.82626 3.35144 6.10437 3.21204C6.38247 3.07264 6.68925 3.00004 7.00033 3H17.0003Z" stroke="black" stroke-width="2" stroke-linecap="round" stroke-linejoin="round"/>
<path d="M2 9H22" stroke="black" stroke-width="2" stroke-linecap="round" stroke-linejoin="round"/>
</svg>
