<svg width="24" height="24" viewBox="0 0 24 24" fill="none" xmlns="http://www.w3.org/2000/svg">
<path d="M15 21V16C15 15.7348 14.8946 15.4804 14.7071 15.2929C14.5196 15.1054 14.2652 15 14 15H10C9.73478 15 9.48043 15.1054 9.29289 15.2929C9.10536 15.4804 9 15.7348 9 16V21" stroke="black" stroke-width="2" stroke-linecap="round" stroke-linejoin="round"/>
<path d="M17.7749 10.31C17.5665 10.1104 17.289 9.99904 17.0004 9.99904C16.7118 9.99904 16.4344 10.1104 16.2259 10.31C15.7609 10.7535 15.143 11.001 14.5004 11.001C13.8578 11.001 13.2399 10.7535 12.7749 10.31C12.5665 10.1107 12.2893 9.99952 12.0009 9.99952C11.7126 9.99952 11.4353 10.1107 11.2269 10.31C10.7619 10.7538 10.1438 11.0014 9.50093 11.0014C8.8581 11.0014 8.23997 10.7538 7.77493 10.31C7.56647 10.1104 7.28902 9.99904 7.00043 9.99904C6.71184 9.99904 6.43439 10.1104 6.22593 10.31C5.77677 10.7386 5.1842 10.9848 4.56356 11.0005C3.94291 11.0163 3.33859 10.8006 2.86823 10.3954C2.39787 9.99015 2.09513 9.42439 2.01891 8.80824C1.9427 8.19209 2.09848 7.56962 2.45593 7.062L5.34493 2.878C5.52824 2.60751 5.77502 2.38605 6.06371 2.233C6.35239 2.07994 6.67418 1.99994 7.00093 2H17.0009C17.3267 1.99988 17.6476 2.07934 17.9357 2.23149C18.2238 2.38364 18.4703 2.60386 18.6539 2.873L21.5489 7.065C21.9065 7.57303 22.062 8.19597 21.9854 8.81244C21.9087 9.42891 21.6052 9.99475 21.1341 10.3997C20.663 10.8046 20.058 11.0197 19.437 11.0029C18.816 10.9861 18.2235 10.7388 17.7749 10.309" stroke="black" stroke-width="2" stroke-linecap="round" stroke-linejoin="round"/>
<path d="M4 10.95V19C4 19.5304 4.21071 20.0391 4.58579 20.4142C4.96086 20.7892 5.46957 21 6 21H18C18.5304 21 19.0391 20.7892 19.4142 20.4142C19.7893 20.0391 20 19.5304 20 19V10.95" stroke="black" stroke-width="2" stroke-linecap="round" stroke-linejoin="round"/>
</svg>
