<svg width="24" height="24" viewBox="0 0 24 24" fill="none" xmlns="http://www.w3.org/2000/svg">
<path d="M20 6H4C2.89543 6 2 6.89543 2 8V16C2 17.1046 2.89543 18 4 18H20C21.1046 18 22 17.1046 22 16V8C22 6.89543 21.1046 6 20 6Z" stroke="black" stroke-width="2" stroke-linecap="round" stroke-linejoin="round"/>
<path d="M13.8999 11.448H13.1479C13.0999 12.168 12.6439 12.592 12.0519 12.808L13.6679 15H12.3799L10.9159 13C10.8999 13 10.8839 13 10.8679 13H10.2039V12.176H10.9559C11.4679 12.176 11.9559 11.992 12.0199 11.448H10.2039V10.776H11.8599C11.6919 10.568 11.4119 10.448 11.0199 10.448H10.2039V9.736H13.8999V10.424H12.8919C12.9639 10.528 13.0199 10.64 13.0679 10.776H13.8999V11.448Z" fill="#010101"/>
<path d="M6 12H6.01M18 12H18.01" stroke="black" stroke-width="2" stroke-linecap="round" stroke-linejoin="round"/>
</svg>
