<svg width="22" height="22" viewBox="0 0 22 22" fill="none" xmlns="http://www.w3.org/2000/svg">
<path d="M16.3414 4.53911L14.1497 2.34746C13.8093 2.00691 13.3475 1.81553 12.866 1.81543H5.44665C4.96507 1.81543 4.50322 2.00674 4.16269 2.34726C3.82217 2.68779 3.63086 3.14964 3.63086 3.63122V18.1575C3.63086 18.6391 3.82217 19.101 4.16269 19.4415C4.50322 19.782 4.96507 19.9733 5.44665 19.9733H16.3414C16.823 19.9733 17.2848 19.782 17.6253 19.4415C17.9659 19.101 18.1572 18.6391 18.1572 18.1575" stroke="#333333" stroke-width="1.81579" stroke-linecap="round" stroke-linejoin="round"/>
<path d="M19.4082 11.4631C19.7698 11.1014 19.973 10.6109 19.973 10.0994C19.973 9.58793 19.7698 9.09741 19.4082 8.73574C19.0465 8.37408 18.556 8.1709 18.0445 8.1709C17.533 8.1709 17.0425 8.37408 16.6809 8.73574L13.0402 12.3782C12.8243 12.594 12.6663 12.8606 12.5808 13.1536L11.8209 15.7592C11.7981 15.8373 11.7967 15.9202 11.8169 15.999C11.8371 16.0778 11.8781 16.1498 11.9357 16.2073C11.9932 16.2649 12.0652 16.3059 12.144 16.3261C12.2229 16.3463 12.3057 16.3449 12.3838 16.3221L14.9894 15.5622C15.2824 15.4767 15.5491 15.3187 15.7648 15.1028L19.4082 11.4631Z" stroke="#333333" stroke-width="1.81579" stroke-linecap="round" stroke-linejoin="round"/>
<path d="M7.26367 16.3423H8.17157" stroke="#333333" stroke-width="1.81579" stroke-linecap="round" stroke-linejoin="round"/>
</svg>
