<svg width="24" height="24" viewBox="0 0 24 24" fill="none" xmlns="http://www.w3.org/2000/svg">
<path d="M13.5 9V7.5C13.5 7.10218 13.342 6.72064 13.0607 6.43934C12.7794 6.15804 12.3978 6 12 6C11.6022 6 11.2206 6.15804 10.9393 6.43934C10.658 6.72064 10.5 7.10218 10.5 7.5V9" stroke="black" stroke-width="1.5" stroke-linecap="round" stroke-linejoin="round"/>
<path d="M14.25 9H9.75C9.33579 9 9 9.33579 9 9.75V12C9 12.4142 9.33579 12.75 9.75 12.75H14.25C14.6642 12.75 15 12.4142 15 12V9.75C15 9.33579 14.6642 9 14.25 9Z" stroke="black" stroke-width="1.5" stroke-linecap="round" stroke-linejoin="round"/>
<path d="M14 21V18C14 17.4696 13.7893 16.9609 13.4142 16.5858C13.0391 16.2107 12.5304 16 12 16C11.4696 16 10.9609 16.2107 10.5858 16.5858C10.2107 16.9609 10 17.4696 10 18V21" stroke="black" stroke-width="2" stroke-linecap="round" stroke-linejoin="round"/>
<path d="M6 10H4C3.46957 10 2.96086 10.2107 2.58579 10.5858C2.21071 10.9609 2 11.4696 2 12V19C2 19.5304 2.21071 20.0391 2.58579 20.4142C2.96086 20.7893 3.46957 21 4 21H20C20.5304 21 21.0391 20.7893 21.4142 20.4142C21.7893 20.0391 22 19.5304 22 19V9C22 8.46957 21.7893 7.96086 21.4142 7.58579C21.0391 7.21071 20.5304 7 20 7H18" stroke="black" stroke-width="2" stroke-linecap="round" stroke-linejoin="round"/>
<path d="M6 21V5C6 4.46957 6.21071 3.96086 6.58579 3.58579C6.96086 3.21071 7.46957 3 8 3H16C16.5304 3 17.0391 3.21071 17.4142 3.58579C17.7893 3.96086 18 4.46957 18 5V21" stroke="black" stroke-width="2" stroke-linecap="round" stroke-linejoin="round"/>
</svg>
