<svg width="53" height="34" viewBox="0 0 53 34" fill="none" xmlns="http://www.w3.org/2000/svg">
<path d="M45.8201 12.76C47.7534 13.4045 49.3001 14.5645 50.4601 16.24C51.6201 17.7867 52.2001 19.5267 52.2001 21.4601C52.329 23.3934 51.8135 25.3267 50.6535 27.2601C49.6223 29.0645 47.9468 30.6112 45.6268 31.9001C41.889 33.8334 38.6023 34.349 35.7668 33.4468C32.9312 32.4156 30.9334 30.869 29.7734 28.8067C29.129 27.7756 28.6134 26.3578 28.2267 24.5534C27.969 22.7489 27.8401 20.8801 27.8401 18.9467C27.969 16.8845 28.2267 14.8867 28.6134 12.9534C29.0001 11.02 29.5801 9.40891 30.3534 8.12002C30.9979 7.2178 31.7712 6.25113 32.6734 5.22001C33.4467 4.31779 34.349 3.41556 35.3801 2.51334C36.5401 1.61112 37.829 0.773335 39.2468 0L46.0134 0.386668C45.1112 1.41778 44.2734 2.38445 43.5001 3.28667C42.8557 4.06001 42.2757 4.7689 41.7601 5.41335C41.2445 6.05779 40.729 6.63779 40.2134 7.15335C39.3112 8.05558 38.6023 8.9578 38.0868 9.86002C37.5712 10.6334 37.1201 11.4711 36.7334 12.3734C36.4756 13.2756 36.4756 14.1778 36.7334 15.08C38.409 13.2756 40.3423 12.3734 42.5334 12.3734C43.5645 12.3734 44.6601 12.5023 45.8201 12.76ZM19.14 13.7267C20.9445 14.7578 22.2334 16.1756 23.0067 17.98C23.9089 19.6556 24.2312 21.4601 23.9734 23.3934C23.7156 25.3267 22.8778 27.1312 21.4601 28.8067C20.1712 30.4823 18.2378 31.7712 15.66 32.6734C11.6645 33.9623 8.3778 33.8979 5.80001 32.4801C3.22223 30.9334 1.48223 29.0645 0.580001 26.8734C0.193334 25.7134 0 24.2312 0 22.4267C0 20.6223 0.193334 18.7534 0.580001 16.82C0.966669 14.8867 1.48223 13.0178 2.12667 11.2134C2.77112 9.40891 3.6089 7.92669 4.64001 6.76668C5.41335 5.86446 6.31557 5.02668 7.34668 4.25334C8.24891 3.6089 9.28002 2.90001 10.44 2.12667C11.7289 1.35334 13.1467 0.644446 14.6934 0L21.4601 1.74C20.4289 2.64223 19.4623 3.41556 18.56 4.06001C17.7867 4.70446 17.0778 5.28446 16.4334 5.80001C15.7889 6.31557 15.1445 6.83113 14.5 7.34668C13.5978 8.12002 12.8245 8.89336 12.18 9.66669C11.5356 10.3111 10.9556 11.0845 10.44 11.9867C9.92447 12.76 9.73113 13.5978 9.86002 14.5C10.8911 13.7267 11.9223 13.2756 12.9534 13.1467C14.1134 12.8889 15.1445 12.8245 16.0467 12.9534C17.0778 13.0823 18.1089 13.34 19.14 13.7267Z" fill="#606060"/>
</svg>
