<svg width="22" height="22" viewBox="0 0 22 22" fill="none" xmlns="http://www.w3.org/2000/svg">
<path d="M9.24657 10.5669H4.40329M4.32874 10.8236L2.27262 16.9655C2.11109 17.448 2.03032 17.6893 2.08828 17.8379C2.13862 17.9669 2.24672 18.0647 2.38011 18.1019C2.53372 18.1448 2.76573 18.0404 3.22975 17.8316L17.9458 11.2094C18.3987 11.0056 18.6252 10.9037 18.6952 10.7621C18.756 10.6391 18.756 10.4948 18.6952 10.3718C18.6252 10.2302 18.3987 10.1283 17.9458 9.92452L3.22462 3.30001C2.762 3.09184 2.53069 2.98775 2.37724 3.03045C2.24397 3.06753 2.13587 3.16509 2.08536 3.29387C2.02721 3.44216 2.10711 3.68289 2.26691 4.16436L4.32931 10.3781C4.35676 10.4608 4.37048 10.5021 4.3759 10.5444C4.38071 10.5819 4.38066 10.6199 4.37576 10.6574C4.37023 10.6997 4.3564 10.741 4.32874 10.8236Z" stroke="url(#paint0_linear_2769_2721)" stroke-width="1.76119" stroke-linecap="round" stroke-linejoin="round"/>
<defs>
<linearGradient id="paint0_linear_2769_2721" x1="10.4036" y1="3.021" x2="10.4036" y2="18.1114" gradientUnits="userSpaceOnUse">
<stop stop-color="#2E3539"/>
<stop offset="1" stop-color="#2E3539" stop-opacity="0.22"/>
</linearGradient>
</defs>
</svg>
