<svg width="22" height="22" viewBox="0 0 22 22" fill="none" xmlns="http://www.w3.org/2000/svg">
<g clip-path="url(#clip0_2769_2739)">
<path d="M10.8945 11.8027V19.0659" stroke="#333333" stroke-width="1.81579" stroke-linecap="round" stroke-linejoin="round"/>
<path d="M3.6318 13.5267C2.95727 12.8375 2.44842 12.0039 2.14379 11.0889C1.83916 10.174 1.74674 9.20171 1.87353 8.24574C2.00032 7.28978 2.343 6.37521 2.87561 5.5713C3.40821 4.76739 4.11678 4.09522 4.94764 3.60572C5.7785 3.11622 6.70986 2.82221 7.67117 2.74597C8.63249 2.66973 9.59855 2.81325 10.4962 3.16567C11.3938 3.51809 12.1995 4.07016 12.8521 4.78007C13.5048 5.48998 13.9874 6.3391 14.2632 7.26313H15.8884C16.765 7.26303 17.6183 7.54487 18.3224 8.06701C19.0265 8.58916 19.544 9.32393 19.7985 10.1628C20.0529 11.0016 20.0308 11.9 19.7354 12.7254C19.44 13.5507 18.887 14.2591 18.1581 14.746" stroke="#333333" stroke-width="1.81579" stroke-linecap="round" stroke-linejoin="round"/>
<path d="M7.26367 15.4343L10.8953 11.8027L14.5268 15.4343" stroke="#333333" stroke-width="1.81579" stroke-linecap="round" stroke-linejoin="round"/>
</g>
<defs>
<clipPath id="clip0_2769_2739">
<rect width="21.7895" height="21.7895" fill="white"/>
</clipPath>
</defs>
</svg>
